<?xml version="1.0" standalone="no"?>
<!DOCTYPE svg PUBLIC "-//W3C//DTD SVG 1.1//EN" "http://www.w3.org/Graphics/SVG/1.1/DTD/svg11.dtd" >
<svg>
<metadata>
Created by FontForge 20090914 at Sun Feb 21 07:01:23 2021
 By www-data
</metadata>
<defs>
<font id="Focus-Regular" horiz-adv-x="769" >
  <font-face 
    font-family="Focus"
    font-weight="400"
    font-stretch="normal"
    units-per-em="1000"
    panose-1="0 0 0 0 0 0 0 0 0 0"
    ascent="500"
    descent="-500"
    x-height="257.5"
    cap-height="740"
    bbox="-78.002 -739.998 1092 1061"
    underline-thickness="50"
    underline-position="-50"
    unicode-range="U+000D-U+FB02"
  />
<missing-glyph horiz-adv-x="500" 
d="M63 0v500h375v-500h-375zM125 63h250v375h-250v-375z" />
    <glyph glyph-name=".notdef" horiz-adv-x="500" 
d="M63 0v500h375v-500h-375zM125 63h250v375h-250v-375z" />
    <glyph glyph-name="NULL" horiz-adv-x="0" 
 />
    <glyph glyph-name="NULL" horiz-adv-x="0" 
 />
    <glyph glyph-name="nonmarkingreturn" unicode="&#xd;" horiz-adv-x="0" 
 />
    <glyph glyph-name="space" unicode=" " horiz-adv-x="343" 
 />
    <glyph glyph-name="exclam" unicode="!" horiz-adv-x="265" 
d="M107 -100c-9.33301 0 -17.166 3.16699 -23.499 9.5s-9.5 14.166 -9.5 23.499v779c0 9.33301 3.16699 17.166 9.5 23.499s14.166 9.5 23.499 9.5s17 -3.16699 23 -9.5s9 -14.166 9 -23.499v-779c0 -9.33301 -3 -17.166 -9 -23.499s-13.667 -9.5 -23 -9.5zM68 -216
c0 10.667 3.66699 19.834 11 27.501s16.666 11.5 27.999 11.5c10.667 0 19.834 -3.83301 27.501 -11.5s11.5 -16.834 11.5 -27.501c0 -11.333 -3.83301 -20.666 -11.5 -27.999s-16.834 -11 -27.501 -11c-11.333 0 -20.666 3.66699 -27.999 11s-11 16.666 -11 27.999z" />
    <glyph glyph-name="quotedbl" unicode="&#x22;" horiz-adv-x="367" 
d="M99 483c-8.66699 0 -15.834 2.83301 -21.501 8.5s-8.5 12.834 -8.5 21.501v197c0 8.66699 2.83301 15.834 8.5 21.501s12.834 8.5 21.501 8.5c8 0 15 -2.83301 21 -8.5s9 -12.834 9 -21.501v-197c0 -8.66699 -3 -15.834 -9 -21.501s-13 -8.5 -21 -8.5zM215 483
c-8 0 -15 2.83301 -21 8.5s-9 12.834 -9 21.501v197c0 8.66699 3 15.834 9 21.501s13 8.5 21 8.5c8.66699 0 15.834 -2.83301 21.501 -8.5s8.5 -12.834 8.5 -21.501v-197c0 -8.66699 -2.83301 -15.834 -8.5 -21.501s-12.834 -8.5 -21.501 -8.5z" />
    <glyph glyph-name="numbersign" unicode="#" horiz-adv-x="666" 
d="M366 38l19 93h-183l-18 -93h182zM532 38c8.66699 0 16.0029 -3.00195 22.0029 -9.00195s9 -13.333 9 -22c0 -9.33301 -3 -17 -9 -23s-13.333 -9 -22 -9h-113l-42 -210c-1.33301 -7.33301 -5 -13.333 -11 -18s-12.667 -7 -20 -7h-6c-8.66699 2 -15.334 6.66699 -20.001 14
s-6.33398 15.333 -5.00098 24l39 197h-183l-41 -210c-1.33301 -7.33301 -5 -13.333 -11 -18s-12.667 -7 -20 -7h-6c-8.66699 2 -15.334 6.66699 -20.001 14s-6.33398 15.333 -5.00098 24l39 197h-70c-8.66699 0 -16.167 3 -22.5 9s-9.5 13.667 -9.5 23
c0 8.66699 3.16699 16 9.5 22s13.833 9 22.5 9h82l19 93h-101c-9.33301 0 -17 3.16699 -23 9.5s-9 13.833 -9 22.5c0 9.33301 3 17 9 23s13.667 9 23 9h113l41 209c1.33301 8.66699 5.66602 15.5 12.999 20.5s15.666 6.5 24.999 4.5
c8.66699 -1.33301 15.334 -5.66602 20.001 -12.999s6.33398 -15.333 5.00098 -24l-39 -197h182l42 209c1.33301 8.66699 5.66602 15.5 12.999 20.5s15.333 6.5 24 4.5c8.66699 -1.33301 15.334 -5.66602 20.001 -12.999s6.33398 -15.333 5.00098 -24l-39 -197h70
c8.66699 0 16 -3 22 -9s9 -13.667 9 -23c0 -8.66699 -3 -16.167 -9 -22.5s-13.333 -9.5 -22 -9.5h-83l-18 -93h101z" />
    <glyph glyph-name="percent" unicode="%" horiz-adv-x="549" 
d="M27 -255c-5.33301 0 -10.666 1.66895 -15.999 5.00195c-7.33301 4.66699 -12.166 11 -14.499 19s-1.16602 15.667 3.50098 23l365 617c4.66699 7.33301 11.167 12.166 19.5 14.499s16.166 1.16602 23.499 -3.50098s12.166 -11 14.499 -19s1.16602 -15.667 -3.50098 -23
l-365 -617c-6.66699 -10.667 -15.667 -16 -27 -16zM119 208.002c-15.333 0 -29.666 3 -42.999 9s-25 14 -35 24s-18 21.667 -24 35s-9 27.666 -9 42.999c0 14.667 3 28.834 9 42.501s14 25.5 24 35.5s21.667 18 35 24s27.666 9 42.999 9s29.833 -3 43.5 -9
s25.5 -14 35.5 -24s17.833 -21.833 23.5 -35.5s8.5 -27.834 8.5 -42.501c0 -15.333 -2.83301 -29.666 -8.5 -42.999s-13.5 -25 -23.5 -35s-21.833 -18 -35.5 -24s-28.167 -9 -43.5 -9zM119 368.002c-13.333 0 -24.666 -4.83301 -33.999 -14.5s-14 -21.167 -14 -34.5
s4.66699 -24.833 14 -34.5s20.666 -14.5 33.999 -14.5s24.833 4.83301 34.5 14.5s14.5 21.167 14.5 34.5s-4.83301 24.833 -14.5 34.5s-21.167 14.5 -34.5 14.5zM296 -259.998c-15.333 0 -29.666 3 -42.999 9s-25 14 -35 24s-18 21.667 -24 35s-9 27.666 -9 42.999
c0 14.667 3 28.834 9 42.501s14 25.5 24 35.5s21.667 18 35 24s27.666 9 42.999 9c14.667 0 28.834 -3 42.501 -9s25.5 -14 35.5 -24s18 -21.833 24 -35.5s9 -27.834 9 -42.501c0 -15.333 -3 -29.666 -9 -42.999s-14 -25 -24 -35s-21.833 -18 -35.5 -24
s-27.834 -9 -42.501 -9zM296 -99.998c-13.333 0 -24.833 -4.83301 -34.5 -14.5s-14.5 -21.167 -14.5 -34.5s4.83301 -24.833 14.5 -34.5s21.167 -14.5 34.5 -14.5s24.833 4.83301 34.5 14.5s14.5 21.167 14.5 34.5s-4.83301 24.833 -14.5 34.5s-21.167 14.5 -34.5 14.5z" />
    <glyph glyph-name="ampersand" unicode="&#x26;" horiz-adv-x="733" 
d="M295 -188c65.333 0 120.667 13.999 166 41.999l-286 376c-9.33301 -3.33301 -18 -7 -26 -11s-15.667 -8.33301 -23 -13c-41.333 -26 -62 -56 -62 -90v-169c0 -33.333 20.667 -63.666 62 -90.999c22 -14 47.667 -24.833 77 -32.5s60 -11.5 92 -11.5zM202.001 307.999
c14 3.33301 28.667 5.5 44 6.5s30.666 2.16699 45.999 3.5h3h6c20.667 0 40.5 2.66699 59.5 8s35.5 12.666 49.5 21.999c7.33301 5.33301 15.666 12.5 24.999 21.5s14 20.167 14 33.5v110c0 13.333 -4.66699 24.666 -14 33.999s-17.666 16.333 -24.999 21
c-31.333 20 -69.666 30 -114.999 30c-21.333 0 -42 -2.66699 -62 -8s-37.333 -12.666 -52 -21.999c-7.33301 -4.66699 -15.666 -11.667 -24.999 -21s-14 -20.666 -14 -33.999v-110c0 -1.33301 -0.333008 -2.33301 -1 -3c0.666992 -0.666992 1.66699 -4 3 -10
s5.66602 -13.667 12.999 -23zM588.001 -201.001c6 -7.33301 8.33496 -15.835 7.00195 -25.502s-5.66602 -17.167 -12.999 -22.5c-4.66699 -4.66699 -11.667 -7 -21 -7c-11.333 0 -20.333 4.33301 -27 13l-31 42h-1c-57.333 -36.667 -126.333 -55 -207 -55
c-38.667 0 -75.667 4.66699 -111 14s-67 23 -95 41c-30 20 -52.333 41 -67 63c-18 26.667 -27 55 -27 85v169c0 30 9 58 27 84c16.667 26.667 39 48 67 64c7.33301 4.66699 14.5 8.66699 21.5 12s14.5 6.66602 22.5 9.99902l-31 40c-14 18.667 -22.333 35 -25 49
s-4 23.667 -4 29v109c0 22 6.16699 42.667 18.5 62s29.833 36.333 52.5 51c20.667 13.333 44 23.333 70 30s53 10 81 10c28.667 0 56 -3.33301 82 -10s49.333 -16.667 70 -30c22.667 -14.667 40 -31.667 52 -51s18 -40 18 -62v-110c0 -22 -6 -42.833 -18 -62.5
s-29.333 -36.5 -52 -50.5c-40.667 -25.333 -89.667 -38.666 -147 -39.999c-0.666992 0 -1.33398 -0.166992 -2.00098 -0.5s-1.33398 -0.5 -2.00098 -0.5c-1.33301 0 -2.5 0.166992 -3.5 0.5s-2.16699 0.5 -3.5 0.5c-14.667 0 -28.334 -1 -41.001 -3l264 -347
c10 14.667 15 30.334 15 47.001v168c0 9.33301 3.33301 17.333 10 24s14.667 10 24 10s17.333 -3.33301 24 -10s10 -14.667 10 -24v-168c0 -14.667 -2 -29.167 -6 -43.5s-10.667 -28.166 -20 -41.499l-14 -19z" />
    <glyph glyph-name="quotesingle" unicode="'" horiz-adv-x="251" 
d="M99 483c-8.66699 0 -15.834 2.83301 -21.501 8.5s-8.5 12.834 -8.5 21.501v197c0 8.66699 2.83301 15.834 8.5 21.501s12.834 8.5 21.501 8.5c8 0 15 -2.83301 21 -8.5s9 -12.834 9 -21.501v-197c0 -8.66699 -3 -15.834 -9 -21.501s-13 -8.5 -21 -8.5z" />
    <glyph glyph-name="parenleft" unicode="(" horiz-adv-x="316" 
d="M229 -255c-1.33301 0 -5.33203 0.666992 -11.999 2c-44.667 16.667 -80 39 -106 67c-29.333 31.333 -44 66.333 -44 105v652c0 38.667 14.667 73.667 44 105c26 28 61.333 50.333 106 67c8.66699 3.33301 17.167 3 25.5 -1s14.166 -10.333 17.499 -19s3 -17 -1 -25
s-10.333 -13.667 -19 -17c-34 -12.667 -60.333 -28.667 -79 -48s-28 -40 -28 -62v-652c0 -22 9.33301 -42.667 28 -62s45 -35.333 79 -48c8.66699 -3.33301 15 -9 19 -17s4.33301 -16.333 1 -25c-6 -14.667 -16.333 -22 -31 -22z" />
    <glyph glyph-name="parenright" unicode=")" horiz-adv-x="383" 
d="M100 -255c-6.66699 0 -12.832 1.83496 -18.499 5.50195s-9.83398 9.16699 -12.501 16.5c-3.33301 8.66699 -3 17 1 25s10.333 13.667 19 17c34 12.667 60.333 28.667 79 48s28 40 28 62v652c0 22 -9.33301 42.667 -28 62s-45 35.333 -79 48
c-8.66699 3.33301 -15 9 -19 17s-4.33301 16.333 -1 25s9 15 17 19s16.333 4.33301 25 1c22 -8.66699 41.833 -18.334 59.5 -29.001s33.167 -23.334 46.5 -38.001c30 -32 45 -67 45 -105v-652c0 -38 -15 -73 -45 -105c-26.667 -28.667 -62 -51 -106 -67
c-5.33301 -1.33301 -9 -2 -11 -2z" />
    <glyph glyph-name="asterisk" unicode="*" horiz-adv-x="480" 
d="M314 597c9.33301 0 16.9971 -3 22.9971 -9s9 -13.667 9 -23s-3 -17 -9 -23s-13.667 -9 -23 -9h-57l41 -41c6 -6 9 -13.333 9 -22s-3 -16.334 -9 -23.001c-7.33301 -6 -15 -9 -23 -9c-8.66699 0 -16 3 -22 9l-41 41v-57c0 -9.33301 -3 -17 -9 -23s-13.667 -9 -23 -9
s-17 3 -23 9s-9 13.667 -9 23v57l-41 -41c-6 -6 -13.333 -9 -22 -9s-16.334 3 -23.001 9c-6 6.66699 -9 14.334 -9 23.001s3 16 9 22l41 41h-57c-9.33301 0 -17 3 -23 9s-9 13.667 -9 23s3 17 9 23s13.667 9 23 9h57l-41 41c-6 6 -9.16699 13.333 -9.5 22
s2.83398 16.334 9.50098 23.001s14.334 9.83398 23.001 9.50098s16 -3.5 22 -9.5l41 -41v57c0 9.33301 3 17 9 23s13.667 9 23 9s17 -3 23 -9s9 -13.667 9 -23v-57l41 41c6 6 13.333 9.16699 22 9.5s16.334 -2.83398 23.001 -9.50098s9.83398 -14.334 9.50098 -23.001
s-3.5 -16 -9.5 -22l-41 -41h57z" />
    <glyph glyph-name="plus" unicode="+" horiz-adv-x="590" 
d="M445 18c9.33301 0 17 -3.16699 23 -9.5s9 -14.166 9 -23.499s-3 -17.166 -9 -23.499s-13.667 -9.5 -23 -9.5h-172v-172c0 -9.33301 -3.16699 -17 -9.5 -23s-14.166 -9 -23.499 -9s-17.166 3 -23.499 9s-9.5 13.667 -9.5 23v172h-172c-9.33301 0 -17 3.16699 -23 9.5
s-9 14.166 -9 23.499s3 17.166 9 23.499s13.667 9.5 23 9.5h172v172c0 9.33301 3.16699 17 9.5 23s14.166 9 23.499 9s17.166 -3 23.499 -9s9.5 -13.667 9.5 -23v-172h172z" />
    <glyph glyph-name="comma" unicode="," horiz-adv-x="286" 
d="M58 -400c-12 0 -20.6641 5 -25.9971 15c-4 7.33301 -4.83301 15 -2.5 23s7.16602 14 14.499 18c29.333 15.333 53.666 38 72.999 68c9.33301 14.667 16.166 30.167 20.499 46.5s6.5 32.833 6.5 49.5c0 8.66699 2.83301 15.834 8.5 21.501s12.834 8.5 21.501 8.5
c8 0 14.833 -2.83301 20.5 -8.5s8.5 -12.834 8.5 -21.501c0 -46.667 -12 -89 -36 -127c-23.333 -38 -55 -67.667 -95 -89c-2.66699 -2.66699 -7.33398 -4 -14.001 -4z" />
    <glyph glyph-name="hyphen" unicode="-" horiz-adv-x="489" 
d="M99 -45c-8.66699 0 -15.834 2.83301 -21.501 8.5s-8.5 12.834 -8.5 21.501s2.83301 15.834 8.5 21.501s12.834 8.5 21.501 8.5h223c8.66699 0 15.834 -2.83301 21.501 -8.5s8.5 -12.834 8.5 -21.501s-2.83301 -15.834 -8.5 -21.501s-12.834 -8.5 -21.501 -8.5h-223z" />
    <glyph glyph-name="period" unicode="." horiz-adv-x="234" 
d="M68 -216c0 10.667 3.66699 19.834 11 27.501s16.666 11.5 27.999 11.5c10.667 0 19.834 -3.83301 27.501 -11.5s11.5 -16.834 11.5 -27.501c0 -11.333 -3.83301 -20.666 -11.5 -27.999s-16.834 -11 -27.501 -11c-11.333 0 -20.666 3.66699 -27.999 11
s-11 16.666 -11 27.999z" />
    <glyph glyph-name="slash" unicode="/" horiz-adv-x="455" 
d="M37 -255c-5.33301 0 -10.666 1.66895 -15.999 5.00195c-7.33301 4.66699 -12.166 11 -14.499 19s-1.16602 15.667 3.50098 23l365 617c4.66699 7.33301 11.167 12.166 19.5 14.499s16.166 1.16602 23.499 -3.50098s12.166 -11 14.499 -19s1.16602 -15.667 -3.50098 -23
l-365 -617c-6.66699 -10.667 -15.667 -16 -27 -16z" />
    <glyph glyph-name="zero" unicode="0" 
d="M599 552c0 7.33301 -0.999023 14.667 -2.99902 22l-380 -722l11 -8c20.667 -15.333 44.667 -26 72 -32s56 -9 86 -9c61.333 0 113.666 13.667 156.999 41c38 24.667 57 52.667 57 84v624zM170.001 -71.999c0 -8 0.999023 -15.333 2.99902 -22l380 722
c-3.33301 3.33301 -7 6 -11 8c-43.333 27.333 -95.666 41 -156.999 41c-30 0 -58.5 -3.5 -85.5 -10.5s-51.167 -17.167 -72.5 -30.5c-38 -23.333 -57 -51.333 -57 -84v-624zM638 631.001c16.667 -25.333 25 -51.667 25 -79v-624c0 -27.333 -8.33301 -53.666 -25 -78.999
c-7.33301 -11.333 -16.333 -21.833 -27 -31.5s-22.334 -18.5 -35.001 -26.5c-26.667 -16.667 -56.167 -29.334 -88.5 -38.001s-66.5 -13 -102.5 -13s-70.5 4.33301 -103.5 13s-62.5 21.334 -88.5 38.001c-13.333 8 -25.166 16.833 -35.499 26.5s-19.166 20.167 -26.499 31.5
c-8.66699 12.667 -14.834 25.5 -18.501 38.5s-5.5 26.5 -5.5 40.5v624c0 13.333 1.83301 26.666 5.5 39.999s9.83398 26.333 18.501 39c7.33301 11.333 16.166 21.833 26.499 31.5s22.166 18.5 35.499 26.5c26 16.667 55.5 29.334 88.5 38.001s67.5 13 103.5 13
s70.167 -4.33301 102.5 -13s61.833 -21.334 88.5 -38.001c12.667 -8 24.334 -16.833 35.001 -26.5s19.667 -20.167 27 -31.5z" />
    <glyph glyph-name="one" unicode="1" 
d="M508 -260c-8.66699 0 -16.167 3 -22.5 9s-9.5 13.667 -9.5 23v845l-190 -241c-6 -7.33301 -13.167 -11.333 -21.5 -12s-15.833 1.66602 -22.5 6.99902c-7.33301 5.33301 -11.5 12.333 -12.5 21s1.16699 16.334 6.5 23.001l247 313c10 12 21.667 15.333 35 10
c14.667 -4.66699 22 -14.667 22 -30v-936c0 -9.33301 -3.16699 -17 -9.5 -23s-13.833 -9 -22.5 -9z" />
    <glyph glyph-name="two" unicode="2" 
d="M138 -260c-8.66699 0 -16.002 3.00195 -22.002 9.00195s-9 13.667 -9 23v234c0 36 7 70 21 102s34.333 60.667 61 86c26 25.333 55.667 44.666 89 57.999s69 20 107 20c29.333 0 57 5.33301 83 16s48.667 25.167 68 43.5s34.666 39.666 45.999 63.999s17 50.5 17 78.5
s-5.66699 54.333 -17 79s-26.666 46.167 -45.999 64.5s-42 32.833 -68 43.5s-53.667 16 -83 16c-30 0 -58 -5.33301 -84 -16s-48.667 -25.167 -68 -43.5s-34.666 -39.833 -45.999 -64.5s-17 -51 -17 -79c0 -8.66699 -3 -16 -9 -22s-13.667 -9 -23 -9c-8.66699 0 -16 3 -22 9
s-9 13.333 -9 22c0 36 7 70.167 21 102.5s34.333 61.166 61 86.499c26 25.333 55.667 44.5 89 57.5s69 19.5 107 19.5s73.5 -6.5 106.5 -19.5s62.833 -32.167 89.5 -57.5s47 -54.166 61 -86.499s21 -66.5 21 -102.5s-7 -70 -21 -102s-34.333 -60.667 -61 -86
c-54 -52 -119.333 -78 -196 -78c-30 0 -58 -5.33301 -84 -16s-48.667 -25 -68 -43s-34.666 -39.333 -45.999 -64s-17 -51 -17 -79v-203h461c9.33301 0 17 -3 23 -9s9 -13.333 9 -22c0 -9.33301 -3 -17 -9 -23s-13.667 -9 -23 -9h-493z" />
    <glyph glyph-name="three" unicode="3" 
d="M597 223c29.333 -28 51.333 -59.3311 66 -93.998s22 -71.334 22 -110.001s-7.33301 -75.334 -22 -110.001s-36.667 -66 -66 -94c-28 -27.333 -60.333 -48 -97 -62s-75 -21 -115 -21s-78.333 7 -115 21s-69 34.667 -97 62c-28.667 28 -50.667 59.333 -66 94
s-23 71.334 -23 110.001c0 9.33301 3 17 9 23s13.667 9 23 9c8.66699 0 16 -3 22 -9s9 -13.667 9 -23c0 -31.333 6.33301 -60.5 19 -87.5s29.667 -50.667 51 -71s46.5 -36.333 75.5 -48s59.833 -17.5 92.5 -17.5s63.334 5.83301 92.001 17.5s53.667 27.667 75 48
s38.333 44 51 71s19 56.167 19 87.5c0 30.667 -6.33301 59.667 -19 87s-29.667 51.166 -51 71.499s-46.333 36.333 -75 48s-59.334 17.5 -92.001 17.5h-4c-8 1.33301 -14.667 4.83301 -20 10.5s-8 12.834 -8 21.501s3 16 9 22s13.667 9 23 9
c26.667 0 51.667 4.83301 75 14.5s43.666 22.667 60.999 39s31 35.5 41 57.5s15 45.333 15 70s-5 48.167 -15 70.5s-23.667 41.666 -41 57.999s-37.666 29.333 -60.999 39s-48.333 14.5 -75 14.5s-51.667 -4.83301 -75 -14.5s-43.833 -22.667 -61.5 -39
s-31.5 -35.666 -41.5 -57.999s-15 -45.833 -15 -70.5c0 -8.66699 -3 -16 -9 -22s-13.333 -9 -22 -9c-9.33301 0 -17 3 -23 9s-9 13.333 -9 22c0 34 6.66699 65.833 20 95.5s31.666 55.5 54.999 77.5s50.5 39.5 81.5 52.5s64.167 19.5 99.5 19.5s68.5 -6.5 99.5 -19.5
s58 -30.5 81 -52.5s41.167 -47.833 54.5 -77.5s20 -61.5 20 -95.5c0 -44.667 -11.167 -85.334 -33.5 -122.001s-52.5 -65.667 -90.5 -87c14.667 -7.33301 28.834 -15.333 42.501 -24s26.5 -19 38.5 -31z" />
    <glyph glyph-name="four" unicode="4" 
d="M508 -260c-9.33301 0 -16.9971 3 -22.9971 9s-9 13.667 -9 23l1 202h-339c-11.333 0 -20.333 5.33301 -27 16c-6.66699 10 -7 20.333 -1 31l372 702c3.33301 6.66699 8.16602 11.5 14.499 14.5s13.166 3.5 20.499 1.5c7.33301 -1.33301 13.166 -5 17.499 -11
s6.5 -12.667 6.5 -20l-1 -671h91c9.33301 0 17 -3 23 -9s9 -13.333 9 -22c0 -9.33301 -3 -17 -9 -23s-13.667 -9 -23 -9h-91l-1 -202c0 -9.33301 -3 -17 -9 -23s-13.333 -9 -22 -9zM191.003 37h286l1 544z" />
    <glyph glyph-name="five" unicode="5" 
d="M581 194c26.667 -25.333 47 -54.001 61 -86.001s21 -66 21 -102s-7 -70.167 -21 -102.5s-34.333 -61.166 -61 -86.499s-56.5 -44.5 -89.5 -57.5s-68.5 -19.5 -106.5 -19.5h-247c-8.66699 0 -16 3 -22 9s-9 13.667 -9 23c0 8.66699 3 16 9 22s13.333 9 22 9h247
c29.333 0 57 5.33301 83 16s48.667 25.167 68 43.5s34.666 39.833 45.999 64.5s17 51 17 79s-5.66699 54.333 -17 79s-26.666 46 -45.999 64s-42 32.333 -68 43s-53.667 16 -83 16h-247c-8 0 -15.167 2.83301 -21.5 8.5s-9.5 12.5 -9.5 20.5v3v468c0 9.33301 3 17 9 23
s13.333 9 22 9h449c9.33301 0 17 -3 23 -9s9 -13.667 9 -23c0 -8.66699 -3 -16 -9 -22s-13.667 -9 -23 -9h-417v-405h215c76.667 0 142 -26 196 -78z" />
    <glyph glyph-name="six" unicode="6" 
d="M385 -197c29.333 0 57.001 5.33301 83.001 16s48.667 25.167 68 43.5s34.666 39.666 45.999 63.999s17 50.5 17 78.5s-5.66699 54.333 -17 79s-26.666 46 -45.999 64s-42 32.333 -68 43s-53.667 16 -83 16c-40 0 -76.167 -8.66699 -108.5 -26s-57.5 -41 -75.5 -71
l-11 -18c-8.66699 -13.333 -14.167 -27.333 -16.5 -42s-3.5 -29.667 -3.5 -45c0 -28 5.66699 -54.167 17 -78.5s26.666 -45.666 45.999 -63.999s42 -32.833 68 -43.5s54 -16 84 -16zM581.001 193c26.667 -25.333 47 -53.998 61 -85.998s21 -66 21 -102s-7 -70 -21 -102
s-34.333 -60.667 -61 -86s-56.5 -44.5 -89.5 -57.5s-68.5 -19.5 -106.5 -19.5s-73.667 6.5 -107 19.5s-63 32.167 -89 57.5c-26.667 25.333 -47 54 -61 86s-21 66 -21 102c0 25.333 3.66699 49.666 11 72.999s17.333 45.666 30 66.999l332 579
c4 7.33301 10.333 12.333 19 15s17 1.66699 25 -3c7.33301 -4 12 -10.333 14 -19s1 -16.667 -3 -24l-253 -441c16.667 6 33.5 10.667 50.5 14s34.5 5 52.5 5c76.667 0 142 -26 196 -78z" />
    <glyph glyph-name="seven" unicode="7" 
d="M138 -260c-5.33301 0 -10.333 1.33398 -15 4.00098c-7.33301 4 -12.333 10.167 -15 18.5s-2 16.166 2 23.499l469 891h-441c-8.66699 0 -16 3 -22 9s-9 13.333 -9 22c0 9.33301 3 17 9 23s13.333 9 22 9h493c10.667 0 19.667 -5 27 -15c6 -10.667 6.33301 -21 1 -31
l-493 -937c-6 -11.333 -15.333 -17 -28 -17z" />
    <glyph glyph-name="eight" unicode="8" 
d="M385 -195c30 0 58.333 5.5 85 16.5s50 25.833 70 44.5s35.833 40.5 47.5 65.5s17.5 51.833 17.5 80.5s-5.83301 55.667 -17.5 81s-27.5 47.333 -47.5 66s-43.333 33.5 -70 44.5s-55 16.5 -85 16.5c-30.667 0 -59.334 -5.5 -86.001 -16.5s-50 -25.833 -70 -44.5
s-35.667 -40.667 -47 -66s-17 -52.333 -17 -81s5.66699 -55.5 17 -80.5s27 -46.833 47 -65.5s43.333 -33.5 70 -44.5s55.334 -16.5 86.001 -16.5zM189 480c0 -27.333 5.16699 -52.833 15.5 -76.5s24.333 -44.334 42 -62.001s38.334 -31.667 62.001 -42
s49.167 -15.5 76.5 -15.5c26.667 0 51.834 5.16699 75.501 15.5s44.334 24.333 62.001 42s31.667 38.334 42 62.001s15.5 49.167 15.5 76.5c0 26.667 -5.16699 52 -15.5 76s-24.333 44.667 -42 62s-38.334 31.166 -62.001 41.499s-48.834 15.5 -75.501 15.5
c-27.333 0 -52.833 -5.16699 -76.5 -15.5s-44.334 -24.166 -62.001 -41.499s-31.667 -38 -42 -62s-15.5 -49.333 -15.5 -76zM585 205c28 -25.333 49.002 -54.667 63.002 -88s21 -68.333 21 -105s-7 -71.5 -21 -104.5s-35 -62.5 -63 -88.5
c-26.667 -25.333 -57.167 -44.833 -91.5 -58.5s-70.5 -20.5 -108.5 -20.5s-74 6.83301 -108 20.5s-65 33.167 -93 58.5c-28 26 -49 55.5 -63 88.5s-21 67.833 -21 104.5s7.16699 71.5 21.5 104.5s35.166 62.5 62.499 88.5c11.333 10 22.666 19.167 33.999 27.5
s23.666 15.833 36.999 22.5c-40 22.667 -71.667 53.834 -95 93.501s-35 83.5 -35 131.5c0 36 6.83301 69.667 20.5 101s32.167 58.833 55.5 82.5s50.833 42.334 82.5 56.001s65.5 20.5 101.5 20.5s69.667 -6.83301 101 -20.5s58.833 -32.334 82.5 -56.001
s42.334 -51.167 56.001 -82.5s20.5 -65 20.5 -101c0 -48 -12 -91.833 -36 -131.5s-55.333 -70.834 -94 -93.501c24.667 -12 48 -28.667 70 -50z" />
    <glyph glyph-name="nine" unicode="9" 
d="M385 273c38.667 0 74.166 8.66699 106.499 26s57.833 41 76.5 71l11 18c8 13.333 13.333 27.333 16 42s4 29.667 4 45c0 28 -5.66699 54.167 -17 78.5s-26.666 45.666 -45.999 63.999s-42 32.833 -68 43.5s-53.667 16 -83 16c-30 0 -58 -5.33301 -84 -16
s-48.667 -25.167 -68 -43.5s-34.666 -39.666 -45.999 -63.999s-17 -50.5 -17 -78.5s5.66699 -54.333 17 -79s26.666 -46 45.999 -64s42 -32.333 68 -43s54 -16 84 -16zM662.999 475c0 -25.333 -4.00098 -49.666 -12.001 -72.999s-18 -45.666 -30 -66.999l-332 -579
c-6.66699 -10.667 -16 -16 -28 -16c-5.33301 0 -10.333 1.33301 -15 4c-7.33301 4.66699 -12.333 11.167 -15 19.5s-1.66699 16.166 3 23.499l253 441c-16 -6 -32.667 -10.667 -50 -14s-34.666 -5 -51.999 -5c-38 0 -73.667 6.66699 -107 20s-63 32.666 -89 57.999
c-26.667 25.333 -47 54 -61 86s-21 66 -21 102s7 70 21 102s34.333 60.667 61 86c26 25.333 55.667 44.5 89 57.5s69 19.5 107 19.5s73.5 -6.5 106.5 -19.5s62.833 -32.167 89.5 -57.5s47 -54 61 -86s21 -66 21 -102z" />
    <glyph glyph-name="colon" unicode=":" horiz-adv-x="262" 
d="M68 -216c0 10.667 3.66699 19.834 11 27.501s16.666 11.5 27.999 11.5c10.667 0 19.834 -3.83301 27.501 -11.5s11.5 -16.834 11.5 -27.501c0 -11.333 -3.83301 -20.666 -11.5 -27.999s-16.834 -11 -27.501 -11c-11.333 0 -20.666 3.66699 -27.999 11
s-11 16.666 -11 27.999zM68 64c0 10.667 3.66699 19.834 11 27.501s16.666 11.5 27.999 11.5c10.667 0 19.834 -3.83301 27.501 -11.5s11.5 -16.834 11.5 -27.501c0 -11.333 -3.83301 -20.666 -11.5 -27.999s-16.834 -11 -27.501 -11c-11.333 0 -20.666 3.66699 -27.999 11
s-11 16.666 -11 27.999z" />
    <glyph glyph-name="semicolon" unicode=";" horiz-adv-x="327" 
d="M58 -400c-12 0 -20.6641 5 -25.9971 15c-4 7.33301 -4.83301 15 -2.5 23s7.16602 14 14.499 18c29.333 15.333 53.666 38 72.999 68c9.33301 14.667 16.166 30.167 20.499 46.5s6.5 32.833 6.5 49.5c0 8.66699 2.83301 15.834 8.5 21.501s12.834 8.5 21.501 8.5
c8 0 14.833 -2.83301 20.5 -8.5s8.5 -12.834 8.5 -21.501c0 -46.667 -12 -89 -36 -127c-23.333 -38 -55 -67.667 -95 -89c-2.66699 -2.66699 -7.33398 -4 -14.001 -4zM135.003 -61c0 11.333 3.66699 20.666 11 27.999s16.333 11 27 11c11.333 0 20.666 -3.66699 27.999 -11
s11 -16.666 11 -27.999c0 -10.667 -3.66699 -19.834 -11 -27.501s-16.666 -11.5 -27.999 -11.5c-10.667 0 -19.667 3.83301 -27 11.5s-11 16.834 -11 27.501z" />
    <glyph glyph-name="less" unicode="&#x3c;" horiz-adv-x="494" 
d="M340 -163c-4 0 -8.00098 0.999023 -12.001 2.99902l-305 141c-11.333 5.33301 -17 14 -17 26c-1.33301 12.667 4 21.667 16 27l303 150c7.33301 3.33301 14.833 3.83301 22.5 1.5s13.167 -7.16602 16.5 -14.499c4 -7.33301 4.66699 -14.833 2 -22.5
s-7.66699 -13.5 -15 -17.5l-248 -123l250 -115c7.33301 -3.33301 12.333 -8.83301 15 -16.5s2.33398 -15.167 -0.999023 -22.5c-5.33301 -11.333 -14.333 -17 -27 -17z" />
    <glyph glyph-name="equal" unicode="=" horiz-adv-x="412" 
d="M29 -111c-8.66699 0 -15.834 3 -21.501 9s-8.5 13 -8.5 21c0 8.66699 2.83301 15.834 8.5 21.501s12.834 8.5 21.501 8.5h223c8.66699 0 15.834 -2.83301 21.501 -8.5s8.5 -12.834 8.5 -21.501c0 -8 -2.83301 -15 -8.5 -21s-12.834 -9 -21.501 -9h-223zM29 19
c-8.66699 0 -15.834 3 -21.501 9s-8.5 13 -8.5 21c0 8.66699 2.83301 15.834 8.5 21.501s12.834 8.5 21.501 8.5h223c8.66699 0 15.834 -2.83301 21.501 -8.5s8.5 -12.834 8.5 -21.501c0 -8 -2.83301 -15 -8.5 -21s-12.834 -9 -21.501 -9h-223z" />
    <glyph glyph-name="greater" unicode="&#x3e;" horiz-adv-x="500" 
d="M32 -163c-12 0 -20.667 5.66797 -26 17.001c-3.33301 7.33301 -3.66602 14.833 -0.999023 22.5s7.66699 13.167 15 16.5l250 115l-248 123c-7.33301 4 -12.333 9.83301 -15 17.5s-2.33398 15.167 0.999023 22.5c4 7.33301 9.83301 12.166 17.5 14.499
s15.167 1.83301 22.5 -1.5l303 -150c10.667 -4.66699 16 -13.667 16 -27c0 -12 -5.66699 -20.667 -17 -26l-305 -141c-4 -2 -8.33301 -3 -13 -3z" />
    <glyph glyph-name="question" unicode="?" horiz-adv-x="498" 
d="M200 -141c-8.66699 0 -16 3 -22 9s-9 13.333 -9 22v424c0 8.66699 3 16 9 22s13.333 9 22 9c19.333 0 38 2.16699 56 6.5s33.667 10.833 47 19.5c15.333 10 25 19.5 29 28.5s6 16.167 6 21.5v139c0 5.33301 -2 12.666 -6 21.999s-13.667 18.666 -29 27.999
c-13.333 8.66699 -29 15.334 -47 20.001s-36.667 7 -56 7s-38.166 -2.33301 -56.499 -7s-34.166 -11.334 -47.499 -20.001c-15.333 -9.33301 -25 -18.666 -29 -27.999s-6 -16.666 -6 -21.999v-50c0 -8.66699 -3 -15.834 -9 -21.501s-13.333 -8.5 -22 -8.5
s-15.834 2.83301 -21.501 8.5s-8.5 12.834 -8.5 21.501v50c0 41.333 21.333 75.333 64 102c18 11.333 38.833 20.166 62.5 26.499s48.167 9.5 73.5 9.5s49.666 -3 72.999 -9s44.333 -15 63 -27c20.667 -13.333 36.5 -28.666 47.5 -45.999s16.5 -36 16.5 -56v-139
c0 -19.333 -5.5 -37.833 -16.5 -55.5s-26.833 -33.167 -47.5 -46.5c-29.333 -18.667 -64.333 -30 -105 -34v-395c0 -8.66699 -3 -16 -9 -22s-13.333 -9 -22 -9zM163 -225c0 10 3.66699 18.5 11 25.5s16 10.5 26 10.5s18.5 -3.5 25.5 -10.5s10.5 -15.5 10.5 -25.5
s-3.5 -18.667 -10.5 -26s-15.5 -11 -25.5 -11s-18.667 3.66699 -26 11s-11 16 -11 26z" />
    <glyph glyph-name="at" unicode="@" horiz-adv-x="654" 
d="M200 30c0 -16.667 3.16699 -32.167 9.5 -46.5s15 -27 26 -38s23.667 -19.667 38 -26s29.833 -9.5 46.5 -9.5s32.167 3.16699 46.5 9.5s27 15 38 26s19.667 23.667 26 38s9.5 29.833 9.5 46.5s-3.16699 32.167 -9.5 46.5s-15 27 -26 38s-23.667 19.667 -38 26
s-29.833 9.5 -46.5 9.5s-32.167 -3.16699 -46.5 -9.5s-27 -15 -38 -26s-19.667 -23.667 -26 -38s-9.5 -29.833 -9.5 -46.5zM546 256c30.667 -30 53.998 -64.501 69.998 -103.501s24 -79.833 24 -122.5c0 -25.333 -4.66699 -48.833 -14 -70.5s-22.333 -40.834 -39 -57.501
s-36 -29.667 -58 -39s-45.333 -14 -70 -14c-23.333 0 -46.333 4.66699 -69 14c-22.667 -9.33301 -46 -14 -70 -14c-25.333 0 -48.833 4.66699 -70.5 14s-40.834 22.333 -57.501 39s-29.667 35.834 -39 57.501s-14 45.167 -14 70.5c0 24.667 4.66699 48 14 70
s22.333 41.333 39 58s35.834 29.667 57.501 39s45.167 14 70.5 14c24.667 0 48 -4.66699 70 -14s41.333 -22.333 58 -39s29.667 -36 39 -58s14 -45.333 14 -70c0 -23.333 -4.16699 -45.166 -12.5 -65.499s-19.5 -38.5 -33.5 -54.5h4c16.667 0 32.334 3.16699 47.001 9.5
s27.334 15 38.001 26s19.167 23.667 25.5 38s9.5 29.833 9.5 46.5c0 34.667 -6.5 67.667 -19.5 99s-31.833 59.333 -56.5 84s-52.667 43.5 -84 56.5s-64.333 19.5 -99 19.5s-67.667 -6.5 -99 -19.5s-59.333 -31.833 -84 -56.5s-43.5 -52.667 -56.5 -84
s-19.5 -64.333 -19.5 -99s6.5 -67.667 19.5 -99s31.833 -59.333 56.5 -84s52.667 -43.5 84 -56.5s64.333 -19.5 99 -19.5c8.66699 0 15.834 -3 21.501 -9s8.5 -13.333 8.5 -22c0 -8 -2.83301 -15 -8.5 -21s-12.834 -9 -21.501 -9c-42.667 0 -83.5 8 -122.5 24
s-73.5 39.333 -103.5 70c-30.667 30 -54 64.5 -70 103.5s-24 79.833 -24 122.5s8 83.5 24 122.5s39.333 73.5 70 103.5c30 30.667 64.5 54 103.5 70s79.833 24 122.5 24s83.5 -8 122.5 -24s73.5 -39.333 103.5 -70z" />
    <glyph glyph-name="A" unicode="A" horiz-adv-x="748" 
d="M562 272l-0.00195312 315c0 25.333 -8.66699 46.666 -26 63.999s-38.666 26 -63.999 26h-250c-25.333 0 -46.666 -8.66699 -63.999 -26s-26 -38.666 -26 -63.999v-315h430zM471.998 740c21.333 0 41.333 -4 60 -12s34.834 -19 48.501 -33s24.5 -30.333 32.5 -49
s12 -38.334 12 -59.001v-815c0 -9.33301 -3 -17 -9 -23s-13.333 -9 -22 -9c-9.33301 0 -17 3 -23 9s-9 13.667 -9 23v436h-430v-436c0 -9.33301 -3 -17 -9 -23s-13.333 -9 -22 -9c-9.33301 0 -17 3 -23 9s-9 13.667 -9 23v815c0 20.667 4 40.334 12 59.001s19 35 33 49
s30.167 25 48.5 33s38.166 12 59.499 12h250z" />
    <glyph glyph-name="B" unicode="B" horiz-adv-x="606" 
d="M278 -197c30 0 58 5.33301 84 16s48.667 25.167 68 43.5s34.666 39.833 45.999 64.5s17 51 17 79s-5.66699 54.333 -17 79s-26.666 46 -45.999 64s-42 32.333 -68 43s-54 16 -84 16h-215v-315v-90h215zM63 677v-404.999h215c30 0 58 5.33301 84 16s48.667 25.167 68 43.5
s34.666 39.666 45.999 63.999s17 50.5 17 78.5s-5.66699 54.333 -17 79s-26.666 46.167 -45.999 64.5s-42 32.833 -68 43.5s-54 16 -84 16h-215zM474 194.001c26.667 -25.333 47 -54.002 61 -86.002s21 -66 21 -102s-7 -70.167 -21 -102.5s-34.333 -61.166 -61 -86.499
c-26 -25.333 -55.667 -44.5 -89 -57.5s-69 -19.5 -107 -19.5h-246c-9.33301 0 -17 3 -23 9s-9 13.667 -9 23v468v347v121c0 9.33301 3 17 9 23s13.667 9 23 9h246c38 0 73.667 -6.5 107 -19.5s63 -32.167 89 -57.5c26.667 -25.333 47 -54.166 61 -86.499s21 -66.5 21 -102.5
s-7 -70 -21 -102s-34.333 -60.667 -61 -86c-9.33301 -9.33301 -19.5 -17.833 -30.5 -25.5s-22.167 -14.5 -33.5 -20.5c11.333 -6 22.5 -12.833 33.5 -20.5s21.167 -16.167 30.5 -25.5z" />
    <glyph glyph-name="C" unicode="C" horiz-adv-x="540" 
d="M153 -260c-21.333 0 -41.166 3.99805 -59.499 11.998s-34.5 19 -48.5 33s-25 30.167 -33 48.5s-12 38.166 -12 59.499v694c0 20.667 4 40.334 12 59.001s19 35 33 49s30.167 25 48.5 33s38.166 12 59.499 12h372c8.66699 0 16 -3 22 -9s9 -13.667 9 -23
c0 -8.66699 -3 -16 -9 -22s-13.333 -9 -22 -9h-372c-25.333 0 -46.666 -8.66699 -63.999 -26s-26 -38.666 -26 -63.999v-694c0 -25.333 8.66699 -46.666 26 -63.999s38.666 -26 63.999 -26h372c8.66699 0 16 -3 22 -9s9 -13.333 9 -22c0 -9.33301 -3 -17 -9 -23
s-13.333 -9 -22 -9h-372z" />
    <glyph glyph-name="D" unicode="D" horiz-adv-x="740" 
d="M98 -260c-9.33301 0 -17 2.99805 -23 8.99805s-9 13.667 -9 23v936c0 9.33301 3 17 9 23s13.667 9 23 9h246c38 0 73.667 -6.5 107 -19.5s63 -32.167 89 -57.5c26.667 -25.333 47 -54.166 61 -86.499s21 -66.5 21 -102.5v-468c0 -36 -7 -70.167 -21 -102.5
s-34.333 -61.166 -61 -86.499c-26 -25.333 -55.667 -44.5 -89 -57.5s-69 -19.5 -107 -19.5h-246zM129 676.998v-874h215c30 0 58 5.33301 84 16s48.667 25.167 68 43.5s34.666 39.833 45.999 64.5s17 51 17 79v468c0 28 -5.66699 54.333 -17 79s-26.666 46.167 -45.999 64.5
s-42 32.833 -68 43.5s-54 16 -84 16h-215z" />
    <glyph glyph-name="E" unicode="E" horiz-adv-x="546" 
d="M525 -197c8.66699 0 16 -3.00195 22 -9.00195s9 -13.333 9 -22c0 -9.33301 -3 -17 -9 -23s-13.333 -9 -22 -9h-372c-21.333 0 -41.166 4 -59.499 12s-34.5 19 -48.5 33s-25 30.167 -33 48.5s-12 38.166 -12 59.499v694c0 20.667 4 40.334 12 59.001s19 35 33 49
s30.167 25 48.5 33s38.166 12 59.499 12h372c8.66699 0 16 -3 22 -9s9 -13.667 9 -23c0 -8.66699 -3 -16 -9 -22s-13.333 -9 -22 -9h-372c-25.333 0 -46.666 -8.66699 -63.999 -26s-26 -38.666 -26 -63.999v-315h338c9.33301 0 17 -3.16699 23 -9.5s9 -13.833 9 -22.5
s-3 -16.167 -9 -22.5s-13.667 -9.5 -23 -9.5h-338v-315c0 -25.333 8.66699 -46.666 26 -63.999s38.666 -26 63.999 -26h372z" />
    <glyph glyph-name="F" unicode="F" horiz-adv-x="555" 
d="M525 740c8.66699 0 16 -3.00195 22 -9.00195s9 -13.667 9 -23c0 -8.66699 -3 -16 -9 -22s-13.333 -9 -22 -9h-372c-25.333 0 -46.666 -8.66699 -63.999 -26s-26 -38.666 -26 -63.999v-315h338c9.33301 0 17 -3.16699 23 -9.5s9 -13.833 9 -22.5s-3 -16.167 -9 -22.5
s-13.667 -9.5 -23 -9.5h-338v-436c0 -9.33301 -3 -17 -9 -23s-13.333 -9 -22 -9c-9.33301 0 -17 3 -23 9s-9 13.667 -9 23v815c0 20.667 4 40.334 12 59.001s19 35 33 49s30.167 25 48.5 33s38.166 12 59.499 12h372z" />
    <glyph glyph-name="G" unicode="G" horiz-adv-x="663" 
d="M153 -260c-21.333 0 -41.1641 3.99805 -59.4971 11.998s-34.5 19 -48.5 33s-25 30.167 -33 48.5s-12 38.166 -12 59.499v694c0 20.667 4 40.334 12 59.001s19 35 33 49s30.167 25 48.5 33s38.166 12 59.499 12h372c8.66699 0 16 -3 22 -9s9 -13.667 9 -23
c0 -8.66699 -3 -16 -9 -22s-13.333 -9 -22 -9h-372c-25.333 0 -46.666 -8.66699 -63.999 -26s-26 -38.666 -26 -63.999v-694c0 -25.333 8.66699 -46.666 26 -63.999s38.666 -26 63.999 -26h250c25.333 0 46.666 8.66699 63.999 26s26 38.666 26 63.999v315h-215
c-8.66699 0 -16.167 3.16699 -22.5 9.5s-9.5 13.833 -9.5 22.5s3.16699 16.167 9.5 22.5s13.833 9.5 22.5 9.5h247c8.66699 0 16 -3.16699 22 -9.5s9 -13.833 9 -22.5v-347c0 -21.333 -4 -41.166 -12 -59.499s-18.833 -34.5 -32.5 -48.5s-29.834 -25 -48.501 -33
s-38.667 -12 -60 -12h-250z" />
    <glyph glyph-name="H" unicode="H" horiz-adv-x="748" 
d="M595 740c8.66699 0 16 -3 22 -9s9 -13.667 9 -23v-936c0 -9.33301 -3 -17 -9 -23s-13.333 -9 -22 -9c-9.33301 0 -17 3 -23 9s-9 13.667 -9 23v436h-430v-436c0 -9.33301 -3 -17 -9 -23s-13.333 -9 -22 -9c-9.33301 0 -17 3 -23 9s-9 13.667 -9 23v936
c0 9.33301 3 17 9 23s13.667 9 23 9c8.66699 0 16 -3 22 -9s9 -13.667 9 -23v-436h430v436c0 9.33301 3 17 9 23s13.667 9 23 9z" />
    <glyph glyph-name="I" unicode="I" horiz-adv-x="255" 
d="M102 -260c-9.33301 0 -17 3 -23 9s-9 13.667 -9 23v936c0 9.33301 3 17 9 23s13.667 9 23 9c8.66699 0 16 -3 22 -9s9 -13.667 9 -23v-936c0 -9.33301 -3 -17 -9 -23s-13.333 -9 -22 -9z" />
    <glyph glyph-name="J" unicode="J" horiz-adv-x="675" 
d="M278 -260c-38 0 -73.6631 6.5 -106.996 19.5s-63 32.167 -89 57.5c-26.667 25.333 -47 54.166 -61 86.499s-21 66.5 -21 102.5v77c0 8.66699 3 16 9 22s13.667 9 23 9c8.66699 0 16 -3 22 -9s9 -13.333 9 -22v-77c0 -28 5.66699 -54.333 17 -79
s26.666 -46.167 45.999 -64.5s42.166 -32.833 68.499 -43.5s54.166 -16 83.499 -16c30 0 58 5.33301 84 16s48.667 25.167 68 43.5s34.666 39.833 45.999 64.5s17 51 17 79v702c0 9.33301 3 17 9 23s13.667 9 23 9c8.66699 0 16 -3 22 -9s9 -13.667 9 -23v-702
c0 -36 -7 -70.167 -21 -102.5s-34.333 -61.166 -61 -86.499c-26 -25.333 -55.667 -44.5 -89 -57.5s-69 -19.5 -107 -19.5z" />
    <glyph glyph-name="K" unicode="K" horiz-adv-x="606" 
d="M551 -211c5.33301 -7.33301 6.99805 -15.168 4.99805 -23.501s-6.66699 -15.166 -14 -20.499c-8 -3.33301 -13.667 -5 -17 -5c-12 0 -21 4.66699 -27 14l-324 499l-111 -129v-352c0 -9.33301 -3 -17 -9 -23s-13.333 -9 -22 -9c-9.33301 0 -17 3 -23 9s-9 13.667 -9 23
v936c0 9.33301 3 17 9 23s13.667 9 23 9c8.66699 0 16 -3 22 -9s9 -13.667 9 -23v-487l90 105h1l347 403c5.33301 6.66699 12.333 10.334 21 11.001s16.334 -2 23.001 -8c6.66699 -5.33301 10.334 -12.333 11.001 -21s-2 -16.334 -8 -23.001l-331 -385z" />
    <glyph glyph-name="L" unicode="L" horiz-adv-x="535" 
d="M153 -260c-21.333 0 -41.166 4 -59.499 12s-34.5 19 -48.5 33s-25 30.167 -33 48.5s-12 38.166 -12 59.499v815c0 9.33301 3 17 9 23s13.667 9 23 9c8.66699 0 16 -3 22 -9s9 -13.667 9 -23v-815c0 -25.333 8.66699 -46.666 26 -63.999s38.666 -26 63.999 -26h372
c8.66699 0 16 -3 22 -9s9 -13.333 9 -22c0 -9.33301 -3 -17 -9 -23s-13.333 -9 -22 -9h-372z" />
    <glyph glyph-name="M" unicode="M" horiz-adv-x="748" 
d="M102 -260c-9.33301 0 -16.9971 3 -22.9971 9s-9 13.667 -9 23v936c0 7.33301 2.16699 14 6.5 20s10.166 9.66699 17.499 11c7.33301 2 14.333 1.5 21 -1.5s11.667 -7.83301 15 -14.5l218 -415l219 415c3.33301 6.66699 8.16602 11.5 14.499 14.5s13.166 3.5 20.499 1.5
c7.33301 -1.33301 13.166 -5 17.499 -11s6.5 -12.667 6.5 -20v-936c0 -9.33301 -3 -17 -9 -23s-13.667 -9 -23 -9c-8.66699 0 -16 3 -22 9s-9 13.667 -9 23v808l-187 -355c-6 -11.333 -15.333 -17 -28 -17c-13.333 0 -22.666 5.66699 -27.999 17l-187 355v-808
c0 -9.33301 -3 -17 -9 -23s-13.333 -9 -22 -9z" />
    <glyph glyph-name="N" unicode="N" horiz-adv-x="748" 
d="M595 740c8.66699 0 15.9971 -2.99805 21.9971 -8.99805s9 -13.667 9 -23v-936c0 -7.33301 -2.16699 -14 -6.5 -20s-10.166 -9.66699 -17.499 -11c-0.666992 -0.666992 -3 -1 -7 -1c-12.667 0 -22 5.66699 -28 17l-434 824v-809c0 -9.33301 -3 -17 -9 -23
s-13.333 -9 -22 -9c-9.33301 0 -17 3 -23 9s-9 13.667 -9 23v936v2v1v1v1c0.666992 2 1.33398 3.83301 2.00098 5.5s1.33398 3.16699 2.00098 4.5v1l1 1l8 9c0.666992 0 1 0.333008 1 1c0.666992 0 1 0.333008 1 1h1h1c0 0.666992 0.333008 1 1 1s1 0.166992 1 0.5
s0.333008 0.5 1 0.5h1h1c0 0.666992 0.333008 1 1 1h1h1l1 1h1h1h2h1h1h1h1h1h1c2.66699 -0.666992 5 -1.33398 7 -2.00098s3.66699 -1.33398 5 -2.00098v-1c4.66699 -2 7.66699 -4.66699 9 -8l1 -1c0 -0.666992 0.333008 -1 1 -1v-1l1 -1l433 -824v809c0 9.33301 3 17 9 23
s13.667 9 23 9z" />
    <glyph glyph-name="O" unicode="O" horiz-adv-x="741" 
d="M343 -260c-36 0 -70.5 4.5 -103.5 13.5s-62.167 21.5 -87.5 37.5c-13.333 8.66699 -25.166 17.667 -35.499 27s-19.166 19.666 -26.499 30.999c-16.667 24.667 -25 51 -25 79v624c0 28 8.33301 54.333 25 79c7.33301 11.333 16.166 21.666 26.499 30.999
s22.166 18.333 35.499 27c25.333 16 54.5 28.5 87.5 37.5s67.5 13.5 103.5 13.5s70.333 -4.5 103 -13.5s62 -21.5 88 -37.5c13.333 -8.66699 25 -17.667 35 -27s19 -19.666 27 -30.999c16.667 -26 25 -52.333 25 -79v-624c0 -26.667 -8.33301 -53 -25 -79
c-8 -11.333 -17 -21.666 -27 -30.999s-21.667 -18.333 -35 -27c-26 -16 -55.333 -28.5 -88 -37.5s-67 -13.5 -103 -13.5zM343 677c-30 0 -58.5 -3.50195 -85.5 -10.502s-50.833 -17.167 -71.5 -30.5c-18.667 -12 -33 -25.167 -43 -39.5s-15 -29.166 -15 -44.499v-624
c0 -15.333 5 -30.166 15 -44.499s24.333 -27.5 43 -39.5c20.667 -13.333 44.5 -23.5 71.5 -30.5s55.5 -10.5 85.5 -10.5s58.333 3.5 85 10.5s50.667 17.167 72 30.5c38.667 25.333 58 53.333 58 84v624c0 31.333 -19.333 59.333 -58 84
c-21.333 13.333 -45.333 23.5 -72 30.5s-55 10.5 -85 10.5z" />
    <glyph glyph-name="P" unicode="P" horiz-adv-x="627" 
d="M32 -260c-9.33301 0 -17 2.99805 -23 8.99805s-9 13.667 -9 23v468v468c0 9.33301 3 17 9 23s13.667 9 23 9h246c38 0 73.667 -6.5 107 -19.5s63 -32.167 89 -57.5c26.667 -25.333 47 -54.166 61 -86.499s21 -66.5 21 -102.5s-7 -70 -21 -102s-34.333 -60.667 -61 -86
c-26 -25.333 -55.667 -44.666 -89 -57.999s-69 -20 -107 -20h-215v-436c0 -9.33301 -3 -17 -9 -23s-13.333 -9 -22 -9zM63 676.998v-405.999l215 1c30 0 58 5.33301 84 16s48.667 25.167 68 43.5s34.666 39.666 45.999 63.999s17 50.5 17 78.5s-5.66699 54.333 -17 79
s-26.666 46.167 -45.999 64.5s-42 32.833 -68 43.5s-54 16 -84 16h-215z" />
    <glyph glyph-name="Q" unicode="Q" horiz-adv-x="671" 
d="M490 556c0 30.667 -18.999 58.667 -56.999 84c-20.667 13.333 -44.334 23.5 -71.001 30.5s-55 10.5 -85 10.5s-58.5 -3.5 -85.5 -10.5s-50.833 -17.167 -71.5 -30.5c-38 -25.333 -57 -53.333 -57 -84v-626c0 -32 19 -60 57 -84c36 -22.667 77.667 -36 125 -40v124
c0 8.66699 3 16 9 22s13.667 9 23 9c8.66699 0 16 -3 22 -9s9 -13.333 9 -22v-124c47.333 4 89 17.333 125 40c38 24 57 52 57 84v626zM529.001 634c16 -24 24 -50.002 24 -78.002v-626c0 -28 -8 -54.333 -24 -79c-15.333 -22 -36 -41.667 -62 -59
c-44.667 -28.667 -97.667 -45 -159 -49v-127c0 -8.66699 -3 -16 -9 -22s-13.333 -9 -22 -9c-9.33301 0 -17 3 -23 9s-9 13.333 -9 22v127c-61.333 4 -114.333 20.333 -159 49c-26 16.667 -46.333 36.334 -61 59.001c-16.667 24.667 -25 51 -25 79v626c0 28 8.33301 54 25 78
c8 11.333 16.833 21.833 26.5 31.5s21.167 18.834 34.5 27.501c26 16.667 55.333 29.334 88 38.001s67 13 103 13c73.333 0 136.666 -17 189.999 -51c26.667 -16.667 47.334 -36.334 62.001 -59.001z" />
    <glyph glyph-name="R" unicode="R" horiz-adv-x="621" 
d="M63 271l213 1h1h1c30 0 58 5.33301 84 16s48.667 25 68 43s34.666 39.333 45.999 64s17 51 17 79s-5.66699 54.333 -17 79s-26.666 46.167 -45.999 64.5s-42 32.833 -68 43.5s-54 16 -84 16h-215v-406zM552 -214c4 -7.33301 4.83496 -15.1699 2.50195 -23.5029
s-7.5 -14.5 -15.5 -18.5c-2.66699 -2.66699 -7.33398 -4 -14.001 -4c-12.667 0 -22 5.66699 -28 17l-240 451h-194v-436c0 -9.33301 -3 -17 -9 -23s-13.333 -9 -22 -9c-9.33301 0 -17 3 -23 9s-9 13.667 -9 23v468v468c0 9.33301 3 17 9 23s13.667 9 23 9h246
c38 0 73.667 -6.5 107 -19.5s63 -32.167 89 -57.5c26.667 -25.333 47 -54.166 61 -86.499s21 -66.5 21 -102.5s-7 -70 -21 -102s-34.333 -60.667 -61 -86c-20.667 -19.333 -43.334 -35.166 -68.001 -47.499s-51 -21.166 -79 -26.499z" />
    <glyph glyph-name="S" unicode="S" horiz-adv-x="617" 
d="M278 -260c-36 0 -70.5 4.49805 -103.5 13.498s-62.167 21.5 -87.5 37.5c-13.333 8.66699 -25.166 17.667 -35.499 27s-19.166 19.666 -26.499 30.999c-16.667 24.667 -25 51 -25 79c0 8.66699 3 16 9 22s13.667 9 23 9c8.66699 0 16 -3 22 -9s9 -13.333 9 -22
c0 -15.333 5 -30.166 15 -44.499s24.333 -27.5 43 -39.5c20.667 -13.333 44.5 -23.5 71.5 -30.5s55.5 -10.5 85.5 -10.5s58.5 3.5 85.5 10.5s50.833 17.167 71.5 30.5c18.667 12 33 25.167 43 39.5s15 29.166 15 44.499v156c0 15.333 -5 30.166 -15 44.499
s-24.333 27.5 -43 39.5c-40.667 26 -91 39.667 -151 41c-1.33301 0 -2.33301 -0.166992 -3 -0.5s-1.66699 -0.5 -3 -0.5c-36 0 -70.5 4.33301 -103.5 13s-62.167 21.334 -87.5 38.001c-13.333 8.66699 -25 17.834 -35 27.501s-19 20.167 -27 31.5c-16.667 24 -25 50 -25 78
v156c0 28 8.33301 54.333 25 79c7.33301 11.333 16.166 21.666 26.499 30.999s22.166 18.333 35.499 27c25.333 16 54.5 28.5 87.5 37.5s67.5 13.5 103.5 13.5s70.5 -4.5 103.5 -13.5s62.167 -21.5 87.5 -37.5c13.333 -8.66699 25.166 -17.667 35.499 -27
s19.166 -19.666 26.499 -30.999c16.667 -24.667 25 -51 25 -79c0 -8.66699 -3 -16 -9 -22s-13.667 -9 -23 -9c-8.66699 0 -16 3 -22 9s-9 13.333 -9 22c0 15.333 -5 30.166 -15 44.499s-24.333 27.5 -43 39.5c-20.667 13.333 -44.5 23.5 -71.5 30.5s-55.5 10.5 -85.5 10.5
s-58.5 -3.5 -85.5 -10.5s-50.833 -17.167 -71.5 -30.5c-18.667 -12 -33 -25.167 -43 -39.5s-15 -29.166 -15 -44.499v-156c0 -15.333 5 -30.166 15 -44.499s24.333 -27.5 43 -39.5c20 -12.667 43 -22.5 69 -29.5s53.333 -10.5 82 -10.5h6c36 0 70.5 -4.33301 103.5 -13
s62.167 -21 87.5 -37c27.333 -17.333 48 -37 62 -59c16.667 -24.667 25 -51 25 -79v-156c0 -28 -8.33301 -54.333 -25 -79c-7.33301 -11.333 -16.166 -21.666 -26.499 -30.999s-22.166 -18.333 -35.499 -27c-25.333 -16 -54.5 -28.5 -87.5 -37.5s-67.5 -13.5 -103.5 -13.5z
" />
    <glyph glyph-name="T" unicode="T" horiz-adv-x="520" 
d="M525 740c9.33301 0 17 -3 23 -9s9 -13.667 9 -23c0 -8.66699 -3 -16 -9 -22s-13.667 -9 -23 -9h-215v-905c0 -9.33301 -3 -17 -9 -23s-13.667 -9 -23 -9c-8.66699 0 -16 3 -22 9s-9 13.667 -9 23v905h-215c-9.33301 0 -17 3 -23 9s-9 13.333 -9 22c0 9.33301 3 17 9 23
s13.667 9 23 9h493z" />
    <glyph glyph-name="U" unicode="U" horiz-adv-x="741" 
d="M591 740c8.66699 0 16.0039 -3 22.0039 -9s9 -13.667 9 -23v-702c0 -36 -7 -70.167 -21 -102.5s-34.333 -61.166 -61 -86.499c-26 -25.333 -55.667 -44.5 -89 -57.5s-69 -19.5 -107 -19.5s-73.667 6.5 -107 19.5s-63 32.167 -89 57.5
c-26.667 25.333 -47 54.166 -61 86.499s-21 66.5 -21 102.5v702c0 9.33301 3 17 9 23s13.667 9 23 9c8.66699 0 16 -3 22 -9s9 -13.667 9 -23v-702c0 -28 5.66699 -54.333 17 -79s26.666 -46.167 45.999 -64.5s42.166 -32.833 68.499 -43.5s54.166 -16 83.499 -16
c30 0 58 5.33301 84 16s48.667 25.167 68 43.5s34.666 39.833 45.999 64.5s17 51 17 79v702c0 9.33301 3 17 9 23s13.667 9 23 9z" />
    <glyph glyph-name="V" unicode="V" horiz-adv-x="654" 
d="M278 -260c-16 0 -26.001 8 -30.001 24l-247 936c-2 8.66699 -0.833008 16.667 3.5 24s10.833 12.333 19.5 15c8 2 15.833 0.833008 23.5 -3.5s12.5 -10.833 14.5 -19.5l216 -820l216 820c2 8.66699 6.83301 15.334 14.5 20.001s15.834 5.66699 24.501 3
c8 -2 14.167 -6.83301 18.5 -14.5s5.5 -15.834 3.5 -24.501l-246 -936c-4 -16 -14.333 -24 -31 -24z" />
    <glyph glyph-name="W" unicode="W" horiz-adv-x="901" 
d="M779 739c8.66699 -2.66699 15.165 -7.66699 19.498 -15s5.5 -15.333 3.5 -24l-247 -936c-4 -16 -14 -24 -30 -24c-16.667 0 -27 8 -31 24l-93 352l-92 -352c-4 -16 -14.333 -24 -31 -24c-16 0 -26 8 -30 24l-247 936c-2 8.66699 -0.833008 16.667 3.5 24
s10.833 12.333 19.5 15c8 2 15.833 0.833008 23.5 -3.5s12.5 -10.833 14.5 -19.5l216 -820l91 344l-121 460c-2.66699 8.66699 -1.83398 16.667 2.49902 24s10.833 12.333 19.5 15c8.66699 2 16.834 0.833008 24.501 -3.5s12.5 -10.833 14.5 -19.5l92 -352l93 352
c2 8.66699 6.83301 15.334 14.5 20.001s15.834 5.66699 24.501 3c8 -2 14.167 -6.83301 18.5 -14.5s5.5 -15.834 3.5 -24.501l-121 -460l91 -344l215 820c2 8.66699 6.83301 15.167 14.5 19.5s15.834 5.5 24.501 3.5z" />
    <glyph glyph-name="X" unicode="X" horiz-adv-x="617" 
d="M552 -214c4 -7.33301 4.83496 -15.166 2.50195 -23.499s-7.5 -14.5 -15.5 -18.5c-2 -1.33301 -4.33301 -2.33301 -7 -3s-5 -1 -7 -1c-12.667 0 -22 5.66699 -28 17l-219 415l-218 -415c-6 -11.333 -15.333 -17 -28 -17c-5.33301 0 -10.333 1.33301 -15 4
c-8 4 -13.167 10.167 -15.5 18.5s-1.5 16.166 2.5 23.499l238 454l-238 454c-4 7.33301 -4.83301 15.166 -2.5 23.499s7.5 14.5 15.5 18.5c7.33301 4 15.166 4.83301 23.499 2.5s14.833 -7.5 19.5 -15.5l218 -415l219 415c4 8 10.167 13.167 18.5 15.5
s16.166 1.5 23.499 -2.5c8 -4 13.167 -10.167 15.5 -18.5s1.5 -16.166 -2.5 -23.499l-238 -454z" />
    <glyph glyph-name="Y" unicode="Y" horiz-adv-x="519" 
d="M539 736c8 -4 13.1689 -10.168 15.502 -18.501s1.5 -16.166 -2.5 -23.499l-241 -459v-463c0 -9.33301 -3 -17 -9 -23s-13.333 -9 -22 -9c-9.33301 0 -17 3 -23 9s-9 13.667 -9 23v463l-244 458c-4 8 -4.83301 16.167 -2.5 24.5s7.5 14.5 15.5 18.5
c7.33301 4 15.166 4.83301 23.499 2.5s14.5 -7.5 18.5 -15.5l220 -412l218 412c4 8 10.167 13.167 18.5 15.5s16.166 1.5 23.499 -2.5z" />
    <glyph glyph-name="Z" unicode="Z" horiz-adv-x="600" 
d="M32 -260c-13.333 0 -22.333 5.00098 -27 15.001c-7.33301 11.333 -7.66602 21.666 -0.999023 30.999l468 891h-440c-9.33301 0 -17 3 -23 9s-9 13.333 -9 22c0 9.33301 3 17 9 23s13.667 9 23 9h493c10.667 0 19.667 -5 27 -15c5.33301 -12 5.66602 -22.333 0.999023 -31
l-469 -891h441c8.66699 0 16 -3 22 -9s9 -13.333 9 -22c0 -9.33301 -3 -17 -9 -23s-13.333 -9 -22 -9h-493z" />
    <glyph glyph-name="backslash" unicode="\" horiz-adv-x="473" 
d="M392 -255c-11.333 0 -20.333 5.33105 -27 15.998l-365 617c-4.66699 7.33301 -5.83398 15 -3.50098 23s7.16602 14.333 14.499 19s15.166 5.83398 23.499 3.50098s14.833 -7.16602 19.5 -14.499l365 -617c4.66699 -7.33301 5.83398 -15 3.50098 -23
s-7.16602 -14.333 -14.499 -19c-5.33301 -3.33301 -10.666 -5 -15.999 -5z" />
    <glyph glyph-name="asciicircum" unicode="^" horiz-adv-x="505" 
d="M3 397c0 4 0.998047 8.00098 2.99805 12.001l140 305c5.33301 11.333 14.333 17 27 17s21.334 -5.33301 26.001 -16l151 -303c3.33301 -7.33301 3.83301 -14.833 1.5 -22.5s-7.16602 -13.167 -14.499 -16.5c-7.33301 -4 -15 -4.66699 -23 -2s-13.667 7.66699 -17 15
l-123 248l-115 -250c-3.33301 -7.33301 -8.83301 -12.333 -16.5 -15s-15.167 -2.33398 -22.5 0.999023c-11.333 5.33301 -17 14.333 -17 27z" />
    <glyph glyph-name="underscore" unicode="_" horiz-adv-x="528" 
d="M34 -255c-8.66699 0 -15.834 2.83301 -21.501 8.5s-8.5 12.834 -8.5 21.501s2.83301 15.834 8.5 21.501s12.834 8.5 21.501 8.5h323c8.66699 0 15.834 -2.83301 21.501 -8.5s8.5 -12.834 8.5 -21.501s-2.83301 -15.834 -8.5 -21.501s-12.834 -8.5 -21.501 -8.5h-323z" />
    <glyph glyph-name="a" unicode="a" horiz-adv-x="665" 
d="M272 -202c28.667 0 55.834 5.16699 81.501 15.5s48 24.5 67 42.5s34 39 45 63s16.5 49.667 16.5 77s-5.5 53.166 -16.5 77.499s-26 45.5 -45 63.5s-41.333 32.167 -67 42.5s-52.834 15.5 -81.501 15.5c-29.333 0 -56.666 -5.16699 -81.999 -15.5s-47.5 -24.5 -66.5 -42.5
s-34 -39.167 -45 -63.5s-16.5 -50.166 -16.5 -77.499s5.5 -53 16.5 -77s26 -45 45 -63s41.167 -32.167 66.5 -42.5s52.666 -15.5 81.999 -15.5zM513 256c8.66699 0 16 -2.83594 22 -8.50293s9 -12.834 9 -21.501v-459c0 -8.66699 -3 -16 -9 -22s-13.333 -9 -22 -9
s-16 3 -22 9s-9 13.333 -9 22v64l-18 -19c-24.667 -26 -53.834 -45.167 -87.501 -57.5s-68.5 -18.5 -104.5 -18.5s-70.5 6.5 -103.5 19.5s-62.5 31.833 -88.5 56.5s-45.833 52.834 -59.5 84.501s-20.5 64.834 -20.5 99.501c0 36 6.83301 69.667 20.5 101
s33.5 59.333 59.5 84s55.5 43.334 88.5 56.001s67.5 19 103.5 19s70.833 -6 104.5 -18s62.834 -31 87.501 -57l18 -19v64c0 8.66699 3 15.834 9 21.501s13.333 8.5 22 8.5z" />
    <glyph glyph-name="b" unicode="b" horiz-adv-x="624" 
d="M278 -197c30 0 58 5.33301 84 16s48.667 25.167 68 43.5s34.666 39.833 45.999 64.5s17 51 17 79s-5.66699 54.333 -17 79s-26.666 46 -45.999 64s-42 32.333 -68 43s-54 16 -84 16c-29.333 0 -57.166 -5.33301 -83.499 -16s-49.166 -25 -68.499 -43
s-34.666 -39.333 -45.999 -64s-17 -51 -17 -79s5.66699 -54.333 17 -79s26.666 -46.167 45.999 -64.5s42.166 -32.833 68.499 -43.5s54.166 -16 83.499 -16zM474 194c26.667 -25.333 47 -54.002 61 -86.002s21 -66 21 -102s-7 -70.167 -21 -102.5
s-34.333 -61.166 -61 -86.499c-26 -25.333 -55.667 -44.5 -89 -57.5s-69 -19.5 -107 -19.5s-73.833 6.16699 -107.5 18.5s-63.167 31.833 -88.5 58.5l-19 20v-65c0 -9.33301 -3 -17 -9 -23s-13.333 -9 -22 -9c-9.33301 0 -17 3 -23 9s-9 13.667 -9 23v936
c0 9.33301 3 17 9 23s13.667 9 23 9c8.66699 0 16 -3 22 -9s9 -13.667 9 -23v-533l19 19c26 26 55.667 45.5 89 58.5s69 19.5 107 19.5s73.667 -6.66699 107 -20s63 -32.666 89 -57.999z" />
    <glyph glyph-name="c" unicode="c" horiz-adv-x="504" 
d="M272 -260c-36 0 -70.5 6.5 -103.5 19.5s-62.5 31.833 -88.5 56.5c-53.333 50 -80 111.333 -80 184s26.667 134 80 184c26 24.667 55.5 43.5 88.5 56.5s67.5 19.5 103.5 19.5c32 0 63 -5.33301 93 -16s57.333 -25.667 82 -45c6.66699 -5.33301 10.5 -12.166 11.5 -20.499
s-1.16699 -15.833 -6.5 -22.5c-5.33301 -7.33301 -12.166 -11.333 -20.499 -12s-16.166 1.66602 -23.499 6.99902c-39.333 31.333 -84.666 47 -135.999 47c-29.333 0 -56.666 -5.16699 -81.999 -15.5s-47.5 -24.5 -66.5 -42.5s-34 -39 -45 -63s-16.5 -49.667 -16.5 -77
s5.5 -53 16.5 -77s26 -45 45 -63s41.167 -32.167 66.5 -42.5s52.666 -15.5 81.999 -15.5c51.333 0 96.666 15.667 135.999 47c7.33301 5.33301 15.166 7.66602 23.499 6.99902s15.166 -4.66699 20.499 -12c5.33301 -6.66699 7.5 -14.167 6.5 -22.5
s-4.83301 -15.166 -11.5 -20.499c-24.667 -19.333 -52 -34.333 -82 -45s-61 -16 -93 -16z" />
    <glyph glyph-name="d" unicode="d" horiz-adv-x="680" 
d="M278 -197c30 0 58 5.33301 84 16s48.667 25.167 68 43.5s34.666 39.833 45.999 64.5s17 51 17 79s-5.66699 54.333 -17 79s-26.666 46 -45.999 64s-42 32.333 -68 43s-54 16 -84 16c-29.333 0 -57.166 -5.33301 -83.499 -16s-49.166 -25 -68.499 -43
s-34.666 -39.333 -45.999 -64s-17 -51 -17 -79s5.66699 -54.333 17 -79s26.666 -46.167 45.999 -64.5s42.166 -32.833 68.499 -43.5s54.166 -16 83.499 -16zM525 740c8.66699 0 16 -2.99805 22 -8.99805s9 -13.667 9 -23v-936c0 -9.33301 -3 -17 -9 -23s-13.333 -9 -22 -9
c-9.33301 0 -17 3 -23 9s-9 13.667 -9 23v65l-19 -20c-25.333 -26.667 -54.833 -46.167 -88.5 -58.5s-69.5 -18.5 -107.5 -18.5s-73.667 6.5 -107 19.5s-63 32.167 -89 57.5c-26.667 25.333 -47 54.166 -61 86.499s-21 66.5 -21 102.5s7 70 21 102s34.333 60.667 61 86
c26 25.333 55.667 44.666 89 57.999s69 20 107 20s73.667 -6.5 107 -19.5s63 -32.5 89 -58.5l19 -19v533c0 9.33301 3 17 9 23s13.667 9 23 9z" />
    <glyph glyph-name="e" unicode="e" horiz-adv-x="642" 
d="M272 -260c-36 0 -70.498 6.5 -103.498 19.5s-62.5 31.833 -88.5 56.5c-53.333 50 -80 111.333 -80 184s26.667 134 80 184c26 24.667 55.5 43.5 88.5 56.5s67.5 19.5 103.5 19.5c28.667 0 56.334 -4.16699 83.001 -12.5s51.334 -20 74.001 -35s42.5 -33.167 59.5 -54.5
s30.167 -45 39.5 -71c10.667 -28.667 16 -57.667 16 -87c0 -8.66699 -3 -16 -9 -22s-13.333 -9 -22 -9h-449c4 -24 12.167 -46.167 24.5 -66.5s27.666 -38 45.999 -53s39.333 -26.667 63 -35s48.5 -12.5 74.5 -12.5c51.333 0 96.666 15.667 135.999 47
c7.33301 5.33301 15.166 7.66602 23.499 6.99902s15.166 -4.66699 20.499 -12c5.33301 -6.66699 7.5 -14.167 6.5 -22.5s-4.83301 -15.166 -11.5 -20.499c-24.667 -19.333 -52 -34.333 -82 -45s-61 -16 -93 -16zM480.002 31c-1.33301 6 -2.83594 12 -4.50293 18
s-3.5 11.667 -5.5 17c-7.33301 20 -17.666 38 -30.999 54s-28.666 29.833 -45.999 41.5s-36.333 20.667 -57 27s-42 9.5 -64 9.5c-26 0 -50.833 -4.16699 -74.5 -12.5s-44.667 -20 -63 -35s-33.666 -32.667 -45.999 -53s-20.5 -42.5 -24.5 -66.5h416z" />
    <glyph glyph-name="f" unicode="f" horiz-adv-x="299" 
d="M238 740c9.33301 0 17 -3.00195 23 -9.00195s9 -13.667 9 -23c0 -8.66699 -3 -16 -9 -22s-13.667 -9 -23 -9h-85c-25.333 0 -46.666 -8.66699 -63.999 -26s-26 -38.666 -26 -63.999v-315h92c8.66699 0 16 -3.16699 22 -9.5s9 -13.833 9 -22.5s-3 -16.167 -9 -22.5
s-13.333 -9.5 -22 -9.5h-92v-436c0 -9.33301 -3 -17 -9 -23s-13.333 -9 -22 -9c-9.33301 0 -17 3 -23 9s-9 13.667 -9 23v815c0 20.667 4 40.334 12 59.001s19 35 33 49s30.167 25 48.5 33s38.166 12 59.499 12h85z" />
    <glyph glyph-name="g" unicode="g" horiz-adv-x="677" 
d="M278 -198c30 0 58 5.33301 84 16s48.667 25.167 68 43.5s34.666 39.666 45.999 63.999s17 50.5 17 78.5s-5.66699 54.333 -17 79s-26.666 46.167 -45.999 64.5s-42 32.833 -68 43.5s-54 16 -84 16c-29.333 0 -57.166 -5.33301 -83.499 -16s-49.166 -25.167 -68.499 -43.5
s-34.666 -39.833 -45.999 -64.5s-17 -51 -17 -79s5.66699 -54.167 17 -78.5s26.666 -45.666 45.999 -63.999s42.166 -32.833 68.499 -43.5s54.166 -16 83.499 -16zM525 270c8.66699 0 16 -2.99805 22 -8.99805s9 -13.667 9 -23v-702c0 -36 -7 -70.167 -21 -102.5
s-34.333 -61.166 -61 -86.499c-26 -25.333 -55.667 -44.5 -89 -57.5s-69 -19.5 -107 -19.5c-42 0 -84 9.66699 -126 29c-36.667 18 -68.667 43.667 -96 77c-5.33301 6.66699 -7.5 14.334 -6.5 23.001s4.83301 15.667 11.5 21c7.33301 5.33301 15.333 7.66602 24 6.99902
s15.667 -4.66699 21 -12c18.667 -24.667 43.334 -44.334 74.001 -59.001c32 -15.333 64.667 -23 98 -23c30 0 58 5.33301 84 16s48.667 25.167 68 43.5s34.666 39.833 45.999 64.5s17 51 17 79v299l-19 -19c-26 -26 -55.667 -45.5 -89 -58.5s-69 -19.5 -107 -19.5
s-73.667 6.66699 -107 20s-63 32.666 -89 57.999c-26.667 25.333 -47 54 -61 86s-21 66 -21 102s7 70.167 21 102.5s34.333 61.166 61 86.499c26 25.333 55.667 44.5 89 57.5s69 19.5 107 19.5s73.833 -6.16699 107.5 -18.5s63.167 -31.833 88.5 -58.5l19 -20v65
c0 9.33301 3 17 9 23s13.667 9 23 9z" />
    <glyph glyph-name="h" unicode="h" horiz-adv-x="629" 
d="M556 -228c0 -9.33301 -3.00391 -17.001 -9.00391 -23.001s-13.333 -9 -22 -9c-9.33301 0 -17 3 -23 9s-9 13.667 -9 23v234c0 28 -5.66699 54.333 -17 79s-26.666 46 -45.999 64s-42 32.333 -68 43s-54 16 -84 16c-29.333 0 -57.166 -5.33301 -83.499 -16
s-49.166 -25 -68.499 -43s-34.666 -39.333 -45.999 -64s-17 -51 -17 -79v-234c0 -9.33301 -3 -17 -9 -23s-13.333 -9 -22 -9c-9.33301 0 -17 3 -23 9s-9 13.667 -9 23v936c0 9.33301 3 17 9 23s13.667 9 23 9c8.66699 0 16 -3 22 -9s9 -13.667 9 -23v-533l19 19
c26 26 55.667 45.5 89 58.5s69 19.5 107 19.5s73.667 -6.66699 107 -20s63 -32.666 89 -57.999c26.667 -25.333 47 -54 61 -86s21 -66 21 -102v-234z" />
    <glyph glyph-name="i" unicode="i" horiz-adv-x="253" 
d="M101 -268c-9.33301 0 -17 3 -23 9s-9 13.667 -9 23v454c0 8.66699 3 16.167 9 22.5s13.667 9.5 23 9.5c8.66699 0 16.167 -3.16699 22.5 -9.5s9.5 -13.833 9.5 -22.5v-454c0 -9.33301 -3.16699 -17 -9.5 -23s-13.833 -9 -22.5 -9zM126 375
c0 -7.33301 -2.33301 -13.5 -7 -18.5s-10.667 -7.5 -18 -7.5s-13.5 2.5 -18.5 7.5s-7.5 11.167 -7.5 18.5s2.5 13.333 7.5 18s11.167 7 18.5 7c16.667 0 25 -8.33301 25 -25z" />
    <glyph glyph-name="j" unicode="j" horiz-adv-x="254" 
d="M102 -600c-9.33301 0 -17 3 -23 9s-9 13.667 -9 23v786c0 8.66699 3 16.167 9 22.5s13.667 9.5 23 9.5c8.66699 0 16.167 -3.16699 22.5 -9.5s9.5 -13.833 9.5 -22.5v-786c0 -9.33301 -3.16699 -17 -9.5 -23s-13.833 -9 -22.5 -9zM127 375
c0 -7.33301 -2.33301 -13.5 -7 -18.5s-10.667 -7.5 -18 -7.5s-13.5 2.5 -18.5 7.5s-7.5 11.167 -7.5 18.5s2.5 13.333 7.5 18s11.167 7 18.5 7c16.667 0 25 -8.33301 25 -25z" />
    <glyph glyph-name="k" unicode="k" horiz-adv-x="444" 
d="M403 -208c5.33301 -6.66699 7.66699 -14.332 7 -22.999s-4.33398 -15.667 -11.001 -21c-5.33301 -5.33301 -12 -8 -20 -8c-10 0 -18 3.66699 -24 11l-245 287l-47 -44v-222c0 -9.33301 -3 -17 -9 -23s-13.333 -9 -22 -9c-9.33301 0 -17 3 -23 9s-9 13.667 -9 23v936
c0 9.33301 3 17 9 23s13.667 9 23 9c8.66699 0 16 -3 22 -9s9 -13.667 9 -23v-627l28 26l165 156c6.66699 6 14.334 8.83301 23.001 8.5s16 -3.5 22 -9.5c6 -6.66699 8.83301 -14.334 8.5 -23.001s-3.5 -16 -9.5 -22l-144 -135z" />
    <glyph glyph-name="l" unicode="l" horiz-adv-x="257" 
d="M102 -260c-9.33301 0 -17 3 -23 9s-9 13.667 -9 23v936c0 9.33301 3 17 9 23s13.667 9 23 9c8.66699 0 16 -3 22 -9s9 -13.667 9 -23v-936c0 -9.33301 -3 -17 -9 -23s-13.333 -9 -22 -9z" />
    <glyph glyph-name="m" unicode="m" horiz-adv-x="1208" 
d="M1012 184c53.333 -50 80.0029 -111.333 80.0029 -184v-228c0 -8.66699 -3 -16 -9 -22s-13.333 -9 -22 -9s-16 3 -22 9s-9 13.333 -9 22v228c0 27.333 -5.5 53 -16.5 77s-26 45 -45 63s-41.333 32.167 -67 42.5s-52.834 15.5 -81.501 15.5
c-29.333 0 -56.666 -5.16699 -81.999 -15.5s-47.5 -24.5 -66.5 -42.5s-34 -39 -45 -63s-16.5 -49.667 -16.5 -77v-229c0 -8.66699 -3 -16 -9 -22s-13.333 -9 -22 -9s-16 3 -22 9s-9 13.333 -9 22v229c0 27.333 -5.5 53 -16.5 77s-26 45 -45 63s-41.333 32.167 -67 42.5
s-52.834 15.5 -81.501 15.5c-29.333 0 -56.666 -5.16699 -81.999 -15.5s-47.5 -24.5 -66.5 -42.5s-34 -39 -45 -63s-16.5 -49.667 -16.5 -77v-229c0 -8.66699 -3 -16 -9 -22s-13.333 -9 -22 -9s-16 3 -22 9s-9 13.333 -9 22v458c0 8.66699 3 16 9 22s13.333 9 22 9
s16 -3 22 -9s9 -13.333 9 -22v-64l18 19c25.333 26 54.666 45.167 87.999 57.5s68 18.5 104 18.5s70.5 -6.5 103.5 -19.5s62.5 -31.833 88.5 -56.5c9.33301 -9.33301 18.166 -19.166 26.499 -29.499s15.833 -21.5 22.5 -33.5c6.66699 12 14.167 23.167 22.5 33.5
s17.166 20.166 26.499 29.499c26 24.667 55.5 43.5 88.5 56.5s67.5 19.5 103.5 19.5c36.667 0 71.5 -6.5 104.5 -19.5s62.167 -31.833 87.5 -56.5z" />
    <glyph glyph-name="n" unicode="n" horiz-adv-x="726" 
d="M530 180c53.333 -50 79.999 -111.333 79.999 -184v-229c0 -8.66699 -3 -16 -9 -22s-13.333 -9 -22 -9s-16 3 -22 9s-9 13.333 -9 22v229c0 27.333 -5.5 53 -16.5 77s-26 45 -45 63s-41.333 32.167 -67 42.5s-52.834 15.5 -81.501 15.5
c-29.333 0 -56.666 -5.16699 -81.999 -15.5s-47.5 -24.5 -66.5 -42.5s-34 -39 -45 -63s-16.5 -49.667 -16.5 -77v-229c0 -8.66699 -3 -16 -9 -22s-13.333 -9 -22 -9s-16 3 -22 9s-9 13.333 -9 22v458c0 8.66699 3 16 9 22s13.333 9 22 9s16 -3 22 -9s9 -13.333 9 -22v-64
l18 19c24.667 26 53.834 45.167 87.501 57.5s68.5 18.5 104.5 18.5s70.5 -6.5 103.5 -19.5s62.5 -31.833 88.5 -56.5z" />
    <glyph glyph-name="o" unicode="o" horiz-adv-x="661" 
d="M272 -260c-36 0 -70.5 6.5 -103.5 19.5s-62.5 31.833 -88.5 56.5c-53.333 50 -80 111.333 -80 184s26.667 134 80 184c26 24.667 55.5 43.5 88.5 56.5s67.5 19.5 103.5 19.5s70.5 -6.5 103.5 -19.5s62.5 -31.833 88.5 -56.5c53.333 -50 80 -111.333 80 -184
s-26.667 -134 -80 -184c-26 -24.667 -55.5 -43.5 -88.5 -56.5s-67.5 -19.5 -103.5 -19.5zM272 198c-29.333 0 -56.666 -5.16699 -81.999 -15.5s-47.5 -24.5 -66.5 -42.5s-34 -39 -45 -63s-16.5 -49.667 -16.5 -77s5.5 -53 16.5 -77s26 -45 45 -63s41.167 -32.167 66.5 -42.5
s52.666 -15.5 81.999 -15.5c28.667 0 55.834 5.16699 81.501 15.5s48 24.5 67 42.5s34 39 45 63s16.5 49.667 16.5 77s-5.5 53 -16.5 77s-26 45 -45 63s-41.333 32.167 -67 42.5s-52.834 15.5 -81.501 15.5z" />
    <glyph glyph-name="p" unicode="p" horiz-adv-x="600" 
d="M278 -198c30 0 58 5.33301 84 16s48.667 25.167 68 43.5s34.666 39.666 45.999 63.999s17 50.5 17 78.5s-5.66699 54.333 -17 79s-26.666 46.167 -45.999 64.5s-42 32.833 -68 43.5s-54 16 -84 16c-29.333 0 -57.166 -5.33301 -83.499 -16s-49.166 -25.167 -68.499 -43.5
s-34.666 -39.833 -45.999 -64.5s-17 -51 -17 -79s5.66699 -54.167 17 -78.5s26.666 -45.666 45.999 -63.999s42.166 -32.833 68.499 -43.5s54.166 -16 83.499 -16zM474 193c26.667 -25.333 47 -54.168 61 -86.501s21 -66.5 21 -102.5s-7 -70 -21 -102
s-34.333 -60.667 -61 -86c-26 -25.333 -55.667 -44.666 -89 -57.999s-69 -20 -107 -20s-73.667 6.5 -107 19.5s-63 32.5 -89 58.5l-19 19v-533c0 -9.33301 -3 -17 -9 -23s-13.333 -9 -22 -9c-9.33301 0 -17 3 -23 9s-9 13.667 -9 23v936c0 9.33301 3 17 9 23s13.667 9 23 9
c8.66699 0 16 -3 22 -9s9 -13.667 9 -23v-65l19 20c25.333 26.667 54.833 46.167 88.5 58.5s69.5 18.5 107.5 18.5s73.667 -6.5 107 -19.5s63 -32.167 89 -57.5z" />
    <glyph glyph-name="q" unicode="q" horiz-adv-x="677" 
d="M278 -198c30 0 58 5.33301 84 16s48.667 25.167 68 43.5s34.666 39.666 45.999 63.999s17 50.5 17 78.5s-5.66699 54.333 -17 79s-26.666 46.167 -45.999 64.5s-42 32.833 -68 43.5s-54 16 -84 16c-29.333 0 -57.166 -5.33301 -83.499 -16s-49.166 -25.167 -68.499 -43.5
s-34.666 -39.833 -45.999 -64.5s-17 -51 -17 -79s5.66699 -54.167 17 -78.5s26.666 -45.666 45.999 -63.999s42.166 -32.833 68.499 -43.5s54.166 -16 83.499 -16zM525 270c8.66699 0 16 -2.99805 22 -8.99805s9 -13.667 9 -23v-936c0 -9.33301 -3 -17 -9 -23
s-13.333 -9 -22 -9c-9.33301 0 -17 3 -23 9s-9 13.667 -9 23v533l-19 -19c-26 -26 -55.667 -45.5 -89 -58.5s-69 -19.5 -107 -19.5s-73.667 6.66699 -107 20s-63 32.666 -89 57.999c-26.667 25.333 -47 54 -61 86s-21 66 -21 102s7 70.167 21 102.5s34.333 61.166 61 86.499
c26 25.333 55.667 44.5 89 57.5s69 19.5 107 19.5s73.833 -6.16699 107.5 -18.5s63.167 -31.833 88.5 -58.5l19 -20v65c0 9.33301 3 17 9 23s13.667 9 23 9z" />
    <glyph glyph-name="r" unicode="r" horiz-adv-x="497" 
d="M462 182c6 -5.33301 8.99707 -12.333 8.99707 -21s-2.66699 -16 -8 -22c-6 -6.66699 -13.167 -10.167 -21.5 -10.5s-15.5 2.5 -21.5 8.5c-41.333 38 -90.666 57 -147.999 57c-29.333 0 -56.666 -5.16699 -81.999 -15.5s-47.5 -24.5 -66.5 -42.5s-34 -39 -45 -63
s-16.5 -49.667 -16.5 -77v-229c0 -8.66699 -3 -16 -9 -22s-13.333 -9 -22 -9s-16 3 -22 9s-9 13.333 -9 22v458c0 8.66699 3 16 9 22s13.333 9 22 9s16 -3 22 -9s9 -13.333 9 -22v-64l18 19c24.667 26 53.834 45.167 87.501 57.5s68.5 18.5 104.5 18.5
s70.333 -6.33301 103 -19s61.667 -31 87 -55z" />
    <glyph glyph-name="s" unicode="s" horiz-adv-x="502" 
d="M197 -262c-25.333 0 -49.3281 3.16504 -71.9951 9.49805s-43.334 15.166 -62.001 26.499c-41.333 26 -62 59 -62 99c0 8.66699 2.83301 16 8.5 22s12.834 9 21.501 9s15.834 -3 21.501 -9s8.5 -13.333 8.5 -22c0 -5.33301 2 -12.333 6 -21s13.667 -17.667 29 -27
c13.333 -8.66699 28.666 -15.334 45.999 -20.001s35.666 -7 54.999 -7s37.666 2.33301 54.999 7s32.666 11.334 45.999 20.001c15.333 9.33301 25 18.333 29 27s6 15.667 6 21v26c0 5.33301 -2 12.333 -6 21s-13.667 18 -29 28c-12.667 7.33301 -27.334 13.333 -44.001 18
s-34.334 7.33398 -53.001 8.00098c-0.666992 -0.666992 -2 -1 -4 -1c-25.333 0 -49.333 3.16699 -72 9.5s-43.334 15.166 -62.001 26.499c-41.333 26 -62 59 -62 99v25c0 40.667 20.667 74 62 100c18.667 12 39.334 20.833 62.001 26.5s46.667 8.5 72 8.5
c52 0 96.333 -11.667 133 -35c42 -27.333 63 -60.666 63 -99.999c0 -8 -3 -15 -9 -21s-13 -9 -21 -9c-8.66699 0 -15.834 3 -21.501 9s-8.5 13 -8.5 21c0 5.33301 -2 12.5 -6 21.5s-13.667 18.167 -29 27.5c-27.333 17.333 -61 26 -101 26s-73.667 -8.66699 -101 -26
c-15.333 -9.33301 -25 -18.5 -29 -27.5s-6 -16.167 -6 -21.5v-25c0 -5.33301 2 -12.333 6 -21s13.667 -17.667 29 -27c12.667 -8 27.334 -14.333 44.001 -19s34 -7 52 -7h5c25.333 0 49.166 -3.16699 71.499 -9.5s42.833 -15.166 61.5 -26.499c42 -26.667 63 -59.667 63 -99
v-26c0 -39.333 -21 -72.333 -63 -99c-18.667 -11.333 -39.167 -20.166 -61.5 -26.499s-46.166 -9.5 -71.499 -9.5z" />
    <glyph glyph-name="t" unicode="t" horiz-adv-x="391" 
d="M340 273c8.66699 0 16 -3 22 -9s9 -13.333 9 -22s-3 -16 -9 -22s-13.333 -9 -22 -9h-160v-440c0 -8.66699 -3 -16 -9 -22s-13 -9 -21 -9c-8.66699 0 -16 3 -22 9s-9 13.333 -9 22v440h-88c-8.66699 0 -16 3 -22 9s-9 13.333 -9 22s3 16 9 22s13.333 9 22 9h88v197
c0 8 3 15 9 21s13.333 9 22 9c8 0 15 -3 21 -9s9 -13 9 -21v-197h160z" />
    <glyph glyph-name="u" unicode="u" horiz-adv-x="732" 
d="M610 229l0.000976562 -229v-229c0 -8.66699 -3 -16 -9 -22s-13.333 -9 -22 -9s-16 3 -22 9s-9 13.333 -9 22v64l-18 -19c-24.667 -26 -53.834 -45.167 -87.501 -57.5s-68.5 -18.5 -104.5 -18.5s-70.5 6.5 -103.5 19.5s-62.5 31.833 -88.5 56.5
c-53.333 50 -80 111.333 -80 184v229c0 8.66699 3 16 9 22s13.333 9 22 9s16 -3 22 -9s9 -13.333 9 -22v-229c0 -27.333 5.5 -53 16.5 -77s26 -45 45 -63s41.167 -32.167 66.5 -42.5s52.666 -15.5 81.999 -15.5c28.667 0 55.834 5.16699 81.501 15.5s48 24.5 67 42.5
s34 39 45 63s16.5 49.667 16.5 77v229c0 8.66699 3 16 9 22s13.333 9 22 9c8 0 14.833 -2.66699 20.5 -8s9.16699 -12 10.5 -20v-3z" />
    <glyph glyph-name="v" unicode="v" horiz-adv-x="584" 
d="M240 -260c-14 0 -23.332 6 -27.999 18l-209 458c-3.33301 8 -3.5 16 -0.5 24s8.16699 13.667 15.5 17c8 3.33301 16 3.5 24 0.5s13.667 -8.16699 17 -15.5l181 -397l180 397c3.33301 7.33301 9.16602 12.5 17.499 15.5s16.166 2.83301 23.499 -0.5
c8 -3.33301 13.5 -9 16.5 -17s2.83301 -16 -0.5 -24l-209 -458c-5.33301 -12 -14.666 -18 -27.999 -18z" />
    <glyph glyph-name="w" unicode="w" horiz-adv-x="881" 
d="M759 257c7.33301 -3.33301 12.5 -9 15.5 -17s2.83301 -16 -0.5 -24l-209 -458c-5.33301 -12 -14.666 -18 -27.999 -18c-14 0 -23.333 6 -28 18l-121 264l-120 -264c-5.33301 -12 -14.666 -18 -27.999 -18c-14 0 -23.333 6 -28 18l-209 458c-3.33301 8 -3.5 16 -0.5 24
s8.16699 13.667 15.5 17c8 3.33301 16 3.5 24 0.5s13.667 -8.16699 17 -15.5l181 -397l114 252l-54 119c-3.33301 8 -3.5 16 -0.5 24s8.16699 13.667 15.5 17c8 3.33301 16 3.5 24 0.5s13.667 -8.16699 17 -15.5l32 -71l32 71c3.33301 7.33301 9.16602 12.5 17.499 15.5
s16.166 2.83301 23.499 -0.5c8 -3.33301 13.5 -9 16.5 -17s2.83301 -16 -0.5 -24l-55 -119l115 -252l181 397c3.33301 7.33301 9 12.5 17 15.5s16 2.83301 24 -0.5z" />
    <glyph glyph-name="x" unicode="x" horiz-adv-x="520" 
d="M471 -208c6 -6.66699 8.83301 -14.167 8.5 -22.5s-3.83301 -15.5 -10.5 -21.5c-7.33301 -5.33301 -14 -8 -20 -8c-9.33301 0 -17 3.33301 -23 10l-186 204l-186 -204c-6 -6.66699 -13.667 -10 -23 -10c-6.66699 0 -13.667 2.66699 -21 8c-6.66699 6 -10 13.167 -10 21.5
s2.66699 15.833 8 22.5l190 208l-190 208c-5.33301 6.66699 -8 14.167 -8 22.5s3.33301 15.5 10 21.5c6.66699 5.33301 14.167 8 22.5 8s15.5 -3.33301 21.5 -10l186 -204l186 204c5.33301 6.66699 12.333 10 21 10s16 -2.66699 22 -8c6.66699 -6 10.167 -13.167 10.5 -21.5
s-2.5 -15.833 -8.5 -22.5l-189 -208z" />
    <glyph glyph-name="y" unicode="y" horiz-adv-x="656" 
d="M539 256c8 -4 13.1689 -10.166 15.502 -18.499s1.5 -16.166 -2.5 -23.499l-244 -466l-248 -471c-6 -11.333 -15.333 -17 -28 -17c-5.33301 0 -10.333 1.33301 -15 4c-8 4 -13.167 10.167 -15.5 18.5s-1.5 16.166 2.5 23.499l240 457l-240 451
c-4 7.33301 -4.83301 15.166 -2.5 23.499s7.5 14.5 15.5 18.5c7.33301 4 15.166 4.83301 23.499 2.5s14.5 -7.5 18.5 -15.5l220 -412l218 412c4 8 10.167 13.167 18.5 15.5s16.166 1.5 23.499 -2.5z" />
    <glyph glyph-name="z" unicode="z" horiz-adv-x="508" 
d="M31 -260c-14 0 -23.333 6 -28 18c-5.33301 13.333 -3.66602 24.666 5.00098 33.999l371 406h-348c-8.66699 0 -16 3 -22 9s-9 13.333 -9 22s3 16 9 22s13.333 9 22 9h418c13.333 0 22.666 -6 27.999 -18c5.33301 -13.333 3.33301 -24.666 -6 -33.999l-370 -406h348
c8.66699 0 15.834 -3 21.501 -9s8.5 -13.333 8.5 -22s-2.83301 -16 -8.5 -22s-12.834 -9 -21.501 -9h-418z" />
    <glyph glyph-name="bar" unicode="|" horiz-adv-x="205" 
d="M32 -360c-9.33301 0 -17 3 -23 9s-9 13.667 -9 23v1136c0 9.33301 3 17 9 23s13.667 9 23 9c8.66699 0 16 -3 22 -9s9 -13.667 9 -23v-1136c0 -9.33301 -3 -17 -9 -23s-13.333 -9 -22 -9z" />
    <glyph glyph-name="degree" unicode="&#xb0;" horiz-adv-x="694" 
d="M439 518c-15.333 0 -29.666 3 -42.999 9s-25 14 -35 24s-18 21.667 -24 35s-9 27.666 -9 42.999c0 14.667 3 28.834 9 42.501s14 25.5 24 35.5s21.667 18 35 24s27.666 9 42.999 9s29.833 -3 43.5 -9s25.5 -14 35.5 -24s17.833 -21.833 23.5 -35.5
s8.5 -27.834 8.5 -42.501c0 -15.333 -2.83301 -29.666 -8.5 -42.999s-13.5 -25 -23.5 -35s-21.833 -18 -35.5 -24s-28.167 -9 -43.5 -9zM439 678c-13.333 0 -24.666 -4.83301 -33.999 -14.5s-14 -21.167 -14 -34.5s4.66699 -24.833 14 -34.5s20.666 -14.5 33.999 -14.5
s24.833 4.83301 34.5 14.5s14.5 21.167 14.5 34.5s-4.83301 24.833 -14.5 34.5s-21.167 14.5 -34.5 14.5z" />
    <glyph glyph-name="ordmasculine" unicode="&#xba;" horiz-adv-x="694" 
d="M439 518c-15.333 0 -29.666 3 -42.999 9s-25 14 -35 24s-18 21.667 -24 35s-9 27.666 -9 42.999c0 14.667 3 28.834 9 42.501s14 25.5 24 35.5s21.667 18 35 24s27.666 9 42.999 9s29.833 -3 43.5 -9s25.5 -14 35.5 -24s17.833 -21.833 23.5 -35.5
s8.5 -27.834 8.5 -42.501c0 -15.333 -2.83301 -29.666 -8.5 -42.999s-13.5 -25 -23.5 -35s-21.833 -18 -35.5 -24s-28.167 -9 -43.5 -9zM439 678c-13.333 0 -24.666 -4.83301 -33.999 -14.5s-14 -21.167 -14 -34.5s4.66699 -24.833 14 -34.5s20.666 -14.5 33.999 -14.5
s24.833 4.83301 34.5 14.5s14.5 21.167 14.5 34.5s-4.83301 24.833 -14.5 34.5s-21.167 14.5 -34.5 14.5z" />
    <glyph glyph-name="questiondown" unicode="&#xbf;" horiz-adv-x="519" 
d="M200 577c8.66699 0 15.999 -3.00098 21.999 -9.00098s9 -13.333 9 -22v-423c0 -8.66699 -3 -16 -9 -22s-13.333 -9 -22 -9c-19.333 0 -38.166 -2.33301 -56.499 -7s-34.166 -11.334 -47.499 -20.001c-15.333 -9.33301 -25 -18.666 -29 -27.999s-6 -16.666 -6 -21.999
v-139c0 -5.33301 2 -12.5 6 -21.5s13.667 -18.5 29 -28.5c13.333 -8.66699 29.166 -15.167 47.499 -19.5s37.166 -6.5 56.499 -6.5s38 2.16699 56 6.5s33.667 10.833 47 19.5c15.333 10 25 19.5 29 28.5s6 16.167 6 21.5v50c0 8.66699 3 16 9 22s13.333 9 22 9s16 -3 22 -9
s9 -13.333 9 -22v-50c0 -20 -5.5 -38.667 -16.5 -56s-26.833 -32.666 -47.5 -45.999c-18.667 -12 -39.667 -21 -63 -27s-47.666 -9 -72.999 -9s-49.833 3.16699 -73.5 9.5s-44.5 15.166 -62.5 26.499c-42.667 26.667 -64 60.667 -64 102v139c-0 41.333 21.333 75.333 64 102
c29.333 19.333 64.333 31 105 35v394c0 8.66699 3 16 9 22s13.333 9 22 9zM235.999 661.999c0 -10.667 -3.5 -19.5 -10.5 -26.5s-15.5 -10.5 -25.5 -10.5s-18.667 3.5 -26 10.5s-11 15.833 -11 26.5c0 10 3.66699 18.5 11 25.5s16 10.5 26 10.5s18.5 -3.5 25.5 -10.5
s10.5 -15.5 10.5 -25.5z" />
    <glyph glyph-name="Agrave" unicode="&#xc0;" horiz-adv-x="709" 
d="M396 810c-6.66699 -6.66699 -14.334 -9.83398 -23.001 -9.50098s-16 3.5 -22 9.5l-187 187c-6 6 -9.16699 13.333 -9.5 22s2.83398 16.334 9.50098 23.001s14.334 9.83398 23.001 9.50098s16 -3.5 22 -9.5l187 -187c6 -6 9.16699 -13.333 9.5 -22
s-2.83398 -16.334 -9.50098 -23.001zM496 266l-0.00195312 318c0 25.333 -8.66699 46.666 -26 63.999s-38.666 26 -63.999 26h-252c-25.333 0 -46.666 -8.66699 -63.999 -26s-26 -38.666 -26 -63.999v-318h432zM405.998 738c21.333 0 41.333 -4 60 -12s35 -19 49 -33
s25 -30.333 33 -49s12 -38.667 12 -60v-821c0 -9.33301 -3 -17 -9 -23s-13.667 -9 -23 -9c-8.66699 0 -16.167 3 -22.5 9s-9.5 13.667 -9.5 23v440h-432v-440c0 -9.33301 -3.16699 -17 -9.5 -23s-13.833 -9 -22.5 -9c-9.33301 0 -17 3 -23 9s-9 13.667 -9 23v821
c0 21.333 4 41.333 12 60s19 35 33 49s30.333 25 49 33s38.667 12 60 12h252z" />
    <glyph glyph-name="Aacute" unicode="&#xc1;" horiz-adv-x="710" 
d="M154 740c-21.333 0 -41.333 -4 -60 -12s-35 -19 -49 -33s-25 -30.333 -33 -49s-12 -38.667 -12 -60v-823c0 -9.33301 3 -17 9 -23s13.667 -9 23 -9c8.66699 0 16.167 3 22.5 9s9.5 13.667 9.5 23v441h433v-441c0 -9.33301 3.16699 -17 9.5 -23s13.833 -9 22.5 -9
c9.33301 0 17 3 23 9s9 13.667 9 23v823c0 21.333 -4 41.333 -12 60s-19 35 -33 49s-30.333 25 -49 33s-38.667 12 -60 12h-253zM64 268l0.00195312 318c0 25.333 8.66699 46.666 26 63.999s38.666 26 63.999 26h253c25.333 0 46.666 -8.66699 63.999 -26
s26 -38.666 26 -63.999v-318h-433zM165.002 813c-6.66699 6.66699 -9.83398 14.168 -9.50098 22.501s3.5 15.833 9.5 22.5l186 187c6 6.66699 13.5 10 22.5 10s16.833 -3.33301 23.5 -10s9.83398 -14.334 9.50098 -23.001s-3.5 -16 -9.5 -22l-187 -187
c-6.66699 -6.66699 -14.167 -10 -22.5 -10s-15.833 3.33301 -22.5 10z" />
    <glyph glyph-name="Acircumflex" unicode="&#xc2;" horiz-adv-x="709" 
d="M154 738c-21.333 0 -41.333 -4 -60 -12s-35 -19 -49 -33s-25 -30.333 -33 -49s-12 -38.667 -12 -60v-821c0 -9.33301 3 -17 9 -23s13.667 -9 23 -9c8.66699 0 16.167 3 22.5 9s9.5 13.667 9.5 23v440h433v-440c0 -9.33301 3 -17 9 -23s13.333 -9 22 -9
c9.33301 0 17 3 23 9s9 13.667 9 23v821c0 21.333 -4 41.333 -12 60s-19 35 -33 49s-30.333 25 -49 33s-38.667 12 -60 12h-252zM64 266l0.000976562 318c0 25.333 8.66699 46.833 26 64.5s38.666 26.5 63.999 26.5h252c25.333 0 46.833 -8.83301 64.5 -26.5
s26.5 -39.167 26.5 -64.5v-318h-433zM90.001 844c0 8 3.00098 15 9.00098 21l153 166c4.66699 6.66699 12 10 22 10c9.33301 0 17 -3 23 -9l163 -163c6.66699 -6.66699 10 -14.167 10 -22.5s-3.33301 -15.833 -10 -22.5s-14.167 -10 -22.5 -10s-15.833 3.33301 -22.5 10
l-139 139l-130 -141c-6 -6.66699 -13.333 -10.167 -22 -10.5s-16.334 2.5 -23.001 8.5c-7.33301 7.33301 -11 15.333 -11 24z" />
    <glyph glyph-name="Atilde" unicode="&#xc3;" horiz-adv-x="711" 
d="M155 742c-21.333 0 -41.5 -4 -60.5 -12s-35.5 -19 -49.5 -33s-25 -30.333 -33 -49s-12 -38.667 -12 -60v-825c0 -9.33301 3 -17 9 -23s13.667 -9 23 -9s17 3 23 9s9 13.667 9 23v442h435v-442c0 -9.33301 3 -17 9 -23s13.333 -9 22 -9c9.33301 0 17 3 23 9s9 13.667 9 23
v825c0 21.333 -4 41.333 -12 60s-19 35 -33 49s-30.333 25 -49 33s-38.667 12 -60 12h-253zM64 269v319c0 25.333 8.83301 46.666 26.5 63.999s39.167 26 64.5 26h253c25.333 0 46.833 -8.66699 64.5 -26s26.5 -38.666 26.5 -63.999v-319h-435zM366 806
c-22.667 0 -43.6699 5.16602 -63.0029 15.499s-35.333 25.166 -48 44.499h-1c-7.33301 12 -17.666 20.833 -30.999 26.5s-26.666 6.83398 -39.999 3.50098c-14 -3.33301 -26 -10 -36 -20s-16.333 -22 -19 -36c-1.33301 -8.66699 -5.66602 -15.5 -12.999 -20.5
s-15.333 -6.5 -24 -4.5c-8.66699 1.33301 -15.667 5.5 -21 12.5s-7 15.167 -5 24.5c5.33301 28 17.166 51.333 35.499 70s41.5 30.667 69.5 36s54.167 3 78.5 -7s44.166 -26.667 59.499 -50v-1c8 -11.333 18.5 -19.833 31.5 -25.5s26.5 -6.83398 40.5 -3.50098
s25.833 9.83301 35.5 19.5s15.834 21.5 18.501 35.5c1.33301 9.33301 5.66602 16.333 12.999 21s15.333 6.33398 24 5.00098c9.33301 -1.33301 16.333 -5.66602 21 -12.999s6.33398 -15.333 5.00098 -24c-5.33301 -28 -17.166 -51.5 -35.499 -70.5
s-41.5 -31.167 -69.5 -36.5c-4.66699 -1.33301 -9.16699 -2 -13.5 -2h-12.5z" />
    <glyph glyph-name="Adieresis" unicode="&#xc4;" horiz-adv-x="705" 
d="M153 742c-21.333 0 -41.166 -4 -59.499 -12s-34.5 -18.833 -48.5 -32.5s-25 -29.834 -33 -48.501s-12 -38.667 -12 -60v-816c0 -9.33301 3 -17 9 -23s13.667 -9 23 -9c8.66699 0 16 3 22 9s9 13.667 9 23v437h431v-437c0 -9.33301 3 -17 9 -23s13.333 -9 22 -9
c9.33301 0 17 3 23 9s9 13.667 9 23v816c0 21.333 -4 41.333 -12 60s-19 34.834 -33 48.501s-30.333 24.5 -49 32.5s-38.334 12 -59.001 12h-251zM63 273v316c0 12.667 2.33301 24.5 7 35.5s11.167 20.5 19.5 28.5s18 14.333 29 19s22.5 7 34.5 7h251
c12 0 23.5 -2.33301 34.5 -7s20.667 -11 29 -19s14.833 -17.5 19.5 -28.5s7 -22.833 7 -35.5v-316h-431zM140 891c10.667 0 19.5 -3.66699 26.5 -11s10.5 -16.333 10.5 -27s-3.5 -19.5 -10.5 -26.5s-15.833 -10.5 -26.5 -10.5s-19.667 3.5 -27 10.5s-11 15.833 -11 26.5
s3.66699 19.667 11 27s16.333 11 27 11zM417 891c10.667 0 19.667 -3.66699 27 -11s11 -16.333 11 -27s-3.66699 -19.5 -11 -26.5s-16.333 -10.5 -27 -10.5s-19.667 3.5 -27 10.5s-11 15.833 -11 26.5s3.66699 19.667 11 27s16.333 11 27 11z" />
    <glyph glyph-name="Egrave" unicode="&#xc8;" horiz-adv-x="631" 
d="M396 810c-6.66699 -6.66699 -14.1689 -9.83301 -22.502 -9.5s-15.833 3.5 -22.5 9.5l-187 186c-6 6 -9 13.5 -9 22.5s3 16.5 9 22.5c6.66699 6 14.334 9 23.001 9s16 -3 22 -9l187 -186c6.66699 -6 9.83398 -13.5 9.50098 -22.5s-3.5 -16.5 -9.5 -22.5zM527.998 -205.999
c9.33301 0 16.999 -3 22.999 -9s9 -13.667 9 -23c0 -8.66699 -3 -16.167 -9 -22.5s-13.667 -9.5 -23 -9.5h-374c-21.333 0 -41.333 4 -60 12s-35 19 -49 33s-25 30.333 -33 49s-12 38.667 -12 60v699c0 21.333 4 41.333 12 60s19 35 33 49s30.333 25 49 33s38.667 12 60 12
h374c9.33301 0 17 -3 23 -9s9 -13.667 9 -23c0 -8.66699 -3 -16 -9 -22s-13.667 -9 -23 -9h-374c-25.333 0 -46.666 -8.83301 -63.999 -26.5s-26 -39.167 -26 -64.5v-317h340c9.33301 0 17 -3.16699 23 -9.5s9 -13.833 9 -22.5c0 -9.33301 -3 -17 -9 -23s-13.667 -9 -23 -9
h-340v-318c0 -12 2.33301 -23.5 7 -34.5s11 -20.667 19 -29s17.5 -14.833 28.5 -19.5s22.833 -7 35.5 -7h374z" />
    <glyph glyph-name="Eacute" unicode="&#xc9;" horiz-adv-x="621" 
d="M153 -196c-12.667 0 -24.5 2.33301 -35.5 7s-20.5 11 -28.5 19s-14.333 17.5 -19 28.5s-7 22.5 -7 34.5v315h338c8.66699 0 16.167 3.16699 22.5 9.5s9.5 13.833 9.5 22.5s-3.16699 16.167 -9.5 22.5s-13.833 9.5 -22.5 9.5h-338v315c0 12 2.33301 23.5 7 34.5
s11 20.667 19 29s17.5 14.833 28.5 19.5s22.833 7 35.5 7h371c9.33301 0 17 3 23 9s9 13.333 9 22c0 9.33301 -3 17 -9 23s-13.667 9 -23 9h-371c-21.333 0 -41.333 -4 -60 -12s-34.834 -19 -48.501 -33s-24.5 -30.333 -32.5 -49s-12 -38.334 -12 -59.001v-694
c0 -21.333 4 -41.166 12 -59.499s18.833 -34.5 32.5 -48.5s29.834 -25 48.501 -33s38.667 -12 60 -12h371c9.33301 0 17 3.16699 23 9.5s9 13.833 9 22.5s-3 16.167 -9 22.5s-13.667 9.5 -23 9.5h-371zM163 812c-6 6 -8.99902 13.333 -8.99902 22s3 16 9 22l185 185
c6 6 13.333 9 22 9s16.334 -3 23.001 -9c6 -6 9.16699 -13.5 9.5 -22.5s-2.83398 -16.5 -9.50098 -22.5l-185 -184c-6.66699 -6.66699 -14.334 -10 -23.001 -10s-16 3.33301 -22 10z" />
    <glyph glyph-name="Ecircumflex" unicode="&#xca;" horiz-adv-x="632" 
d="M154 -206c-12.667 0 -24.5 2.33301 -35.5 7s-20.5 11.167 -28.5 19.5s-14.333 18 -19 29s-7 22.5 -7 34.5v318h340c9.33301 0 17 3 23 9s9 13.667 9 23s-3 17 -9 23s-13.667 9 -23 9h-340v318c0 12 2.33301 23.5 7 34.5s11 20.667 19 29s17.5 14.833 28.5 19.5
s22.833 7 35.5 7h374c9.33301 0 17 3 23 9s9 13.667 9 23c0 8.66699 -3 16.167 -9 22.5s-13.667 9.5 -23 9.5h-374c-21.333 0 -41.333 -4 -60 -12s-35 -19 -49 -33s-25 -30.333 -33 -49s-12 -38.667 -12 -60v-700c0 -21.333 4 -41.333 12 -60s19 -35 33 -49
s30.333 -25 49 -33s38.667 -12 60 -12h374c9.33301 0 17 3.16699 23 9.5s9 13.833 9 22.5c0 9.33301 -3 17 -9 23s-13.667 9 -23 9h-374zM90 843c0 8.66699 3 15.999 9 21.999l153 165c4.66699 6.66699 12 10 22 10c9.33301 0 17 -3 23 -9l163 -163
c6.66699 -6.66699 10 -14.167 10 -22.5s-3.33301 -15.833 -10 -22.5c-6 -6 -13.5 -9.16699 -22.5 -9.5s-16.5 2.83398 -22.5 9.50098l-139 140l-130 -142c-5.33301 -6.66699 -12.5 -10 -21.5 -10s-16.833 3 -23.5 9c-7.33301 6 -11 13.667 -11 23z" />
    <glyph glyph-name="Edieresis" unicode="&#xcb;" horiz-adv-x="622" 
d="M153 -196c-12 0 -23.5 2.33496 -34.5 7.00195s-20.667 11 -29 19s-14.833 17.5 -19.5 28.5s-7 22.833 -7 35.5v316h339c8.66699 0 16 3 22 9s9 13.333 9 22c0 9.33301 -3 17 -9 23s-13.333 9 -22 9h-339v316c0 12.667 2.33301 24.5 7 35.5s11.167 20.5 19.5 28.5
s18 14.333 29 19s22.5 7 34.5 7h372c9.33301 0 17 3 23 9s9 13.333 9 22c0 9.33301 -3 17 -9 23s-13.667 9 -23 9h-372c-21.333 0 -41.166 -4 -59.499 -12s-34.5 -19 -48.5 -33s-25 -30.333 -33 -49s-12 -38.334 -12 -59.001v-695c0 -21.333 4 -41.333 12 -60
s19 -34.834 33 -48.501s30.167 -24.5 48.5 -32.5s38.166 -12 59.499 -12h372c9.33301 0 17 3 23 9s9 13.333 9 22c0 9.33301 -3 17 -9 23s-13.667 9 -23 9h-372zM178 891.002c10 0 18.667 -3.66699 26 -11s11 -16.333 11 -27s-3.66699 -19.667 -11 -27s-16 -11 -26 -11
c-10.667 0 -19.667 3.66699 -27 11s-11 16.333 -11 27s3.66699 19.667 11 27s16.333 11 27 11zM455 891.002c10.667 0 19.667 -3.66699 27 -11s11 -16.333 11 -27s-3.66699 -19.667 -11 -27s-16.333 -11 -27 -11s-19.667 3.66699 -27 11s-11 16.333 -11 27
s3.66699 19.667 11 27s16.333 11 27 11z" />
    <glyph glyph-name="Igrave" unicode="&#xcc;" horiz-adv-x="335" 
d="M241 820c-6.66699 -6.66699 -14.167 -10.001 -22.5 -10.001s-15.833 3.33301 -22.5 10l-186 186c-6.66699 6.66699 -9.83398 14.334 -9.50098 23.001s3.5 16 9.5 22c6 6.66699 13.333 10 22 10s16.334 -3.33301 23.001 -10l186 -186
c6.66699 -6.66699 10 -14.167 10 -22.5s-3.33301 -15.833 -10 -22.5zM155 -260.001c-8.66699 0 -16.167 3.16699 -22.5 9.5s-9.5 13.833 -9.5 22.5v943c0 8.66699 3.16699 16.167 9.5 22.5s13.833 9.5 22.5 9.5c9.33301 0 17 -3.16699 23 -9.5s9 -13.833 9 -22.5v-943
c0 -8.66699 -3 -16.167 -9 -22.5s-13.667 -9.5 -23 -9.5z" />
    <glyph glyph-name="Iacute" unicode="&#xcd;" horiz-adv-x="275" 
d="M95 -270c-9.33301 0 -17 3.16699 -23 9.5s-9 13.833 -9 22.5v943c0 8.66699 3 16.167 9 22.5s13.667 9.5 23 9.5c8.66699 0 16.167 -3.16699 22.5 -9.5s9.5 -13.833 9.5 -22.5v-943c0 -8.66699 -3.16699 -16.167 -9.5 -22.5s-13.833 -9.5 -22.5 -9.5zM9 810
c-6.66699 6.66699 -10 14.168 -10 22.501s3.33301 15.833 10 22.5l186 186c6.66699 6.66699 14.334 10 23.001 10s16 -3.33301 22 -10c6 -6 9.16699 -13.333 9.5 -22s-2.83398 -16.334 -9.50098 -23.001l-186 -186c-6.66699 -6.66699 -14.167 -10 -22.5 -10
s-15.833 3.33301 -22.5 10z" />
    <glyph glyph-name="Ntilde" unicode="&#xd1;" horiz-adv-x="706" 
d="M526 744c-8.66699 0 -16.1631 -3 -22.4961 -9s-9.5 -13.667 -9.5 -23v-811l-434 826l-1 1l-1 1v1l-1 1l-4 4l-4 4h-1c-4.66699 2.66699 -8.66699 4 -12 4h-1v1h-2h-1h-2h-1l-1 -1h-1h-1h-1h-1h-1v-1h-1h-1c-0.666992 0 -1 -0.333008 -1 -1h-2l-1 -1
c-0.666992 0 -1 -0.333008 -1 -1h-1h-1v-1h-1c-4.66699 -4.66699 -7.33398 -7.66699 -8.00098 -9v-1h-1v-1c-0.666992 -1.33301 -1.33398 -2.83301 -2.00098 -4.5s-1.33398 -3.5 -2.00098 -5.5v-1v-1v-1v-1v-1v-940c0 -8.66699 3 -16 9 -22s13.667 -9 23 -9
c8.66699 0 16 3 22 9s9 13.333 9 22v812l435 -827c5.33301 -10.667 14.666 -16 27.999 -16h8c16 4 24 14.333 24 31v940c0 8.66699 -3 16.167 -9 22.5s-13.667 9.5 -23 9.5zM363.004 807c-22 0 -42.8301 4.99902 -62.4971 14.999s-35.834 24.667 -48.501 44v1
c-7.33301 11.333 -17.5 19.833 -30.5 25.5s-26.5 6.83398 -40.5 3.50098c-13.333 -3.33301 -25 -9.83301 -35 -19.5s-16.333 -21.5 -19 -35.5c-1.33301 -8.66699 -5.5 -15.667 -12.5 -21s-15.167 -7 -24.5 -5c-8.66699 1.33301 -15.334 5.66602 -20.001 12.999
s-6.33398 15.333 -5.00098 24c5.33301 28 17 51.333 35 70s41 30.667 69 36c26.667 5.33301 52.167 2.83301 76.5 -7.5s44.166 -26.833 59.499 -49.5l1 -1c7.33301 -11.333 17.5 -19.833 30.5 -25.5s26.5 -6.83398 40.5 -3.50098c13.333 3.33301 25 10 35 20
s16.333 21.667 19 35c1.33301 9.33301 5.5 16.333 12.5 21s15.167 6.33398 24.5 5.00098c8.66699 -1.33301 15.334 -5.66602 20.001 -12.999s6.33398 -15.333 5.00098 -24c-5.33301 -28 -17.333 -51.333 -36 -70s-41.334 -30.667 -68.001 -36
c-4.66699 -1.33301 -9.16699 -2 -13.5 -2h-12.5z" />
    <glyph glyph-name="Ograve" unicode="&#xd2;" horiz-adv-x="681" 
d="M396 810c-6.66699 -6.66699 -14.1689 -9.83301 -22.502 -9.5s-15.833 3.5 -22.5 9.5l-187 186c-6 6 -9 13.5 -9 22.5s3 16.5 9 22.5c6.66699 6 14.334 9 23.001 9s16 -3 22 -9l187 -186c6.66699 -6 9.83398 -13.5 9.50098 -22.5s-3.5 -16.5 -9.5 -22.5zM279.998 674.001
c-30 0 -58.667 -3.5 -86 -10.5s-51.333 -17.167 -72 -30.5c-38.667 -24.667 -58 -53 -58 -85v-629c0 -31.333 19.333 -59.333 58 -84c20.667 -13.333 44.667 -23.5 72 -30.5s56 -10.5 86 -10.5s58.667 3.5 86 10.5s51.333 17.167 72 30.5c38.667 24.667 58 52.667 58 84v629
c0 32 -19.333 60.333 -58 85c-20.667 13.333 -44.667 23.5 -72 30.5s-56 10.5 -86 10.5zM279.998 -269.999c-36 0 -70.6689 4.33398 -104.002 13.001s-62.666 21.334 -87.999 38.001c-13.333 8.66699 -25.166 18 -35.499 28s-19.5 20.667 -27.5 32c-16.667 24 -25 50 -25 78
v629c0 28 8.33301 54.333 25 79c13.333 20.667 34.333 40.334 63 59.001c25.333 16 54.666 28.5 87.999 37.5s68 13.5 104 13.5s70.667 -4.33301 104 -13s63 -21.334 89 -38.001c26.667 -16.667 47.334 -36.334 62.001 -59.001c16.667 -24.667 25 -51 25 -79v-629
c0 -28 -8.33301 -54 -25 -78c-8 -11.333 -17 -22 -27 -32s-21.667 -19.333 -35 -28c-26 -16.667 -55.667 -29.334 -89 -38.001s-68 -13 -104 -13z" />
    <glyph glyph-name="Oacute" unicode="&#xd3;" horiz-adv-x="681" 
d="M280 -270c-36 0 -70.6689 4.33203 -104.002 12.999s-63 21.334 -89 38.001c-13.333 8.66699 -25 18 -35 28s-19 20.667 -27 32c-16.667 24 -25 50 -25 78v629c0 28 8.33301 54.333 25 79c14.667 22.667 35.334 42.334 62.001 59.001c26 16.667 55.667 29.334 89 38.001
s68 13 104 13s70.667 -4.5 104 -13.5s62.666 -21.5 87.999 -37.5c28.667 -18.667 49.667 -38.334 63 -59.001c16.667 -24.667 25 -51 25 -79v-629c0 -28 -8.33301 -54 -25 -78c-8 -11.333 -17.167 -22 -27.5 -32s-22.166 -19.333 -35.499 -28
c-25.333 -16.667 -54.666 -29.334 -87.999 -38.001s-68 -13 -104 -13zM279.998 673.999c-30 0 -58.667 -3.5 -86 -10.5s-51.333 -17.167 -72 -30.5c-38.667 -24.667 -58 -53 -58 -85v-629c0 -31.333 19.333 -59.333 58 -84c20.667 -13.333 44.667 -23.5 72 -30.5
s56 -10.5 86 -10.5s58.667 3.5 86 10.5s51.333 17.167 72 30.5c38.667 24.667 58 52.667 58 84v629c0 32 -19.333 60.333 -58 85c-20.667 13.333 -44.667 23.5 -72 30.5s-56 10.5 -86 10.5zM163.998 809.999c-6 6 -9.16895 13.499 -9.50195 22.499
s2.83398 16.5 9.50098 22.5l187 186c6 6 13.333 9 22 9s16.334 -3 23.001 -9c6 -6 9 -13.5 9 -22.5s-3 -16.5 -9 -22.5l-187 -186c-6.66699 -6 -14.167 -9.16699 -22.5 -9.5s-15.833 2.83398 -22.5 9.50098z" />
    <glyph glyph-name="Ocircumflex" unicode="&#xd4;" horiz-adv-x="685" 
d="M282 -270c-36.667 0 -71.667 4.5 -105 13.5s-63 21.833 -89 38.5c-28 17.333 -49 37 -63 59c-16.667 24.667 -25 51.334 -25 80.001v634c-0 28 8.33301 54.333 25 79c14.667 22.667 35.667 42.667 63 60c26 16.667 55.667 29.334 89 38.001s68.333 13 105 13
s71.667 -4.33301 105 -13s63 -21.334 89 -38.001c26.667 -17.333 47.667 -37.333 63 -60c16.667 -24.667 25 -51 25 -79v-634c0 -28.667 -8.33301 -55.334 -25 -80.001c-14 -22 -35 -41.667 -63 -59c-26 -16.667 -55.667 -29.5 -89 -38.5s-68.333 -13.5 -105 -13.5zM282 681
c-30.667 0 -59.667 -3.5 -87 -10.5s-51.666 -17.167 -72.999 -30.5c-18.667 -12 -33 -25.333 -43 -40s-15 -29.667 -15 -45v-634c0 -15.333 5 -30.333 15 -45s24.333 -28 43 -40c21.333 -13.333 45.666 -23.666 72.999 -30.999s56.333 -11 87 -11s59.667 3.66699 87 11
s51.666 17.666 72.999 30.999c38.667 24.667 58 53 58 85v634c0 32 -19.333 60.333 -58 85c-21.333 13.333 -45.666 23.5 -72.999 30.5s-56.333 10.5 -87 10.5zM91 852c0 8 3.00098 15.0029 9.00098 21.0029l154 167c4.66699 6.66699 12 10 22 10s18 -3 24 -9l164 -164
c6.66699 -6.66699 10 -14.334 10 -23.001s-3.33301 -16.334 -10 -23.001s-14.334 -9.83398 -23.001 -9.50098s-16 3.5 -22 9.5l-141 141l-131 -142c-6 -6.66699 -13.5 -10.167 -22.5 -10.5s-16.833 2.5 -23.5 8.5c-6.66699 6.66699 -10 14.667 -10 24z" />
    <glyph glyph-name="Otilde" unicode="&#xd5;" horiz-adv-x="678" 
d="M278 -259c-36 0 -70.335 4.33301 -103.002 13s-62 21 -88 37c-26 17.333 -46.667 37 -62 59c-16.667 24.667 -25 51 -25 79v625c0 28 8.33301 54.333 25 79c14.667 22 35.334 41.333 62.001 58c26 16.667 55.333 29.334 88 38.001s67 13 103 13s70.5 -4.33301 103.5 -13
s62.5 -21.334 88.5 -38.001c26.667 -16.667 47.334 -36 62.001 -58c16.667 -24.667 25 -51 25 -79v-625c0 -28 -8.33301 -54.333 -25 -79c-15.333 -22 -36 -41.667 -62 -59c-26 -16 -55.5 -28.333 -88.5 -37s-67.5 -13 -103.5 -13zM277.998 679
c-30 0 -58.5 -3.50098 -85.5 -10.501s-50.833 -17.167 -71.5 -30.5c-18.667 -12 -33 -25.167 -43 -39.5s-15 -29.166 -15 -44.499v-625c0 -15.333 5 -30.166 15 -44.499s24.333 -27.5 43 -39.5c20.667 -13.333 44.5 -23.5 71.5 -30.5s55.5 -10.5 85.5 -10.5
s58.5 3.5 85.5 10.5s51.167 17.167 72.5 30.5c18.667 11.333 33 24.333 43 39s15 29.667 15 45v625c0 15.333 -5 30.166 -15 44.499s-24.333 27.5 -43 39.5c-21.333 13.333 -45.5 23.5 -72.5 30.5s-55.5 10.5 -85.5 10.5zM139.998 890.999c10.667 0 19.5 -3.66699 26.5 -11
s10.5 -16.333 10.5 -27s-3.5 -19.667 -10.5 -27s-15.833 -11 -26.5 -11s-19.667 3.66699 -27 11s-11 16.333 -11 27s3.66699 19.667 11 27s16.333 11 27 11zM416.998 890.999c10.667 0 19.667 -3.66699 27 -11s11 -16.333 11 -27s-3.66699 -19.667 -11 -27
s-16.333 -11 -27 -11s-19.667 3.66699 -27 11s-11 16.333 -11 27s3.66699 19.667 11 27s16.333 11 27 11z" />
    <glyph glyph-name="Ugrave" unicode="&#xd9;" horiz-adv-x="701" 
d="M396 810c-6.66699 -6.66699 -14.1689 -9.83301 -22.502 -9.5s-15.833 3.5 -22.5 9.5l-187 186c-6 6 -9 13.5 -9 22.5s3 16.5 9 22.5c6.66699 6 14.334 9 23.001 9s16 -3 22 -9l187 -186c6.66699 -6 9.83398 -13.5 9.50098 -22.5s-3.5 -16.5 -9.5 -22.5zM31.998 737.001
c-9.33301 0 -17 -2.99902 -23 -8.99902s-9 -13.667 -9 -23v-707c0 -36 7 -70.167 21 -102.5s34.667 -61.5 62 -87.5c26.667 -25.333 56.667 -44.666 90 -57.999s69 -20 107 -20s73.667 6.66699 107 20s63.333 32.666 90 57.999c55.333 53.333 83 116.666 83 189.999v707
c0 9.33301 -3 17 -9 23s-13.667 9 -23 9c-8.66699 0 -16.167 -3 -22.5 -9s-9.5 -13.667 -9.5 -23v-707c0 -28 -5.66699 -54.5 -17 -79.5s-26.833 -46.667 -46.5 -65s-42.5 -32.833 -68.5 -43.5s-54 -16 -84 -16s-58 5.33301 -84 16s-48.833 25.167 -68.5 43.5
s-35.167 40 -46.5 65s-17 51.5 -17 79.5v707c0 9.33301 -3.16699 17 -9.5 23s-13.833 9 -22.5 9z" />
    <glyph glyph-name="Uacute" unicode="&#xda;" horiz-adv-x="701" 
d="M528 737c-8.66699 0 -16.167 -2.99902 -22.5 -8.99902s-9.5 -13.667 -9.5 -23v-707c0 -28 -5.66699 -54.5 -17 -79.5s-26.833 -46.667 -46.5 -65s-42.5 -32.833 -68.5 -43.5s-54 -16 -84 -16s-58 5.33301 -84 16s-48.833 25.167 -68.5 43.5s-35.167 40 -46.5 65
s-17 51.5 -17 79.5v707c0 9.33301 -3.16699 17 -9.5 23s-13.833 9 -22.5 9c-9.33301 0 -17 -3 -23 -9s-9 -13.667 -9 -23v-707c0 -36 7 -70.167 21 -102.5s34.667 -61.5 62 -87.5c26.667 -25.333 56.667 -44.666 90 -57.999s69 -20 107 -20s73.667 6.66699 107 20
s63.333 32.666 90 57.999c55.333 53.333 83 116.666 83 189.999v707c0 9.33301 -3 17 -9 23s-13.667 9 -23 9zM164 810.001c-6 6 -9.16895 13.499 -9.50195 22.499s2.83398 16.5 9.50098 22.5l187 186c6 6 13.333 9 22 9s16.334 -3 23.001 -9c6 -6 9 -13.5 9 -22.5
s-3 -16.5 -9 -22.5l-187 -186c-6.66699 -6 -14.167 -9.16699 -22.5 -9.5s-15.833 2.83398 -22.5 9.50098z" />
    <glyph glyph-name="Udieresis" unicode="&#xdc;" horiz-adv-x="697" 
d="M525 742c-8.66699 0 -16.0029 -3 -22.0029 -9s-9 -13.667 -9 -23v-703c0 -28 -5.66699 -54.333 -17 -79s-26.833 -46.167 -46.5 -64.5s-42.5 -32.833 -68.5 -43.5s-54 -16 -84 -16c-29.333 0 -57.166 5.33301 -83.499 16s-49.166 25.167 -68.499 43.5
s-34.666 39.833 -45.999 64.5s-17 51 -17 79v703c0 9.33301 -3 17 -9 23s-13.333 9 -22 9c-9.33301 0 -17 -3 -23 -9s-9 -13.667 -9 -23v-703c0 -36 7 -70.167 21 -102.5s34.333 -61.166 61 -86.499s56.5 -44.5 89.5 -57.5s68.5 -19.5 106.5 -19.5s73.667 6.5 107 19.5
s63.333 32.167 90 57.5s47 54.166 61 86.499s21 66.5 21 102.5v703c0 9.33301 -3 17 -9 23s-13.667 9 -23 9zM139.997 891c10.667 0 19.5 -3.66699 26.5 -11s10.5 -16.333 10.5 -27s-3.5 -19.667 -10.5 -27s-15.833 -11 -26.5 -11s-19.667 3.66699 -27 11s-11 16.333 -11 27
s3.66699 19.667 11 27s16.333 11 27 11zM416.997 891c10.667 0 19.667 -3.66699 27 -11s11 -16.333 11 -27s-3.66699 -19.667 -11 -27s-16.333 -11 -27 -11s-19.667 3.66699 -27 11s-11 16.333 -11 27s3.66699 19.667 11 27s16.333 11 27 11z" />
    <glyph glyph-name="Yacute" unicode="&#xdd;" horiz-adv-x="668" 
d="M543 734c-8 4 -16.167 4.66797 -24.5 2.00098s-14.5 -8 -18.5 -16l-219 -415l-221 415c-4 8 -10.333 13.333 -19 16s-16.667 2 -24 -2c-8 -4.66699 -13.333 -11.167 -16 -19.5s-1.66699 -16.5 3 -24.5l246 -461v-467c0 -8.66699 3 -16.167 9 -22.5s13.667 -9.5 23 -9.5
c8.66699 0 16 3.16699 22 9.5s9 13.833 9 22.5v467l243 462c4 7.33301 4.83301 15.166 2.5 23.499s-7.5 14.833 -15.5 19.5zM164 810.001c-6 6 -9.16895 13.499 -9.50195 22.499s2.83398 16.5 9.50098 22.5l187 186c6 6 13.333 9 22 9s16.334 -3 23.001 -9
c6 -6 9 -13.5 9 -22.5s-3 -16.5 -9 -22.5l-187 -186c-6.66699 -6 -14.167 -9.16699 -22.5 -9.5s-15.833 2.83398 -22.5 9.50098z" />
    <glyph glyph-name="agrave" unicode="&#xe0;" horiz-adv-x="701" 
d="M280 -201c30 0 58.167 5.33301 84.5 16s49.333 25.167 69 43.5s35.167 40 46.5 65s17 51.5 17 79.5s-5.66699 54.5 -17 79.5s-26.833 46.667 -46.5 65s-42.667 32.833 -69 43.5s-54.5 16 -84.5 16s-58 -5.33301 -84 -16s-48.833 -25.167 -68.5 -43.5
s-35.167 -40 -46.5 -65s-17 -51.5 -17 -79.5s5.66699 -54.5 17 -79.5s26.833 -46.667 46.5 -65s42.5 -32.833 68.5 -43.5s54 -16 84 -16zM529 271c8.66699 0 16.167 -2.99609 22.5 -8.99609s9.5 -13.667 9.5 -23v-472c0 -9.33301 -3.16699 -17 -9.5 -23s-13.833 -9 -22.5 -9
c-9.33301 0 -17 3 -23 9s-9 13.667 -9 23v66l-19 -20c-25.333 -26.667 -55.166 -46.334 -89.499 -59.001s-70.5 -19 -108.5 -19s-73.667 6.66699 -107 20s-63.333 32.666 -90 57.999c-28 26 -48.833 55.167 -62.5 87.5s-20.5 66.5 -20.5 102.5s6.83301 70.167 20.5 102.5
s34.5 61.5 62.5 87.5c26.667 25.333 56.667 44.666 90 57.999s69 20 107 20s74.167 -6.33301 108.5 -19s64.166 -32.334 89.499 -59.001l19 -20v66c0 9.33301 3 17 9 23s13.667 9 23 9zM435 374.004c-6 -6 -13.5 -9.16699 -22.5 -9.5s-16.5 2.83398 -22.5 9.50098l-186 187
c-6 6.66699 -9.16699 14.167 -9.5 22.5s2.83398 15.833 9.50098 22.5c6 6 13.5 9.16699 22.5 9.5s16.5 -2.83398 22.5 -9.50098l186 -187c6 -6.66699 9.16699 -14.167 9.5 -22.5s-2.83398 -15.833 -9.50098 -22.5z" />
    <glyph glyph-name="aacute" unicode="&#xe1;" horiz-adv-x="711" 
d="M165 374c-6.66699 6.66699 -9.83398 14.167 -9.50098 22.5s3.5 15.833 9.5 22.5l186 187c6 6.66699 13.5 9.83398 22.5 9.50098s16.5 -3.5 22.5 -9.5c6.66699 -6.66699 9.83398 -14.167 9.50098 -22.5s-3.5 -15.833 -9.5 -22.5l-186 -187
c-6 -6.66699 -13.5 -9.83398 -22.5 -9.50098s-16.5 3.5 -22.5 9.5zM529 271c-9.33301 0 -17 -3.00391 -23 -9.00391s-9 -13.667 -9 -23v-66l-19 20c-25.333 26.667 -55.166 46.334 -89.499 59.001s-70.5 19 -108.5 19s-73.667 -6.66699 -107 -20
s-63.333 -32.666 -90 -57.999c-28 -26 -48.833 -55.167 -62.5 -87.5s-20.5 -66.5 -20.5 -102.5s6.83301 -70.167 20.5 -102.5s34.5 -61.5 62.5 -87.5c26.667 -25.333 56.667 -44.666 90 -57.999s69 -20 107 -20s74.167 6.33301 108.5 19s64.166 32.334 89.499 59.001l19 20
v-66c0 -9.33301 3 -17 9 -23s13.667 -9 23 -9c8.66699 0 16.167 3 22.5 9s9.5 13.667 9.5 23v472c0 9.33301 -3.16699 17 -9.5 23s-13.833 9 -22.5 9zM280 -201.004c-30 0 -58 5.33301 -84 16s-48.833 25.167 -68.5 43.5s-35.167 40 -46.5 65s-17 51.5 -17 79.5
s5.66699 54.5 17 79.5s26.833 46.667 46.5 65s42.5 32.833 68.5 43.5s54 16 84 16s58.167 -5.33301 84.5 -16s49.333 -25.167 69 -43.5s35.167 -40 46.5 -65s17 -51.5 17 -79.5s-5.66699 -54.5 -17 -79.5s-26.833 -46.667 -46.5 -65s-42.667 -32.833 -69 -43.5
s-54.5 -16 -84.5 -16z" />
    <glyph glyph-name="acircumflex" unicode="&#xe2;" horiz-adv-x="712" 
d="M91 407c0 9.33301 2.66602 16.668 7.99902 22.001l153 165c5.33301 6 13 9.66699 23 11c8.66699 0 16.334 -3.33301 23.001 -10l163 -163c6 -6 9 -13.333 9 -22s-3 -16.334 -9 -23.001c-6 -6 -13.5 -9 -22.5 -9s-16.5 3 -22.5 9l-140 140l-130 -142
c-5.33301 -6.66699 -12.5 -10 -21.5 -10s-16.833 3 -23.5 9s-10 13.667 -10 23zM528.999 271.002c-9.33301 0 -17.001 -3.00293 -23.001 -9.00293s-9 -13.667 -9 -23v-66l-19 20c-25.333 26.667 -55.166 46.334 -89.499 59.001s-70.5 19 -108.5 19
s-73.667 -6.66699 -107 -20s-63.333 -32.666 -90 -57.999c-28 -26 -48.833 -55.167 -62.5 -87.5s-20.5 -66.5 -20.5 -102.5s6.83301 -70.167 20.5 -102.5s34.5 -61.5 62.5 -87.5c26.667 -25.333 56.667 -44.666 90 -57.999s69 -20 107 -20s74 6.5 108 19.5s64 32.5 90 58.5
l19 19v-66c0 -8.66699 3 -16 9 -22s13.667 -9 23 -9s17 3 23 9s9 13.333 9 22v473c0 9.33301 -3 17 -9 23s-13.667 9 -23 9zM279.998 -202.001c-30 0 -58 5.33301 -84 16s-48.833 25.334 -68.5 44.001s-35.167 40.5 -46.5 65.5s-17 51.5 -17 79.5s5.66699 54.333 17 79
s26.833 46.334 46.5 65.001s42.5 33.334 68.5 44.001s54 16 84 16s58.167 -5.33301 84.5 -16s49.333 -25.334 69 -44.001s35.167 -40.334 46.5 -65.001s17 -51 17 -79s-5.66699 -54.5 -17 -79.5s-26.833 -46.833 -46.5 -65.5s-42.667 -33.334 -69 -44.001
s-54.5 -16 -84.5 -16z" />
    <glyph glyph-name="atilde" unicode="&#xe3;" horiz-adv-x="705" 
d="M367 368c-22 0 -42.832 5.33203 -62.499 15.999s-36.167 25.667 -49.5 45c-8 12 -18.5 20.833 -31.5 26.5s-26.5 6.83398 -40.5 3.50098s-25.833 -10 -35.5 -20s-15.834 -22 -18.501 -36c-1.33301 -8.66699 -5.66602 -15.667 -12.999 -21s-15.666 -7 -24.999 -5
c-8.66699 1.33301 -15.5 5.66602 -20.5 12.999s-6.5 15.666 -4.5 24.999c5.33301 28 17.166 51.5 35.499 70.5s41.5 31.167 69.5 36.5s54.167 2.83301 78.5 -7.5s44.166 -27.166 59.499 -50.499c8 -12 18.5 -20.833 31.5 -26.5s26.5 -6.83398 40.5 -3.50098s26 10 36 20
s16.333 22 19 36c1.33301 8.66699 5.66602 15.334 12.999 20.001s15.333 6.33398 24 5.00098c9.33301 -2 16.5 -6.33301 21.5 -13s6.5 -14.667 4.5 -24c-5.33301 -28 -17.166 -51.5 -35.499 -70.5s-41.5 -31.167 -69.5 -36.5c-9.33301 -2 -18.333 -3 -27 -3z
M532.001 273.999c-8.66699 0 -16.167 -3.00098 -22.5 -9.00098s-9.5 -13.667 -9.5 -23v-66l-19 20c-25.333 26.667 -55.333 46.334 -90 59.001s-71 19 -109 19s-73.667 -6.5 -107 -19.5s-64 -32.5 -92 -58.5c-26.667 -25.333 -47.167 -54.5 -61.5 -87.5
s-21.5 -67.833 -21.5 -104.5c0 -36 7.16699 -70.5 21.5 -103.5s34.833 -62.167 61.5 -87.5c56 -52.667 122.333 -79 199 -79c38 0 74.333 6.5 109 19.5s64.667 32.833 90 59.5l19 20v-67c0 -8.66699 3.16699 -16.167 9.5 -22.5s13.833 -9.5 22.5 -9.5
c9.33301 0 17.166 3.16699 23.499 9.5s9.5 13.833 9.5 22.5v476c0 9.33301 -3.16699 17 -9.5 23s-14.166 9 -23.499 9zM282.001 -201.002c-30 0 -58.167 5.33301 -84.5 16s-49.5 25.334 -69.5 44.001s-35.667 40.5 -47 65.5s-17 51.5 -17 79.5
c0 28.667 5.66699 55.5 17 80.5s27 46.833 47 65.5s43.167 33.334 69.5 44.001s54.5 16 84.5 16s58.333 -5.33301 85 -16s49.834 -25.334 69.501 -44.001s35.167 -40.5 46.5 -65.5s17 -51.833 17 -80.5c0 -28 -5.66699 -54.5 -17 -79.5s-26.833 -46.833 -46.5 -65.5
s-42.834 -33.334 -69.501 -44.001s-55 -16 -85 -16z" />
    <glyph glyph-name="adieresis" unicode="&#xe4;" horiz-adv-x="704" 
d="M141 454c10.667 0 19.834 -3.66699 27.501 -11s11.5 -16.333 11.5 -27s-3.83301 -19.667 -11.5 -27s-16.834 -11 -27.501 -11s-19.667 3.66699 -27 11s-11 16.333 -11 27s3.66699 19.667 11 27s16.333 11 27 11zM422 454c10.667 0 19.667 -3.66699 27 -11
s11 -16.333 11 -27s-3.66699 -19.667 -11 -27s-16.333 -11 -27 -11s-19.667 3.66699 -27 11s-11 16.333 -11 27s3.66699 19.667 11 27s16.333 11 27 11zM532 273c-9.33301 0 -17 -3.00098 -23 -9.00098s-9 -13.667 -9 -23v-66l-19 20
c-26 27.333 -56.167 47.166 -90.5 59.499s-70.5 18.5 -108.5 18.5s-74 -6.66699 -108 -20s-64.333 -32.666 -91 -57.999s-47.167 -54.5 -61.5 -87.5s-21.5 -67.5 -21.5 -103.5c0 -36.667 7.16699 -71.5 21.5 -104.5s34.833 -62.167 61.5 -87.5s57 -44.666 91 -57.999
s70 -20 108 -20c76.667 0 143 26 199 78l19 21v-67c0 -9.33301 3 -17 9 -23s13.667 -9 23 -9c8.66699 0 16.167 3 22.5 9s9.5 13.667 9.5 23v475c0 9.33301 -3.16699 17 -9.5 23s-13.833 9 -22.5 9zM282 -202.001c-30 0 -58.167 5.33301 -84.5 16s-49.5 25.334 -69.5 44.001
s-35.667 40.5 -47 65.5s-17 51.833 -17 80.5c0 28 5.66699 54.5 17 79.5s27 46.833 47 65.5s43.167 33.334 69.5 44.001s54.5 16 84.5 16s58.167 -5.33301 84.5 -16s49.5 -25.334 69.5 -44.001s35.667 -40.5 47 -65.5s17 -51.5 17 -79.5c0 -28.667 -5.66699 -55.5 -17 -80.5
s-27 -46.833 -47 -65.5s-43.167 -33.334 -69.5 -44.001s-54.5 -16 -84.5 -16z" />
    <glyph glyph-name="egrave" unicode="&#xe8;" horiz-adv-x="657" 
d="M64 34c4 23.333 12.168 45.167 24.501 65.5s27.666 38 45.999 53s39.166 26.667 62.499 35s48 12.5 74 12.5c22 0 43.333 -3.16699 64 -9.5s39.667 -15.333 57 -27s32.5 -25.5 45.5 -41.5s23.167 -34 30.5 -54c2 -5.33301 3.83301 -10.833 5.5 -16.5
s2.83398 -11.5 3.50098 -17.5h-413zM271.001 -255.999c32 0 62.8262 5.33594 92.4932 16.0029s56.834 25.667 81.501 45c6.66699 5.33301 10.5 12.166 11.5 20.499s-1.16699 15.833 -6.5 22.5s-12.166 10.667 -20.499 12s-16.166 -1 -23.499 -7
c-19.333 -15.333 -40.5 -27 -63.5 -35s-46.833 -12 -71.5 -12c-26 0 -50.667 4.16699 -74 12.5s-44.166 20 -62.499 35s-33.666 32.667 -45.999 53s-20.5 42.166 -24.5 65.499h447c8.66699 0 16 3 22 9s9 13.333 9 22c0 15.333 -1.33301 30.166 -4 44.499
s-6.66699 28.5 -12 42.5c-9.33301 26 -22.666 49.5 -39.999 70.5s-37.166 39 -59.499 54s-46.833 26.667 -73.5 35s-54 12.5 -82 12.5c-36 0 -70.5 -6.5 -103.5 -19.5s-62.167 -31.5 -87.5 -55.5c-53.333 -50 -80 -111.333 -80 -184c0 -34.667 6.83301 -67.667 20.5 -99
s33.5 -59.333 59.5 -84c25.333 -24 54.5 -42.667 87.5 -56s67.5 -20 103.5 -20zM410.994 362.004c-6 -6 -13.167 -9 -21.5 -9s-15.5 3 -21.5 9l-181 180c-6 6 -9 13.167 -9 21.5s3 15.5 9 21.5s13.333 9 22 9s16 -3 22 -9l180 -180c6 -6 9 -13.167 9 -21.5
s-3 -15.5 -9 -21.5z" />
    <glyph glyph-name="eacute" unicode="&#xe9;" horiz-adv-x="655" 
d="M159 362c-6 6 -9 13.167 -9 21.5s3 15.5 9 21.5l180 180c6 6 13.333 9 22 9s16 -3 22 -9s9 -13.167 9 -21.5s-3 -15.5 -9 -21.5l-181 -180c-6 -6 -13.167 -9 -21.5 -9s-15.5 3 -21.5 9zM271 -256c-36 0 -70.4932 6.66406 -103.493 19.9971s-62.167 32 -87.5 56
c-26 24.667 -45.833 52.667 -59.5 84s-20.5 64.333 -20.5 99c0 72.667 26.667 134 80 184c25.333 24 54.5 42.5 87.5 55.5s67.5 19.5 103.5 19.5c28 0 55.333 -4.16699 82 -12.5s51.167 -20 73.5 -35s42.166 -33 59.499 -54s30.666 -44.5 39.999 -70.5
c5.33301 -14 9.33301 -28.167 12 -42.5s4 -29.166 4 -44.499c0 -8.66699 -3 -16 -9 -22s-13.333 -9 -22 -9h-447c4 -23.333 12.167 -45.166 24.5 -65.499s27.666 -38 45.999 -53s39.166 -26.667 62.499 -35s48 -12.5 74 -12.5c24.667 0 48.5 4 71.5 12
s44.167 19.667 63.5 35c7.33301 6 15.166 8.33301 23.499 7s15.166 -5.33301 20.499 -12s7.5 -14.167 6.5 -22.5s-4.83301 -15.166 -11.5 -20.499c-24.667 -19.333 -51.834 -34.333 -81.501 -45s-60.5 -16 -92.5 -16zM477.007 33.9971
c-0.666992 6 -1.83496 11.832 -3.50195 17.499s-3.5 11.167 -5.5 16.5c-7.33301 20 -17.5 38 -30.5 54s-28.167 29.833 -45.5 41.5s-36.333 20.667 -57 27s-42 9.5 -64 9.5c-26 0 -50.667 -4.16699 -74 -12.5s-44.166 -20 -62.499 -35s-33.666 -32.667 -45.999 -53
s-20.5 -42.166 -24.5 -65.499h413z" />
    <glyph glyph-name="ecircumflex" unicode="&#xea;" horiz-adv-x="665" 
d="M89 383c0 8.66699 2.66699 15.667 8 21l149 162c6.66699 6.66699 14 10 22 10c9.33301 0 17 -3 23 -9l160 -160c6 -6 9 -13.333 9 -22s-3 -16 -9 -22c-6.66699 -6 -14.167 -9 -22.5 -9s-15.5 3 -21.5 9l-137 137l-127 -138c-6 -6.66699 -13.333 -10.167 -22 -10.5
s-16 2.5 -22 8.5c-6.66699 6 -10 13.667 -10 23zM274 -264c-36.667 0 -71.4971 6.33398 -104.497 19.001s-62.5 31.667 -88.5 57c-26.667 25.333 -46.834 53.666 -60.501 84.999s-20.5 65 -20.5 101s6.83301 69.667 20.5 101s33.834 59.666 60.501 84.999
c26 25.333 55.5 44.333 88.5 57s67.833 19 104.5 19c28.667 0 56.5 -4.16699 83.5 -12.5s51.833 -20.166 74.5 -35.499s42.667 -33.666 60 -54.999s30.666 -45 39.999 -71c5.33301 -14 9.33301 -28.333 12 -43s4 -29.667 4 -45c0 -8.66699 -3 -16 -9 -22s-13.333 -9 -22 -9
h-452c4 -24 12.167 -46.333 24.5 -67s27.833 -38.5 46.5 -53.5s39.834 -26.833 63.501 -35.5s48.5 -13 74.5 -13c51.333 0 97 16 137 48c7.33301 5.33301 15.166 7.5 23.499 6.5s15.166 -4.83301 20.499 -11.5s7.66602 -14.334 6.99902 -23.001s-4.66699 -15.667 -12 -21
c-24.667 -19.333 -52 -34.333 -82 -45s-61.333 -16 -94 -16zM483.003 29.001c-2 12 -4.99707 23.666 -8.99707 34.999c-8 20 -18.5 38.167 -31.5 54.5s-28.333 30.5 -46 42.5s-36.834 21.167 -57.501 27.5s-42.334 9.5 -65.001 9.5c-26 0 -50.833 -4.33301 -74.5 -13
s-44.834 -20.667 -63.501 -36s-34.167 -33.166 -46.5 -53.499s-20.5 -42.5 -24.5 -66.5h418z" />
    <glyph glyph-name="edieresis" unicode="&#xeb;" horiz-adv-x="661" 
d="M145 427c10 0 18.667 -3.66699 26 -11s11 -16.333 11 -27c0 -10 -3.66699 -18.667 -11 -26s-16 -11 -26 -11c-10.667 0 -19.5 3.66699 -26.5 11s-10.5 16 -10.5 26c0 10.667 3.5 19.667 10.5 27s15.833 11 26.5 11zM418 427c10.667 0 19.5 -3.66699 26.5 -11
s10.5 -16.333 10.5 -27c0 -10 -3.5 -18.667 -10.5 -26s-15.833 -11 -26.5 -11c-10 0 -18.667 3.66699 -26 11s-11 16 -11 26c0 10.667 3.66699 19.667 11 27s16 11 26 11zM274 -263c-36.667 0 -71.499 6.49805 -104.499 19.498s-62.5 31.833 -88.5 56.5
s-46 52.834 -60 84.501s-21 65.5 -21 101.5s7 69.5 21 100.5s34 59.167 60 84.5c26.667 25.333 56.334 44.5 89.001 57.5s67.334 19.5 104.001 19.5c28.667 0 56.5 -4.16699 83.5 -12.5s51.667 -20.166 74 -35.499s42.166 -33.833 59.499 -55.5s31 -45.5 41 -71.5
c10.667 -28.667 16 -57.667 16 -87c0 -9.33301 -3 -17 -9 -23s-13.333 -9 -22 -9h-452c4 -24 12.167 -46.167 24.5 -66.5s27.833 -38 46.5 -53s39.834 -26.833 63.501 -35.5s48.5 -13 74.5 -13c51.333 0 97 16 137 48c7.33301 5.33301 15.166 7.5 23.499 6.5
s15.166 -4.83301 20.499 -11.5c5.33301 -7.33301 7.66602 -15 6.99902 -23s-4.66699 -15 -12 -21c-24.667 -19.333 -52 -34.333 -82 -45s-61.333 -16 -94 -16zM483.001 29.998c-1.33301 5.33301 -2.49902 10.832 -3.49902 16.499s-2.83301 11.834 -5.5 18.501
c-15.333 40 -41 72.167 -77 96.5s-77 36.5 -123 36.5c-26 0 -50.833 -4.33301 -74.5 -13s-44.834 -20.5 -63.501 -35.5s-34.167 -32.667 -46.5 -53s-20.5 -42.5 -24.5 -66.5h418z" />
    <glyph glyph-name="igrave" unicode="&#xec;" horiz-adv-x="254" 
d="M29 -260c-9.33301 0 -17 3 -23 9s-9 13.667 -9 23v470c0 9.33301 3 17 9 23s13.667 9 23 9c8.66699 0 16.167 -3 22.5 -9s9.5 -13.667 9.5 -23v-470c0 -9.33301 -3.16699 -17 -9.5 -23s-13.833 -9 -22.5 -9zM115 330c-6.66699 -6.66699 -14.1689 -9.83301 -22.502 -9.5
s-15.833 3.5 -22.5 9.5l-139 138c-6 6 -9 13.5 -9 22.5s3 16.5 9 22.5s13.333 9 22 9s16.334 -3 23.001 -9l139 -138c6.66699 -6 9.83398 -13.5 9.50098 -22.5s-3.5 -16.5 -9.5 -22.5z" />
    <glyph glyph-name="iacute" unicode="&#xed;" horiz-adv-x="209" 
d="M-49 330c-6 6 -9.16797 13.5 -9.50098 22.5s2.83398 16.5 9.50098 22.5l139 138c6 6 13.333 9 22 9s16.334 -3 23.001 -9c6 -6 9 -13.5 9 -22.5s-3 -16.5 -9 -22.5l-139 -138c-6.66699 -6.66699 -14.334 -10 -23.001 -10s-16 3.33301 -22 10zM36.999 -260
c-9.33301 0 -17 3 -23 9s-9 13.667 -9 23v470c0 9.33301 3 17 9 23s13.667 9 23 9s17 -3 23 -9s9 -13.667 9 -23v-470c0 -9.33301 -3 -17 -9 -23s-13.667 -9 -23 -9z" />
    <glyph glyph-name="ntilde" unicode="&#xf1;" horiz-adv-x="678" 
d="M353 345c-21.333 0 -41.5 4.99902 -60.5 14.999s-34.5 24.333 -46.5 43l-1 1c-7.33301 11.333 -17.333 19.666 -30 24.999s-25.667 6.33301 -39 3s-24.666 -9.66602 -33.999 -18.999s-15.333 -20.666 -18 -33.999c-1.33301 -8.66699 -5.5 -15.334 -12.5 -20.001
s-14.833 -6.33398 -23.5 -5.00098s-15.334 5.5 -20.001 12.5s-6.33398 14.833 -5.00098 23.5c5.33301 26 17 48.333 35 67s40 30.667 66 36s51 2.83301 75 -7.5s43.333 -26.5 58 -48.5h1c7.33301 -11.333 17.333 -19.833 30 -25.5s25.667 -6.83398 39 -3.50098
s24.666 9.83301 33.999 19.5s15.333 21.167 18 34.5c1.33301 8.66699 5.5 15.334 12.5 20.001s14.833 6.33398 23.5 5.00098s15.334 -5.66602 20.001 -12.999s6.33398 -15 5.00098 -23c-5.33301 -26 -17 -48.333 -35 -67s-40 -30.667 -66 -36c-9.33301 -2 -18 -3 -26 -3z
M463 178.999c-25.333 24.667 -54.499 43.332 -87.499 55.999s-67.5 19 -103.5 19c-36.667 0 -71.5 -6.33301 -104.5 -19s-62.167 -31.334 -87.5 -56.001l-9.5 -9.5c-3 -3 -5.83301 -6.16699 -8.5 -9.5v64c0 8.66699 -3 15.834 -9 21.501s-13.333 8.5 -22 8.5
s-16 -2.83301 -22 -8.5s-9 -12.834 -9 -21.501v-458c0 -8.66699 3 -16 9 -22s13.333 -9 22 -9s16 3 22 9s9 13.333 9 22v229c0 27.333 5.5 53 16.5 77s26 45 45 63s41.167 32.167 66.5 42.5s52.666 15.5 81.999 15.5c28.667 0 55.667 -5.16699 81 -15.5
s47.5 -24.5 66.5 -42.5s34 -39 45 -63s16.5 -49.667 16.5 -77v-229c0 -8.66699 3 -16 9 -22s13.333 -9 22 -9s16 3 22 9s9 13.333 9 22v229c0 34.667 -6.83301 67.834 -20.5 99.501s-33.5 59.834 -59.5 84.501z" />
    <glyph glyph-name="ograve" unicode="&#xf2;" horiz-adv-x="689" 
d="M276 197c-29.333 0 -56.833 -5.16699 -82.5 -15.5s-48.167 -24.5 -67.5 -42.5s-34.5 -39.167 -45.5 -63.5s-16.5 -50.166 -16.5 -77.499s5.5 -53.166 16.5 -77.499s26.167 -45.5 45.5 -63.5s41.833 -32.333 67.5 -43s53.167 -16 82.5 -16s56.833 5.33301 82.5 16
s48.167 25 67.5 43s34.5 39.167 45.5 63.5s16.5 50.166 16.5 77.499s-5.5 53.166 -16.5 77.499s-26.167 45.5 -45.5 63.5s-41.833 32.167 -67.5 42.5s-53.167 15.5 -82.5 15.5zM276 -264c-36.667 0 -71.667 6.5 -105 19.5s-62.666 31.833 -87.999 56.5
c-26 24.667 -46 52.834 -60 84.501s-21 65.5 -21 101.5s7 69.667 21 101s34 59.333 60 84c25.333 24.667 54.666 43.5 87.999 56.5s68.333 19.5 105 19.5s71.5 -6.5 104.5 -19.5s62.5 -31.833 88.5 -56.5s46 -52.667 60 -84s21 -65 21 -101s-7 -69.833 -21 -101.5
s-34 -59.834 -60 -84.501s-55.5 -43.5 -88.5 -56.5s-67.833 -19.5 -104.5 -19.5zM389 360c-6 -6 -13.333 -9 -22 -9s-16 3 -22 9l-182 183c-6 6 -9 13.167 -9 21.5s3 15.833 9 22.5c6 6 13.333 9 22 9s16 -3 22 -9l182 -183c6 -6 9 -13.333 9 -22s-3 -16 -9 -22z" />
    <glyph glyph-name="oacute" unicode="&#xf3;" horiz-adv-x="687" 
d="M161 360c-6 6 -9 13.333 -9 22s3 16 9 22l182 183c6 6 13.333 9 22 9s16 -3 22 -9c6 -6.66699 9 -14.167 9 -22.5s-3 -15.5 -9 -21.5l-182 -183c-6 -6 -13.333 -9 -22 -9s-16 3 -22 9zM274 -264c-36.667 0 -71.5 6.5 -104.5 19.5s-62.5 31.833 -88.5 56.5
s-46 52.834 -60 84.501s-21 65.5 -21 101.5s7 69.667 21 101s34 59.333 60 84s55.5 43.5 88.5 56.5s67.833 19.5 104.5 19.5s71.667 -6.5 105 -19.5s62.666 -31.833 87.999 -56.5c26 -24.667 46 -52.667 60 -84s21 -65 21 -101s-7 -69.833 -21 -101.5
s-34 -59.834 -60 -84.501c-25.333 -24.667 -54.666 -43.5 -87.999 -56.5s-68.333 -19.5 -105 -19.5zM274 197c-29.333 0 -56.833 -5.16699 -82.5 -15.5s-48.167 -24.5 -67.5 -42.5s-34.5 -39.167 -45.5 -63.5s-16.5 -50.166 -16.5 -77.499s5.5 -53.166 16.5 -77.499
s26.167 -45.5 45.5 -63.5s41.833 -32.333 67.5 -43s53.167 -16 82.5 -16s56.833 5.33301 82.5 16s48.167 25 67.5 43s34.5 39.167 45.5 63.5s16.5 50.166 16.5 77.499s-5.5 53.166 -16.5 77.499s-26.167 45.5 -45.5 63.5s-41.833 32.167 -67.5 42.5s-53.167 15.5 -82.5 15.5
z" />
    <glyph glyph-name="ocircumflex" unicode="&#xf4;" horiz-adv-x="684" 
d="M86 393c0 6.66699 2.66699 13.667 8 21l150 162c4.66699 6.66699 12 10 22 10c9.33301 0 17 -3 23 -9l159 -160c6 -6 9 -13.333 9 -22s-3 -16 -9 -22s-13.333 -9 -22 -9s-16 3 -22 9l-137 137l-127 -138c-6 -6.66699 -13.167 -10.167 -21.5 -10.5s-15.833 2.5 -22.5 8.5
s-10 13.667 -10 23zM272 -264c-36.667 0 -71.667 6.5 -105 19.5s-63 31.833 -89 56.5s-45.833 52.834 -59.5 84.501s-20.5 65.5 -20.5 101.5s6.83301 69.5 20.5 100.5s33.5 59.167 59.5 84.5c26.667 25.333 56.5 44.5 89.5 57.5s67.833 19.5 104.5 19.5
c36 0 70.5 -6.5 103.5 -19.5s62.833 -32.167 89.5 -57.5c26 -25.333 46 -53.5 60 -84.5s21 -64.5 21 -100.5s-7 -69.833 -21 -101.5s-34 -59.834 -60 -84.501s-55.667 -43.5 -89 -56.5s-68 -19.5 -104 -19.5zM272 197c-29.333 0 -56.833 -5.16699 -82.5 -15.5
s-48.167 -24.5 -67.5 -42.5s-34.5 -39.167 -45.5 -63.5s-16.5 -50.166 -16.5 -77.499s5.5 -53.166 16.5 -77.499s26.167 -45.5 45.5 -63.5s41.833 -32.333 67.5 -43s53.167 -16 82.5 -16c28.667 0 55.834 5.33301 81.501 16s48.167 25 67.5 43s34.5 39.167 45.5 63.5
s16.5 50.166 16.5 77.499s-5.5 53.166 -16.5 77.499s-26.167 45.5 -45.5 63.5s-41.833 32.167 -67.5 42.5s-52.834 15.5 -81.501 15.5z" />
    <glyph glyph-name="odieresis" unicode="&#xf6;" horiz-adv-x="690" 
d="M140 437c10.667 0 19.667 -3.66699 27 -11s11 -16.333 11 -27c0 -10 -3.66699 -18.667 -11 -26s-16.333 -11 -27 -11c-10 0 -18.667 3.66699 -26 11s-11 16 -11 26c0 10.667 3.66699 19.667 11 27s16 11 26 11zM414 437c10 0 18.667 -3.66699 26 -11s11 -16.333 11 -27
c0 -10 -3.66699 -18.667 -11 -26s-16 -11 -26 -11c-10.667 0 -19.667 3.66699 -27 11s-11 16 -11 26c0 10.667 3.66699 19.667 11 27s16.333 11 27 11zM277 -263c-36.667 0 -71.5 6.5 -104.5 19.5s-62.5 31.833 -88.5 56.5s-46 52.667 -60 84s-21 65 -21 101
s7 69.833 21 101.5s34 59.834 60 84.501s55.5 43.5 88.5 56.5s67.833 19.5 104.5 19.5s71.667 -6.5 105 -19.5s62.666 -31.833 87.999 -56.5c26 -24.667 46 -52.834 60 -84.501s21 -65.5 21 -101.5s-7 -69.667 -21 -101s-34 -59.333 -60 -84
c-25.333 -24.667 -54.666 -43.5 -87.999 -56.5s-68.333 -19.5 -105 -19.5zM277 198c-29.333 0 -56.833 -5.16699 -82.5 -15.5s-48.167 -24.5 -67.5 -42.5s-34.5 -39.167 -45.5 -63.5s-16.5 -50.5 -16.5 -78.5c0 -27.333 5.5 -53.166 16.5 -77.499s26.167 -45.5 45.5 -63.5
s41.833 -32.167 67.5 -42.5s53.167 -15.5 82.5 -15.5s56.833 5.16699 82.5 15.5s48.167 24.5 67.5 42.5s34.5 39.167 45.5 63.5s16.5 50.166 16.5 77.499c0 28 -5.5 54.167 -16.5 78.5s-26.167 45.5 -45.5 63.5s-41.833 32.167 -67.5 42.5s-53.167 15.5 -82.5 15.5z" />
    <glyph glyph-name="divide" unicode="&#xf7;" horiz-adv-x="418" 
 />
    <glyph glyph-name="ugrave" unicode="&#xf9;" horiz-adv-x="693" 
d="M542 232c0 -0.666992 0.166992 -1.16797 0.5 -1.50098s0.5 -0.833008 0.5 -1.5v-228v-228c0 -8.66699 -3 -16 -9 -22s-13.333 -9 -22 -9s-16 3 -22 9s-9 13.333 -9 22v63l-18 -19c-24 -25.333 -52.833 -44.166 -86.5 -56.499s-68.5 -18.5 -104.5 -18.5
s-70.5 6.5 -103.5 19.5s-62.167 31.5 -87.5 55.5c-53.333 50 -80 111.333 -80 184v228c0 8.66699 3 16 9 22s13.333 9 22 9s16 -3 22 -9s9 -13.333 9 -22v-228c0 -27.333 5.5 -53 16.5 -77s25.833 -45 44.5 -63s40.667 -32.167 66 -42.5s52.666 -15.5 81.999 -15.5
c28.667 0 55.667 5.16699 81 15.5s47.5 24.5 66.5 42.5s34 39 45 63s16.5 49.667 16.5 77v228c0 8.66699 3 16 9 22s13.333 9 22 9c8 0 14.833 -2.83301 20.5 -8.5s8.83398 -12.167 9.50098 -19.5zM410 358.999c-6 -6 -13.167 -9 -21.5 -9s-15.5 3 -21.5 9l-181 180
c-6 6 -9 13.333 -9 22s3 16 9 22s13.333 9 22 9s16 -3 22 -9l180 -180c6 -6 9 -13.333 9 -22s-3 -16 -9 -22z" />
    <glyph glyph-name="uacute" unicode="&#xfa;" horiz-adv-x="693" 
d="M160 359c-6 6 -9 13.333 -9 22s3 16 9 22l180 180c6 6 13.333 9 22 9s16 -3 22 -9s9 -13.333 9 -22s-3 -16 -9 -22l-181 -180c-6 -6 -13.167 -9 -21.5 -9s-15.5 3 -21.5 9zM542 232c-0.666992 7.33301 -3.83398 13.834 -9.50098 19.501s-12.5 8.5 -20.5 8.5
c-8.66699 0 -16 -3 -22 -9s-9 -13.333 -9 -22v-228c0 -27.333 -5.5 -53 -16.5 -77s-26 -45 -45 -63s-41.167 -32.167 -66.5 -42.5s-52.333 -15.5 -81 -15.5c-29.333 0 -56.666 5.16699 -81.999 15.5s-47.333 24.5 -66 42.5s-33.5 39 -44.5 63s-16.5 49.667 -16.5 77v228
c0 8.66699 -3 16 -9 22s-13.333 9 -22 9s-16 -3 -22 -9s-9 -13.333 -9 -22v-228c0 -72.667 26.667 -134 80 -184c25.333 -24 54.5 -42.5 87.5 -55.5s67.5 -19.5 103.5 -19.5s70.833 6.16699 104.5 18.5s62.5 31.166 86.5 56.499l18 19v-63c0 -8.66699 3 -16 9 -22
s13.333 -9 22 -9s16 3 22 9s9 13.333 9 22v228v228c0 0.666992 -0.166992 1.16699 -0.5 1.5s-0.5 0.833008 -0.5 1.5z" />
    <glyph glyph-name="udieresis" unicode="&#xfc;" horiz-adv-x="686" 
d="M135 439c10.667 0 19.5 -3.66699 26.5 -11s10.5 -16 10.5 -26c0 -10.667 -3.5 -19.5 -10.5 -26.5s-15.833 -10.5 -26.5 -10.5c-10 0 -18.667 3.5 -26 10.5s-11 15.833 -11 26.5c0 10 3.66699 18.667 11 26s16 11 26 11zM408 439c10.667 0 19.5 -3.66699 26.5 -11
s10.5 -16 10.5 -26c0 -10.667 -3.5 -19.5 -10.5 -26.5s-15.833 -10.5 -26.5 -10.5c-10 0 -18.667 3.5 -26 10.5s-11 15.833 -11 26.5c0 10 3.66699 18.667 11 26s16 11 26 11zM546 235c-1.33301 8 -4.83105 14.6689 -10.498 20.002s-12.5 8 -20.5 8
c-9.33301 0 -17 -3 -23 -9s-9 -13.333 -9 -22v-231c0 -27.333 -5.5 -53.166 -16.5 -77.499s-26.167 -45.5 -45.5 -63.5s-41.833 -32.333 -67.5 -43s-52.834 -16 -81.501 -16c-29.333 0 -56.833 5.33301 -82.5 16s-48.167 25 -67.5 43s-34.5 39.167 -45.5 63.5
s-16.5 50.166 -16.5 77.499v231c0 8.66699 -3 16 -9 22s-13.333 9 -22 9s-16 -3 -22 -9s-9 -13.333 -9 -22v-231c0 -72 27 -134 81 -186c25.333 -24.667 54.666 -43.5 87.999 -56.5s68.333 -19.5 105 -19.5s71.5 6.5 104.5 19.5s62.5 31.833 88.5 56.5
c3.33301 3.33301 6.5 6.66602 9.5 9.99902s5.83301 6.66602 8.5 9.99902v-65c0 -8.66699 3 -16 9 -22s13.667 -9 23 -9c8.66699 0 16 3 22 9s9 13.333 9 22v231v231v3z" />
    <glyph glyph-name="Ydieresis" unicode="&#x178;" horiz-adv-x="663" 
d="M540 738c-7.33301 4.66699 -15.334 5.66797 -24.001 3.00098s-15 -8 -19 -16l-217 -413l-220 413c-4.66699 8 -11.167 13.167 -19.5 15.5s-16.166 1.5 -23.499 -2.5c-8 -4.66699 -13.167 -11 -15.5 -19s-1.5 -15.667 2.5 -23l244 -459v-465
c0 -8.66699 3.16699 -16 9.5 -22s13.833 -9 22.5 -9c9.33301 0 17 3 23 9s9 13.333 9 22v465l241 459c4 7.33301 4.66699 15.166 2 23.499s-7.66699 14.5 -15 18.5zM139.999 891.001c10.667 0 19.5 -3.66699 26.5 -11s10.5 -16.333 10.5 -27s-3.5 -19.667 -10.5 -27
s-15.833 -11 -26.5 -11s-19.667 3.66699 -27 11s-11 16.333 -11 27s3.66699 19.667 11 27s16.333 11 27 11zM416.999 891.001c10.667 0 19.667 -3.66699 27 -11s11 -16.333 11 -27s-3.66699 -19.667 -11 -27s-16.333 -11 -27 -11s-19.5 3.66699 -26.5 11
s-10.5 16.333 -10.5 27s3.5 19.667 10.5 27s15.833 11 26.5 11z" />
    <glyph glyph-name="fraction" unicode="&#x2044;" horiz-adv-x="343" 
 />
    <glyph glyph-name="Euro" unicode="&#x20ac;" horiz-adv-x="557" 
d="M434 -213c2.66699 -8 2.16797 -15.9961 -1.49902 -23.9961s-9.5 -13.667 -17.5 -17c-34 -11.333 -67 -17 -99 -17c-38 0 -73.833 6.66699 -107.5 20s-63.5 32.666 -89.5 57.999c-27.333 26 -48.333 56.333 -63 91h-68c-9.33301 0 -17 3 -23 9s-9 13.667 -9 23
c0 8.66699 3 16.167 9 22.5s13.667 9.5 23 9.5h51c-2 10.667 -3 22 -3 34c0 11.333 1 22.666 3 33.999h-51c-9.33301 0 -17 3 -23 9s-9 13.667 -9 23c0 8.66699 3 16.167 9 22.5s13.667 9.5 23 9.5h68c14.667 34.667 35.667 65 63 91c26 25.333 55.833 44.666 89.5 57.999
s69.5 20 107.5 20c16.667 0 33 -1.33301 49 -4s32 -7 48 -13c8 -3.33301 14 -8.83301 18 -16.5s4.33301 -15.5 1 -23.5c-3.33301 -8.66699 -8.83301 -15 -16.5 -19s-15.834 -4.33301 -24.501 -1c-24.667 8.66699 -49.667 13 -75 13c-42 0 -79.5 -9.5 -112.5 -28.5
s-58.833 -44.5 -77.5 -76.5h232c9.33301 0 17 -3.16699 23 -9.5s9 -13.833 9 -22.5c0 -9.33301 -3 -17 -9 -23s-13.667 -9 -23 -9h-255c-2 -11.333 -3 -22.666 -3 -33.999c0 -12 1 -23.333 3 -34h255c9.33301 0 17 -3.16699 23 -9.5s9 -13.833 9 -22.5
c0 -9.33301 -3 -17 -9 -23s-13.667 -9 -23 -9h-232c18.667 -32 44.5 -57.5 77.5 -76.5s70.5 -28.5 112.5 -28.5c13.333 0 26.5 0.833008 39.5 2.5s25.5 5.16699 37.5 10.5c8 3.33301 16 3.16602 24 -0.500977s13.667 -9.83398 17 -18.501z" />
    <glyph glyph-name="fi" unicode="&#xfb01;" horiz-adv-x="514" 
d="M367 398c0 16.667 -8.33301 25 -25 25c-7.33301 0 -13.5 -2.33301 -18.5 -7s-7.5 -10.667 -7.5 -18s2.5 -13.333 7.5 -18s11.167 -7 18.5 -7c16.667 0 25 8.33301 25 25zM342 -260c8.66699 0 16 3 22 9s9 13.667 9 23v470c0 8.66699 -3 16 -9 22s-13.333 9 -22 9
c-9.33301 0 -17 -3 -23 -9s-9 -13.333 -9 -22v-470c0 -9.33301 3 -17 9 -23s13.667 -9 23 -9zM278 740c9.33301 0 17 -3.00195 23 -9.00195s9 -13.667 9 -23c0 -8.66699 -3 -16 -9 -22s-13.667 -9 -23 -9h-125c-25.333 0 -46.666 -8.66699 -63.999 -26
s-26 -38.666 -26 -63.999v-315h92c8.66699 0 16 -3.16699 22 -9.5s9 -13.833 9 -22.5s-3 -16.167 -9 -22.5s-13.333 -9.5 -22 -9.5h-92v-436c0 -9.33301 -3 -17 -9 -23s-13.333 -9 -22 -9c-9.33301 0 -17 3 -23 9s-9 13.667 -9 23v815c0 20.667 4 40.334 12 59.001
s19 35 33 49s30.167 25 48.5 33s38.166 12 59.499 12h125z" />
    <glyph glyph-name="fl" unicode="&#xfb02;" horiz-adv-x="458" 
d="M278 745c9.33301 0 17 -3.00195 23 -9.00195s9 -13.667 9 -23v-934c0 -9.33301 -3 -17 -9 -23s-13.667 -9 -23 -9c-8.66699 0 -16.167 3 -22.5 9s-9.5 13.667 -9.5 23v903h-93c-25.333 0 -46.666 -8.66699 -63.999 -26s-26 -38.666 -26 -63.999v-315h92
c8.66699 0 16 -3.16699 22 -9.5s9 -13.833 9 -22.5s-3 -16.167 -9 -22.5s-13.333 -9.5 -22 -9.5h-92v-436c0 -9.33301 -3 -17 -9 -23s-13.333 -9 -22 -9c-9.33301 0 -17 3 -23 9s-9 13.667 -9 23v815c0 20.667 4 40.334 12 59.001s19 35 33 49s30.167 25 48.5 33
s38.166 12 59.499 12h125z" />
    </font>
</defs>
</svg>
