<?xml version="1.0" standalone="no"?>
<!DOCTYPE svg PUBLIC "-//W3C//DTD SVG 1.1//EN" "http://www.w3.org/Graphics/SVG/1.1/DTD/svg11.dtd" >
<svg>
<metadata>
Created by FontForge 20090914 at Fri Feb 19 19:36:39 2021
 By www-data
Copyright (c) 2011, Denis Masharov &#60;denis.masharov@gmail.com&#62;, Marck Fogel, with Reserved Font Names "Marck Script".
</metadata>
<defs>
<font id="MarckScript-Regular" horiz-adv-x="415" >
  <font-face 
    font-family="Marck Script"
    font-weight="400"
    font-stretch="normal"
    units-per-em="2048"
    panose-1="2 0 0 0 0 0 0 0 0 0"
    ascent="1638"
    descent="-410"
    x-height="750.003"
    cap-height="1307"
    bbox="-246 -788.001 2482 1583"
    underline-thickness="153"
    underline-position="-156"
    unicode-range="U+000D-U+E000"
  />
<missing-glyph horiz-adv-x="748" 
d="M68 0v1365h544v-1365h-544zM136 68h408v1229h-408v-1229z" />
    <glyph glyph-name=".notdef" horiz-adv-x="748" 
d="M68 0v1365h544v-1365h-544zM136 68h408v1229h-408v-1229z" />
    <glyph glyph-name="glyph3" horiz-adv-x="20" 
 />
    <glyph glyph-name="glyph3" horiz-adv-x="20" 
 />
    <glyph glyph-name="uni000D" unicode="&#xd;" horiz-adv-x="681" 
 />
    <glyph glyph-name="space" unicode=" " horiz-adv-x="983" 
 />
    <glyph glyph-name="exclam" unicode="!" horiz-adv-x="526" 
d="M-23 93c0 -25.333 8.66699 -46.833 26 -64.5s38.5 -26.5 63.5 -26.5s46.5 8.83301 64.5 26.5s27 39.167 27 64.5s-9 46.5 -27 63.5s-39.5 25.5 -64.5 25.5s-46.167 -8.5 -63.5 -25.5s-26 -38.167 -26 -63.5zM2 279c84.667 337.333 244.333 682.666 479 1036l97 -60
c-195.333 -333.333 -349 -658.666 -461 -975.999h-115z" />
    <glyph glyph-name="quotedbl" unicode="&#x22;" horiz-adv-x="40" 
d="M-41 999l119 310l115 -56l-168 -254h-66zM152 999l118 301l115 -51l-164 -250h-69z" />
    <glyph glyph-name="numbersign" unicode="#" horiz-adv-x="1177" 
d="M66 397l19.999 97.002l274 -2l70 243h-297l21 99h309c42 134 91.667 282.667 149 446l93 -39c-30 -80.667 -76.667 -215.667 -140 -405c116 2.66699 202 6 258 10l150 444l92 -37c-35.333 -92.667 -80.333 -226.334 -135 -401.001c26 0 53 1 81 3s57.667 4 89 6
s54.333 3.66699 69 5l-20 -94c-100 -10.667 -184 -17.334 -252 -20.001l-76 -252c124 5.33301 216.333 10 277 14l-19 -98c-31.333 -2.66699 -126 -7.66699 -284 -15c-42 -148.667 -73 -275.667 -93 -381l-100 -24c18 109.333 48 241.666 90 396.999h-258
c-45.333 -168 -76.666 -295 -93.999 -381l-100 -26c24.667 128.667 56 264.334 94 407.001c-78 0 -167.333 1.33301 -268 4zM462.999 492.002l258 4l74 249c-117.333 -5.33301 -204 -8 -260 -8z" />
    <glyph glyph-name="dollar" unicode="$" horiz-adv-x="993" 
d="M-14 178c0 70.667 39.833 137.504 119.5 200.504s180.5 96.5 302.5 100.5c22 54.667 34.667 91.667 38 111c-62.667 19.333 -110.667 43.666 -144 72.999s-50 69.666 -50 120.999c0 95.333 53.167 190.833 159.5 286.5s212.833 155.167 319.5 178.5
c24.667 49.333 45.334 87.666 62.001 114.999l59 -21l-35 -77c56 0 101.5 -11.333 136.5 -34s52.5 -57.334 52.5 -104.001c0 -76.667 -45.5 -148.334 -136.5 -215.001s-179.5 -100 -265.5 -100l-20 -55c-8 -23.333 -14.333 -39.666 -19 -48.999
c84.667 -15.333 147.167 -43.5 187.5 -84.5s60.5 -90.167 60.5 -147.5c0 -104 -52.167 -208.5 -156.5 -313.5s-211.833 -157.5 -322.5 -157.5l-33 -119l-70 11l25 110c-88.667 0 -155.834 16 -201.501 48s-68.5 72.667 -68.5 122zM156 224.504
c0 -44.333 10.999 -79.167 32.999 -104.5s52 -38 90 -38l108 336c-69.333 -9.33301 -125.166 -32.833 -167.499 -70.5s-63.5 -78.667 -63.5 -123zM351.999 82.0029c76.667 0 149.5 36.167 218.5 108.5s103.5 144.166 103.5 215.499c0 84.667 -53.333 140.334 -160 167.001
c-12 -30 -22.333 -59.333 -31 -88c27.333 0 46 -0.666992 56 -2l-11 -55h-65zM400.999 878.503c0 -69.667 33 -118.168 99 -145.501l30 80c-16.667 1.33301 -31 6 -43 14l23 56l51 -6l123 280c-82 -9.33301 -149.667 -40.666 -203 -93.999s-80 -114.833 -80 -184.5z
M634.999 879.002c61.333 4 112.833 24 154.5 60s62.5 76.667 62.5 122c0 60 -32.667 91.333 -98 94z" />
    <glyph glyph-name="percent" unicode="%" horiz-adv-x="1110" 
d="M-10 72c30 45.333 114.333 136.833 253 274.5s295 279.167 469 424.5s304.667 234.333 392 267l55 -43l-37 -28c-464 -362 -816 -682.333 -1056 -961zM240 815c0 58.667 25.166 110.499 75.499 155.499s103.5 67.5 159.5 67.5s97.333 -10.833 124 -32.5
s40 -50.167 40 -85.5c0 -59.333 -26.667 -112.166 -80 -158.499s-107.333 -69.5 -162 -69.5c-105.333 0 -157.666 41 -156.999 123zM341.999 821.499c0 -49 24.667 -73.5 74 -73.5c34 0 64 16.667 90 50s39 70.333 39 111c0 57.333 -28 86 -84 86
c-28.667 0 -55.667 -16.667 -81 -50s-38 -74.5 -38 -123.5zM417.999 153.999c0 60 24.832 112.167 74.499 156.5s102.834 66.5 159.501 66.5s99 -12 127 -36s42 -59.5 42 -106.5s-25.5 -93.333 -76.5 -139s-110.167 -68.5 -177.5 -68.5c-100 0 -149.667 42.333 -149 127z
M519.998 169.999c0 -57.333 27.334 -86.001 82.001 -86.001c27.333 0 53.666 15.333 78.999 46s38 63 38 97c0 66.667 -24.667 100.334 -74 101.001c-32.667 0 -61.667 -16.5 -87 -49.5s-38 -69.167 -38 -108.5z" />
    <glyph glyph-name="ampersand" unicode="&#x26;" horiz-adv-x="1044" 
d="M-2 288c0 81.333 33.498 153 100.498 215s161.167 108 282.5 138c-26 74 -39 134 -39 180c0 72.667 29 133.167 87 181.5s126 72.5 204 72.5s139.833 -17.333 185.5 -52s68.5 -80 68.5 -136c0 -118.667 -115.333 -207.334 -346 -266.001
c66.667 -164 124 -281.667 172 -353c31.333 45.333 67.333 129.333 108 252h66c-5.33301 -39.333 -20.666 -90.166 -45.999 -152.499s-52.333 -113.166 -81 -152.499c46.667 -58.667 87 -88 121 -88c46 0 82 32.667 108 98l55 -35
c-18 -58.667 -47.667 -105.334 -89 -140.001s-86.666 -52 -135.999 -52s-105.333 31.333 -168 94c-72.667 -62.667 -167.667 -94 -285 -94s-208 28 -272 84s-96 124.667 -96 206zM179.998 338c0 -57.333 20.833 -110.67 62.5 -160.003s104.834 -74 189.501 -74
s144.667 16 180 48c-72.667 110.667 -143.667 253.334 -213 428.001c-62.667 -13.333 -114.834 -42.666 -156.501 -87.999s-62.5 -96.666 -62.5 -153.999zM480.998 855.996c0 -39.333 11.666 -96.668 34.999 -172.001c161.333 42 242 109.667 242 203
c0 38 -11.667 68.333 -35 91s-55.166 34 -95.499 34s-74.833 -16.167 -103.5 -48.5s-43 -68.166 -43 -107.499z" />
    <glyph glyph-name="quotesingle" unicode="'" horiz-adv-x="108" 
d="M-39 999l119 301l115 -51l-164 -250h-70z" />
    <glyph glyph-name="parenleft" unicode="(" horiz-adv-x="507" 
d="M45 -102c0 285.333 42.999 560 128.999 824s207.667 484.667 365 662l82 -49c-169.333 -232 -291.666 -480 -366.999 -744s-113 -554 -113 -870h-90c-4 57.333 -6 116.333 -6 177z" />
    <glyph glyph-name="parenright" unicode=")" horiz-adv-x="436" 
d="M-98 -229c169.333 232 291.5 479.998 366.5 743.998s112.5 553.667 112.5 869h90c4 -57.333 6 -116 6 -176c0 -285.333 -42.833 -560.166 -128.5 -824.499s-207.167 -485.166 -364.5 -662.499z" />
    <glyph glyph-name="asterisk" unicode="*" horiz-adv-x="425" 
d="M2 1087c18 2.66699 41 5.16699 69 7.5s46.667 4.16602 56 5.49902l-90 69l49 78c10.667 -8 27 -22.667 49 -44s39 -36.666 51 -45.999c6.66699 74 11.667 118.333 15 133l88 -20l-25 -117l103 82l41 -61l-105 -70l123 20v-75l-131 -9l100 -86l-53 -51l-100 92v-129h-74
v129l-86 -77l-53 55l82 61l-107 -18z" />
    <glyph glyph-name="plus" unicode="+" horiz-adv-x="534" 
d="M-6 555c53.333 10.667 127.665 19.668 222.998 27.001c10.667 109.333 20.334 185.666 29.001 228.999l110 -25l-22 -186h198v-96l-213 -25l-22 -207h-96c2.66699 94 5.33398 159 8.00098 195l-191 -23z" />
    <glyph glyph-name="comma" unicode="," horiz-adv-x="274" 
d="M-25 -68c54.667 44 82.667 67.333 84 70c-42 13.333 -63 35.333 -63 66c0 24 9.16699 44.667 27.5 62s40.833 26 67.5 26s47.5 -7.83301 62.5 -23.5s22.5 -36.5 22.5 -62.5c0 -60 -52 -127.667 -156 -203z" />
    <glyph glyph-name="hyphen" unicode="-" 
d="M-27 555c118 23.333 267.667 38.333 449 45v-96l-424 -60z" />
    <glyph glyph-name="period" unicode="." horiz-adv-x="268" 
d="M-2 71.5c0 23 8.16699 42.833 24.5 59.5s36.166 25 59.499 25s43.166 -8.33301 59.499 -25s24.5 -36.5 24.5 -59.5s-8.16699 -42.667 -24.5 -59s-36.166 -24.5 -59.499 -24.5s-43.166 8.16699 -59.499 24.5s-24.5 36 -24.5 59z" />
    <glyph glyph-name="slash" unicode="/" horiz-adv-x="835" 
d="M-45 -231c164 319.333 327.499 609.501 490.499 870.501s355.833 540.167 578.5 837.5l80 -43c-220 -292 -410.167 -566.833 -570.5 -824.5s-323.166 -546.834 -488.499 -867.501z" />
    <glyph glyph-name="zero" unicode="0" horiz-adv-x="925" 
d="M-18 285c0 108 34.3301 218.168 102.997 330.501s157.334 205.833 266.001 280.5s215.667 112 321 112c76 0 137 -21.833 183 -65.5s69 -106.834 69 -189.501s-34.833 -183.5 -104.5 -302.5s-160.167 -222.5 -271.5 -310.5s-217.666 -132 -318.999 -132
c-165.333 0 -247.666 92.333 -246.999 277zM155.997 360.001c0 -66.667 15.665 -121.499 46.998 -164.499s77.333 -64.5 138 -64.5s124.834 32.833 192.501 98.5s122.334 144.167 164.001 235.5s62.5 171.5 62.5 240.5s-15.667 121.667 -47 158s-74.333 54.5 -129 54.5
c-95.333 0 -190.5 -61.833 -285.5 -185.5s-142.5 -247.834 -142.5 -372.501z" />
    <glyph glyph-name="one" unicode="1" horiz-adv-x="446" 
d="M-14 125c0 121.333 79 343.333 237 666c-52 -20.667 -94.333 -31 -127 -31s-63.334 5.33301 -92.001 16l45 105c16.667 -4 33 -6.33301 49 -7c44 0 88.5 13.667 133.5 41s79.833 58.166 104.5 92.499s45.834 51.5 63.501 51.5s35 -6.16699 52 -18.5s25.5 -26 25.5 -41
s-1.33301 -25.167 -4 -30.5c-4 -23.333 -32 -82.666 -84 -177.999c-164 -294.667 -250.667 -546 -260 -754l-131 -21c-8 22 -12 58.333 -12 109z" />
    <glyph glyph-name="two" unicode="2" horiz-adv-x="845" 
d="M-35 145c10.667 42 64.834 103.499 162.501 184.499s223.167 160.833 376.5 239.5c45.333 23.333 87 53.5 125 90.5s57 71.833 57 104.5c0 62.667 -33.333 94 -100 94c-88.667 0 -202.667 -57.333 -342 -172l-35 68c57.333 66.667 133.166 125.667 227.499 177
s173.166 77 236.499 77s113.5 -17.167 150.5 -51.5s55.5 -82.833 55.5 -145.5s-25.333 -119.667 -76 -171s-151.834 -115.5 -303.501 -192.5s-292.167 -171.5 -421.5 -283.5c187.333 28.667 361.333 43 522 43c36.667 0 66 -1.33301 88 -4v-129
c-30 -5.33301 -50.167 -7.66602 -60.5 -6.99902s-27 0.166992 -50 -1.5s-68 -4.16699 -135 -7.5s-135.667 -8.33301 -206 -15s-118.166 -11.667 -143.499 -15s-40.666 -5 -45.999 -5c-22 0 -41.167 13.833 -57.5 41.5s-24.5 54.5 -24.5 80.5z" />
    <glyph glyph-name="three" unicode="3" horiz-adv-x="833" 
d="M-37 96l91.999 85.9961c19.333 -19.333 45 -36.333 77 -51s59.667 -22 83 -22c80.667 0 154.167 20.667 220.5 62s99.5 91.666 99.5 150.999c0 35.333 -16.5 66.666 -49.5 93.999s-76.833 48.333 -131.5 63c-31.333 9.33301 -47 25 -47 47c0 30 61.667 59.333 185 88
c45.333 10.667 87 28.834 125 54.501s57 53.834 57 84.501s-10.667 54.5 -32 71.5s-47.666 25.5 -78.999 25.5s-79.333 -16.667 -144 -50s-132 -76.666 -202 -129.999l-33 67c57.333 68 135.5 128 234.5 180s178.667 78 239 78s111.5 -16.667 153.5 -50
s63 -72.666 63 -117.999c0 -66.667 -35.833 -126.667 -107.5 -180s-143.5 -90.666 -215.5 -111.999c56 -32.667 98.667 -63.5 128 -92.5s44 -61.833 44 -98.5c0 -90 -50.5 -168.833 -151.5 -236.5s-209.5 -101.5 -325.5 -101.5c-56 0 -111.667 8.83301 -167 26.5
s-94 38.834 -116 63.501z" />
    <glyph glyph-name="four" unicode="4" horiz-adv-x="790" 
d="M-10 400.5c0 19.667 0.668945 32.1699 2.00195 37.5029c8 44 65.333 114.833 172 212.5s218.667 186 336 265s194.333 118.5 231 118.5c23.333 0 42.166 -7.5 56.499 -22.5s21.5 -34.333 21.5 -58s-13 -56.334 -39 -98.001s-48.167 -80.334 -66.5 -116.001
s-33.833 -67.167 -46.5 -94.5c-24.667 -56 -44.334 -104.333 -59.001 -145c46.667 2.66699 85.667 4 117 4s58 -1.33301 80 -4c-18 -88.667 -29.667 -135.334 -35 -140.001l-221 -4c-35.333 -64 -64 -171 -86 -321l-119 -19c-5.33301 18 -8 40 -8 66
c0 72.667 19.667 160 59 262c-86 -6.66699 -156 -15.5 -210 -26.5s-83 -16.5 -87 -16.5c-31.333 0 -55.5 11.667 -72.5 35s-25.5 44.833 -25.5 64.5zM119.002 438.003c138.667 24.667 244.333 40.332 317 46.999c31.333 84.667 95.666 217.334 192.999 398.001
c-82 -42 -177.667 -111 -287 -207s-183.666 -175.333 -222.999 -238z" />
    <glyph glyph-name="five" unicode="5" horiz-adv-x="786" 
d="M-29 104l85.9961 77.999c16.667 -19.333 44.834 -36.333 84.501 -51s75.834 -22 108.501 -22c76.667 0 143.667 21.833 201 65.5s86 96.834 86 159.501c0 44 -25.333 80.167 -76 108.5s-116.334 42.5 -197.001 42.5s-121 24.667 -121 74c0 22 19.5 66.5 58.5 133.5
s60.833 105.167 65.5 114.5s12.167 21.5 22.5 36.5s17.5 25 21.5 30s10.833 12.833 20.5 23.5s17.834 19 24.501 25c20.667 10.667 44.667 20 72 28c108 26 231.667 39 371 39h96l-8 -125c-18 1.33301 -59.333 2 -124 2s-119.334 -2.66699 -164.001 -8
s-100.334 -17 -167.001 -35c-79.333 -116 -127.666 -197.667 -144.999 -245c36.667 4 69.334 6 98.001 6c92.667 0 171.834 -22.5 237.501 -67.5s98.5 -101.167 98.5 -168.5c0 -94 -49.167 -174.5 -147.5 -241.5s-210.666 -100.5 -336.999 -100.5s-214.833 32.667 -265.5 98
z" />
    <glyph glyph-name="six" unicode="6" horiz-adv-x="821" 
d="M-4 266c0 140.667 40.999 271.166 122.999 391.499s179.667 211.5 293 273.5s222.333 93.667 327 95l11 -82c-168 -38 -285.667 -85 -353 -141c-78 -68 -143.333 -162.333 -196 -283c133.333 101.333 270.333 152 411 152c53.333 0 97.5 -16.167 132.5 -48.5
s52.5 -74.166 52.5 -125.499c0 -110.667 -62.5 -219.667 -187.5 -327s-241.5 -161 -349.5 -161c-83.333 0 -148.166 21.833 -194.499 65.5s-69.5 107.167 -69.5 190.5zM171.999 329.999c0 -60 16.668 -109.501 50.001 -148.501s74 -58.5 122 -58.5
c69.333 0 135.166 30.333 197.499 91s93.5 125.334 93.5 194.001c0 38 -14 67.833 -42 89.5s-63.833 32.5 -107.5 32.5s-104.167 -14.667 -181.5 -44s-119.333 -62.333 -126 -99c-4 -20.667 -6 -39.667 -6 -57z" />
    <glyph glyph-name="seven" unicode="7" horiz-adv-x="636" 
d="M12 4c2.66699 105.333 46.335 240.668 131.002 406.001c40.667 83.333 98.667 167.166 174 251.499s160.666 156.833 255.999 217.5c-136.667 -1.33301 -310 -29.333 -520 -84l-24 131c31.333 13.333 121.666 31.666 270.999 54.999s259.833 34.833 331.5 34.5
s115.167 -7.16602 130.5 -20.499c24.667 -19.333 37 -42.5 37 -69.5s-22.5 -57.667 -67.5 -92s-89.833 -70.833 -134.5 -109.5s-93.167 -86.667 -145.5 -144s-98.5 -114 -138.5 -170c-92.667 -134 -143 -264.667 -151 -392z" />
    <glyph glyph-name="eight" unicode="8" horiz-adv-x="892" 
d="M-12 260.5c0 73.667 36.5 141.834 109.5 204.501s168.833 107.667 287.5 135c-61.333 53.333 -92 104.666 -92 153.999c0 68 35.5 127 106.5 177s151.167 75 240.5 75s159 -17.5 209 -52.5s75 -80.5 75 -136.5c0 -94 -80 -165.667 -240 -215
c78 -31.333 117 -83.333 117 -156c0 -112 -60.167 -211.333 -180.5 -298s-239.166 -130 -356.499 -130c-84.667 0 -151.834 22 -201.501 66s-74.5 102.833 -74.5 176.5zM168 298c0 -50 18.5 -91.332 55.5 -123.999s85.167 -49 144.5 -49s117 27.667 173 83
s84 113.666 84 174.999c0 36.667 -12.667 70.5 -38 101.5s-64 51.167 -116 60.5c-86 -19.333 -158 -52.833 -216 -100.5s-87 -96.5 -87 -146.5zM477 793.001c0.666992 -58 35 -102.668 103 -134.001c48 13.333 86.167 35.5 114.5 66.5s42.5 66.167 42.5 105.5
c0 54.667 -36 82 -108 82c-44 0 -80.333 -11.167 -109 -33.5s-43 -51.166 -43 -86.499z" />
    <glyph glyph-name="nine" unicode="9" horiz-adv-x="747" 
d="M10 92c196.667 45.333 334.666 97.999 413.999 157.999c36.667 27.333 75.5 64.833 116.5 112.5s75.167 102.834 102.5 165.501c-134 -100.667 -271.333 -151 -412 -151c-53.333 0 -97.333 16 -132 48s-52 74 -52 126c0 74 30 148.167 90 222.5s131.333 134 214 179
s158.334 67.5 227.001 67.5c180 0 270 -79.333 270 -238c0 -105.333 -26 -207 -78 -305s-117.833 -180.5 -197.5 -247.5s-167 -120.333 -262 -160s-185.5 -59.5 -271.5 -59.5h-19zM208.999 640.999c0 -38 14.001 -68 42.001 -90s63.667 -33 107 -33
c75.333 0 148.166 25.333 218.499 76s105.5 112 105.5 184c0 42 -14 76.5 -42 103.5s-62.333 40.5 -103 40.5c-72.667 0 -145.5 -30.167 -218.5 -90.5s-109.5 -123.833 -109.5 -190.5z" />
    <glyph glyph-name="colon" unicode=":" horiz-adv-x="237" 
d="M-37 80c0 23.333 7.83105 42.835 23.498 58.502s34.834 23.5 57.501 23.5s41.834 -7.83301 57.501 -23.5s23.5 -34.834 23.5 -57.501s-7.83301 -41.834 -23.5 -57.501s-35.167 -23.5 -58.5 -23.5s-42.5 7.5 -57.5 22.5s-22.5 34.167 -22.5 57.5zM32.998 432.002
c0 23.333 7.83301 42.835 23.5 58.502s34.667 23.5 57 23.5s41.5 -7.83301 57.5 -23.5s24 -34.834 24 -57.501s-8 -41.834 -24 -57.501s-35.5 -23.5 -58.5 -23.5s-42 7.5 -57 22.5s-22.5 34.167 -22.5 57.5z" />
    <glyph glyph-name="semicolon" unicode=";" horiz-adv-x="237" 
d="M-41 -68c54.667 44 82.667 67.332 84 69.999c-38 12 -57 32.833 -57 62.5s7.16699 52.334 21.5 68.001s34.333 23.5 60 23.5s47.5 -7.83301 65.5 -23.5s27 -36.5 27 -62.5c0 -60 -52 -127.667 -156 -203zM33 431.999c0 23.333 7.83301 42.835 23.5 58.502
s34.667 23.5 57 23.5s41.5 -7.83301 57.5 -23.5s24 -34.834 24 -57.501s-8 -41.834 -24 -57.501s-35.5 -23.5 -58.5 -23.5s-42 7.5 -57 22.5s-22.5 34.167 -22.5 57.5z" />
    <glyph glyph-name="less" unicode="&#x3c;" horiz-adv-x="507" 
d="M16 565c266 233.333 415.668 358.335 449.001 375.002l47 -55c-196.667 -176 -308 -280.667 -334 -314c22 -35.333 60 -82.333 114 -141s102.667 -108.334 146 -149.001l64 -62l-27 -110c-28.667 9.33301 -147.334 124.666 -356.001 345.999z" />
    <glyph glyph-name="equal" unicode="=" horiz-adv-x="686" 
d="M164 653c78 23.333 171.5 35 280.5 35s175.167 -0.666992 198.5 -2l8 -96l-481 -47zM176 453l5.99902 -113l88 -2c110.667 0 243.334 17.667 398.001 53l-9 94z" />
    <glyph glyph-name="greater" unicode="&#x3e;" horiz-adv-x="456" 
d="M10 147c10.667 39.333 81 150 211 332l66 92l-199 303l66 111c106.667 -134 205.667 -269.667 297 -407l-375 -478z" />
    <glyph glyph-name="question" unicode="?" horiz-adv-x="862" 
d="M123 92c0 26 9.16602 47.167 27.499 63.5s40.833 24.5 67.5 24.5s47.5 -6.5 62.5 -19.5s22.5 -31.333 22.5 -55s-9.16699 -44.5 -27.5 -62.5s-41.166 -27 -68.499 -27c-56 0 -84 25.333 -84 76zM165.999 811c0 88.667 32.332 172 96.999 250s139.334 137 224.001 177
s161.5 60 230.5 60s124.333 -18 166 -54s62.5 -83.333 62.5 -142c0 -96.667 -61.333 -197 -184 -301l-133 -113c-135.333 -114.667 -227 -219.667 -275 -315c-9.33301 -19.333 -19.333 -37.333 -30 -54l-78 35c27.333 96.667 138.666 245 333.999 445
c65.333 66.667 107.5 114 126.5 142s28.5 57 28.5 87c0 64 -32.667 96 -98 96c-83.333 0 -162.166 -27.167 -236.499 -81.5s-126.5 -134.833 -156.5 -241.5z" />
    <glyph glyph-name="at" unicode="@" horiz-adv-x="1007" 
d="M0 315.5c0 103.667 36.833 215.999 110.5 336.999s168.5 221 284.5 300s230.667 118.5 344 118.5c82 0 147.333 -23.167 196 -69.5s73 -113.833 73 -202.5s-37.333 -196.5 -112 -323.5s-171 -237.667 -289 -332s-227.167 -141.5 -327.5 -141.5s-172 26.333 -215 79
s-64.5 130.834 -64.5 234.501zM170 381.999c0 -84 17.6689 -150.167 53.002 -198.5s86 -72.5 152 -72.5c94 0 191.667 63.333 293 190c-13.333 -2.66699 -22.333 -4 -27 -4c-49.333 0 -74 28.667 -74 86c0 23.333 6.33301 54.666 19 93.999l-45 -51
c-76.667 -86 -148.334 -129 -215.001 -129c-62.667 0 -94.334 37.667 -95.001 113c0 98 47.5 189.333 142.5 274s197.167 128.334 306.5 131.001l2 -45l-51 -12c-76.667 -19.333 -143.667 -56.666 -201 -111.999s-86 -110.333 -86 -165s19.167 -82 57.5 -82
s84.833 28.667 139.5 86s100.334 125.666 137.001 204.999l53 -35c-1.33301 -4 -8.66602 -21.667 -21.999 -53c-36.667 -87.333 -55.334 -142.666 -56.001 -165.999c0 -30 14.333 -45 43 -45c8.66699 0 26 11 52 33c69.333 125.333 104 240.666 104 345.999
c0 70.667 -17.833 126.5 -53.5 167.5s-86.167 61.5 -151.5 61.5s-135.833 -32.333 -211.5 -97s-138.834 -146.5 -189.501 -245.5s-76 -190.5 -76 -274.5z" />
    <glyph glyph-name="A" unicode="A" horiz-adv-x="1617" 
d="M-195 61c0 124 94.6689 237.334 284.002 340.001s434 171.667 734 207c35.333 54.667 101.5 139 198.5 253s192.833 213.333 287.5 298c40.667 95.333 73 161.833 97 199.5s47.5 56.5 70.5 56.5s42 -8.83301 57 -26.5s22.5 -40.5 22.5 -68.5s-15.333 -69 -46 -123
s-62.334 -137.333 -95.001 -250s-55 -218.667 -67 -318c70.667 -0.666992 130.667 -7 180 -19l-10 -123c-32 3.33301 -66 5 -102 5h-15c-30 0 -55.333 -1 -76 -3c-19.333 -150 -31.666 -313 -36.999 -489h-143c-8 35.333 -12 82.333 -12 141s1.66699 109.5 5 152.5
s7.66602 85.667 12.999 128s8 67.166 8 74.499c-19.333 1.33301 -64.333 2 -135 2s-119.667 -1.33301 -147 -4c-158.667 -212.667 -304.834 -374.167 -438.501 -484.5s-267.5 -165.5 -401.5 -165.5c-65.333 0 -120.333 19.833 -165 59.5s-67 92.167 -67 157.5z
M20.002 129.001c0 -35.333 12.001 -63.334 36.001 -84.001s56 -31 96 -31c106 0 216.333 56 331 168c113.333 108 198.666 210.333 255.999 307c-229.333 -13.333 -406.5 -56.166 -531.5 -128.499s-187.5 -149.5 -187.5 -231.5zM975.003 621
c23.333 1.33301 51.666 2.33496 84.999 3.00195s61 1.66699 83 3s35.667 2 41 2c9.33301 46.667 21.833 105 37.5 175s24.834 111.333 27.501 124c-65.333 -62.667 -111 -108.834 -137 -138.501s-71.667 -85.834 -137 -168.501z" />
    <glyph glyph-name="B" unicode="B" horiz-adv-x="1366" 
d="M61 196c0 88 42.3359 199.339 127.003 334.006c84.667 136 202.334 275.333 353.001 418c0 1.33301 3.66699 14 11 38s14.333 48.333 21 73c23.333 74 41.333 121 54 141l100 -16c0 -26 -5.33301 -56.667 -16 -92c76.667 57.333 157.5 107.5 242.5 150.5
s147.667 64.5 188 64.5s72.833 -12.667 97.5 -38s37 -62.333 37 -111s-22.833 -104.334 -68.5 -167.001s-102.834 -119.334 -171.501 -170.001c-124 -92.667 -229.667 -159.334 -317 -200.001c142 -22 245.667 -51.167 311 -87.5s113.333 -90.5 144 -162.5h131l-2 -80
l-113 -4c-16.667 -95.333 -43 -172.5 -79 -231.5s-96.333 -122.667 -181 -191s-186 -125.333 -304 -171s-216.667 -68.5 -296 -68.5s-139.5 16 -180.5 48s-61.5 74 -61.5 126c0 79.333 46.833 159 140.5 239s207 146.833 340 200.5s265.167 90.167 396.5 109.5
c-20.667 34 -51.834 62 -93.501 84s-112.5 46.667 -212.5 74c-54 15.333 -81 39.666 -81 72.999v1c0 20.667 8.5 39.5 25.5 56.5s45.667 37.333 86 61s78.5 48.167 114.5 73.5s76.167 55.666 120.5 90.999s81.5 72.166 111.5 110.499s45 71.833 45 100.5
c0 48 -23.667 72 -71 72c-36.667 0 -86.834 -17.5 -150.501 -52.5s-126.167 -79.833 -187.5 -134.5l-88 -278c-61.333 -195.333 -129.333 -347 -204 -455s-145.334 -162 -212.001 -162c-71.333 0 -107 44.333 -107 133zM209.003 297.006
c0 -28.667 9.83301 -42.998 29.5 -42.998s43.167 23.333 70.5 70c95.333 154 159 312.333 191 475c-74 -80.667 -141 -172.834 -201 -276.501s-90 -178.834 -90 -225.501zM289.003 -132.992c0 -32.667 12.999 -59.001 38.999 -79.001s61.333 -30 106 -30
c110.667 0 227.334 42.333 350.001 127c66.667 45.333 120 96 160 152s60 108.667 60 158c0 23.333 -3.66699 46.333 -11 69c-204.667 -24.667 -373.167 -78.167 -505.5 -160.5s-198.5 -161.166 -198.5 -236.499z" />
    <glyph glyph-name="C" unicode="C" horiz-adv-x="1245" 
d="M61 930l56 60.998c9.33301 -9.33301 22.333 -23.666 39 -42.999c31.333 -36.667 73.666 -68.667 126.999 -96c80.667 112 197.667 213.667 351 305s283.333 137 390 137c50.667 0 90 -14 118 -42s42 -65.667 42 -113c0 -106.667 -63.5 -205.334 -190.5 -296.001
s-271.833 -136 -434.5 -136c-70.667 0 -145.667 10 -225 30c-52 -84.667 -78 -176.5 -78 -275.5s27.333 -178.833 82 -239.5s134.667 -91 240 -91c188.667 0 312 110 370 330h96c-15.333 -126.667 -75 -238.5 -179 -335.5s-241.333 -145.5 -412 -145.5
c-90 0 -174 33 -252 99s-117 161.833 -117 287.5s47.667 262.834 143 411.501c-69.333 40.667 -124.666 91.334 -165.999 152.001zM381 816.998c49.333 -19.333 106.666 -29 171.999 -29c118.667 0 223 28 313 84s135 121.667 135 197c0 26 -9.16699 46.833 -27.5 62.5
s-41.833 23.5 -70.5 23.5c-83.333 0 -176.166 -33.167 -278.499 -99.5s-183.5 -145.833 -243.5 -238.5z" />
    <glyph glyph-name="D" unicode="D" horiz-adv-x="1400" 
d="M-20 977.5c0 99 46.334 178.668 139.001 239.001s212 90.5 358 90.5c237.333 0 440.333 -70.333 609 -211s253 -305.334 253 -494.001c0 -188 -57.333 -336.667 -172 -446c-112 -106.667 -253 -160 -423 -160h-13c-94 1.33301 -169 2 -225 2h-96
c-39.333 0 -59.333 15 -60 45c0 10.667 11.667 38.667 35 84c76.667 152.667 134.667 309 174 469c-140.667 0 -272.334 38.833 -395.001 116.5s-184 166 -184 265zM178.001 996.501c0 -74.333 35.8311 -140.502 107.498 -198.502s167.5 -94.667 287.5 -110
c42 178.667 66.667 294 74 346l123 -12c0 -84.667 -17.667 -196.667 -53 -336c10.667 0 74 7 190 21l11 -68c-27.333 -9.33301 -103.333 -23.666 -228 -42.999c-53.333 -172 -108.666 -320.667 -165.999 -446c136.667 -10.667 250.334 -16 341.001 -16h1
c90 0 161.667 33.333 215 100c53.333 68 80 159.333 80 274c0 198 -67.5 366.667 -202.5 506s-298.167 209 -489.5 209c-90 0 -161 -19.167 -213 -57.5s-78 -94.666 -78 -168.999z" />
    <glyph glyph-name="E" unicode="E" horiz-adv-x="1370" 
d="M61 180c-0.666992 87.333 34.998 171.001 106.998 251.001s172.333 146 301 198c-64 53.333 -96 108.666 -96 165.999c0 78 40.833 157.5 122.5 238.5s181.667 146.833 300 197.5s229.166 76 332.499 76c54.667 0 98.5 -12 131.5 -36s49.5 -55.667 49.5 -95
c0 -68 -32.5 -128.833 -97.5 -182.5s-139.5 -92.667 -223.5 -117s-165 -36.5 -243 -36.5c-20.667 0 -35.667 0.666992 -45 2v69c2.66699 0 42.334 6.5 119.001 19.5s141.334 36 194.001 69s79 69.833 79 110.5c0 49.333 -37 74 -111 74c-100 0 -194.333 -34.167 -283 -102.5
s-133 -140 -133 -215s46.667 -123.5 140 -145.5c20.667 -5.33301 34.334 -10.833 41.001 -16.5s10 -15.334 10 -29.001s-6.5 -24.834 -19.5 -33.501s-42.833 -21.334 -89.5 -38.001c-251.333 -86 -377 -219.667 -377 -401c0 -36.667 7 -68 21 -94
c83.333 106.667 191.166 193.334 323.499 260.001s259.833 100 382.5 100c64 0 115.167 -14 153.5 -42s57.5 -66.667 57.5 -116c0 -76.667 -35.5 -153.167 -106.5 -229.5s-162.833 -138.666 -275.5 -186.999s-224.5 -72.5 -335.5 -72.5s-198.833 20.333 -263.5 61
c-1.33301 -1.33301 -7.33301 -11.333 -18 -30c-27.333 -54.667 -50.666 -93 -69.999 -115l-67 29c9.33301 38 37.333 96 84 174c-63.333 70.667 -95 150.334 -95 239.001zM335.998 35.001c54.667 -61.333 132.167 -92 232.5 -92s198.666 32.333 294.999 97
s144.5 134.667 144.5 210c0 30 -11.667 53.5 -35 70.5s-54.666 25.5 -93.999 25.5c-80.667 0 -174.667 -30.667 -282 -92s-194.333 -134.333 -261 -219z" />
    <glyph glyph-name="F" unicode="F" horiz-adv-x="1562" 
d="M61 45c0 140.667 83.999 268.666 251.999 383.999s375 176.333 621 183c83.333 262 181 428.667 293 500l-330 12c-138 0 -240.833 -17.667 -308.5 -53s-101.5 -82.333 -101.5 -141c0 -31.333 13 -57.666 39 -78.999s52 -32 78 -32s45.5 1 58.5 3s29.333 6.83301 49 14.5
s33.834 12.834 42.501 15.501c28.667 9.33301 63.334 24.333 104.001 45l43 -53c-104 -104 -217.333 -156 -340 -156c-54.667 0 -99.667 17.167 -135 51.5s-53 77.166 -53 128.499c0 113.333 58 209 174 287s271 117 465 117l485 -15c24.667 0 55.834 5.83301 93.501 17.5
s62.5 17.5 74.5 17.5s21.833 -3.66699 29.5 -11s11.5 -16.666 11.5 -27.999c0 -28.667 -13 -52.834 -39 -72.501s-60 -33.5 -102 -41.5c-79.333 -18 -149.666 -27 -210.999 -27c-83.333 -57.333 -164.666 -222.666 -243.999 -495.999c135.333 0 219.333 -2 252 -6l-4 -96
c-20.667 -1.33301 -51.334 -2 -92.001 -2l-187 6c-76.667 -233.333 -179.834 -419 -309.501 -557s-266.834 -207 -411.501 -207c-88.667 0 -160.334 26.667 -215.001 80s-82 123.666 -82 210.999zM259.999 46.999c0 -42 14.667 -76.667 44 -104s68 -41 116 -41
s99.833 20.167 155.5 60.5s105.5 95.166 149.5 164.499c74 114.667 132.667 243 176 385c-169.333 -13.333 -318.5 -67.166 -447.5 -161.499s-193.5 -195.5 -193.5 -303.5z" />
    <glyph glyph-name="G" unicode="G" horiz-adv-x="1390" 
d="M-184 -401c0 117.333 80.8311 220.332 242.498 308.999s357.834 133 588.501 133c31.333 0 55.333 -0.666992 72 -2c24.667 52 44.334 107.333 59.001 166c-87.333 -58.667 -180.5 -88 -279.5 -88s-181.5 35.167 -247.5 105.5s-99 163.166 -99 278.499
s38.5 236.833 115.5 364.5s178.667 233.167 305 316.5s254.833 125 385.5 125c76.667 0 149.167 -13.333 217.5 -40s119.5 -58.667 153.5 -96l-110 -133c-56 44 -95.667 73.333 -119 88c-60 40.667 -124.333 61.334 -193 62.001c-140.667 0 -271 -68 -391 -204
s-180 -283.667 -180 -443c0 -87.333 24.5 -156.333 73.5 -207s113.5 -76 193.5 -76s152 19 216 57c79.333 208.667 153 313.334 221 314.001c40 0 60 -19.667 60 -59c0 -38 -14.667 -81.333 -44 -130c-29.333 -50 -67.333 -95 -114 -135c-56 -150 -88.667 -240 -98 -270
c95.333 -10.667 172.333 -27.667 231 -51l-31 -70c-134 23.333 -211 35.666 -231 36.999c-66.667 -181.333 -162.167 -324.666 -286.5 -429.999s-263.5 -158 -417.5 -158c-83.333 0 -153 22.5 -209 67.5s-84 101.167 -84 168.5zM30.998 -365.001c0 -40.667 16 -73 48 -97
s75.333 -36 130 -36c92.667 0 184.5 43 275.5 129s159.5 194 205.5 324c-184 0 -339.833 -31 -467.5 -93s-191.5 -137.667 -191.5 -227z" />
    <glyph glyph-name="H" unicode="H" horiz-adv-x="1689" 
d="M-184 -121c0 131.333 75.3311 250.5 225.998 357.5s360 192.833 628 257.5c101.333 294.667 243.333 504.667 426 630c-198 -2.66699 -361.167 -36 -489.5 -100s-192.5 -146 -192.5 -246c0 -31.333 4.66699 -58.166 14 -80.499s32 -57.5 68 -105.5l-70 -66
c-60 38 -105.667 84.5 -137 139.5s-47 107.5 -47 157.5c0 84.667 45 162.834 135 234.501s201.833 127 335.5 166s269.5 58.5 407.5 58.5c69.333 0 117.5 -5.16699 144.5 -15.5s40.5 -29.5 40.5 -57.5s-20 -54.333 -60 -79c-170.667 -106.667 -307.667 -308.667 -411 -606
c80.667 13.333 205.334 28.333 374.001 45c65.333 191.333 118.166 333.166 158.499 425.499s96.833 195.833 169.5 310.5l92 -45c-91.333 -178.667 -186.333 -409 -285 -691c62.667 0 106 -2.66699 130 -8l-9 -117c-28.667 -9.33301 -84.667 -14 -168 -14
c-28.667 -79.333 -45.667 -143.5 -51 -192.5s-9.66602 -96.667 -12.999 -143s-5.66602 -77.833 -6.99902 -94.5h-115c-6.66699 23.333 -10 47.333 -10 72c0 84.667 22.333 204 67 358c-82 0 -206 -9.66699 -372 -29c-6.66699 -22 -23.834 -62.667 -51.501 -122
s-54.667 -110.833 -81 -154.5s-62.166 -91.334 -107.499 -143.001s-92.333 -95.5 -141 -131.5c-140 -100.667 -275.667 -151 -407 -151h-3c-54.667 0 -99.667 17 -135 51s-53 77 -53 129zM26.998 -39c0 -38 11.166 -67.667 33.499 -89s58.5 -32 108.5 -32
s108.667 22.167 176 66.5s124 102.333 170 174s85.333 170.5 118 296.5c-181.333 -30 -327.666 -83 -438.999 -159s-167 -161.667 -167 -257z" />
    <glyph glyph-name="I" unicode="I" horiz-adv-x="1200" 
d="M61 213c0 98 63.498 188.001 190.498 270.001s254.167 123 381.5 123l8 -67c-101.333 -20.667 -188.5 -58.334 -261.5 -113.001s-109.5 -114 -109.5 -178c0 -40.667 12 -74 36 -100s54.333 -39 91 -39c69.333 0 129.333 32.333 180 97s102.334 179.667 155.001 345
s100.5 286.166 143.5 362.499s97.167 140.5 162.5 192.5c-19.333 1.33301 -40.333 2 -63 2c-117.333 0 -231.666 -18.5 -342.999 -55.5s-167 -86.167 -167 -147.5c0 -38 17 -74 51 -108l-45 -56c-91.333 64 -137 138.667 -137 224c0 56 24.167 104.333 72.5 145
s113.5 72 195.5 94c157.333 42 333.333 63.333 528 64c42.667 0 68 -2 76 -6c23.333 -6.66699 35 -19 35 -37c0 -5.33301 -8 -17.666 -24 -36.999c-62.667 -80.667 -106.667 -140.834 -132 -180.501s-55.5 -105.834 -90.5 -198.501s-66.5 -181.667 -94.5 -267
s-42 -128.666 -42 -129.999c-56 -125.333 -133.167 -224.333 -231.5 -297s-201.5 -109 -309.5 -109c-76.667 0 -138.5 18.833 -185.5 56.5s-70.5 87.834 -70.5 150.501z" />
    <glyph glyph-name="J" unicode="J" horiz-adv-x="1437" 
d="M-184 -457c0 87.333 40.8301 173.996 122.497 259.996s189.834 158.5 324.501 217.5s276.334 95.833 425.001 110.5c2.66699 5.33301 24 70.333 64 195c62.667 204.667 133.167 367.334 211.5 488.001s172.833 220.667 283.5 300c-23.333 2.66699 -54 4 -92 4
c-236 0 -429.833 -43 -581.5 -129s-227.5 -183 -227.5 -291c0 -69.333 20.833 -133.666 62.5 -192.999s100.834 -120.333 177.501 -183l-49 -68c-222.667 120 -334 271.667 -334 455c0 106.667 45.333 203.5 136 290.5s210.167 154.5 358.5 202.5s307.833 72 478.5 72
c83.333 0 151.166 -5.16699 203.499 -15.5s78.5 -31.166 78.5 -62.499c0 -27.333 -21.667 -54 -65 -80c-108 -65.333 -204 -171.333 -288 -318s-170.333 -363.667 -259 -651c80.667 0 141.334 -3.33301 182.001 -10l-12 -82c-38 6.66699 -72 10.334 -102 11.001h-4
c-29.333 0 -61.666 -3.66699 -96.999 -11c-42 -116 -86.667 -210.167 -134 -282.5s-107.833 -139.833 -181.5 -202.5s-155.5 -114.5 -245.5 -155.5s-166.833 -61.5 -230.5 -61.5s-113.834 17.333 -150.501 52s-55 80.667 -55 138zM24.9971 -393.004
c0 -35.333 10.167 -63.334 30.5 -84.001s48.833 -31 85.5 -31c63.333 0 129.333 21.833 198 65.5s133.5 107.834 194.5 192.501s103.833 181.667 128.5 291c-177.333 -18 -327.833 -69 -451.5 -153s-185.5 -177.667 -185.5 -281z" />
    <glyph glyph-name="K" unicode="K" horiz-adv-x="1632" 
d="M-20 44c0 63.333 28.665 129.165 85.998 197.498s135.666 125.833 234.999 172.5l47 -74c-122.667 -87.333 -184 -169.333 -184 -246c0 -36.667 12.333 -66.334 37 -89.001s56.667 -34 96 -34c92.667 0 172.834 39.333 240.501 118s128.167 216.334 181.5 413.001
c66.667 247.333 135 409 205 485c31.333 35.333 77 74.333 137 117c-94 -2.66699 -190.167 -18.667 -288.5 -48s-184.5 -73 -258.5 -131s-111 -122.667 -111 -194c0 -91.333 41.667 -164.333 125 -219l-41 -63c-76.667 36.667 -136.667 84.334 -180 143.001
s-65 119.334 -65 182.001c0 86 47 167.333 141 244s209.667 136.167 347 178.5s272.333 63.5 405 63.5c81.333 0 122 -17.667 122 -53c0 -24 -23.667 -53.667 -71 -89c-87.333 -65.333 -154.666 -150.5 -201.999 -255.5s-86 -227.833 -116 -368.5
c155.333 57.333 304.5 152.5 447.5 285.5s267.167 282.833 372.5 449.5l129 -64c-87.333 -142 -190.833 -268.167 -310.5 -378.5s-278.5 -220.166 -476.5 -329.499c38 -198 85 -356.833 141 -476.5s129.333 -186.167 220 -199.5v-94c-10.667 -1.33301 -25 -2 -43 -2
c-91.333 0 -179.833 63.5 -265.5 190.5s-162.5 314.5 -230.5 562.5c-58.667 -184 -148.167 -329.667 -268.5 -437s-245.166 -161 -374.499 -161c-66.667 0 -121.5 18.167 -164.5 54.5s-64.5 86.166 -64.5 149.499z" />
    <glyph glyph-name="L" unicode="L" horiz-adv-x="1189" 
d="M20 659l42.999 75.999c58.667 -38 130.667 -57 216 -57c79.333 194 179.666 339.5 300.999 436.5s248.333 145.5 381 145.5c62.667 0 113 -16.167 151 -48.5s57 -75.166 57 -128.499c0 -114.667 -75.333 -222.167 -226 -322.5s-322.334 -156.5 -515.001 -168.5
c-62.667 -199.333 -133 -335.333 -211 -408c34 4 81 6 141 6l426 -12c60 0 118 20 174 60l56 -74c-27.333 -31.333 -49.166 -54.833 -65.499 -70.5s-40.666 -31 -72.999 -46s-68.166 -22.5 -107.499 -22.5l-383 16c-170.667 0 -254 -2 -250 -6
c-50.667 1.33301 -76 23.666 -76 66.999c4 27.333 22.5 72.833 55.5 136.5s77.5 178.834 133.5 345.501c-84.667 0 -160.667 25 -228 75zM456.999 685.999c136.667 9.33301 256.166 50.332 358.499 122.999s153.5 148.334 153.5 227.001c0 31.333 -11.667 58 -35 80
s-52 33 -86 33c-84.667 0 -163.167 -43 -235.5 -129s-124.166 -197.333 -155.499 -334z" />
    <glyph glyph-name="M" unicode="M" horiz-adv-x="1652" 
d="M-20 -37c132.667 98 234.665 198.33 305.998 300.997s149.333 268 234 496l70 186c48 130 89.667 222.667 125 278s75 83 119 83c72 0 108 -43 108 -129c0 -8 -13 -147 -39 -417s-39 -448 -39 -534c0 -24.667 4.33301 -37.667 13 -39c6.66699 0 14 7 22 21
c110.667 184 216.667 384.667 318 602l63 141.5c30 67 59.333 126.333 88 178s50.5 83.334 65.5 95.001s38.833 17.5 71.5 17.5s61 -12 85 -36s36 -52.333 36 -85s-4.66699 -70 -14 -112c-106.667 -520 -160 -831 -160 -933s16.333 -171.667 49 -209s90 -63.666 172 -78.999
l-24 -76c-35.333 -2.66699 -62 -4 -80 -4c-82 0 -148.667 34.5 -200 103.5s-77 158.833 -77 269.5c0 66.667 15.333 193.167 46 379.5s66.667 356.833 108 511.5c8 34 12 56.5 12 67.5s-4.66699 16.5 -14 16.5s-39.666 -50.833 -90.999 -152.5l-183.5 -375l-122 -254
l-24.5 -51c-6 -13 -18.333 -36.333 -37 -70s-36 -63.167 -52 -88.5c-45.333 -68 -81 -102.333 -107 -103c-18 0 -37.5 4.83301 -58.5 14.5s-34.833 19.834 -41.5 30.501c-14.667 22.667 -22 90 -22 202v15c0 254 20.333 496.333 61 727c13.333 76.667 20 117 20 121
c0 13.333 -5.33301 20.333 -16 21c-22 0 -56.667 -68.333 -104 -205l-60 -170c-87.333 -247.333 -175.666 -440 -264.999 -578s-192 -235 -308 -291z" />
    <glyph glyph-name="N" unicode="N" horiz-adv-x="1482" 
d="M-20 57c113.333 48 215.668 131 307.001 249s185.833 282.833 283.5 494.5s167.5 354.5 209.5 428.5c48 78 96.667 117 146 117c31.333 0 55.833 -11 73.5 -33s26.5 -50.333 26.5 -85s-12 -178.334 -36 -431.001s-36 -414.5 -36 -485.5s3.16699 -117.167 9.5 -138.5
s16.833 -32 31.5 -32c19.333 0 40 20.667 62 62c74.667 146 183.667 495.333 327 1048l119 -14c-24.667 -106.667 -57.834 -231.334 -99.501 -374.001s-79.5 -258 -113.5 -346s-71.167 -175.333 -111.5 -262s-83 -155 -128 -205s-88.667 -75 -131 -75
s-73.333 15.833 -93 47.5s-29.5 87.334 -29.5 167.001s11.5 247.5 34.5 503.5s34.833 395.333 35.5 418s-5 34 -17 34c-15.333 0 -33.166 -20.833 -53.499 -62.5l-46.5 -95.5c-28.667 -64 -47.334 -109 -56.001 -135c-76.667 -172 -145 -314 -205 -426
s-128.667 -215.667 -206 -311c-27.333 -32.667 -66.333 -66.167 -117 -100.5s-97.667 -60.166 -141 -77.499z" />
    <glyph glyph-name="O" unicode="O" horiz-adv-x="1421" 
d="M61 312.5c0 93.667 31.5 206.332 94.5 337.999s145.667 255.167 248 370.5s206.833 200.333 313.5 255c44 28.667 112.333 43 205 43c69.333 0 126.166 -27 170.499 -81s66.5 -117.5 66.5 -190.5s-5.33301 -127.833 -16 -164.5c104 34 203.667 75.667 299 125v-99
c-61.333 -35.333 -174.666 -83.666 -339.999 -144.999c-74 -184 -190.833 -355.333 -350.5 -514s-305.834 -238 -438.501 -238c-75.333 0 -136.166 26.667 -182.499 80s-69.5 126.833 -69.5 220.5zM244 390.998c0 -61.333 14.668 -110.5 44.001 -147.5
s72.666 -55.5 129.999 -55.5c80 0 159 39 237 117c134 132.667 227.667 270.667 281 414c-34 -6.66699 -77.667 -10 -131 -10c-229.333 0 -359 51 -389 153c-114.667 -160 -172 -317 -172 -471zM561.001 944.998c0 -42.667 21.834 -76.667 65.501 -102s98.667 -38 165 -38
s124.166 6 173.499 18c8 40.667 12 80.334 12 119.001c0 135.333 -58 203 -174 203c-53.333 0 -111.333 -22 -174 -66c-45.333 -46.667 -68 -91.334 -68 -134.001z" />
    <glyph glyph-name="P" unicode="P" horiz-adv-x="1347" 
d="M-41 -141c0 140.667 64.834 328.666 194.501 563.999s272.5 424 428.5 566c22 88.667 33 154 33 196c0 40 -1.66699 72.333 -5 97l148 25c0 -9.33301 -6.33301 -69.666 -19 -180.999c112 76.667 188.5 123.5 229.5 140.5s89.167 25.5 144.5 25.5s98 -19 128 -57
s45 -92.667 45 -164c0 -126.667 -41 -263.167 -123 -409.5s-184.333 -269 -307 -368s-238.667 -148.5 -348 -148.5c-27.333 0 -58.666 1.66699 -93.999 5c-66.667 -142 -127.334 -249.333 -182.001 -322s-109.334 -109 -164.001 -109c-34 0 -60.667 12.333 -80 37
s-29 59 -29 103zM115.001 -20.001c0 -26 8 -39.002 24 -39.002c12 0 33.833 25.5 65.5 76.5s58.5 103.167 80.5 156.5c-18 8 -35.333 20.333 -52 37l37 86l58 -29c86 168 158.333 356.667 217 566c-125.333 -157.333 -228.333 -317.166 -309 -479.499
s-121 -287.166 -121 -374.499zM457.001 239.997l39.001 -1.99902c132.667 0 256.667 69.333 372 208c65.333 80.667 121 173 167 277s69 192 69 264c0 39.333 -10.667 70.666 -32 93.999s-50.333 35 -87 35c-66.667 0 -155.334 -36.667 -266.001 -110
c-24.667 -184.667 -112 -440 -262 -766z" />
    <glyph glyph-name="Q" unicode="Q" horiz-adv-x="1361" 
d="M61 295c0 88.667 26.3311 192.332 78.998 310.999s119.334 229.667 200.001 333s173.834 190.833 279.501 262.5s206.5 107.5 302.5 107.5c69.333 0 126.166 -27 170.499 -81s66.5 -128.5 66.5 -223.5s-31.667 -206.667 -95 -335s-145.666 -249.166 -246.999 -362.499
c31.333 -44 57.333 -79.167 78 -105.5s49.667 -54.5 87 -84.5s74.166 -45 110.499 -45s75 16.667 116 50s64.833 68.333 71.5 105l123 -69c-96.667 -142 -202 -213 -316 -213c-78 0 -144 26.667 -198 80c-45.333 44 -98.666 108 -159.999 192
c-152.667 -143.333 -291.334 -215 -416.001 -215c-75.333 0 -136.166 26.667 -182.499 80s-69.5 124.333 -69.5 213zM273.998 402.998c0 -79.333 18.001 -138.667 54.001 -178c26 90 62.167 159.333 108.5 208s97.5 73 153.5 73c20.667 0 37 -2 49 -6
c30 -8 69.667 -45.667 119 -113c60 80.667 109.5 169.834 148.5 267.501s58.5 183 58.5 256s-15.5 133 -46.5 180s-73.667 70.5 -128 70.5s-103.5 -15 -147.5 -45c-96.667 -69.333 -182.334 -176.833 -257.001 -322.5s-112 -275.834 -112 -390.501zM400.999 173.997
c20 -5.33301 36.667 -8 50 -8l16 2c69.333 6.66699 137.666 49 204.999 127c-38 46.667 -75 70 -111 70c-19.333 0 -34.666 -2.16699 -45.999 -6.5s-28 -21.5 -50 -51.5s-43.333 -74.333 -64 -133z" />
    <glyph glyph-name="R" unicode="R" horiz-adv-x="1300" 
d="M61 160c0 101.333 46.834 229.666 140.501 384.999s203.167 283 328.5 383c2.66699 8 14.667 57.667 36 149s34 142 38 152l119 10c0 -23.333 -6 -71.666 -18 -144.999c184 140.667 335.333 211 454 211c56 0 100.333 -15.5 133 -46.5s49 -72.167 49 -123.5
c0 -130 -65.5 -260.833 -196.5 -392.5s-270.833 -209.167 -419.5 -232.5c10.667 -198 45 -353 103 -465s123.333 -171.333 196 -178l10 -96c-38 -6.66699 -71.333 -10.334 -100 -11.001c-64 0 -125.333 42.667 -184 128s-104.834 185.333 -138.501 300
s-54.5 225.334 -62.5 332.001c-68 -177.333 -132.5 -306 -193.5 -386s-123.5 -120 -187.5 -120c-32.667 0 -58.667 13.333 -78 40s-29 62 -29 106zM201.001 250c0 -28.667 11.666 -43 34.999 -43c40.667 0 104.667 114.667 192 344c36.667 98 62 176.333 76 235
c-75.333 -69.333 -144.666 -162 -207.999 -278s-95 -202 -95 -258zM567 580c144.667 0 274.334 50.499 389.001 151.499s172 201.167 172 300.5c0 36.667 -9.16699 65.334 -27.5 86.001s-47.333 31 -87 31s-97 -22.167 -172 -66.5s-128.833 -80.833 -161.5 -109.5
c-42.667 -168 -80.334 -299 -113.001 -393z" />
    <glyph glyph-name="S" unicode="S" horiz-adv-x="1284" 
d="M-41 -217c0 79.333 52.5039 161.999 157.504 247.999s227.833 157 368.5 213s267.667 88.667 381 98c-13.333 20.667 -34.333 38.5 -63 53.5s-87.334 38.5 -176.001 70.5s-151.5 67.5 -188.5 106.5s-55.5 94 -55.5 165s38.167 152.167 114.5 243.5
s166.833 168.166 271.5 230.499s196.334 93.5 275.001 93.5c35.333 0 64.666 -12.667 87.999 -38s35 -56.333 35 -93c0 -60 -36.167 -135.5 -108.5 -226.5s-152.833 -160.5 -241.5 -208.5l-49 70c53.333 27.333 100.166 70 140.499 128s60.5 108.167 60.5 150.5
s-22.667 63.5 -68 63.5c-64 0 -137.333 -40 -220 -120s-124 -154.667 -124 -224c0 -48 12.333 -85.667 37 -113s86.834 -61.166 186.501 -101.499s170.667 -75.666 213 -105.999s70.166 -68.833 83.499 -115.5l146 2v-84c-16.667 2.66699 -35.834 4 -57.501 4
s-46.167 -1.33301 -73.5 -4c0 -105.333 -50.667 -212 -152 -320s-223.333 -195.667 -366 -263s-275.334 -101 -398.001 -101c-64 0 -116.167 16.333 -156.5 49s-60.5 75.667 -60.5 129zM164.004 -164.001c0 -65.333 53.333 -98 160 -98c58.667 0 134.667 21.5 228 64.5
s175.833 103 247.5 180s107.5 155.833 107.5 236.5c0 9.33301 -2 23.666 -6 42.999c-187.333 -18 -357 -70.667 -509 -158s-228 -176.666 -228 -267.999z" />
    <glyph glyph-name="T" unicode="T" horiz-adv-x="1167" 
d="M61 889c0 108 58.4971 202.168 175.497 282.501s275.167 120.5 474.5 120.5c16.667 0 75.334 -2.66699 176.001 -8s180.334 -8 239.001 -8s112.667 9 162 27c19.333 5.33301 31 8 35 8c19.333 0 29 -12.333 29 -37c0 -35.333 -31.167 -67.333 -93.5 -96
s-133.833 -43 -214.5 -43c-90 -87.333 -168.667 -240 -236 -458s-147.833 -384 -241.5 -498s-204.834 -171 -333.501 -171c-50.667 0 -98.334 16.333 -143.001 49l47 78c16.667 -8 35.334 -15.333 56.001 -22l28 -4c6.66699 -1.33301 17 -2.33301 31 -3
c68 0 129 32.833 183 98.5s110.667 189.667 170 372s105.833 303.166 139.5 362.499s92.167 125.333 175.5 198l-293 6c-299.333 0 -449 -65.667 -449 -197c0 -34 12.667 -61.667 38 -83s63.333 -32 114 -32s116.667 23.333 198 70l31 -53
c-42 -45.333 -89.667 -81 -143 -107s-106.666 -39 -159.999 -39s-99.166 17.833 -137.499 53.5s-57.5 80.167 -57.5 133.5z" />
    <glyph glyph-name="U" unicode="U" horiz-adv-x="1435" 
d="M61 250c0 170.667 83.332 373.333 249.999 608s335.334 402 506.001 502l55 -78c-155.333 -116 -297.833 -268.833 -427.5 -458.5s-194.5 -356.167 -194.5 -499.5c0 -53.333 12.667 -94.666 38 -123.999s60.833 -44 106.5 -44s109.5 26.5 191.5 79.5
s143.333 102.833 184 149.5c6.66699 132.667 38.334 267.167 95.001 403.5s124.334 247.833 203.001 334.5s152 130 220 130c57.333 0 86 -34.833 86 -104.5s-51.167 -186 -153.5 -349s-204.166 -292.167 -305.499 -387.5c-2.66699 -22 -4 -40 -4 -54
c0 -60 12 -122.333 36 -187s55.667 -97 95 -97c34.667 0 71.667 28.667 111 86l66 -54c-16.667 -46.667 -44.834 -89.334 -84.501 -128.001s-82.5 -58 -128.5 -58c-62.667 0 -113.834 30.667 -153.501 92s-65.834 150.333 -78.501 267
c-62.667 -68 -141.167 -132.5 -235.5 -193.5s-177 -91.5 -248 -91.5s-127 23.833 -168 71.5s-61.5 109.167 -61.5 184.5zM929.999 564.999c84.667 101.333 152.501 194.667 203.501 280s76.5 147 76.5 185c0.666992 20.667 -8 31 -26 31c-45.333 0 -95.333 -53 -150 -159
s-89.334 -218.333 -104.001 -337z" />
    <glyph glyph-name="V" unicode="V" horiz-adv-x="1163" 
d="M61 1276l149.998 41.001c78 -135.333 117 -379 117 -731c0 -114.667 -2 -206.334 -6 -275.001c218 448 485.333 762 802 942l60 -88c-140.667 -92.667 -292.334 -240.334 -455.001 -443.001s-289.667 -412 -381 -628c-19.333 -45.333 -36.166 -75.333 -50.499 -90
s-34.666 -22 -60.999 -22s-50.166 9.16699 -71.499 27.5s-32 46.333 -32 84s5.16699 109.334 15.5 215.001s15.5 180.167 15.5 223.5c0 307.333 -34.333 555.333 -103 744z" />
    <glyph glyph-name="W" unicode="W" horiz-adv-x="1615" 
d="M61 112.5c0 23 4.33203 46.1699 12.999 69.5029c58.667 176 97.167 341.167 115.5 495.5s27.5 292.666 27.5 414.999s-0.666992 197.833 -2 226.5h160c8 -44 12 -112 12 -204s-11.333 -220.333 -34 -385s-50.334 -317.334 -83.001 -458.001
c102.667 131.333 314.334 419.666 635.001 864.999c36.667 53.333 66.334 88.5 89.001 105.5s50 25.5 82 25.5s48 -15.667 48 -47c0 -12 -17 -70.667 -51 -176s-66.667 -235.833 -98 -391.5s-47 -273.834 -47 -354.501s20.333 -121 61 -121
c28.667 0 64.334 20.667 107.001 62c105.333 101.333 194.833 240.333 268.5 417s110.5 358.334 110.5 545.001c0 30 -0.666992 52.667 -2 68l151 20c8 -36.667 12 -77 12 -121c0 -109.333 -25.5 -233.5 -76.5 -372.5s-112.667 -265.5 -185 -379.5
s-149.5 -210.333 -231.5 -289s-151 -118 -207 -118c-120 0 -180 94.333 -180 283c0 90 32 277 96 561c-158.667 -224 -304.834 -420.333 -438.501 -589s-214.5 -253 -242.5 -253s-53.333 11 -76 33s-34 44.5 -34 67.5z" />
    <glyph glyph-name="X" unicode="X" horiz-adv-x="1318" 
d="M-20 63c4 4 74.167 64.499 210.5 181.499s255.166 231.5 356.499 343.5c-94 252.667 -157 464.334 -189 635.001l156 28c66 -276.667 117.333 -458 154 -544c68 66.667 263 268 585 604l86 -90c-64 -82 -180.333 -206 -349 -372l-271 -267
c45.333 -96.667 90.833 -180.667 136.5 -252l119.5 -182.5c34 -50.333 54.333 -81.166 61 -92.499l-110 -104c-101.333 104 -210 276 -326 516l-166 -160l-143 -139c-75.333 -72.667 -156.666 -138.334 -243.999 -197.001z" />
    <glyph glyph-name="Y" unicode="Y" horiz-adv-x="1351" 
d="M-184 -426c0 122.667 82.5 227.331 247.5 313.998s362.167 130 591.5 130l62 -2c8 28.667 26.667 83.334 56 164.001s50.333 134 63 160c-142 -134 -252 -214.667 -330 -242c-40 -14.667 -81.333 -22 -124 -22h-5c-72.667 0 -128.667 23.833 -168 71.5
s-59 114.5 -59 200.5c0 122.667 56.5 286.834 169.5 492.501s242.167 366.5 387.5 482.5l81 -76c-302.667 -325.333 -454 -597.333 -454 -816c0 -127.333 49.833 -191 149.5 -191s196.5 54.5 290.5 163.5s191.667 278.167 293 507.5c40.667 94 72 156.167 94 186.5
s43.167 45.5 63.5 45.5s36.333 -6.16699 48 -18.5s17.5 -28.833 17.5 -49.5c0 -87.333 -62.667 -217 -188 -389c-87.333 -180 -175.333 -404 -264 -672c64 -4 132 -19.667 204 -47l-20 -69l-217 30c-80.667 -196.667 -178 -343.667 -292 -441s-250.333 -146 -409 -146
c-82 0 -150.5 22.167 -205.5 66.5s-82.5 99.833 -82.5 166.5zM33 -389.003c0 -38 15.333 -69 46 -93s70 -36 118 -36c110.667 0 208.5 44.667 293.5 134s148.167 194 189.5 314c-182.667 0 -336.167 -31 -460.5 -93s-186.5 -137.333 -186.5 -226z" />
    <glyph glyph-name="Z" unicode="Z" horiz-adv-x="1347" 
d="M61 102c0 36.667 52.998 105.666 158.998 206.999s240.167 220.5 402.5 357.5s272.833 234.167 331.5 291.5s104 109.333 136 156c-57.333 2.66699 -94.333 4 -111 4c-184 0 -317 -10.167 -399 -30.5s-123 -55.833 -123 -106.5l10 -92
c0 -10.667 -3.83301 -20.5 -11.5 -29.5s-16.167 -13.5 -25.5 -13.5c-26 0 -52.667 22.5 -80 67.5s-41 87.167 -41 126.5c0 86 50.5 144.167 151.5 174.5s243 45.5 426 45.5s295.333 -5.83301 337 -17.5s62.5 -44.167 62.5 -97.5c0 -23.333 -11.167 -49.333 -33.5 -78
s-66.666 -73.667 -132.999 -135s-179 -158.333 -338 -291s-280.167 -242 -363.5 -328s-136.666 -146 -159.999 -180c57.333 -2.66699 94.333 -4 111 -4c184 0 317 10.167 399 30.5s123 55.833 123 106.5l-10 92c0 10.667 3.66699 20.5 11 29.5s16 13.5 26 13.5
c26 0 52.5 -22.5 79.5 -67.5s40.5 -87.167 40.5 -126.5c0 -86 -50.5 -144 -151.5 -174s-243 -45 -426 -45s-295.333 5.83301 -337 17.5s-62.5 43.834 -62.5 96.501z" />
    <glyph glyph-name="bracketleft" unicode="[" horiz-adv-x="727" 
d="M-8 -272c42 228 109.499 497.167 202.499 807.5s181.167 583.166 264.5 818.499c18 50.667 54.667 76 110 76c20.667 0 60 -4.16699 118 -12.5s102.667 -13.833 134 -16.5l-24 -107l-224 11c-78 -208.667 -161.667 -461.667 -251 -759s-153 -538.666 -191 -723.999
c30 4 118 13.333 264 28l13 -118l-316 -45c-9.33301 -4 -19.666 -6 -30.999 -6c-46.667 0 -69.667 15.667 -69 47z" />
    <glyph glyph-name="backslash" unicode="\" horiz-adv-x="538" 
d="M-84 1413l80 18.999c106.667 -328 187.667 -606 243 -834s102 -486.667 140 -776l-78 -15c-38 330.667 -107 669.334 -207 1016c-36.667 130 -96 326.667 -178 590z" />
    <glyph glyph-name="bracketright" unicode="]" horiz-adv-x="630" 
d="M-160 -119l297 -22c65.333 186 136.666 427.667 213.999 725s135.666 549.666 174.999 756.999l-229 -10l-27 105c204.667 20.667 315.334 30.667 332.001 30c46.667 0 70 -18.333 70 -55c0 -8 -0.666992 -14.667 -2 -20
c-49.333 -233.333 -114.666 -502.666 -195.999 -807.999s-165 -572 -251 -800c-19.333 -31.333 -51.333 -47 -96 -47l-287 26v119z" />
    <glyph glyph-name="asciicircum" unicode="^" horiz-adv-x="847" 
d="M-4 403c9.33301 28.667 125.333 147.001 348 355.001l109 104c233.333 -266 358 -415.333 374 -448l-55 -47c-176 196.667 -280.333 307.667 -313 333c-35.333 -22 -82.5 -59.833 -141.5 -113.5s-108.833 -101.834 -149.5 -144.501l-62 -65z" />
    <glyph glyph-name="underscore" unicode="_" horiz-adv-x="921" 
d="M-51 -231h995l43 -99h-1007z" />
    <glyph glyph-name="grave" unicode="`" horiz-adv-x="401" 
d="M-16 922l139 82l270 -160l-59 -37z" />
    <glyph glyph-name="a" unicode="a" horiz-adv-x="960" 
d="M27 166c0 95.333 36.832 189.832 110.499 283.499s167.834 169.834 282.501 228.501s229.334 88.667 344.001 90l4 -68l-86 -18c-124 -27.333 -233.5 -82 -328.5 -164s-142.5 -163.5 -142.5 -244.5s32.667 -121.5 98 -121.5c61.333 0 137.166 43 227.499 129
s165.5 187 225.5 303l86 -52c-84.667 -170.667 -127 -279 -127 -325c0 -19.333 6.5 -35.5 19.5 -48.5s26 -19.5 39 -19.5s21.5 0.666992 25.5 2s8 3.16602 12 5.49902l15.5 9.5c6.33301 4 11.833 8 16.5 12s12.5 10.167 23.5 18.5l26.5 20.5l47 -35
c-19.333 -40.667 -54.5 -79.5 -105.5 -116.5s-97.833 -55.5 -140.5 -55.5c-80 0 -120 41.667 -120 125c0 40.667 10 88.334 30 143.001l-75 -78c-74 -75.333 -138 -125.833 -192 -151.5s-107 -38.5 -159 -38.5s-91.167 14.667 -117.5 44s-39.5 70 -39.5 122z" />
    <glyph glyph-name="b" unicode="b" horiz-adv-x="882" 
d="M8 82c40.667 208.667 122.505 463.165 245.505 763.498s225.5 512.833 307.5 637.5l105 -37c-90 -168 -186 -376.167 -288 -624.5s-161.667 -417.166 -179 -506.499c56 98 116.667 180.667 182 248s123 113.5 173 138.5s97.167 37.5 141.5 37.5
s81.166 -15.333 110.499 -46s44 -70.667 44 -120c0 -126.667 -53.333 -260 -160 -400s-221.334 -210 -344.001 -210c-36.667 0 -71.334 7 -104.001 21l49 90c22 -5.33301 39 -8 51 -8c83.333 0 159.166 46.333 227.499 139s102.5 184 102.5 274
c0 28.667 -9.33301 52.334 -28 71.001s-42.334 28 -71.001 28c-62.667 0 -136 -50.667 -220 -152s-157.333 -233 -220 -395z" />
    <glyph glyph-name="c" unicode="c" horiz-adv-x="747" 
d="M23 239.5c0 73.667 32 153.501 96 239.501s146.833 157 248.5 213s201.834 84 300.501 84c13.333 0 33.666 -1.33301 60.999 -4l-6 -80c-150 -6.66699 -274.5 -52.334 -373.5 -137.001s-148.5 -174.667 -148.5 -270c0 -39.333 12.167 -71.333 36.5 -96s56.5 -37 96.5 -37
c62.667 0 143 46.333 241 139l50 -41c-32.667 -75.333 -85.334 -135.5 -158.001 -180.5s-142.667 -67.5 -210 -67.5s-123.166 21.167 -167.499 63.5s-66.5 100.333 -66.5 174z" />
    <glyph glyph-name="d" unicode="d" horiz-adv-x="1144" 
d="M12 156c0 88.667 35.499 180.667 106.499 276s158.5 173.5 262.5 234.5s201 91.5 291 91.5l6 -72c-117.333 -15.333 -226.833 -66.333 -328.5 -153s-152.5 -175 -152.5 -265c0 -38 10.167 -68.333 30.5 -91s46.833 -34 79.5 -34c66.667 0 154 71.667 262 215
c39.333 52 84.666 127.833 135.999 227.5l123 241l90.5 178.5l116 229l141.5 279l104 -36l-29 -54c-150 -280 -277.667 -551 -383 -813c-69.333 -172 -104 -301 -104 -387c0 -22 5.5 -39.333 16.5 -52s28.333 -19 52 -19s51.167 15.667 82.5 47l37 -35
c-18 -39.333 -48.667 -75.833 -92 -109.5s-85.666 -50.5 -126.999 -50.5c-79.333 0 -119 46.333 -119 139c0 54.667 15 138.667 45 252c-161.333 -281.333 -319 -422 -473 -422c-53.333 0 -95.666 16.5 -126.999 49.5s-47 77.5 -47 133.5z" />
    <glyph glyph-name="e" unicode="e" horiz-adv-x="780" 
d="M20 223c0 125.333 66.667 248.832 200 370.499s268.333 182.5 405 182.5c90 0 135 -35.333 135 -106c0 -74 -47.5 -148.5 -142.5 -223.5s-228.5 -143.167 -400.5 -204.5c12 -31.333 31 -56 57 -74s52.667 -27 80 -27c58.667 0.666992 138.667 34.334 240 101.001l47 -37
c-42 -58.667 -100 -107.5 -174 -146.5s-145.833 -58.5 -215.5 -58.5s-125.667 20.5 -168 61.5s-63.5 94.833 -63.5 161.5zM207 302.999c110.667 38 205.501 85.667 284.501 143s118.5 110 118.5 158c0 18 -6.83301 33.833 -20.5 47.5s-29.167 20.5 -46.5 20.5
c-64 0 -133.333 -40 -208 -120s-117.334 -163 -128.001 -249z" />
    <glyph glyph-name="f" unicode="f" horiz-adv-x="698" 
d="M12 524c0 34 26 75.001 78 123.001c75.333 69.333 164.666 130.666 267.999 183.999c80.667 274.667 138.667 447 174 517c48 94 92 154 132 180c58.667 36.667 119.334 55 182.001 55s107 -17.667 133 -53c23.333 -32 35 -69.333 35 -112v-13
c-6.66699 -172 -191.667 -372 -555 -600l-66 -248l266 31l-59 -96l-229 -31c-18 -74 -48 -185.333 -90 -334c-91.333 -322 -137.333 -526 -138 -612l-131 -68c0 117.333 50.667 344 152 680c52 168 84 276 96 324c-48 -12 -91.667 -18.333 -131 -19
c-78 0 -117 30.667 -117 92zM168 600.001c0 -35.333 40.333 -53 121 -53l45 180c-52 -22 -92.667 -44.5 -122 -67.5s-44 -42.833 -44 -59.5zM494 926.001c75.333 46.667 155.834 109.499 241.501 188.499s129.834 147.833 132.501 206.5v8c0 53.333 -27.333 80 -82 80
c-76.667 0 -133.334 -37 -170.001 -111c-28.667 -57.333 -53.834 -126.166 -75.501 -206.499s-37.167 -135.5 -46.5 -165.5z" />
    <glyph glyph-name="g" unicode="g" horiz-adv-x="919" 
d="M27 -590c0 117.333 53.8301 226.831 161.497 328.498s251.834 182.167 432.501 241.5c20.667 91.333 57.334 220.333 110.001 387c-91.333 -139.333 -174.166 -233.666 -248.499 -282.999s-141.666 -74 -201.999 -74s-105.833 16.5 -136.5 49.5s-46 76.5 -46 130.5
c0 90 37.667 181.833 113 275.5s170 170.167 284 229.5s224 89 330 89l17 -71c-151.333 -16.667 -281.333 -70 -390 -160s-163 -176.667 -163 -260c0 -35.333 10.833 -64.666 32.5 -87.999s48.167 -35 79.5 -35c46.667 0 117.167 49.167 211.5 147.5
s160.5 182.166 198.5 251.499l76 -43c-75.333 -200.667 -127.333 -370 -156 -508l172 56l2 -49c-13.333 -8 -75.333 -32.667 -186 -74c-44 -260.667 -108.333 -449 -193 -565s-188.334 -174 -311.001 -174c-57.333 0 -103 18.333 -137 55s-51 84.334 -51 143.001z
M196.997 -487.002c0 -32.667 9.50098 -59.334 28.501 -80.001s42.833 -31 71.5 -31c57.333 0 114 40.333 170 121s103 212.334 141 395.001c-118.667 -54.667 -216.834 -120.167 -294.501 -196.5s-116.5 -145.833 -116.5 -208.5z" />
    <glyph glyph-name="h" unicode="h" horiz-adv-x="886" 
d="M12 57c70.667 356.667 256.334 833.999 557.001 1432l101 -33c-151.333 -303.333 -260 -544.333 -326 -723c-68 -186 -119.333 -339.667 -154 -461c105.333 173.333 195.833 293.5 271.5 360.5s141.5 100.5 197.5 100.5c101.333 0 152 -36 152 -108
c0 -45.333 -25.333 -126 -76 -242s-76 -193.167 -76 -231.5s18.667 -57.5 56 -57.5c18.667 0.666992 50.667 19.334 96 56.001l47 -39c-57.333 -95.333 -131.666 -143.333 -222.999 -144c-79.333 0 -119 39 -119 117c0 45.333 19.5 117.5 58.5 216.5
s58.5 164.167 58.5 195.5c0 39.333 -25.333 59 -76 59s-119.334 -54.333 -206.001 -163s-159.334 -234.667 -218.001 -378z" />
    <glyph glyph-name="i" unicode="i" horiz-adv-x="548" 
d="M61 162c0 132.667 54.668 305.333 164.001 518l43 82l88 -53c-28.667 -52 -63.834 -134.667 -105.501 -248s-62.5 -186 -62.5 -218s6.83301 -54.833 20.5 -68.5s30.167 -20.5 49.5 -20.5h1c37.333 0 88.333 36.667 153 110l41 -35
c-32.667 -62.667 -76 -116.167 -130 -160.5s-103 -66.5 -147 -66.5c-76.667 0 -115 53.333 -115 160zM352.501 1046.5c19 23 43.499 34.502 73.499 34.502s54.5 -8.83301 73.5 -26.5s28.5 -40.834 28.5 -69.501s-8.16699 -55.334 -24.5 -80.001s-38.166 -37 -65.499 -37
c-76 0 -114 30.333 -114 91c0 35.333 9.5 64.5 28.5 87.5z" />
    <glyph glyph-name="j" unicode="j" horiz-adv-x="825" 
d="M-246 -362c0 116 50.502 221.332 151.502 315.999s247.833 176.334 440.5 245.001c61.333 233.333 135 462.666 221 687.999c26 68 40.333 109 43 123l103 -33c-38 -84.667 -84.833 -209.667 -140.5 -375s-88.834 -285.333 -99.501 -360l174 47
c2.66699 -24.667 4 -44.667 4 -60c-72.667 -18 -138 -38.333 -196 -61c-50.667 -243.333 -116.334 -427 -197.001 -551s-183 -186 -307 -186c-61.333 0 -109.5 18.333 -144.5 55s-52.5 87.334 -52.5 152.001zM-73.998 -283.001c0 -30 9 -53.833 27 -71.5s42 -26.5 72 -26.5
c61.333 0 120.333 46.833 177 140.5s102 213.5 136 359.5c-170.667 -84.667 -278.667 -151.667 -324 -201c-58.667 -64 -88 -131 -88 -201zM659.002 1240c0 32 11 60.667 33 86s47 38 75 38s51.5 -9.83301 70.5 -29.5s28.5 -44.167 28.5 -73.5s-7.16699 -57 -21.5 -83
s-37.5 -39 -69.5 -39s-59.333 8.83301 -82 26.5s-34 42.5 -34 74.5z" />
    <glyph glyph-name="k" unicode="k" horiz-adv-x="927" 
d="M12 43c0 58.667 79.498 296.17 238.498 712.503s272.167 668.166 339.5 755.499l100 -36c-184 -320.667 -338.333 -693.667 -463 -1119c106.667 160 198.167 266.667 274.5 320s149.5 80 219.5 80c42 0 75.667 -13 101 -39s38 -59.167 38 -99.5
s-9.83301 -76.833 -29.5 -109.5s-48.167 -61.334 -85.5 -86.001c-53.333 -35.333 -118.666 -70.333 -195.999 -105c12 -64 33 -112.333 63 -145s64.333 -49 103 -49c20.667 0 65 28.667 133 86l51 -45c-79.333 -130 -163.333 -195 -252 -195
c-54.667 0 -110.667 40.333 -168 121s-86 147 -86 199c0 32.667 49.333 65.334 148 98.001c36.667 12 70.334 30.667 101.001 56s46 51.666 46 78.999s-7.5 48.166 -22.5 62.499s-34.167 21.5 -57.5 21.5c-150 -13.333 -307 -215.333 -471 -606z" />
    <glyph glyph-name="l" unicode="l" horiz-adv-x="555" 
d="M12 129c0 95.333 62.832 301.167 188.499 617.5s254.834 594.5 387.501 834.5l90 -49c-134 -259.333 -254.833 -517 -362.5 -773s-161.5 -440 -161.5 -552c0 -64 23.667 -96 71 -96c38.667 0 77 28.667 115 86l43 -35c-46.667 -72.667 -86.667 -125 -120 -157
s-70.5 -48 -111.5 -48s-74.5 16.333 -100.5 49s-39 73.667 -39 123z" />
    <glyph glyph-name="m" unicode="m" horiz-adv-x="1478" 
d="M12 41c6.66699 72.667 38.8369 202.83 96.5039 390.497s106.167 315.5 145.5 383.5l92 -33c-42 -94 -71.333 -173.5 -88 -238.5s-31 -134.167 -43 -207.5c117.333 168 215.666 285.833 294.999 353.5s151 101.5 215 101.5c69.333 0 104 -35 104 -105
c0 -27.333 -11.833 -81.333 -35.5 -162l-56.5 -190c188 302.667 356.333 454 505 454h1c36.667 0 66 -11.167 88 -33.5s33 -55.666 33 -99.999s-25.667 -117.666 -77 -219.999s-77 -166.833 -77 -193.5s5.5 -46.167 16.5 -58.5s24.833 -18.5 41.5 -18.5
c35.333 0 81.666 34 138.999 102l43 -41c-78 -139.333 -167.333 -209 -268 -209c-40.667 0 -72.334 11.333 -95.001 34s-34 52.834 -34 90.501s22.5 102.167 67.5 193.5s68.833 161 71.5 209c1.33301 22 -5.16699 39.667 -19.5 53s-33.833 20 -58.5 20
s-49.667 -5.66699 -75 -17s-49.833 -30 -73.5 -56s-45.5 -51.333 -65.5 -76s-41.833 -59.5 -65.5 -104.5l-60.5 -112.5l-123 -252l-123 43c0 4 22.667 81.167 68 231.5s68 239.833 68 268.5s-6.83301 49.5 -20.5 62.5s-30.834 19.5 -51.501 19.5
c-61.333 0 -146.333 -76.5 -255 -229.5s-178 -283.5 -208 -391.5z" />
    <glyph glyph-name="n" unicode="n" horiz-adv-x="950" 
d="M8 31c26 158.667 63.3301 313.332 111.997 463.999s93.334 258.667 134.001 324l84 -26c-38 -96.667 -86.333 -264 -145 -502c188.667 322 362 483 520 483c34 0 62.167 -11.5 84.5 -34.5s33.5 -50.333 33.5 -82s-4 -60 -12 -85s-33.5 -83.667 -76.5 -176
s-64.5 -150.166 -64.5 -173.499s6.83301 -41.333 20.5 -54s26.667 -19 39 -19s22.5 2 30.5 6s17.167 10 27.5 18l28 22.5c8.33301 7 18.333 16.333 30 28s20.167 19.5 25.5 23.5l43 -33c-30 -60 -71.333 -110.5 -124 -151.5s-100.167 -61.5 -142.5 -61.5
s-75.833 12.333 -100.5 37s-37 55.334 -37 92.001s23.5 101.167 70.5 193.5s70.5 160.166 70.5 203.499c0 19.333 -7.83301 36.833 -23.5 52.5s-34.167 23.5 -55.5 23.5c-69.333 0 -139.666 -52.833 -210.999 -158.5s-150.666 -258.167 -237.999 -457.5z" />
    <glyph glyph-name="o" unicode="o" horiz-adv-x="677" 
d="M20 246c0 130 50.667 246.503 152 349.503s214.666 154.5 339.999 154.5c23.333 0 39.666 -0.666992 48.999 -2l6 -68c-109.333 0 -200.166 -31.333 -272.499 -94s-108.5 -143.334 -108.5 -242.001c0 -58.667 14.333 -106.167 43 -142.5s70.667 -54.5 126 -54.5
s99.5 24.667 132.5 74s49.5 107.166 49.5 173.499s-13 126.5 -39 180.5l106 33c35.333 -58.667 53 -123.334 53 -194.001c0 -110.667 -38.167 -209.334 -114.5 -296.001s-166.5 -130 -270.5 -130c-79.333 0 -141.166 22.833 -185.499 68.5s-66.5 108.834 -66.5 189.501z" />
    <glyph glyph-name="p" unicode="p" horiz-adv-x="1013" 
d="M-160 -657c2.66699 8 28.335 78.499 77.002 211.499l142 396.5c128.667 360.667 193 558 193 592c0 87.333 -17.667 166.333 -53 237l102 51c42.667 -59.333 64 -121.666 64 -186.999c0 -64.667 -13 -153.667 -39 -267c103.333 155.333 193.333 261.333 270 318
s143.667 85 201 85s101.666 -17.333 132.999 -52s47 -78.667 47 -132c0 -147.333 -53 -283.5 -159 -408.5s-225 -187.5 -357 -187.5c-58.667 -0 -105 10.333 -139 31l49 88c70.667 -9.33301 115 -14.333 133 -15c74 0 143 43 207 129s96 174.333 96 265
c0 34 -9.83301 62.167 -29.5 84.5s-45.5 33.5 -77.5 33.5c-75.333 0 -160.333 -66.167 -255 -198.5s-183.334 -296.5 -266.001 -492.5s-154.667 -404.333 -216 -625z" />
    <glyph glyph-name="q" unicode="q" horiz-adv-x="864" 
d="M126 472.5c67.333 93 157 168.501 269 226.501s227.333 87 346 87l19 -71c-128.667 -2.66699 -252.667 -45 -372 -127s-179 -179.667 -179 -293c0 -72.667 30.667 -109 92 -109c45.333 0 94.833 25.667 148.5 77s111 114.166 172 188.499s109.833 125.166 146.5 152.499
l80 -45c-302 -606.667 -472.667 -1030.67 -512 -1272l-111 45c0 92.667 136 439 408 1039c-104 -139.333 -191.167 -234.666 -261.5 -285.999s-132.833 -77 -187.5 -77c-106 0 -159 58.667 -159 176c0 99.333 33.667 195.5 101 288.5z" />
    <glyph glyph-name="r" unicode="r" horiz-adv-x="727" 
d="M25 55c75.333 170.667 118.333 271 129 301c36.667 106.667 55 242 55 406l115 31c-4 -88.667 -10.167 -157.334 -18.5 -206.001s-28.166 -127.667 -59.499 -237c138 250 254 375 348 375c34 0 62 -11.667 84 -35s33 -53.333 33 -90c0 -74 -42.333 -151.667 -127 -233
l-49 39c19.333 42 28.666 72.667 27.999 92c0 36.667 -20.5 55 -61.5 55s-79.833 -26 -116.5 -78s-80 -132.167 -130 -240.5s-88 -185.166 -114 -230.499z" />
    <glyph glyph-name="s" unicode="s" horiz-adv-x="677" 
d="M-8 190l78.001 55.998c19.333 -15.333 39.833 -33.5 61.5 -54.5s37.834 -35.833 48.501 -44.5c25.333 -23.333 53.666 -35 84.999 -35h1c31.333 0 58.666 11.333 81.999 34s35 50.834 35 84.501s-29.667 96.167 -89 187.5s-89 155.333 -89 192
c0 66.667 28.333 117.834 85 153.501s131 53.5 223 53.5s151 -5.33301 177 -16l-18 -80c-23.333 2.66699 -53.333 4 -90 4c-136.667 0 -205 -45 -205 -135c0 -19.333 27.667 -75.333 83 -168s83 -154.667 83 -186c0 -74 -25 -131.833 -75 -173.5s-116.667 -62.5 -200 -62.5
c-114.667 -0 -206.667 63.333 -276 190z" />
    <glyph glyph-name="t" unicode="t" horiz-adv-x="675" 
d="M18 674c68 28.667 157.664 51.667 268.997 69c10.667 20.667 35 70.667 73 150c76.667 157.333 131.334 259 164.001 305l88 -35c-13.333 -30 -37.166 -80.167 -71.499 -150.5l-114.5 -238.5c61.333 4 109.833 6 145.5 6s62.834 -5.33301 81.501 -16v-88
c-19.333 4 -47 6 -83 6s-100.333 -6 -193 -18c-80.667 -180 -121 -311.333 -121 -394c0 -31.333 10 -57.333 30 -78c20 -20 46.667 -30 80 -30v-1c33.333 0 78 22.667 134 68l45 -51c-34 -53.333 -75.333 -95 -124 -125s-97.5 -45 -146.5 -45s-87.833 14 -116.5 42
s-43 66.667 -43 116c0 114.667 43 273 129 475c-69.333 -10.667 -139 -27 -209 -49l-15 80z" />
    <glyph glyph-name="u" unicode="u" horiz-adv-x="901" 
d="M119 508c62.667 144.667 108.332 228.667 136.999 252l98 -43c-56 -90 -98.333 -178.833 -127 -266.5s-43 -146.167 -43 -175.5s9.33301 -52.833 28 -70.5s40 -26.5 64 -26.5c54.667 0 122.667 50.167 204 150.5s164.333 250.166 249 449.499l105 -47
c-2.66699 -10.667 -33.834 -89.834 -93.501 -237.501s-89.5 -236.167 -89.5 -265.5s6.5 -51.5 19.5 -66.5s26 -22.5 39 -22.5s23 0.666992 30 2s13.833 4.16602 20.5 8.49902s12.334 7.83301 17.001 10.5s10.667 7.33398 18 14.001l16 14
c2.66699 4 7.83398 10.5 15.501 19.5s12.834 14.833 15.501 17.5l43 -35c-23.333 -57.333 -60 -105.666 -110 -144.999s-95 -59 -135 -59s-71.667 14 -95 42s-35 64.5 -35 109.5s7.33301 102.833 22 173.5c-64 -101.333 -132.833 -180.5 -206.5 -237.5
s-135.834 -85.5 -186.501 -85.5c-76 0 -114 53.667 -114 161c0 94.667 31.333 214.334 94 359.001z" />
    <glyph glyph-name="v" unicode="v" horiz-adv-x="778" 
d="M23 786l133 -12.002c39.333 -96.667 70.666 -201.667 93.999 -315c5.33301 -23.333 14.833 -70.166 28.5 -140.499l32.5 -164.5c75.333 144.667 141.333 262.334 198 353.001s117 166 181 226l70 -55c-181.333 -238.667 -304.333 -438 -369 -598
c-22 -53.333 -53.333 -80 -94 -80c-26 0 -48.833 13.667 -68.5 41s-32.667 52.333 -39 75s-16.333 70.167 -30 142.5s-28.667 147.666 -45 225.999s-29.666 137 -39.999 176l-20.5 77c-3.33301 12.333 -9 22.833 -17 31.5s-12.667 14.334 -14 17.001z" />
    <glyph glyph-name="w" unicode="w" horiz-adv-x="1222" 
d="M-2 762c39.333 10.667 78.999 16.0049 118.999 16.0049c6.66699 -12 15.334 -49.333 26.001 -112c23.333 -121.333 52.666 -264 87.999 -428c66.667 128.667 140.667 247.167 222 355.5s135 162.5 161 162.5c30 0 50.833 -20.833 62.5 -62.5s22 -111.334 31 -209.001
s20.833 -179.167 35.5 -244.5c128.667 220 275.667 405.667 441 557l57 -54l-123 -149c-144.667 -178.667 -251.667 -356.334 -321 -533.001c-18 -36.667 -36.167 -55 -54.5 -55s-33.333 2.33301 -45 7s-24.667 22.167 -39 52.5s-24.166 66.666 -29.499 108.999
s-10.166 78.5 -14.499 108.5s-7.16602 52.167 -8.49902 66.5s-3 29.333 -5 45s-3.66699 27.5 -5 35.5l-4 24.5c-1.33301 8.33301 -3.33301 16.166 -6 23.499s-4.66699 14.166 -6 20.499s-4.5 17 -9.5 32s-8.83301 27.833 -11.5 38.5
c-70.667 -76.667 -131.334 -166.667 -182.001 -270l-113 -238c-12 -26 -28.333 -39 -49 -39h-1c-21.333 0 -38.5 2.5 -51.5 7.5s-26.333 21.167 -40 48.5s-23.834 68.333 -30.501 123c-32.667 274.667 -64 461.667 -94 561z" />
    <glyph glyph-name="x" unicode="x" horiz-adv-x="909" 
d="M20 35c26 62.667 137.332 193.665 333.999 392.998c-52 125.333 -80.667 228.333 -86 309l135 25c6.66699 -9.33301 33.334 -92 80.001 -248c172 122.667 294.333 201.334 367 236.001l39 -56c-23.333 -19.333 -64.333 -48.666 -123 -87.999
c-157.333 -106.667 -240 -164 -248 -172c74 -157.333 162 -292.333 264 -405l-96 -62c-112 82 -206.333 207 -283 375c-80.667 -72.667 -189 -190.667 -325 -354z" />
    <glyph glyph-name="y" unicode="y" horiz-adv-x="923" 
d="M-14 -539c0 236 197.999 425.999 593.999 569.999l110 389c-117.333 -176 -223 -284.667 -317 -326c-46.667 -22 -95.5 -33 -146.5 -33s-92 16.5 -123 49.5s-46.5 80.833 -46.5 143.5s21.5 150.334 64.5 263.001s91.167 207.334 144.5 284.001l101 -43
c-4 -4 -23.333 -40.333 -58 -109c-60 -124 -90 -216 -90 -276s11.667 -100.333 35 -121s57.5 -31 102.5 -31s95.833 27 152.5 81s144.334 161 263.001 321l74 -43c-10.667 -45.333 -34.834 -127 -72.501 -245s-63.5 -208.667 -77.5 -272l166 66l6 -53
c-5.33301 -4 -68.666 -28.667 -189.999 -74c-16.667 -90 -37.5 -179 -62.5 -267s-50.167 -155 -75.5 -201s-55 -91.333 -89 -136c-68 -90 -160.333 -135 -277 -135c-57.333 0 -103 17.667 -137 53s-51 83.666 -51 144.999zM155.999 -436.001
c0 -32.667 9.49902 -59.333 28.499 -80s42.833 -31 71.5 -31c136.667 0 240.334 172 311.001 516c-86 -39.333 -161.667 -84.333 -227 -135c-122.667 -92.667 -184 -182.667 -184 -270z" />
    <glyph glyph-name="z" unicode="z" horiz-adv-x="858" 
d="M-6 145c0 57.333 204.667 230.336 614 519.003c-18 1.33301 -58.667 2 -122 2s-173.333 -13.667 -330 -41l-13 69c92.667 56 266.334 84 521.001 84c53.333 0 91.166 -4 113.499 -12s33.5 -26.333 33.5 -55c0 -31.333 -17.667 -60 -53 -86
c-6.66699 -5.33301 -18 -12.833 -34 -22.5s-44.333 -28.834 -85 -57.501l-123.5 -89c-41.667 -30.667 -94.667 -76.834 -159 -138.501s-125.833 -129.167 -184.5 -202.5c188.667 30 316 45 382 45s123.667 -2.66699 173 -8l-2 -86
c-31.333 -1.33301 -74.333 -2.83301 -129 -4.5l-113.5 -3.5c-21 -0.666992 -50.167 -2.33398 -87.5 -5.00098c-62.667 -4 -120.667 -12 -174 -24c-66.667 -15.333 -102.667 -23 -108 -23c-26 0 -52.333 15.667 -79 47s-40 62 -40 92z" />
    <glyph glyph-name="braceleft" unicode="{" horiz-adv-x="595" 
d="M55 598c112 15.333 185.667 108.333 221 279l47.5 222c16.333 75.333 47.333 146.833 93 214.5s108.167 116.5 187.5 146.5l-14 -127c-90 -50.667 -147.333 -143.334 -172 -278.001l-29 -172c-26 -142 -80.667 -242.333 -164 -301c58.667 -54.667 88 -111 88 -169
s-24.167 -138.667 -72.5 -242s-72.5 -179.833 -72.5 -229.5s11.667 -95.167 35 -136.5l-29 -110c-64 65.333 -96 141 -96 227c0 58.667 19.833 142 59.5 250s59.5 184.333 59.5 229c0 84.667 -47.333 150.334 -142 197.001z" />
    <glyph glyph-name="bar" unicode="|" horiz-adv-x="335" 
d="M68 -66c13.333 288 34 529.667 62 725s79.667 414 155 656l80 -19c-66.667 -176 -121 -401.5 -163 -676.5s-63.667 -496.5 -65 -664.5z" />
    <glyph glyph-name="braceright" unicode="}" horiz-adv-x="624" 
d="M-20 -340l42.9971 138.999c62.667 57.333 108.334 116.166 137.001 176.499s44.334 115 47.001 164s4.66699 96.833 6 143.5c5.33301 110.667 58.666 202.667 159.999 276c-35.333 31.333 -53.166 70.666 -53.499 117.999s19.334 125.5 59.001 234.5
s59.5 193.167 59.5 252.5s-19 113 -57 161l10 139c100 -61.333 150 -148.666 150 -261.999c0 -62.667 -19.5 -153.667 -58.5 -273s-58.5 -199.666 -58.5 -240.999c0 -75.333 39.667 -123.666 119 -144.999c-64 -8 -110.833 -32.833 -140.5 -74.5s-50.167 -95 -61.5 -160
s-24.5 -133 -39.5 -204s-48.833 -147.5 -101.5 -229.5s-126 -153.667 -220 -215z" />
    <glyph glyph-name="asciitilde" unicode="~" horiz-adv-x="921" 
d="M66 590c69.333 61.333 125.499 106.001 168.499 134.001s80.5 42 112.5 42s63 -11.333 93 -34s54 -47 72 -73c50.667 -72.667 95.667 -108.667 135 -108c20.667 0 41.334 10.333 62.001 31c27.333 27.333 58.666 60.666 93.999 99.999l43 -98
c-116 -118.667 -196.667 -178 -242 -178c-28.667 0 -57 11.5 -85 34.5s-51.5 48.833 -70.5 77.5s-42.167 54.667 -69.5 78s-52 35 -74 35s-44.333 -7 -67 -21c-31.333 -22 -78.666 -61.333 -141.999 -118z" />
    <glyph glyph-name="uni00A0" unicode="&#xa0;" horiz-adv-x="983" 
 />
    <glyph glyph-name="cent" unicode="&#xa2;" horiz-adv-x="870" 
d="M82 279c0 113.333 47.8369 221.832 143.504 325.499s208.167 174.5 337.5 212.5c32 73.333 54 120.333 66 141l78 -20l-50 -102c27.333 2.66699 50.666 4 69.999 4s35 -2 47 -6l-6 -82h-63c-2.66699 0 -33 -4.33301 -91 -13c-66.667 -160 -121 -338.667 -163 -536
c32.667 0 75.5 12.667 128.5 38s98.167 55 135.5 89l49 -41c-39.333 -68 -91.833 -122.167 -157.5 -162.5s-129.834 -64.166 -192.501 -71.499c-16.667 -79.333 -28.334 -138 -35.001 -176l-88 8l37 168c-72.667 8 -131.834 30.167 -177.501 66.5s-68.5 88.833 -68.5 157.5z
M260.004 344.999c0 -66 35.667 -109.333 107 -130c45.333 190 94.333 352.333 147 487c-76.667 -38 -138.167 -90.5 -184.5 -157.5s-69.5 -133.5 -69.5 -199.5z" />
    <glyph glyph-name="sterling" unicode="&#xa3;" horiz-adv-x="1134" 
d="M-88 467c66.667 72.667 179.331 108.665 337.998 107.998c161.333 445.333 400.333 668 717 668c57.333 0 103 -13 137 -39s51 -60.667 51 -104c0 -72.667 -33.5 -138 -100.5 -196s-139.333 -100.667 -217 -128s-147.167 -41.666 -208.5 -42.999
c-2.66699 12 -5.33398 34.667 -8.00098 68c112 18 196.167 48.333 252.5 91s84.5 89.334 84.5 140.001c0 31.333 -11.833 57.666 -35.5 78.999s-54.167 32 -91.5 32c-87.333 0 -165.666 -44 -234.999 -132s-133.666 -235.333 -192.999 -442
c45.333 -1.33301 117.833 -2 217.5 -2s167.834 6.33301 204.501 19l43 -97c-72.667 -26 -241.334 -38.667 -506.001 -38c-45.333 -130 -105.333 -232.667 -180 -308c200.667 -13.333 392 -20 574 -20c62.667 0 126 19.667 190 59l43 -67
c-36.667 -49.333 -71.667 -81.166 -105 -95.499s-72.666 -21.5 -117.999 -21.5l-434 10l-150 -4c-38 0 -68.667 4.83301 -92 14.5s-35 21 -35 34s7 29.5 21 49.5c58.667 174.667 103 293.667 133 357c-92.667 0 -180 -26 -262 -78z" />
    <glyph glyph-name="yen" unicode="&#xa5;" horiz-adv-x="1175" 
d="M6 588c46.667 6.66699 155.332 14.666 325.999 23.999c0 86 -11.667 195.667 -35 329s-45.333 232 -66 296l121 43c31.333 -61.333 59.333 -162 84 -302s37 -256.333 37 -349c90 126.667 187.667 243.334 293 350.001s204.333 192.667 297 258l84 -94
c-74 -56 -163.833 -135.5 -269.5 -238.5s-197.5 -201.167 -275.5 -294.5c84.667 0 182.334 -6 293.001 -18l-12 -74c-144.667 10.667 -255.334 17.667 -332.001 21c-40.667 -70.667 -65.334 -118.667 -74.001 -144l381 -20l-12 -74c-88.667 9.33301 -220.334 17 -395.001 23
c-20.667 -50.667 -57 -160.667 -109 -330l-139 39c58.667 146 91.334 243.667 98.001 293c-45.333 0 -134.666 -5 -267.999 -15l-6 74l286 12c10.667 72.667 16.334 115.667 17.001 129v15l-318 -19z" />
    <glyph glyph-name="dieresis" unicode="&#xa8;" horiz-adv-x="430" 
d="M-8 907c0 23.333 7.83301 42.835 23.5 58.502s34.667 23.5 57 23.5s41.5 -7.83301 57.5 -23.5s24 -34.834 24 -57.501s-8 -41.834 -24 -57.501s-35.5 -23.5 -58.5 -23.5s-42 7.5 -57 22.5s-22.5 34.167 -22.5 57.5zM252 907.002c0 23.333 7.83496 42.835 23.502 58.502
s34.5 23.5 56.5 23.5s41.167 -7.83301 57.5 -23.5s24.5 -34.834 24.5 -57.501s-7.83301 -41.834 -23.5 -57.501s-34.834 -23.5 -57.501 -23.5s-41.834 7.5 -57.501 22.5s-23.5 34.167 -23.5 57.5z" />
    <glyph glyph-name="copyright" unicode="&#xa9;" horiz-adv-x="995" 
d="M-2 311.5c0 103.667 36.833 215.832 110.5 336.499s168.5 220.667 284.5 300s230.667 119 344 119c82 0 147.333 -23.167 196 -69.5s73 -113.833 73 -202.5s-37.333 -196.5 -112 -323.5s-171 -237.667 -289 -332s-227.167 -141.5 -327.5 -141.5s-172 26.333 -215 79
s-64.5 130.834 -64.5 234.501zM168 377.998c0 -84 17.668 -150.333 53.001 -199s87.166 -73 155.499 -73s140.833 37.333 217.5 112s138.5 163.5 185.5 266.5s70.5 193.333 70.5 271s-17.833 137 -53.5 178s-86.167 61.5 -151.5 61.5s-136 -32.333 -212 -97
s-139.167 -146.5 -189.5 -245.5s-75.5 -190.5 -75.5 -274.5zM252.001 431.998c0 90 48.834 176.666 146.501 259.999s200.5 125 308.5 125c13.333 0 25.333 -1.33301 36 -4l-4 -55l-43 -2c-84.667 -4 -159 -35.833 -223 -95.5s-96 -122.167 -96 -187.5
c0 -26 8.83301 -47.833 26.5 -65.5s39.5 -26.5 65.5 -26.5c45.333 0 101.333 32 168 96l35 -28c-23.333 -52 -60 -93.833 -110 -125.5s-98.833 -47.5 -146.5 -47.5s-86.834 14.833 -117.501 44.5s-46 66.834 -46 111.501z" />
    <glyph glyph-name="guillemotleft" unicode="&#xab;" horiz-adv-x="782" 
d="M16 592c200.667 176 313.333 270 338 282l49 -61c-135.333 -128.667 -210.333 -203.667 -225 -225c31.333 -52 88 -118.333 170 -199l41 -39l-29 -102c-22 8 -110.667 94.667 -266 260zM341.999 592c200.667 176 313.334 270 338.001 282l49 -61
c-135.333 -128.667 -210.333 -203.667 -225 -225c31.333 -52 88.666 -118.333 171.999 -199l39 -39l-29 -102c-22 8 -110.667 94.667 -266 260z" />
    <glyph glyph-name="uni00AD" unicode="&#xad;" 
d="M-27 555c118 23.333 267.667 38.333 449 45v-96l-424 -60z" />
    <glyph glyph-name="registered" unicode="&#xae;" horiz-adv-x="1013" 
d="M2 315.5c0 103.667 36.833 215.999 110.5 336.999s168.5 221 284.5 300s230.667 118.5 344 118.5c82 0 147.333 -23.167 196 -69.5s73 -113.833 73 -202.5s-37.333 -196.5 -112 -323.5s-171 -237.667 -289 -332s-227.167 -141.5 -327.5 -141.5s-172 26.333 -215 79
s-64.5 130.834 -64.5 234.501zM172 381.999c0 -84 17.8359 -150.17 53.5029 -198.503s89 -72.5 160 -72.5s147.167 43 228.5 129c-35.333 8 -69.333 38.333 -102 91s-49 98.667 -49 138c0 32.667 36.667 59.334 110 80.001c27.333 6.66699 52.666 18.5 75.999 35.5
s35 35.167 35 54.5c0 40.667 -17.667 61 -53 61c-102.667 -9.33301 -208 -156.666 -316 -441.999l-84 33c0 48 54.667 225.333 164 532h74c-38 -108 -69.333 -209.667 -94 -305l51 80c87.333 138 181 208.333 281 211c28.667 0 51.5 -9.16699 68.5 -27.5
s25.5 -43.166 25.5 -74.499c0 -52 -25.667 -97.833 -77 -137.5s-103.666 -66.5 -156.999 -80.5c5.33301 -48 18.666 -83.5 39.999 -106.5s45 -34.5 71 -34.5c6.66699 0.666992 19 7 37 19c92.667 142 139 276.333 139 403c0 70.667 -17.667 126.5 -53 167.5
s-85.833 61.5 -151.5 61.5s-136.334 -32.333 -212.001 -97s-138.834 -146.5 -189.501 -245.5s-76 -190.5 -76 -274.5z" />
    <glyph glyph-name="acute" unicode="&#xb4;" horiz-adv-x="401" 
d="M-16 844l270 160l139 -82l-350 -115z" />
    <glyph glyph-name="cedilla" unicode="&#xb8;" horiz-adv-x="366" 
d="M-2 -397l1.99902 49.001c69.333 0 128 15 176 45s72 61.333 72 94c0 10.667 -5.16699 20.167 -15.5 28.5s-22.666 12.5 -36.999 12.5s-35.833 -9.66699 -64.5 -29c-32.667 -18 -53.834 -26.833 -63.501 -26.5s-17.834 3.16602 -24.501 8.49902s-10 12.666 -10 21.999
c0 16.667 24.333 73.334 73 170.001l23 48h78l-66 -138c32.667 18 71.334 27 116.001 27s78.167 -8.83301 100.5 -26.5s33.5 -40.167 33.5 -67.5c0 -50.667 -36.167 -100.5 -108.5 -149.5s-150.833 -73.5 -235.5 -73.5c-15.333 0 -31.666 2 -48.999 6z" />
    <glyph glyph-name="guillemotright" unicode="&#xbb;" horiz-adv-x="802" 
d="M78 322c8 30 55.002 98.666 141.002 205.999l43 54c-20.667 32.667 -46.334 67.334 -77.001 104.001s-52 66 -64 88l67 109c75.333 -96 145.666 -193 210.999 -291l-268 -342zM446.002 321.999c8 30 55.3359 98.666 142.003 205.999l43 54
c-20.667 32.667 -46.334 67.334 -77.001 104.001s-52.334 66 -65.001 88l68 109c75.333 -96 145.666 -193 210.999 -291l-268 -342z" />
    <glyph glyph-name="circumflex" unicode="&#x2c6;" horiz-adv-x="538" 
d="M-20 842l301 233c147.333 -117.333 235.333 -191 264 -221l-62 -49c-116 69.333 -186.333 113 -211 131l-202 -143z" />
    <glyph glyph-name="ring" unicode="&#x2da;" horiz-adv-x="258" 
d="M-16 915.5c0 37 17.332 70.499 51.999 100.499s72.834 45 114.501 45s73 -8.83301 94 -26.5s31.5 -44.667 31.5 -81s-17.667 -70.166 -53 -101.499s-73.5 -47 -114.5 -47s-72 9.16699 -93 27.5s-31.5 46 -31.5 83zM60.999 893.999c0 -32 16.666 -48 49.999 -48
c21.333 0 41 13 59 39s27 55.333 27 88s-14.333 49 -43 49c-23.333 0 -44.666 -13.333 -63.999 -40s-29 -56 -29 -88z" />
    <glyph glyph-name="tilde" unicode="&#x2dc;" horiz-adv-x="499" 
d="M-27 940c101.333 88.667 169.33 133 203.997 133s71.834 -23.833 111.501 -71.5s69.834 -71.5 90.501 -71.5c13.333 0 31.333 12.333 54 37s39.334 41.667 50.001 51l47 -39c-26 -40.667 -55.667 -75.5 -89 -104.5s-64 -43.5 -92 -43.5s-58.333 23.667 -91 71
s-62.667 71 -90 71c-13.333 0 -27 -4.83301 -41 -14.5l-32 -22.5c-7.33301 -5.33301 -17.833 -13.5 -31.5 -24.5s-24.5 -19.167 -32.5 -24.5z" />
    <glyph glyph-name="afii10023" unicode="&#x401;" horiz-adv-x="1411" 
d="M82 179c0 88 35.8291 172.002 107.496 252.002s171.5 146 299.5 198c-64 53.333 -96 108.666 -96 165.999c0 78 41 157.5 123 238.5s182 146.833 300 197.5s229 76 333 76c54.667 0 98.334 -12 131.001 -36s49 -55.667 49 -95c0 -68 -32.333 -128.833 -97 -182.5
s-139 -92.667 -223 -117s-165 -36.5 -243 -36.5c-20.667 0 -35.667 0.666992 -45 2v69c2.66699 0 42.167 6.5 118.5 19.5s140.833 36 193.5 69s79 69.833 79 110.5c0 49.333 -37 74 -111 74c-100 0 -194.167 -34.167 -282.5 -102.5s-132.5 -140 -132.5 -215
s46.333 -123.5 139 -145.5c20.667 -5.33301 34.334 -10.833 41.001 -16.5s10 -15.334 10 -29.001s-6.5 -24.834 -19.5 -33.501s-42.5 -21.334 -88.5 -38.001c-251.333 -86 -377 -219.667 -377 -401c0 -36.667 6.66699 -68 20 -94
c83.333 106.667 191.333 193.334 324 260.001s260.334 100 383.001 100c64 0 115.167 -14 153.5 -42s57.5 -66.667 57.5 -116c0 -76.667 -35.5 -153.167 -106.5 -229.5s-162.833 -138.666 -275.5 -186.999s-224.667 -72.5 -336 -72.5s-199 20.333 -263 61
c-1.33301 -1.33301 -7.66602 -11.333 -18.999 -30c-27.333 -54.667 -50.333 -93 -69 -115l-68 29c9.33301 38 37.333 96 84 174c-62.667 70.667 -94 150 -94 238zM355.996 35.002c54.667 -61.333 132.167 -92 232.5 -92s198.666 32.333 294.999 97s144.5 134.667 144.5 210
c0 30 -11.667 53.5 -35 70.5s-54.666 25.5 -93.999 25.5c-80.667 0 -174.5 -30.667 -281.5 -92s-194.167 -134.333 -261.5 -219zM890.996 1493c0 23.333 7.83496 42.835 23.502 58.502s34.5 23.5 56.5 23.5s41.167 -7.83301 57.5 -23.5s24.5 -34.834 24.5 -57.501
s-7.83301 -41.834 -23.5 -57.501s-34.834 -23.5 -57.501 -23.5s-41.834 7.5 -57.501 22.5s-23.5 34.167 -23.5 57.5zM1151 1493c0 23.333 7.83105 42.835 23.498 58.502s34.834 23.5 57.501 23.5s41.834 -7.83301 57.501 -23.5s23.5 -34.834 23.5 -57.501
s-7.83301 -41.834 -23.5 -57.501s-35.167 -23.5 -58.5 -23.5s-42.5 7.5 -57.5 22.5s-22.5 34.167 -22.5 57.5z" />
    <glyph glyph-name="afii10051" unicode="&#x402;" horiz-adv-x="1665" 
d="M14 893c0 113.333 58 208.834 174 286.501s271 116.5 465 116.5l486 -14c24.667 0 55.667 5.83301 93 17.5s62.166 17.5 74.499 17.5s22.333 -3.83301 30 -11.5s11.5 -16.834 11.5 -27.501c0 -94 -148.333 -141 -445 -141c-135.333 -308.667 -238.333 -584.667 -309 -828
c192.667 276 373 414 541 414c143.333 0 215 -76.333 215 -229c0 -94 -29.333 -217.667 -88 -371h129v-80l-172 -35c-109.333 -202 -241.166 -359.667 -395.499 -473s-292.166 -170 -413.499 -170c-65.333 0 -117.166 17.833 -155.499 53.5s-57.5 89.667 -57.5 162
s52.833 150.166 158.5 233.499s230.5 153.333 374.5 210s282.333 94.334 415 113.001c53.333 88.667 80 178.334 80 269.001c0 98 -58.667 147 -176 147c-84.667 0 -179 -55.333 -283 -166s-184 -237.667 -240 -381l-120 43c27.333 140.667 78.166 320.167 152.499 538.5
s143.5 400.833 207.5 547.5l-227 14c-135.333 8 -237.5 -7 -306.5 -45s-103.5 -88 -103.5 -150c0 -31.333 13 -57.5 39 -78.5s52 -31.5 78 -31.5s45.5 1 58.5 3s29.333 6.66699 49 14s33.5 12.666 41.5 15.999c28.667 9.33301 63.667 24.333 105 45l43 -54
c-104 -104 -217.333 -155.667 -340 -155c-54.667 0 -99.834 17 -135.501 51s-53.5 77 -53.5 129zM397 -361.999c0 -20.667 11.6689 -40.998 35.002 -60.998s54.666 -30 93.999 -30c68 0 149.667 36.167 245 108.5s201.666 193.833 318.999 364.5
c-206 -24.667 -373 -75.834 -501 -153.501s-192 -153.834 -192 -228.501z" />
    <glyph glyph-name="afii10052" unicode="&#x403;" horiz-adv-x="1249" 
d="M82 889c0 108 58.3379 202.168 175.005 282.501s274.667 120.5 474 120.5c16.667 0 75.5 -2.66699 176.5 -8s180.833 -8 239.5 -8s112.667 9 162 27c19.333 5.33301 30.666 8 33.999 8c19.333 0 29 -12.333 29 -37c0 -35.333 -31 -67.333 -93 -96s-133.333 -43 -214 -43
c-90 -87.333 -168.833 -240 -236.5 -458s-148.334 -384 -242.001 -498s-204.5 -171 -332.5 -171c-50.667 0 -98.334 16.333 -143.001 49l47 78c16.667 -8 35 -15.333 55 -22l29 -4c6.66699 -1.33301 16.667 -2.33301 30 -3c68 0 129.167 32.833 183.5 98.5
s111.166 189.667 170.499 372s105.666 303.166 138.999 362.499s91.666 125.333 174.999 198l-293 6c-299.333 0 -448.666 -65.667 -447.999 -197c0 -34 12.5 -61.667 37.5 -83s62.833 -32 113.5 -32s117 23.333 199 70l31 -53c-42 -45.333 -89.833 -81 -143.5 -107
s-107 -39 -160 -39s-98.667 17.833 -137 53.5s-57.5 80.167 -57.5 133.5zM791.005 1391l270 159l139 -82l-350 -114z" />
    <glyph glyph-name="afii10053" unicode="&#x404;" horiz-adv-x="1075" 
d="M39 340c0 109.333 30.9971 222.002 92.9971 338.002s138.167 215.667 228.5 299s186 152 287 206s190.167 81 267.5 81c48 0 85.667 -13.333 113 -40s41 -67.334 41 -122.001s-24 -104 -72 -148c-82 -76.667 -185.667 -114.667 -311 -114l-10 67c4 1.33301 18.667 3 44 5
s45.166 5.16699 59.499 9.5s31.5 11.166 51.5 20.499c40.667 16.667 61.334 51.667 62.001 105c0 24.667 -9.16699 44.667 -27.5 60s-41.166 23 -68.499 23c-98 0 -200.333 -48.333 -307 -145s-186.667 -207.334 -240 -332.001c100.667 11.333 244 18.333 430 21v-82
l-463 -33c-9.33301 -32.667 -14 -68 -14 -106c0 -83.333 27 -152.666 81 -207.999s126.667 -83 218 -83s160.5 11.833 207.5 35.5s70.5 68.5 70.5 134.5c0 15.333 -0.666992 27.666 -2 36.999l92 12c10.667 -39.333 16.334 -73.333 17.001 -102
c0 -87.333 -38 -155.666 -114 -204.999s-179.167 -74 -309.5 -74s-233.666 29.333 -309.999 88s-114.5 142.667 -114.5 252z" />
    <glyph glyph-name="afii10054" unicode="&#x405;" horiz-adv-x="1325" 
d="M-20 -217c0 79.333 52.5039 161.999 157.504 247.999s227.833 157 368.5 213s267.667 88.667 381 98c-13.333 20.667 -34.5 38.5 -63.5 53.5s-87.833 38.5 -176.5 70.5s-151.5 67.5 -188.5 106.5s-55.5 94 -55.5 165s38.333 152.167 115 243.5
s167.167 168.166 271.5 230.499s196.166 93.5 275.499 93.5c35.333 0 64.666 -12.667 87.999 -38s35 -56.333 35 -93c0 -60 -36.167 -135.5 -108.5 -226.5s-152.833 -160.5 -241.5 -208.5l-50 70c53.333 27.333 100.166 70 140.499 128s60.5 108.167 60.5 150.5
s-22.333 63.5 -67 63.5c-64 0 -137.333 -40 -220 -120s-124 -154.667 -124 -224c0 -48 12.167 -85.667 36.5 -113s86.333 -61.166 186 -101.499s170.834 -75.666 213.501 -105.999s70.667 -68.833 84 -115.5l145 2v-84c-16.667 2.66699 -35.834 4 -57.501 4
s-46.167 -1.33301 -73.5 -4c0 -105.333 -50.5 -212 -151.5 -320s-222.833 -195.667 -365.5 -263s-275.334 -101 -398.001 -101c-64 0 -116.167 16.333 -156.5 49s-60.5 75.667 -60.5 129zM184.004 -164.001c0 -65.333 53.3301 -98 159.997 -98
c58.667 0 134.834 21.5 228.501 64.5s176.334 103 248.001 180s107.5 155.833 107.5 236.5c0 9.33301 -2 23.666 -6 42.999c-187.333 -18 -357.166 -70.667 -509.499 -158s-228.5 -176.666 -228.5 -267.999z" />
    <glyph glyph-name="afii10055" unicode="&#x406;" horiz-adv-x="1241" 
d="M82 213c0 98 63.5 188.001 190.5 270.001s253.833 123 380.5 123l9 -67c-101.333 -20.667 -188.5 -58.334 -261.5 -113.001s-109.5 -114 -109.5 -178c0 -40.667 11.833 -74 35.5 -100s54.167 -39 91.5 -39c69.333 0 129.333 32.333 180 97s102.167 179.667 154.5 345
s100.166 286.166 143.499 362.499s97.666 140.5 162.999 192.5c-19.333 1.33301 -40.666 2 -63.999 2c-117.333 0 -231.666 -18.5 -342.999 -55.5s-167 -86.167 -167 -147.5c0 -38 17.333 -74 52 -108l-45 -56c-91.333 64 -137.333 138.667 -138 224
c0 56 24.333 104.333 73 145s114 72 196 94c157.333 42 333.333 63.333 528 64c42.667 0 68 -2 76 -6c23.333 -6.66699 35 -19 35 -37c0 -5.33301 -8.33301 -17.666 -25 -36.999c-62.667 -80.667 -106.667 -140.834 -132 -180.501s-55.333 -105.834 -90 -198.501
s-66 -181.667 -94 -267s-42 -128.666 -42 -129.999c-56 -125.333 -133.167 -224.333 -231.5 -297s-201.5 -109 -309.5 -109c-76.667 0 -138.5 18.833 -185.5 56.5s-70.5 87.834 -70.5 150.501z" />
    <glyph glyph-name="afii10056" unicode="&#x407;" horiz-adv-x="1241" 
d="M82 213c0 98 63.5 188.001 190.5 270.001s253.833 123 380.5 123l9 -67c-101.333 -20.667 -188.5 -58.334 -261.5 -113.001s-109.5 -114 -109.5 -178c0 -40.667 11.833 -74 35.5 -100s54.167 -39 91.5 -39c69.333 0 129.333 32.333 180 97s102.167 179.667 154.5 345
s100.166 286.166 143.499 362.499s97.666 140.5 162.999 192.5c-19.333 1.33301 -40.666 2 -63.999 2c-117.333 0 -231.666 -18.5 -342.999 -55.5s-167 -86.167 -167 -147.5c0 -38 17.333 -74 52 -108l-45 -56c-91.333 64 -137.333 138.667 -138 224
c0 56 24.333 104.333 73 145s114 72 196 94c157.333 42 333.333 63.333 528 64c42.667 0 68 -2 76 -6c23.333 -6.66699 35 -19 35 -37c0 -5.33301 -8.33301 -17.666 -25 -36.999c-62.667 -80.667 -106.667 -140.834 -132 -180.501s-55.333 -105.834 -90 -198.501
s-66 -181.667 -94 -267s-42 -128.666 -42 -129.999c-56 -125.333 -133.167 -224.333 -231.5 -297s-201.5 -109 -309.5 -109c-76.667 0 -138.5 18.833 -185.5 56.5s-70.5 87.834 -70.5 150.501zM758 1471.5c0 22.333 7.83301 41.334 23.5 57.001s34.667 23.5 57 23.5
s41.5 -8.16699 57.5 -24.5s24 -35.333 24 -57s-8 -40.334 -24 -56.001s-35.5 -23.5 -58.5 -23.5s-42 7.83301 -57 23.5s-22.5 34.667 -22.5 57zM1018 1471.5c0 22.333 7.83301 41.334 23.5 57.001s34.334 23.5 56.001 23.5s40.834 -8.16699 57.501 -24.5s25 -35.333 25 -57
s-7.83301 -40.334 -23.5 -56.001s-34.834 -23.5 -57.501 -23.5s-41.834 7.83301 -57.501 23.5s-23.5 34.667 -23.5 57z" />
    <glyph glyph-name="afii10057" unicode="&#x408;" horiz-adv-x="1478" 
d="M-164 -457c0 87.333 40.998 173.997 122.998 259.997s190.167 158.5 324.5 217.5s276.166 95.833 425.499 110.5c2.66699 5.33301 23.667 70.333 63 195c62.667 204.667 133.334 367.334 212.001 488.001s173.334 220.667 284.001 300c-23.333 2.66699 -54 4 -92 4
c-236 0 -429.833 -43 -581.5 -129s-227.5 -183 -227.5 -291c0 -69.333 20.833 -133.666 62.5 -192.999s100.5 -120.333 176.5 -183l-49 -68c-222.667 120 -334 271.667 -334 455c0 106.667 45.5 203.5 136.5 290.5s210.5 154.5 358.5 202.5s307.333 72 478 72
c83.333 0 151.333 -5.16699 204 -15.5s79 -31.166 79 -62.499c0 -27.333 -22 -54 -66 -80c-108 -65.333 -204 -171.333 -288 -318s-170.333 -363.667 -259 -651c80.667 0 141.667 -3.33301 183 -10l-13 -82c-38 6.66699 -72 10.167 -102 10.5s-63.333 -3.16699 -100 -10.5
c-42 -116 -86.667 -210.167 -134 -282.5s-107.833 -139.833 -181.5 -202.5s-155.667 -114.5 -246 -155.5s-167.166 -61.5 -230.499 -61.5s-113.5 17.333 -150.5 52s-55.5 80.667 -55.5 138zM44.998 -393.003c0 -35.333 10.167 -63.334 30.5 -84.001s49.166 -31 86.499 -31
c62.667 0 128.5 21.833 197.5 65.5s133.833 107.834 194.5 192.501s103.334 181.667 128.001 291c-177.333 -18 -327.833 -69 -451.5 -153s-185.5 -177.667 -185.5 -281z" />
    <glyph glyph-name="afii10058" unicode="&#x409;" horiz-adv-x="1814" 
d="M-31 51c132.667 98 234.83 198.334 306.497 301.001s149.834 268 234.501 496l70 186c48 130 89.667 222.667 125 278s74.666 83 117.999 83c72.667 0 109 -43.667 109 -131c0 -46.667 -12.333 -158.334 -37 -335.001s-37 -326.834 -37 -450.501s20 -234.834 60 -333.501
c84.667 106.667 187 191.834 307 255.501s241.333 95.5 364 95.5c64 0 115.167 -14 153.5 -42s57.5 -66.667 57.5 -116c0 -117.333 -71.333 -226.5 -214 -327.5s-298.667 -151.5 -468 -151.5c-113.333 0 -201.333 20.333 -264 61
c-1.33301 -1.33301 -7.33301 -11.666 -18 -30.999c-27.333 -54.667 -50.666 -92.667 -69.999 -114l-68 28c9.33301 38 37.333 96 84 174l-16 27c-48 79.333 -72 167.333 -72 264c2.66699 296 23.334 553.333 62.001 772c13.333 76.667 20 117 20 121
c0 13.333 -5.33301 20.333 -16 21c-22 0 -57 -68.333 -105 -205l-59 -170c-87.333 -247.333 -175.666 -439.833 -264.999 -577.5s-192 -234.5 -308 -290.5zM962.996 72.001c54.667 -61.333 132.167 -92 232.5 -92s192.666 30.667 276.999 92s126.5 129.333 126.5 204
c0 30 -11.5 53.667 -34.5 71s-54.5 26 -94.5 26c-79.333 0 -166.666 -28.667 -261.999 -86s-177 -129 -245 -215z" />
    <glyph glyph-name="afii10059" unicode="&#x40a;" horiz-adv-x="2029" 
d="M-2 997c0 56 24.167 104.498 72.5 145.498s113.5 72.5 195.5 94.5c157.333 42 333.666 63 528.999 63c44 0 73.333 -3.33301 88 -10s22 -15.167 22 -25.5s-8 -24.833 -24 -43.5c-62.667 -80.667 -108.5 -143.167 -137.5 -187.5s-71.5 -145.166 -127.5 -302.499
c95.333 27.333 225.333 54.666 390 81.999c53.333 176 116.666 331.667 189.999 467l133 -76c-1.33301 -5.33301 -4.66602 -12.666 -9.99902 -21.999c-64 -130 -111 -245.167 -141 -345.5s-45 -201.333 -45 -303s9.33301 -178.5 28 -230.5
c84.667 106.667 187.167 191.667 307.5 255s241.833 95 364.5 95c64 0 115.167 -14 153.5 -42s57.5 -66.333 57.5 -115c0 -117.333 -71.333 -226.666 -214 -327.999s-298.667 -152 -468 -152c-113.333 0 -201.333 20.667 -264 62c-1.33301 -1.33301 -7 -12.333 -17 -33
c-28.667 -53.333 -52.334 -91 -71.001 -113l-68 29c9.33301 38 37.333 96 84 174c-57.333 86 -86 197.333 -86 334c0 58.667 12.333 138.667 37 240c-75.333 -8 -209.333 -42.333 -402 -103c-62.667 -190 -136.5 -331.333 -221.5 -424s-191.833 -139 -320.5 -139l28 98
c69.333 0 129.333 32.5 180 97.5s102.334 180 155.001 345s100.5 285.833 143.5 362.5s97.167 141 162.5 193c-19.333 1.33301 -40.333 2 -63 2c-117.333 0 -231.666 -18.5 -342.999 -55.5s-167 -86.167 -167 -147.5c0 -38 17 -74.333 51 -109l-45 -55
c-91.333 64 -137 138.333 -137 223zM1206 196.998c54.667 -61.333 132.167 -92.1689 232.5 -92.502s192.833 30.334 277.5 92.001s127 129.834 127 204.501c0 30 -11.5 53.667 -34.5 71s-54.5 26 -94.5 26c-79.333 0 -166.833 -28.667 -262.5 -86s-177.5 -129 -245.5 -215z
" />
    <glyph glyph-name="afii10060" unicode="&#x40b;" horiz-adv-x="1351" 
d="M-4 887c0 113.333 57.998 208.833 173.998 286.5s271 116.5 465 116.5l485 -14c24.667 0 55.834 5.83301 93.501 17.5s62.667 17.5 75 17.5s22.166 -3.83301 29.499 -11.5s11 -16.834 11 -27.501c0 -27.333 -13.333 -51.333 -40 -72s-60.334 -35.667 -101.001 -45
c-76.667 -16.667 -147 -25 -211 -25h-92c-135.333 -308.667 -238.666 -584.334 -309.999 -827.001c118.667 169.333 215.334 287.5 290.001 354.5s142 100.5 202 100.5c39.333 0 71.333 -10.667 96 -32s37 -48.666 37 -81.999s-7.16699 -68.5 -21.5 -105.5
s-52.166 -119.5 -113.499 -247.5c-19.333 -38 -29 -68 -29 -90s6.16699 -40.167 18.5 -54.5s27 -21.5 44 -21.5s43.5 13.667 79.5 41l18 14l47 -39c-64 -106.667 -143 -159.667 -237 -159c-38 0 -69.5 10.167 -94.5 30.5s-37.5 45.5 -37.5 75.5s26.667 95.833 80 197.5
s80 176.5 80 224.5c0 20.667 -8.5 38.5 -25.5 53.5s-36.5 22.5 -58.5 22.5c-53.333 0 -126.333 -62.167 -219 -186.5s-167 -257.5 -223 -399.5l-121 43c27.333 140.667 78.166 320.167 152.499 538.5s143.833 400.5 208.5 546.5l-228 15
c-135.333 8 -237.333 -7.16699 -306 -45.5s-103 -88.166 -103 -149.499c0 -31.333 12.833 -57.5 38.5 -78.5s51.5 -31.5 77.5 -31.5s45.5 1 58.5 3s29.5 6.66699 49.5 14s34 12.333 42 15c28.667 9.33301 63.334 24.333 104.001 45l43 -53
c-104 -104 -217.333 -155.667 -340 -155c-54.667 0 -99.667 17 -135 51s-53 77 -53 129z" />
    <glyph glyph-name="afii10061" unicode="&#x40c;" horiz-adv-x="1673" 
d="M0 44c0 63.333 28.666 129.164 85.999 197.497s136 125.833 236 172.5l47 -74c-122.667 -87.333 -184.334 -169.333 -185.001 -246c0 -36.667 12.333 -66.334 37 -89.001s56.667 -34 96 -34c92.667 0 172.834 39.333 240.501 118s128.167 216.334 181.5 413.001
c66.667 247.333 135 409 205 485c31.333 35.333 77 74.333 137 117c-94 -2.66699 -190.167 -18.667 -288.5 -48s-184.333 -73 -258 -131s-110.5 -122.667 -110.5 -194c0 -91.333 41.667 -164.333 125 -219l-41 -63c-76.667 36.667 -136.834 84.334 -180.501 143.001
s-65.5 119.334 -65.5 182.001c0 86 47.167 167.333 141.5 244s210 136.167 347 178.5s271.833 63.5 404.5 63.5c82 0 123 -18 123 -54c0 -23.333 -24 -52.666 -72 -87.999c-87.333 -65.333 -154.5 -150.5 -201.5 -255.5s-85.5 -227.833 -115.5 -368.5
c155.333 57.333 304.333 152.5 447 285.5s266.667 282.833 372 449.5l129 -64c-87.333 -142 -190.666 -268.167 -309.999 -378.5s-278 -220.166 -476 -329.499c38 -198 85 -356.833 141 -476.5s129 -186.167 219 -199.5v-94c-10.667 -1.33301 -25 -2 -43 -2
c-91.333 0 -179.666 63.5 -264.999 190.5s-162.333 314.5 -231 562.5c-58.667 -184 -148 -329.667 -268 -437s-245 -161 -375 -161c-66.667 0 -121.5 18.167 -164.5 54.5s-64.5 86.166 -64.5 149.499zM1325 1372l270 160l140 -82l-351 -115z" />
    <glyph glyph-name="afii10062" unicode="&#x40e;" horiz-adv-x="1433" 
d="M-123 -426c0 122.667 82.667 227.33 248 313.997s362.666 130 591.999 130l61 -2c8 28.667 26.833 83.334 56.5 164.001s50.5 134 62.5 160c-142 -134 -252 -214.667 -330 -242c-42 -15.333 -85 -22.666 -129 -21.999c-72.667 0 -128.667 23.833 -168 71.5
s-59 114.5 -59 200.5c0 122.667 56.667 286.834 170 492.501s242.333 366.5 387 482.5l82 -76c-303.333 -326 -455 -598.333 -455 -817c0 -126.667 49.833 -190 149.5 -190s196.667 54.5 291 163.5s191.833 278.167 292.5 507.5c40.667 94 72 156.167 94 186.5
s43.333 45.5 64 45.5s36.834 -6.16699 48.501 -18.5s17.5 -28.833 17.5 -49.5c0 -87.333 -63 -217 -189 -389c-87.333 -180 -175.333 -404 -264 -672c64 -4 132.333 -19.667 205 -47l-21 -69l-217 30c-80.667 -196.667 -178 -343.667 -292 -441s-250 -146 -408 -146
c-82 0 -150.667 22.167 -206 66.5s-83 99.833 -83 166.5zM94 -389.004c0 -38 15.333 -69 46 -93s70 -36 118 -36c110.667 0 208.667 44.667 294 134s148.333 194 189 314c-182.667 0 -336.167 -31 -460.5 -93s-186.5 -137.333 -186.5 -226zM922 1458l65 55
c70.667 -69.333 128.667 -104 174 -104c69.333 0 128.666 32.667 177.999 98l62 -32c-27.333 -42 -62.5 -79.5 -105.5 -112.5s-85.667 -49.5 -128 -49.5s-86.666 16 -132.999 48s-83.833 64.333 -112.5 97z" />
    <glyph glyph-name="afii10145" unicode="&#x40f;" horiz-adv-x="1030" 
d="M-10 336c0 138 57.668 295.335 173.001 472.002s271.333 340 468 490l82 -75c-161.333 -106.667 -295.5 -249.834 -402.5 -429.501s-160.5 -328.834 -160.5 -447.501c0 -60 15.667 -110.5 47 -151.5s74.333 -61.5 129 -61.5h30c82 0 172.5 39.667 271.5 119
s173.833 181 224.5 305c26 62.667 39 122.667 39 180s-19 92.333 -57 105l73 170c78 -27.333 117 -104.5 117 -231.5s-37.167 -251.667 -111.5 -374s-168.833 -221 -283.5 -296s-228 -112.5 -340 -112.5c-4 -18 -19 -106 -45 -264l-68 -17c0 74 13 169.667 39 287
c-70.667 8 -125.834 44.833 -165.501 110.5s-59.5 139.5 -59.5 221.5z" />
    <glyph glyph-name="afii10017" unicode="&#x410;" horiz-adv-x="1914" 
d="M82 61c0 124 94.498 237.334 283.498 340.001s433.833 171.667 734.5 207c35.333 54.667 101.5 139 198.5 253s192.5 213.333 286.5 298c40.667 95.333 73 161.833 97 199.5s47.667 56.5 71 56.5s42.5 -8.83301 57.5 -26.5s22.5 -40.5 22.5 -68.5s-15.333 -69 -46 -123
s-62.5 -137.333 -95.5 -250s-55.5 -218.667 -67.5 -318c70.667 -0.666992 130.667 -7 180 -19l-10 -123c-31.333 2.66699 -65.166 4.16699 -101.499 4.5s-66.5 -0.5 -90.5 -2.5c-19.333 -150 -31.666 -313 -36.999 -489h-144c-8 35.333 -12 82.333 -12 141
s1.66699 109.5 5 152.5s7.83301 85.667 13.5 128s8.5 67.166 8.5 74.499c-19.333 1.33301 -64.5 2 -135.5 2s-120.167 -1.33301 -147.5 -4c-158.667 -212.667 -304.834 -374.167 -438.501 -484.5s-267.5 -165.5 -401.5 -165.5c-65.333 0 -120.166 19.833 -164.499 59.5
s-66.5 92.167 -66.5 157.5zM296.998 129.001c0 -35.333 12 -63.334 36 -84.001s55.667 -31 95 -31c106.667 0 217.334 56 332.001 168c113.333 108 198.666 210.333 255.999 307c-229.333 -13.333 -406.5 -56.166 -531.5 -128.499s-187.5 -149.5 -187.5 -231.5zM1251 621
c23.333 1.33301 51.667 2.33496 85 3.00195s61 1.66699 83 3s35.667 2 41 2c9.33301 46.667 22 105 38 175s25.333 111.333 28 124c-65.333 -62.667 -111 -108.834 -137 -138.501s-72 -85.834 -138 -168.501z" />
    <glyph glyph-name="afii10018" unicode="&#x411;" horiz-adv-x="1665" 
d="M172 889c0 122.667 54.3301 221.5 162.997 296.5s266 112.5 472 112.5c20.667 0 86.5 -5.66699 197.5 -17s192.833 -17 245.5 -17s114.5 7.5 185.5 22.5s114.167 22.5 129.5 22.5c28.667 0 43 -11.667 43 -35c0 -38 -29.333 -69.333 -88 -94
c-83.333 -36.667 -190.666 -57.334 -321.999 -62.001c-27.333 -18 -48.333 -34.333 -63 -49c-42 -36.667 -87.333 -113 -136 -229c106.667 60 201.334 90 284.001 90s150 -18.167 202 -54.5s78 -95.5 78 -177.5c0 -114.667 -42.333 -228 -127 -340
s-193.667 -202.667 -327 -272s-266.666 -104 -399.999 -104c-64 0 -128.333 9.33301 -193 28c-56 -44 -106.5 -65.833 -151.5 -65.5s-79.5 13.5 -103.5 39.5s-36 58.667 -36 98c0 82 55 188.167 165 318.5s248.333 243.833 415 340.5
c92.667 200.667 181.334 326.334 266.001 377.001l-328 41c-140.667 0 -246.834 -18.333 -318.501 -55s-107.5 -86.667 -107.5 -150c0 -27.333 12 -50.833 36 -70.5s47.667 -29.5 71 -29.5s41.833 1.33301 55.5 4s25.167 5 34.5 7s23.333 6.5 42 13.5l38 14.5
c28.667 13.333 58.667 26.333 90 39l39 -53c-112 -102.667 -228.667 -154 -350 -154c-56 0 -103.5 14.667 -142.5 44s-58.5 69.333 -58.5 120zM386.997 163c0 -34.667 10.667 -52.001 32 -52.001s46.333 15.667 75 47c82 91.333 163.667 228.333 245 411
c5.33301 12 8.33301 19 9 21c-84.667 -57.333 -166 -134.166 -244 -230.499s-117 -161.833 -117 -196.5zM591.997 81.999c42 -15.333 84.335 -22.999 127.002 -22.999c94 0 189.833 28.333 287.5 85s177.5 127.667 239.5 213s93 163.833 93 235.5s-12.833 117.5 -38.5 137.5
s-74.334 30 -146.001 30s-147.834 -21.333 -228.501 -64c-16.667 -32.667 -40.667 -84.5 -72 -155.5l-78 -171.5c-56 -118.667 -117.333 -214.334 -184 -287.001z" />
    <glyph glyph-name="afii10019" unicode="&#x412;" horiz-adv-x="1406" 
d="M82 194.5c0 87.667 42.3359 199.338 127.003 335.005s202 275.167 352 418.5c0 1.33301 3.83301 14 11.5 38s14.834 48.333 21.501 73c23.333 74 41 121 53 141l101 -16c0 -26 -5.66699 -56.667 -17 -92c76.667 57.333 157.667 107.5 243 150.5
s148.166 64.5 188.499 64.5s72.666 -12.667 96.999 -38s36.5 -62.333 36.5 -111s-22.833 -104.334 -68.5 -167.001s-102.5 -119.334 -170.5 -170.001c-124 -92.667 -230 -159.334 -318 -200.001c142 -22 245.833 -51.167 311.5 -87.5s113.5 -90.5 143.5 -162.5h131l-2 -80
l-113 -4c-16.667 -95.333 -43 -172.5 -79 -231.5s-96.333 -122.667 -181 -191s-186 -125.333 -304 -171s-216.667 -68.5 -296 -68.5s-139.333 16 -180 48s-61 74 -61 126c0 79.333 46.667 159 140 239s206.5 146.833 339.5 200.5s265.167 90.167 396.5 109.5
c-20.667 34 -51.834 62 -93.501 84s-112.167 46.667 -211.5 74c-54.667 15.333 -82 40 -82 74c0 20.667 8.5 39.5 25.5 56.5s45.667 37.333 86 61s78.666 48.167 114.999 73.5s76.666 55.666 120.999 90.999s81.5 72.166 111.5 110.499s45 71.833 45 100.5
c0 48 -24 72 -72 72c-36.667 0 -86.834 -17.5 -150.501 -52.5s-126.167 -79.833 -187.5 -134.5l-88 -278c-61.333 -195.333 -129.166 -347 -203.499 -455s-145.166 -162 -212.499 -162c-70.667 0 -106 43.833 -106 131.5zM229.003 297.004
c0 -28.667 10.333 -42.998 31 -42.998c36.667 0 92 88 166 264c31.333 78 54.833 143 70.5 195s23.5 80.667 23.5 86c-74 -80.667 -141 -172.834 -201 -276.501s-90 -178.834 -90 -225.501zM309.003 -132.994c0 -32.667 12.999 -59.001 38.999 -79.001s61.667 -30 107 -30
c110.667 0 227.334 42.333 350.001 127c66.667 45.333 119.834 96 159.501 152s59.5 108.667 59.5 158c0 23.333 -3.33301 46.333 -10 69c-204.667 -24.667 -373.334 -78.167 -506.001 -160.5s-199 -161.166 -199 -236.499z" />
    <glyph glyph-name="afii10020" unicode="&#x413;" horiz-adv-x="1249" 
d="M82 889c0 108 58.3379 202.168 175.005 282.501s274.667 120.5 474 120.5c16.667 0 75.5 -2.66699 176.5 -8s180.833 -8 239.5 -8s112.667 9 162 27c19.333 5.33301 30.666 8 33.999 8c19.333 0 29 -12.333 29 -37c0 -35.333 -31 -67.333 -93 -96s-133.333 -43 -214 -43
c-90 -87.333 -168.833 -240 -236.5 -458s-148.334 -384 -242.001 -498s-204.5 -171 -332.5 -171c-50.667 0 -98.334 16.333 -143.001 49l47 78c16.667 -8 35 -15.333 55 -22l29 -4c6.66699 -1.33301 16.667 -2.33301 30 -3c68 0 129.167 32.833 183.5 98.5
s111.166 189.667 170.499 372s105.666 303.166 138.999 362.499s91.666 125.333 174.999 198l-293 6c-299.333 0 -448.666 -65.667 -447.999 -197c0 -34 12.5 -61.667 37.5 -83s62.833 -32 113.5 -32s117 23.333 199 70l31 -53c-42 -45.333 -89.833 -81 -143.5 -107
s-107 -39 -160 -39s-98.667 17.833 -137 53.5s-57.5 80.167 -57.5 133.5z" />
    <glyph glyph-name="afii10021" unicode="&#x414;" horiz-adv-x="1523" 
d="M82 977.5c0 99 46.5 178.668 139.5 239.001s212.5 90.5 358.5 90.5c237.333 0 440.333 -70.333 609 -211s253 -305.334 253 -494.001s-57.333 -337.5 -172 -446.5s-260 -162.167 -436 -159.5c-94 1.33301 -169.333 2 -226 2h-96c-39.333 0 -59 15 -59 45
c0 10.667 11.333 38.667 34 84c76.667 152.667 135 309 175 469c-140.667 0 -272.5 38.833 -395.5 116.5s-184.5 166 -184.5 265zM281 996.501c0 -74.333 35.8291 -140.504 107.496 -198.504s167.5 -94.667 287.5 -110c42 178.667 66.667 294 74 346l122 -12
c0 -84.667 -17.667 -196.667 -53 -336c10.667 0 74.334 7 191.001 21l10 -68c-27.333 -9.33301 -103 -23.666 -227 -42.999c-53.333 -172 -108.666 -320.667 -165.999 -446c136.667 -10.667 250.334 -16.167 341.001 -16.5s162.667 33.334 216 101.001
s80 158.834 80 273.501c0 198 -67.667 366.667 -203 506s-298.666 209 -489.999 209c-90 0 -160.833 -19.167 -212.5 -57.5s-77.5 -94.666 -77.5 -168.999z" />
    <glyph glyph-name="afii10022" unicode="&#x415;" horiz-adv-x="1411" 
d="M82 179c0 88 35.8291 172.002 107.496 252.002s171.5 146 299.5 198c-64 53.333 -96 108.666 -96 165.999c0 78 41 157.5 123 238.5s182 146.833 300 197.5s229 76 333 76c54.667 0 98.334 -12 131.001 -36s49 -55.667 49 -95c0 -68 -32.333 -128.833 -97 -182.5
s-139 -92.667 -223 -117s-165 -36.5 -243 -36.5c-20.667 0 -35.667 0.666992 -45 2v69c2.66699 0 42.167 6.5 118.5 19.5s140.833 36 193.5 69s79 69.833 79 110.5c0 49.333 -37 74 -111 74c-100 0 -194.167 -34.167 -282.5 -102.5s-132.5 -140 -132.5 -215
s46.333 -123.5 139 -145.5c20.667 -5.33301 34.334 -10.833 41.001 -16.5s10 -15.334 10 -29.001s-6.5 -24.834 -19.5 -33.501s-42.5 -21.334 -88.5 -38.001c-251.333 -86 -377 -219.667 -377 -401c0 -36.667 6.66699 -68 20 -94
c83.333 106.667 191.333 193.334 324 260.001s260.334 100 383.001 100c64 0 115.167 -14 153.5 -42s57.5 -66.667 57.5 -116c0 -76.667 -35.5 -153.167 -106.5 -229.5s-162.833 -138.666 -275.5 -186.999s-224.667 -72.5 -336 -72.5s-199 20.333 -263 61
c-1.33301 -1.33301 -7.66602 -11.333 -18.999 -30c-27.333 -54.667 -50.333 -93 -69 -115l-68 29c9.33301 38 37.333 96 84 174c-62.667 70.667 -94 150 -94 238zM355.996 35.002c54.667 -61.333 132.167 -92 232.5 -92s198.666 32.333 294.999 97s144.5 134.667 144.5 210
c0 30 -11.667 53.5 -35 70.5s-54.666 25.5 -93.999 25.5c-80.667 0 -174.5 -30.667 -281.5 -92s-194.167 -134.333 -261.5 -219z" />
    <glyph glyph-name="afii10024" unicode="&#x416;" horiz-adv-x="1957" 
d="M-14 66c0 117.333 65.8281 222.665 197.495 315.998s293.834 150.333 486.501 171c32.667 90 49 186.333 49 289c0 173.333 -65 260 -195 260c-105.333 0 -192 -33.167 -260 -99.5s-116.333 -149.833 -145 -250.5l-92 -7c13.333 110.667 70 217.334 170 320.001
c46.667 49.333 104.334 89.333 173.001 120s140.167 46 214.5 46s139.166 -28.333 194.499 -85s83 -135.667 83 -237c0 -38 -4.66699 -78.333 -14 -121c102.667 191.333 180.167 329.666 232.5 414.999s91.5 128 117.5 128c13.333 0 27 -6.5 41 -19.5s21 -32 21 -57
s-14.333 -59.5 -43 -103.5c-68 -106.667 -118.833 -214.167 -152.5 -322.5s-64.834 -243.833 -93.501 -406.5c207.333 554 483 831 827 831c113.333 0 170 -45 170 -135c0 -61.333 -18.333 -115.5 -55 -162.5s-85.334 -82.833 -146.001 -107.5
c-114.667 -49.333 -232 -76.666 -352 -81.999l-4 61c118.667 12 210.834 37.667 276.501 77s99.834 89 102.501 149c2.66699 40.667 -26.666 61 -87.999 61c-90 0 -176.667 -36.5 -260 -109.5s-148.166 -159.333 -194.499 -259s-71.333 -190.834 -75 -273.501
s22.166 -153 77.499 -211s128.833 -85.667 220.5 -83s169.167 37.167 232.5 103.5s110 149.166 140 248.499l90 7c-13.333 -117.333 -73.666 -227.666 -180.999 -330.999s-234.666 -155 -381.999 -155c-86 0 -160.333 28.333 -223 85s-97 142.334 -103 257.001
c-58.667 -104 -98 -190.667 -118 -260c-18 -100 -53.667 -149.667 -107 -149c-16.667 0 -31 7.16699 -43 21.5s-18 30.666 -18 48.999s6.5 45.5 19.5 81.5s26.167 65 39.5 87c36.667 214.667 75.667 405.334 117 572.001c-100 -237.333 -183.333 -401.333 -250 -492
c-28.667 -39.333 -65.167 -82.666 -109.5 -129.999s-89.166 -84 -134.499 -110c-106.667 -61.333 -222.667 -92 -348 -92c-70.667 0 -106 31.667 -106 95zM173.995 155.999c0 -44 21.999 -65.332 65.999 -63.999c83.333 4 165.833 48.667 247.5 134
s134.167 165.666 157.5 240.999c-121.333 -22 -230.166 -62.667 -326.499 -122s-144.5 -122.333 -144.5 -189z" />
    <glyph glyph-name="afii10025" unicode="&#x417;" horiz-adv-x="1343" 
d="M-127 -190c0 79.333 46.834 158.834 140.501 238.501s207 146.5 340 200.5s265.167 90.333 396.5 109c-20.667 34 -51.834 62.333 -93.501 85s-95 42.5 -160 59.5s-103.667 31 -116 42s-18.5 26.5 -18.5 46.5s8.66699 38.5 26 55.5s49.833 39.5 97.5 67.5
s97.5 60 149.5 96s106 82.333 162 139s84 103.667 84 141c0 62.667 -26.667 94 -80 94c-57.333 0 -125.333 -17.833 -204 -53.5s-149.334 -80.167 -212.001 -133.5l-33 68c226.667 170.667 401.5 256 524.5 256s184.5 -46.333 184.5 -139
c0 -57.333 -22.833 -117.5 -68.5 -180.5s-102.167 -119.833 -169.5 -170.5c-125.333 -92.667 -231.666 -159.334 -318.999 -200.001c142 -22 245.667 -51.167 311 -87.5s113 -90.5 143 -162.5h129v-80l-112 -4c-16.667 -95.333 -43 -172.5 -79 -231.5
s-96.333 -122.5 -181 -190.5s-186.167 -125 -304.5 -171s-217 -69 -296 -69s-139 16.167 -180 48.5s-61.5 74.5 -61.5 126.5zM74.001 -122.999c0 -32.667 12.998 -58.834 38.998 -78.501s61.333 -29.5 106 -29.5c110.667 0 227.334 42.333 350.001 127
c66.667 45.333 119.834 95.833 159.501 151.5s59.5 108.167 59.5 157.5c0 22 -3.33301 45 -10 69c-204.667 -24.667 -373.167 -78.167 -505.5 -160.5s-198.5 -161.166 -198.5 -236.499z" />
    <glyph glyph-name="afii10026" unicode="&#x418;" horiz-adv-x="1476" 
d="M82 250c0 170.667 83.333 373.333 250 608s335.334 402 506.001 502l55 -78c-155.333 -116 -298 -268.833 -428 -458.5s-195 -356.167 -195 -499.5c0 -53.333 12.667 -94.666 38 -123.999s60.833 -44 106.5 -44s109.5 26.5 191.5 79.5s143.667 102.833 185 149.5
c6.66699 132.667 38.334 267.167 95.001 403.5s124.167 247.833 202.5 334.5s151.833 130 220.5 130c57.333 0 86 -34.833 86 -104.5s-51.333 -186 -154 -349s-204.334 -292.167 -305.001 -387.5c-2.66699 -22 -4 -40 -4 -54c0 -60 12 -122.333 36 -187s55.667 -97 95 -97
c34.667 0 71.667 28.667 111 86l65 -54c-16.667 -46.667 -44.667 -89.334 -84 -128.001s-82.333 -58 -129 -58c-62.667 0 -113.834 30.667 -153.501 92s-65.5 150.333 -77.5 267c-62.667 -68 -141.167 -132.5 -235.5 -193.5s-177 -91.5 -248 -91.5s-127 23.833 -168 71.5
s-61.5 109.167 -61.5 184.5zM950 564.999c84.667 101.333 152.665 194.667 203.998 280s77 147 77 185c0 20.667 -9 31 -27 31c-45.333 0 -95.166 -53 -149.499 -159s-89.166 -218.333 -104.499 -337z" />
    <glyph glyph-name="afii10027" unicode="&#x419;" horiz-adv-x="1476" 
d="M82 250c0 170.667 83.333 373.333 250 608s335.334 402 506.001 502l55 -78c-155.333 -116 -298 -268.833 -428 -458.5s-195 -356.167 -195 -499.5c0 -53.333 12.667 -94.666 38 -123.999s60.833 -44 106.5 -44s109.5 26.5 191.5 79.5s143.667 102.833 185 149.5
c6.66699 132.667 38.334 267.167 95.001 403.5s124.167 247.833 202.5 334.5s151.833 130 220.5 130c57.333 0 86 -34.833 86 -104.5s-51.333 -186 -154 -349s-204.334 -292.167 -305.001 -387.5c-2.66699 -22 -4 -40 -4 -54c0 -60 12 -122.333 36 -187s55.667 -97 95 -97
c34.667 0 71.667 28.667 111 86l65 -54c-16.667 -46.667 -44.667 -89.334 -84 -128.001s-82.333 -58 -129 -58c-62.667 0 -113.834 30.667 -153.501 92s-65.5 150.333 -77.5 267c-62.667 -68 -141.167 -132.5 -235.5 -193.5s-177 -91.5 -248 -91.5s-127 23.833 -168 71.5
s-61.5 109.167 -61.5 184.5zM948 1487l66 55c70.667 -69.333 128.667 -104 174 -104c69.333 0 128.666 32.667 177.999 98l61 -33c-27.333 -42 -62.5 -79.5 -105.5 -112.5s-85.667 -49.5 -128 -49.5s-86.666 16.167 -132.999 48.5s-83.833 64.833 -112.5 97.5zM950 564.999
c84.667 101.333 152.665 194.667 203.998 280s77 147 77 185c0 20.667 -9 31 -27 31c-45.333 0 -95.166 -53 -149.499 -159s-89.166 -218.333 -104.499 -337z" />
    <glyph glyph-name="afii10028" unicode="&#x41a;" horiz-adv-x="1714" 
d="M0 44c0 63.333 28.666 129.164 85.999 197.497s136 125.833 236 172.5l47 -74c-122.667 -87.333 -184.334 -169.333 -185.001 -246c0 -36.667 12.333 -66.334 37 -89.001s56.667 -34 96 -34c92.667 0 172.834 39.333 240.501 118s128.167 216.334 181.5 413.001
c66.667 247.333 135 409 205 485c31.333 35.333 77 74.333 137 117c-94 -2.66699 -190.167 -18.667 -288.5 -48s-184.333 -73 -258 -131s-110.5 -122.667 -110.5 -194c0 -91.333 41.667 -164.333 125 -219l-41 -63c-76.667 36.667 -136.834 84.334 -180.501 143.001
s-65.5 119.334 -65.5 182.001c0 86 47.167 167.333 141.5 244s210 136.167 347 178.5s271.833 63.5 404.5 63.5c82 0 123 -18 123 -54c0 -23.333 -24 -52.666 -72 -87.999c-87.333 -65.333 -154.5 -150.5 -201.5 -255.5s-85.5 -227.833 -115.5 -368.5
c155.333 57.333 304.333 152.5 447 285.5s266.667 282.833 372 449.5l129 -64c-87.333 -142 -190.666 -268.167 -309.999 -378.5s-278 -220.166 -476 -329.499c38 -198 85 -356.833 141 -476.5s129 -186.167 219 -199.5v-94c-10.667 -1.33301 -25 -2 -43 -2
c-91.333 0 -179.666 63.5 -264.999 190.5s-162.333 314.5 -231 562.5c-58.667 -184 -148 -329.667 -268 -437s-245 -161 -375 -161c-66.667 0 -121.5 18.167 -164.5 54.5s-64.5 86.166 -64.5 149.499z" />
    <glyph glyph-name="afii10029" unicode="&#x41b;" horiz-adv-x="1454" 
d="M100 -33c132.667 98 234.832 198.333 306.499 301s149.834 268 234.501 496l70 186c48 130 89.667 222.667 125 278s74.666 83 117.999 83c72.667 0 109 -43.667 109 -131c0 -13.333 -6.33301 -75 -19 -185c-39.333 -324.667 -59 -603 -59 -835
c0 -88.667 16.333 -151.834 49 -189.501s90 -64.167 172 -79.5l-24 -75c-35.333 -2.66699 -62 -4 -80 -4c-82 0 -148.667 34.333 -200 103s-77 158.334 -77 269.001c0 284 20.667 541.333 62 772c13.333 76.667 20 117 20 121c0 13.333 -5.33301 20.333 -16 21
c-22 0 -57 -68.333 -105 -205l-59 -170c-87.333 -247.333 -175.666 -439.833 -264.999 -577.5s-192 -234.5 -308 -290.5z" />
    <glyph glyph-name="afii10030" unicode="&#x41c;" horiz-adv-x="1808" 
d="M0 -37c132.667 98 234.829 198.331 306.496 300.998s149.834 268 234.501 496l69 186c48 130 89.667 222.667 125 278s75 83 119 83c72.667 0 109 -43.667 109 -131c0 -6.66699 -13 -145 -39 -415s-39 -448 -39 -534c0 -24.667 4 -37.667 12 -39
c6.66699 0 14.334 7 23.001 21c110.667 184 216.334 384.667 317.001 602l63.5 141.5c30.333 67 59.833 126.333 88.5 178s50.5 83.334 65.5 95.001s38.833 17.5 71.5 17.5s61 -12 85 -36s36 -52.333 36 -85s-5 -70 -15 -112c-106.667 -520 -159.834 -831 -159.501 -933
s16.833 -171.667 49.5 -209s90 -63.666 172 -78.999l-25 -76c-35.333 -2.66699 -62 -4 -80 -4c-82 0 -148.5 34.5 -199.5 103.5s-76.5 158.833 -76.5 269.5c0 66.667 15.333 193.167 46 379.5s66.334 356.833 107.001 511.5c8 34 12.167 56.5 12.5 67.5
s-4.33398 16.5 -14.001 16.5s-40.167 -50.833 -91.5 -152.5l-183.5 -375l-121.5 -254l-24.5 -51c-6.33301 -13 -18.666 -36.333 -36.999 -70s-35.833 -63.167 -52.5 -88.5c-45.333 -68 -80.666 -102.333 -105.999 -103c-18 0 -37.5 4.83301 -58.5 14.5
s-34.833 19.834 -41.5 30.501c-15.333 23.333 -23 95.666 -23 216.999c0 254 20.333 496.333 61 727l21 121c0 13.333 -5.33301 20.333 -16 21c-22 0 -57 -68.333 -105 -205l-59 -170c-87.333 -247.333 -175.833 -440 -265.5 -578s-192.5 -235 -308.5 -291z" />
    <glyph glyph-name="afii10031" unicode="&#x41d;" horiz-adv-x="1771" 
d="M-123 -121c0 131.333 75.501 250.499 226.501 357.499s360.167 192.833 627.5 257.5c101.333 294.667 243.333 504.667 426 630c-198 -2.66699 -361.167 -36 -489.5 -100s-192.5 -146 -192.5 -246c0 -31.333 4.83301 -58.166 14.5 -80.499s32.167 -57.5 67.5 -105.5
l-70 -66c-60 38 -105.667 84.5 -137 139.5s-47 107.5 -47 157.5c0 84.667 45 162.834 135 234.501s202 127 336 166s270 58.5 408 58.5c69.333 0 117.333 -5.16699 144 -15.5s40 -29.5 40 -57.5s-19.667 -54.333 -59 -79c-170.667 -106.667 -308 -308.667 -412 -606
c80.667 13.333 205.667 28.333 375 45c65.333 191.333 118 333.166 158 425.499s96.333 195.833 169 310.5l93 -45c-91.333 -178.667 -186.333 -409 -285 -691c62.667 0 105.667 -2.66699 129 -8l-8 -117c-28.667 -9.33301 -84.667 -14 -168 -14
c-28.667 -79.333 -45.834 -143.5 -51.501 -192.5s-10.167 -96.667 -13.5 -143s-5.66602 -77.833 -6.99902 -94.5h-115c-6.66699 23.333 -10 47.333 -10 72c0 84.667 22.667 204 68 358c-82 0 -206.333 -9.66699 -373 -29c-6.66699 -22 -23.667 -62.667 -51 -122
s-54.333 -110.833 -81 -154.5s-62.5 -91.334 -107.5 -143.001s-92.167 -95.5 -141.5 -131.5c-140.667 -101.333 -277 -151.666 -409 -150.999c-54.667 0 -99.834 17 -135.501 51s-53.5 77 -53.5 129zM88.001 -39.001c0 -38 11.3281 -67.667 33.9951 -89
s58.834 -32 108.501 -32s108.334 22.167 176.001 66.5s124.334 102.333 170.001 174s84.834 170.5 117.501 296.5c-181.333 -30 -327.666 -83 -438.999 -159s-167 -161.667 -167 -257z" />
    <glyph glyph-name="afii10032" unicode="&#x41e;" horiz-adv-x="1433" 
d="M49 312.5c0 93.667 31.499 206.332 94.499 337.999s145.667 255.167 248 370.5s206.833 200.333 313.5 255c44 28.667 112 43 204 43c69.333 0 126.333 -27 171 -81s67 -117.5 67 -190.5s-5.66699 -127.833 -17 -164.5c104.667 34 204.667 75.667 300 125v-99
c-61.333 -35.333 -174.666 -83.666 -339.999 -144.999c-74 -184 -190.833 -355.333 -350.5 -514s-305.834 -238 -438.501 -238c-75.333 0 -136.166 26.667 -182.499 80s-69.5 126.833 -69.5 220.5zM230.999 390.998c0 -61.333 14.667 -110.5 44 -147.5s73 -55.5 131 -55.5
c80 0 159 39 237 117c134 132.667 227.667 270.667 281 414c-34 -6.66699 -77.667 -10 -131 -10c-229.333 0 -359.333 51 -390 153c-114.667 -160 -172 -317 -172 -471zM548.499 944.998c0.333008 -42.667 22.333 -76.667 66 -102s98.667 -38 165 -38s123.833 6 172.5 18
c8 40.667 12.333 80.334 13 119.001c0 135.333 -58 203 -174 203c-54 0 -112.333 -22 -175 -66c-45.333 -46.667 -67.833 -91.334 -67.5 -134.001z" />
    <glyph glyph-name="afii10033" unicode="&#x41f;" horiz-adv-x="1531" 
d="M29 883c0 108 58.332 202.168 174.999 282.501s274.667 120.5 474 120.5c4 0 36 -2 96 -6c203.333 -13.333 348 -20 434 -20l84 2c23.333 0 70.166 3.66699 140.499 11s116.5 14.833 138.5 22.5s35 11.5 39 11.5c19.333 0 28.666 -12.333 27.999 -37
c0 -35.333 -31 -67.5 -93 -96.5s-133.333 -43.5 -214 -43.5c-42 -27.333 -86.667 -83.5 -134 -168.5s-92.833 -205 -136.5 -360s-65.5 -264.667 -65.5 -329s15.333 -108.833 46 -133.5s78.334 -43 143.001 -55l-43 -76c-35.333 -2.66699 -62 -4 -80 -4
c-65.333 0 -116.166 22.167 -152.499 66.5s-54.5 96.5 -54.5 156.5s5.33301 110 16 150c83.333 332 153 538 209 618c28.667 42 70.334 88 125.001 138l-192 -5c-90 -87.333 -168.833 -239.833 -236.5 -457.5s-148.334 -383.5 -242.001 -497.5s-204.5 -171 -332.5 -171
c-50.667 0 -98.667 16.333 -144 49l47 78c16.667 -8 35.334 -15.667 56.001 -23l28 -4c6.66699 -1.33301 17 -2 31 -2c68 0 129 32.833 183 98.5s110.833 189.667 170.5 372s106.167 303.166 139.5 362.499s91.666 125 174.999 197l-293 7
c-299.333 0 -449 -65.667 -449 -197c0 -34 12.667 -61.667 38 -83s63.333 -32 114 -32s117 23.333 199 70l30 -53c-42 -45.333 -89.667 -81 -143 -107s-106.666 -39 -159.999 -39s-99 17.833 -137 53.5s-57 80.167 -57 133.5z" />
    <glyph glyph-name="afii10034" unicode="&#x420;" horiz-adv-x="1388" 
d="M-20 -141c0 140.667 64.834 328.666 194.501 563.999s272.167 424 427.5 566c22 90 33 155.833 33 197.5s-1.33301 73.5 -4 95.5l147 25c0 -9.33301 -6 -69.666 -18 -180.999c112 76.667 188.5 123.5 229.5 140.5s89.167 25.5 144.5 25.5s98 -19 128 -57
s45 -92.667 45 -164c0 -126.667 -41 -263.167 -123 -409.5s-184.5 -269 -307.5 -368s-239.167 -148.5 -348.5 -148.5c-27.333 0 -58.666 1.66699 -93.999 5c-66.667 -142 -127.334 -249.333 -182.001 -322s-109.334 -109 -164.001 -109c-34 0 -60.5 12.333 -79.5 37
s-28.5 59 -28.5 103zM135.001 -20.001c0 -26 8.33301 -39.002 25 -39.002c12 0 33.667 25.5 65 76.5s58 103.167 80 156.5c-18 8 -35 20.333 -51 37l37 86l57 -29c86 168 158.333 356.667 217 566c-125.333 -157.333 -228.333 -317.166 -309 -479.499
s-121 -287.166 -121 -374.499zM477.001 239.997l39 -1.99902c132.667 0 257 69.333 373 208c65.333 80.667 120.833 173 166.5 277s68.5 192 68.5 264c0 39.333 -10.5 70.666 -31.5 93.999s-49.833 35 -86.5 35c-66.667 0 -155.667 -36.667 -267 -110
c-24.667 -184.667 -112 -440 -262 -766z" />
    <glyph glyph-name="afii10035" unicode="&#x421;" horiz-adv-x="1286" 
d="M82 930l54.998 60.998c9.33301 -9.33301 22.333 -23.666 39 -42.999c31.333 -36.667 73.666 -68.667 126.999 -96c80.667 112 197.667 213.667 351 305s283.333 137 390 137c50.667 0 90 -14 118 -42s42 -65.667 42 -113c0 -106.667 -63.5 -205.334 -190.5 -296.001
s-271.5 -136 -433.5 -136c-70.667 0 -146 10 -226 30c-52 -84.667 -78 -176.5 -78 -275.5s27.333 -178.833 82 -239.5s134.667 -91 240 -91c188.667 0 312.334 110 371.001 330h96c-15.333 -126.667 -75.166 -238.5 -179.499 -335.5s-241.833 -145.5 -412.5 -145.5
c-90 0 -174 33 -252 99s-117 161.833 -117 287.5s48 262.834 144 411.501c-69.333 40.667 -124.666 91.334 -165.999 152.001zM400.998 816.998c49.333 -19.333 106.666 -29 171.999 -29c118.667 0 223.167 28 313.5 84s135.5 121.667 135.5 197
c0 26 -9.16699 46.833 -27.5 62.5s-41.833 23.5 -70.5 23.5c-83.333 0 -176.166 -33.167 -278.499 -99.5s-183.833 -145.833 -244.5 -238.5z" />
    <glyph glyph-name="afii10036" unicode="&#x422;" horiz-adv-x="1591" 
d="M35 885c0 108 58.334 202.164 175.001 282.497s274.667 120.5 474 120.5c4 0 47.667 -2 131 -6c226.667 -13.333 388.334 -20 485.001 -20c214.667 0 346.667 9.33301 396 28c19.333 5.33301 31 8 35 8c19.333 0 28.833 -15.333 28.5 -46s-22 -58.167 -65 -82.5
s-103.5 -36.5 -181.5 -36.5c-42 -27.333 -86.5 -83.666 -133.5 -168.999s-92.667 -207 -137 -365s-66.5 -267.333 -66.5 -328s15.333 -103.667 46 -129s78.667 -44 144 -56l-43 -76c-35.333 -2.66699 -62 -4 -80 -4c-64 0 -113.5 21.5 -148.5 64.5
s-52.5 102.167 -52.5 177.5c0 142 37 306.833 111 494.5s151.667 318.5 233 392.5h-126c-49.333 -49.333 -90 -107.166 -122 -173.499s-61.333 -145.166 -88 -236.499l-54.5 -188.5c-9.66699 -34.333 -23.667 -80.166 -42 -137.499s-33.333 -98.5 -45 -123.5l-44 -95
c-17.667 -38.333 -34.334 -65.333 -50.001 -81s-34.5 -33.167 -56.5 -52.5c-35.333 -31.333 -84.666 -47 -147.999 -47l8 104c62.667 10.667 107.5 42 134.5 94s71.167 179.167 132.5 381.5s104.666 329 129.999 380s74 108.833 146 173.5l-119 -3h-24
c-90 -87.333 -168.833 -239.833 -236.5 -457.5s-148.334 -383.5 -242.001 -497.5s-204.5 -171 -332.5 -171c-50.667 0 -98.667 16.333 -144 49l48 78c38 -19.333 76 -29 114 -29c68 0 129 32.833 183 98.5s110.833 189.667 170.5 372s106.167 303.166 139.5 362.499
s91.666 125.333 174.999 198l-293 6c-299.333 0 -448.666 -65.667 -447.999 -197c0 -34 12.5 -61.667 37.5 -83s62.833 -32 113.5 -32s117 23.333 199 70l30 -53c-42 -45.333 -89.667 -81 -143 -107s-106.5 -39 -159.5 -39s-98.667 17.833 -137 53.5
s-57.5 80.167 -57.5 133.5z" />
    <glyph glyph-name="afii10037" unicode="&#x423;" horiz-adv-x="1433" 
d="M-123 -426c0 122.667 82.667 227.33 248 313.997s362.666 130 591.999 130l61 -2c8 28.667 26.833 83.334 56.5 164.001s50.5 134 62.5 160c-142 -134 -252 -214.667 -330 -242c-42 -15.333 -85 -22.666 -129 -21.999c-72.667 0 -128.667 23.833 -168 71.5
s-59 114.5 -59 200.5c0 122.667 56.667 286.834 170 492.501s242.333 366.5 387 482.5l82 -76c-303.333 -326 -455 -598.333 -455 -817c0 -126.667 49.833 -190 149.5 -190s196.667 54.5 291 163.5s191.833 278.167 292.5 507.5c40.667 94 72 156.167 94 186.5
s43.333 45.5 64 45.5s36.834 -6.16699 48.501 -18.5s17.5 -28.833 17.5 -49.5c0 -87.333 -63 -217 -189 -389c-87.333 -180 -175.333 -404 -264 -672c64 -4 132.333 -19.667 205 -47l-21 -69l-217 30c-80.667 -196.667 -178 -343.667 -292 -441s-250 -146 -408 -146
c-82 0 -150.667 22.167 -206 66.5s-83 99.833 -83 166.5zM94 -389.004c0 -38 15.333 -69 46 -93s70 -36 118 -36c110.667 0 208.667 44.667 294 134s148.333 194 189 314c-182.667 0 -336.167 -31 -460.5 -93s-186.5 -137.333 -186.5 -226z" />
    <glyph glyph-name="afii10038" unicode="&#x424;" horiz-adv-x="1404" 
d="M74 791c0 136 76.832 259.668 230.499 371.001s340.167 175.333 559.5 192c1.33301 0 15.333 17.333 42 52s56.334 68.834 89.001 102.501s57 50.5 73 50.5s32.5 -6.5 49.5 -19.5s25.5 -26.5 25.5 -40.5c0 -20.667 -17.667 -61 -53 -121l-19 -28
c16.667 2.66699 35.5 4 56.5 4s45.5 -4.83301 73.5 -14.5s56.333 -25 85 -46s52.167 -53.5 70.5 -97.5s27.5 -96.667 27.5 -158c0 -143.333 -59.667 -304.333 -179 -483s-258.333 -317.334 -417 -416.001c-8 -64 -12 -118.5 -12 -163.5s7 -94.833 21 -149.5l-103 -14
c-16.667 39.333 -24.667 108 -24 206c0 24.667 1.33301 48 4 70c-52 -18 -89.667 -27 -113 -27c-91.333 0 -166.333 31.167 -225 93.5s-88 143.166 -88 242.499c0 44 5.33301 87 16 129c-126.667 40.667 -190 129 -190 265zM261.999 831.001
c0 -45.333 15.667 -88.998 47 -130.998c24.667 95.333 71.5 188.166 140.5 278.499s151.833 168.833 248.5 235.5c-136.667 -27.333 -243.5 -76.333 -320.5 -147s-115.5 -149.334 -115.5 -236.001zM429.999 483.003c0 -79.333 18.499 -139.999 55.499 -181.999
s89.5 -63 157.5 -63l45 10c12 154 35.833 331.333 71.5 532s79.5 349.667 131.5 447c-53.333 0 -108 -27.333 -164 -82s-103.5 -117.5 -142.5 -188.5s-71.333 -136.833 -97 -197.5s-38.5 -101.334 -38.5 -122.001c0 -1.33301 11.333 -2 34 -2c76.667 0 126 14.333 148 43
l53 -55c-27.333 -26 -65.666 -50.333 -114.999 -73s-95 -36 -137 -40zM804.998 287.004c105.333 61.333 200.333 169.832 285 325.499s127 288.834 127 399.501c0 64 -19.5 115.167 -58.5 153.5s-92.167 57.5 -159.5 57.5c-84 -214.667 -148.667 -526.667 -194 -936z" />
    <glyph glyph-name="afii10039" unicode="&#x425;" horiz-adv-x="1523" 
d="M82 63c4 4 74.332 64.5 210.999 181.5s255.334 231.5 356.001 343.5c-94 252.667 -156.667 464.334 -188 635.001l155 28c66 -276.667 117.333 -458 154 -544l586 604l86 -90c-64 -82 -180.333 -206 -349 -372l-272 -267c45.333 -96.667 90.833 -180.667 136.5 -252
l119.5 -182.5l62 -92.5l-111 -104c-101.333 104 -210 276 -326 516l-166 -160l-143 -139c-75.333 -72.667 -156.333 -138.334 -243 -197.001z" />
    <glyph glyph-name="afii10040" unicode="&#x426;" horiz-adv-x="1476" 
d="M25 252c0 170.667 83.1641 373.33 249.497 607.997s334.833 402 505.5 502l56 -78c-155.333 -116 -298 -268.833 -428 -458.5s-195 -356.167 -195 -499.5c0 -53.333 12.667 -94.666 38 -123.999s60.833 -44 106.5 -44s109.5 26.5 191.5 79.5s143.333 102.833 184 149.5
c6.66699 132.667 38.334 267.167 95.001 403.5s124.334 247.833 203.001 334.5s152 130 220 130c57.333 0 86 -34.667 86 -104s-49.833 -183.666 -149.5 -342.999s-199.834 -288 -300.501 -386c0 -134 37.333 -220.667 112 -260c16.667 -8 32.167 -12 46.5 -12
s33.833 10.833 58.5 32.5s47.834 45.167 69.501 70.5s47.5 48.833 77.5 70.5s58.333 32.5 85 32.5s48.5 -9.5 65.5 -28.5s25.5 -42.833 25.5 -71.5c0 -75.333 -60 -235.666 -180 -480.999l-102 6c0 1.33301 21.5 51.5 64.5 150.5s64.5 167.667 64.5 206
s-12.333 57.5 -37 57.5c-18 0 -49.333 -33.667 -94 -101c-16.667 -24.667 -40.667 -47.167 -72 -67.5s-65.333 -30.5 -102 -30.5c-64 0 -114.167 33.833 -150.5 101.5s-55.166 136.167 -56.499 205.5l-25 -22c-204.667 -190 -367.667 -285 -489 -285
c-66.667 0 -120.5 23.833 -161.5 71.5s-61.5 109.167 -61.5 184.5zM892.997 566.996c84.667 101.333 152.668 194.667 204.001 280s77 147 77 185c0 20.667 -9 31 -27 31c-45.333 0 -95.333 -53 -150 -159s-89.334 -218.333 -104.001 -337z" />
    <glyph glyph-name="afii10041" unicode="&#x427;" horiz-adv-x="1032" 
d="M-23 752c6.66699 172 111.333 357.67 314 557.003l63 -76c-74 -66.667 -129 -137.334 -165 -212.001s-54.667 -136.5 -56 -185.5s13 -88.5 43 -118.5s70.333 -45 121 -45s112.667 22.333 186 67c66.667 187.333 143.5 329.833 230.5 427.5s161.833 146.5 224.5 146.5
c24.667 0 45.167 -7.16699 61.5 -21.5s23.5 -38.333 21.5 -72s-12.5 -72.667 -31.5 -117s-39.5 -81.833 -61.5 -112.5s-53.833 -65.167 -95.5 -103.5s-72.667 -65.333 -93 -81s-52.833 -38.834 -97.5 -69.501s-67.667 -46.667 -69 -48c-34 -69.333 -62.167 -161 -84.5 -275
s-33.5 -217.5 -33.5 -310.5s22.333 -139.5 67 -139.5c28.667 0 67.667 22 117 66l57 -43c-18 -35.333 -47.333 -70.833 -88 -106.5s-85 -53.5 -133 -53.5c-96.667 0 -145 86 -145 258c0 138 32.667 313.333 98 526c-94 -49.333 -175.833 -73.833 -245.5 -73.5
s-122 19.166 -157 56.499s-51.167 90.333 -48.5 159zM642.999 842.003c76.667 56 137.167 112 181.5 168s66.333 95.167 66 117.5s-7.16602 33.5 -20.499 33.5c-35.333 0 -68.333 -22.833 -99 -68.5s-73.334 -129.167 -128.001 -250.5z" />
    <glyph glyph-name="afii10042" unicode="&#x428;" horiz-adv-x="1843" 
d="M-6 279c0 170.667 83.332 373.334 249.999 608.001s335.334 402 506.001 502l55 -78c-155.333 -116 -298 -269 -428 -459s-195 -356.667 -195 -500c0 -53.333 12.667 -94.666 38 -123.999s60.833 -44 106.5 -44s109.5 26.667 191.5 80s143.333 103.333 184 150
c6.66699 132.667 38.5 267.167 95.5 403.5s124.667 247.833 203 334.5s151.833 130 220.5 130c57.333 0 86 -34.167 86 -102.5s-47.167 -179 -141.5 -332s-191.5 -280.5 -291.5 -382.5c16.667 -109.333 35.334 -174.333 56.001 -195c26 -26 60.667 -39 104 -39
c98 0 192.167 58.167 282.5 174.5s179.833 293.166 268.5 530.499c35.333 96.667 63 160.834 83 192.501s40.167 47.5 60.5 47.5s37 -5.5 50 -16.5s19.5 -26.833 19.5 -47.5c0 -94 -55.333 -227 -166 -399c-6.66699 -16.667 -21 -42.667 -43 -78
c-50.667 -80.667 -76 -151.334 -76 -212.001s10.333 -118 31 -172s48 -81 82 -81s73.667 23.333 119 70l55 -62c-20.667 -39.333 -51.334 -75 -92.001 -107s-82.334 -48 -125.001 -48c-58.667 0 -106.5 29 -143.5 87s-55.5 136.667 -55.5 236c1.33301 2.66699 2 4.66699 2 6
l-96 -98.5c-22 -21.667 -54.667 -50.167 -98 -85.5c-87.333 -70.667 -174.666 -106.334 -261.999 -107.001c-65.333 0 -117.833 20.833 -157.5 62.5s-63.167 101.5 -70.5 179.5c-64 -68 -142.333 -131.667 -235 -191s-174.167 -89 -244.5 -89s-126 23.833 -167 71.5
s-61.5 109.167 -61.5 184.5zM861.999 594c84.667 101.333 152.665 194.5 203.998 279.5s77 146.833 77 185.5c0 20.667 -9 31 -27 31c-45.333 0 -95.166 -53 -149.499 -159s-89.166 -218.333 -104.499 -337z" />
    <glyph glyph-name="afii10043" unicode="&#x429;" horiz-adv-x="2111" 
d="M96 254c0 170.667 83.3271 373.331 249.994 607.998s335.334 402 506.001 502l55 -78c-155.333 -116 -297.833 -268.833 -427.5 -458.5s-194.5 -356.167 -194.5 -499.5c0 -53.333 12.5 -94.666 37.5 -123.999s60.5 -44 106.5 -44s109.833 26.5 191.5 79.5
s143.167 102.833 184.5 149.5c6.66699 132.667 38.334 267.167 95.001 403.5s124.334 247.833 203.001 334.5s152 130 220 130c57.333 0 86 -34 86 -102s-47.167 -178.5 -141.5 -331.5s-191.166 -280.833 -290.499 -383.5c16.667 -109.333 35 -174 55 -194
c26 -26 61 -39 105 -39c98 0 192 58 282 174s179.667 292.667 269 530c35.333 96.667 62.833 160.834 82.5 192.501s39.834 47.5 60.501 47.5s37.5 -5.5 50.5 -16.5s19.5 -26.833 19.5 -47.5c0 -78 -41.667 -188.333 -125 -331c-70.667 -169.333 -116 -286.833 -136 -352.5
s-30 -114.834 -30 -147.501s6.83301 -57.167 20.5 -73.5s31.334 -24.5 53.001 -24.5s49 17.333 82 52s68.5 69.167 106.5 103.5s72 51.5 102 51.5s53.667 -9.66699 71 -29s26 -45.666 26 -78.999s-15.833 -98.833 -47.5 -196.5s-75.5 -203.834 -131.5 -318.501l-104 6
c86 188.667 129 321.667 129 399c0 36.667 -13 55.334 -39 56.001c-12 0 -27 -11 -45 -33s-36.167 -46.333 -54.5 -73s-44.5 -50.834 -78.5 -72.501s-71 -32.5 -111 -32.5c-96.667 0 -145 43.667 -145 131c0 46.667 8 107.334 24 182.001c-50.667 -52 -93 -93.667 -127 -125
s-80.667 -63 -140 -95s-118.666 -48 -177.999 -48s-108.833 20.833 -148.5 62.5s-62.834 101.5 -69.501 179.5c-64 -68 -142.5 -131.833 -235.5 -191.5s-174.667 -89.5 -245 -89.5s-126 23.833 -167 71.5s-61.5 109.167 -61.5 184.5zM964.994 568.997
c84.667 101.333 152.501 194.667 203.501 280s76.5 147 76.5 185c0.666992 20.667 -8 31 -26 31c-45.333 0 -95.333 -52.833 -150 -158.5s-89.334 -218.167 -104.001 -337.5z" />
    <glyph glyph-name="afii10044" unicode="&#x42a;" horiz-adv-x="1634" 
d="M18 1022c0 56 24.334 104.499 73.001 145.499s114 72.5 196 94.5c157.333 42 333.333 63 528 63c44 0 73.5 -3.33301 88.5 -10s22.5 -15.167 22.5 -25.5s-8.33301 -25.166 -25 -44.499c-62.667 -80.667 -115.834 -155.334 -159.501 -224.001
s-77.834 -143.334 -102.501 -224.001s-37 -173.334 -37 -278.001s9.66699 -182.667 29 -234c83.333 106.667 191.166 193.334 323.499 260.001s259.833 100 382.5 100c64 0 115.167 -14 153.5 -42s57.5 -66.667 57.5 -116c0 -76.667 -35.5 -153.167 -106.5 -229.5
s-162.833 -138.666 -275.5 -186.999s-224.5 -72.5 -335.5 -72.5s-198.833 20.333 -263.5 61c-1.33301 -1.33301 -7.33301 -11.333 -18 -30c-27.333 -54.667 -50.666 -93 -69.999 -115l-67 29c9.33301 38 37.333 96 84 174c-45.333 66.667 -68 185.334 -68 356.001
s29.667 320.167 89 448.5s128 208.833 206 241.5c-19.333 1.33301 -40.666 2 -63.999 2c-117.333 0 -231.5 -18.333 -342.5 -55s-166.5 -85.667 -166.5 -147c0 -38 17 -74.333 51 -109l-45 -55c-91.333 64 -137.333 138.333 -138 223zM676.001 210.999
c54.667 -61.333 132.167 -92 232.5 -92s198.666 32.333 294.999 97s144.5 134.667 144.5 210c0 30 -11.667 53.5 -35 70.5s-54.666 25.5 -93.999 25.5c-80.667 0 -174.667 -30.667 -282 -92s-194.333 -134.333 -261 -219z" />
    <glyph glyph-name="afii10045" unicode="&#x42b;" horiz-adv-x="1865" 
d="M-74 731c60 90 172.667 208.665 338 355.998c40.667 95.333 73 161.833 97 199.5s47.667 56.5 71 56.5s42.5 -8.83301 57.5 -26.5s22.5 -40.167 22.5 -67.5s-12.333 -64 -37 -110c-100 -194 -149.667 -415.333 -149 -664c0 -78 9.33301 -142.667 28 -194
c83.333 106.667 191.333 193.334 324 260.001s260.334 100 383.001 100c64 0 115.167 -14 153.5 -42s57.5 -66.667 57.5 -116c0 -76.667 -35.5 -153.167 -106.5 -229.5s-162.833 -138.666 -275.5 -186.999s-225 -72.5 -337 -72.5s-199.333 20.333 -262 61
c-1.33301 -1.33301 -7 -11.333 -17 -30c-28.667 -54.667 -52.334 -93 -71.001 -115l-68 29c9.33301 38 37.333 96 84 174c-57.333 86 -86 196.167 -86 330.5s24 271.833 72 412.5c-20.667 -12 -48.667 -35.833 -84 -71.5s-65.333 -73.167 -90 -112.5zM399 206.998
c54.667 -61.333 132.167 -92 232.5 -92s198.666 32.333 294.999 97s144.5 134.667 144.5 210c0 30 -11.667 53.5 -35 70.5s-54.666 25.5 -93.999 25.5c-80.667 0 -174.667 -30.667 -282 -92s-194.333 -134.333 -261 -219zM1360 368.998c0 311.333 30.667 624.001 92 938.001
h141c-2.66699 -45.333 -10.667 -130.666 -24 -255.999c-32.667 -302 -49 -524 -49 -666v-41c0 -88.667 16.333 -151.834 49 -189.501s90 -63.834 172 -78.501l-25 -76c-35.333 -2.66699 -62 -4 -80 -4c-82 0 -148.5 34.5 -199.5 103.5s-76.5 158.833 -76.5 269.5z" />
    <glyph glyph-name="afii10046" unicode="&#x42c;" horiz-adv-x="1312" 
d="M8 735c60 90 172.666 208.998 337.999 356.998c40.667 95.333 73 161.833 97 199.5s47.667 56.5 71 56.5s42.5 -9 57.5 -27s22.5 -39.167 22.5 -63.5s-20.667 -77.5 -62 -159.5c-104 -203.333 -155.667 -409.666 -155 -618.999c0 -78 9.66699 -142.667 29 -194
c84.667 106.667 187 191.667 307 255s241.333 95 364 95c64 0 115.167 -14 153.5 -42s57.5 -66.667 57.5 -116c0 -117.333 -71.333 -226.5 -214 -327.5s-298.667 -151.5 -468 -151.5c-112 0 -200 20.333 -264 61c-1.33301 -1.33301 -7.33301 -11.333 -18 -30
c-27.333 -54.667 -50.666 -93 -69.999 -115l-68 29c9.33301 38 37.333 96 84 174c-57.333 86 -86 197.333 -86 334c0 58.667 6.5 111.834 19.5 159.501s22.333 80.667 28 99s15.334 46 29.001 83s21.834 59.5 24.501 67.5c-20.667 -12 -48.834 -35.833 -84.501 -71.5
s-64.834 -73.167 -87.501 -112.5zM450.999 210.998c54.667 -61.333 132.167 -91.999 232.5 -91.999s192.666 30.667 276.999 92s126.5 129.666 126.5 204.999c0 30 -11.5 53.5 -34.5 70.5s-54.5 25.5 -94.5 25.5c-79.333 0 -166.666 -28.667 -261.999 -86
s-177 -129 -245 -215z" />
    <glyph glyph-name="afii10047" unicode="&#x42d;" horiz-adv-x="1406" 
d="M16 230.5c0 73 32.334 157.832 97.001 254.499h96c-44 -83.333 -66 -150.666 -66 -201.999c0 -84.667 59.667 -127 179 -127c142 0 291.167 63.167 447.5 189.5s244.5 256.166 264.5 389.499c-61.333 -12 -130.5 -18 -207.5 -18s-149.167 8.66699 -216.5 26l4 115
c87.333 -28.667 168.666 -43 243.999 -43s141.666 9 198.999 27c1.33301 8 2 21.667 2 41c0 80.667 -23.5 150.334 -70.5 209.001s-110.167 88 -189.5 88c-31.333 0 -63.833 -9.33301 -97.5 -28s-59.834 -43 -78.501 -73h-168c30 69.333 77.333 126.666 142 171.999
s128.334 68 191.001 68c113.333 0 207.333 -46.5 282 -139.5s112 -193.833 112 -302.5c78 27.333 133 51.5 165 72.5s52.667 34.167 62 39.5l10 -80c-42 -44.667 -123.667 -91.667 -245 -141c-13.333 -95.333 -44.666 -185.666 -93.999 -270.999s-106.833 -157 -172.5 -215
s-135.5 -108.333 -209.5 -151c-143.333 -84.667 -267.5 -127 -372.5 -127s-182.833 19.5 -233.5 58.5s-76 95 -76 168z" />
    <glyph glyph-name="afii10048" unicode="&#x42e;" horiz-adv-x="2312" 
d="M223 193c0 108 61.8291 214.499 185.496 319.499s249.5 158.167 377.5 159.5c42 128.667 83.667 227 125 295s92.666 126 153.999 174c-19.333 1.33301 -40.666 2 -63.999 2c-117.333 0 -231.5 -18.5 -342.5 -55.5s-166.5 -86.167 -166.5 -147.5
c0 -38 17 -74.333 51 -109l-45 -55c-91.333 64 -137.333 138.333 -138 223c0 56 24.333 104.5 73 145.5s113.334 72.5 194.001 94.5c158.667 42 335.334 63.333 530.001 64c44 0 73.5 -3.5 88.5 -10.5s22.5 -15.667 22.5 -26s-7.66699 -25.5 -23 -45.5
c-64 -79.333 -111.667 -143 -143 -191s-77.666 -163.333 -138.999 -346c161.333 6.66699 244.333 10 249 10c92.667 176 206.667 325.167 342 447.5s271.333 183.5 408 183.5c80.667 0 140.167 -30 178.501 -90c38.333 -60 57.5 -133.667 57.5 -221
c-0.666992 -38 -5.66699 -79.667 -15 -125c117.333 42 214.333 82.333 291 121l8 -92c-60 -36.667 -173.333 -86 -340 -148c-74 -184 -190.833 -355.333 -350.5 -514s-305.5 -238 -437.5 -238c-75.333 0 -136.166 26.667 -182.499 80s-69.5 123 -69.5 209
s18.333 173.333 55 262h-233c-50.667 -161.333 -126.5 -293.166 -227.5 -395.499s-198.833 -153.5 -293.5 -153.5c-54.667 0 -98.334 15.833 -131.001 47.5s-49 73.5 -49 125.5zM368.996 220.999c0 -34 8.49902 -62.001 25.499 -84.001s38.5 -33 64.5 -33
c92.667 0 190.334 153 293.001 459c-86 -1.33301 -171.333 -37.166 -256 -107.499s-127 -148.5 -127 -234.5zM1284 396.998c0 -61.333 14.666 -110.334 43.999 -147.001s75.5 -55 138.5 -55s131.167 32 204.5 96c136.667 118.667 238.334 263.334 305.001 434.001
c-34 -6.66699 -77.667 -10 -131 -10c-225.333 0 -355 51 -389 153c-114.667 -160 -172 -317 -172 -471zM1601.99 956.497c0 -46.333 21.5 -82.168 64.5 -107.501s97.833 -38 164.5 -38s124.667 6 174 18c6.66699 36.667 10 72.334 10 107.001
c0 143.333 -57.333 215 -172 215c-53.333 0 -106.833 -20.833 -160.5 -62.5s-80.5 -85.667 -80.5 -132z" />
    <glyph glyph-name="afii10049" unicode="&#x42f;" horiz-adv-x="1665" 
d="M16 -109l55.9971 139.999c8 -2.66699 21.667 -4 41 -4c82 0 182.667 40.833 302 122.5s239 184.167 359 307.5c-6.66699 -1.33301 -16.334 -2 -29.001 -2c-79.333 0 -141 20 -185 60s-66 101.667 -66 185s34.333 172.833 103 268.5s155 173.167 259 232.5
s205.667 89 305 89c52 0 118.333 -11.667 199 -35c46.667 38 90.667 57.167 132 57.5s74 -12.5 98 -38.5s36 -58.667 36 -98c0 -75.333 -45.333 -172.333 -136 -291s-203.667 -219 -339 -301c-5.33301 -23.333 -17.666 -72 -36.999 -146c-44 -180 -65.833 -285 -65.5 -315
s6.5 -52.167 18.5 -66.5s24.5 -21.5 37.5 -21.5s23 0.666992 30 2s13.833 4 20.5 8s12.5 7.33301 17.5 10s10.833 7.66699 17.5 15c12 12 21.833 22.5 29.5 31.5s12.834 14.833 15.501 17.5l41 -35c-23.333 -56 -59.166 -103.5 -107.499 -142.5
s-93.166 -58.5 -134.499 -58.5c-84.667 0 -127 62.333 -127 187c0 75.333 16.5 167.5 49.5 276.5s49.5 164.833 49.5 167.5c-148.667 -173.333 -288.667 -314.666 -420 -423.999c-165.333 -139.333 -324.333 -209 -477 -209c-30 0 -61 3.33301 -93 10zM669.997 712.999
c0 -35.333 13 -65.667 39 -91s60 -38 102 -38c27.333 0 54.333 4.33301 81 13l80.5 27.5c27 9.66699 48.833 17.167 65.5 22.5c16.667 82 48.834 175.833 96.501 281.5s102.167 193.5 163.5 263.5c-70.667 12 -109.334 18 -116.001 18
c-122.667 0 -238.667 -56.333 -348 -169s-164 -222 -164 -328zM1188 718.998c66.667 49.333 133.168 119.333 199.501 210s99.5 152.667 99.5 186s-11.667 50 -35 50c-36.667 0 -87.334 -63.333 -152.001 -190c-34 -68 -61 -128 -81 -180z" />
    <glyph glyph-name="afii10065" unicode="&#x430;" horiz-adv-x="1001" 
d="M47 166c0 95.333 36.8301 189.833 110.497 283.5s167.834 169.834 282.501 228.501s229.334 88.667 344.001 90l4 -68l-86 -18c-124 -27.333 -233.5 -82 -328.5 -164s-142.5 -163.5 -142.5 -244.5s33 -121.5 99 -121.5c61.333 0 137 43 227 129s165 187 225 303l86 -52
c-84.667 -170.667 -127 -279 -127 -325c0 -19.333 6.5 -35.5 19.5 -48.5s26 -19.5 39 -19.5s21.5 0.666992 25.5 2s8.16699 3.16602 12.5 5.49902s9.5 5.5 15.5 9.5s11.5 8 16.5 12l24 18.5l26.5 20.5l47 -35c-19.333 -40.667 -54.666 -79.5 -105.999 -116.5
s-98 -55.5 -140 -55.5c-80.667 -0 -121 42.333 -121 127c0 39.333 10.333 86.333 31 141l-76 -78c-74 -75.333 -137.833 -125.833 -191.5 -151.5s-106.5 -38.5 -158.5 -38.5s-91.333 14.667 -118 44s-40 70 -40 122z" />
    <glyph glyph-name="afii10066" unicode="&#x431;" horiz-adv-x="759" 
d="M37 265c0 86.667 27.998 172.33 83.998 256.997s127 148.334 213 191.001l26 -80c-105.333 -65.333 -157.666 -158.333 -156.999 -279c0 -58.667 14.333 -106 43 -142s68.167 -54 118.5 -54s94.333 22.5 132 67.5s56.5 101.667 56.5 170s-9.16699 123 -27.5 164
s-52.833 104.5 -103.5 190.5c-128.667 225.333 -193 357.666 -193 396.999c0 73.333 27.333 129.833 82 169.5s132.167 59.834 232.5 60.501s168.5 -7 204.5 -23l-19 -86c-48 6.66699 -100 10 -156 10c-120 0 -180 -50 -180 -150c0 -27.333 36.5 -107.833 109.5 -241.5
s115.333 -214.167 127 -241.5s22 -63.166 31 -107.499s13.5 -77.5 13.5 -99.5c0 -120 -37.5 -223.333 -112.5 -310s-165.833 -130 -272.5 -130c-79.333 0 -141.166 22.833 -185.499 68.5s-66.5 111.834 -66.5 198.501z" />
    <glyph glyph-name="afii10067" unicode="&#x432;" horiz-adv-x="903" 
d="M2 598c13.333 8 75.334 32.666 186.001 73.999c46.667 273.333 111 464.833 193 574.5s185.667 164.5 311 164.5c57.333 0 103.166 -18.5 137.499 -55.5s51.5 -84.833 51.5 -143.5c0 -117.333 -54 -226.833 -162 -328.5s-252 -181.834 -432 -240.501
c-32.667 -155.333 -49.667 -268.666 -51 -339.999c0 -96.667 27.667 -145 83 -145c60 0 114 25.833 162 77.5s72 112.334 72 182.001s-26 104.5 -78 104.5c-15.333 0 -48 -8.66699 -98 -26l-25 61c87.333 61.333 156.333 92 207 92c94 0 141 -47 141 -141
c0 -110.667 -46 -223 -138 -337s-188.667 -171 -290 -171c-110.667 -0 -166 79.333 -166 238c0 75.333 21.333 199.333 64 372l-166 -61zM299.001 704.999c118.667 54.667 217 120.167 295 196.5s117 145.833 117 208.5c0 32.667 -9.66699 59.334 -29 80.001
s-43.333 31 -72 31c-57.333 0 -114 -40.333 -170 -121s-103 -212.334 -141 -395.001z" />
    <glyph glyph-name="afii10068" unicode="&#x433;" horiz-adv-x="663" 
d="M86 100c0 30 25.999 74.834 77.999 134.501l156.5 179.5c52.333 60 78.5 103.667 78.5 131s-7.16699 50.166 -21.5 68.499s-37.833 27.5 -70.5 27.5s-92 -28 -178 -84l-18 72c61.333 48 126.5 87 195.5 117s122.5 45 160.5 45s67.667 -9 89 -27s32 -46 32 -84
s-43 -118.667 -129 -242l-55.5 -78c-19 -27.333 -33 -47 -42 -59s-17.5 -25 -25.5 -39c-13.333 -20.667 -20.166 -36.667 -20.499 -48s5.33398 -22.5 17.001 -33.5s23.334 -16.5 35.001 -16.5s21.667 1 30 3s17.166 6 26.499 12l25 16l69 47l41 -33
c-40.667 -54.667 -96.834 -103.167 -168.501 -145.5s-129 -63.5 -172 -63.5s-75.833 9.16699 -98.5 27.5s-34 42.5 -34 72.5z" />
    <glyph glyph-name="afii10069" unicode="&#x434;" horiz-adv-x="960" 
d="M47 -590c0 117.333 53.998 226.831 161.998 328.498s252 182.167 432 241.5c20.667 91.333 57.667 220.333 111 387c-91.333 -139.333 -174.333 -233.666 -249 -282.999s-142 -74 -202 -74s-105.333 16.5 -136 49.5s-46 76.5 -46 130.5c0 90 37.5 181.833 112.5 275.5
s169.5 170.167 283.5 229.5s224.333 89 331 89l16 -71c-151.333 -16.667 -281.333 -70 -390 -160s-163 -176.667 -163 -260c0 -35.333 11 -64.666 33 -87.999s48.667 -35 80 -35c46.667 0 117 49.167 211 147.5s160 182.166 198 251.499l76 -43
c-75.333 -200.667 -127 -370 -155 -508l172 56l2 -49c-13.333 -8 -75.666 -32.667 -186.999 -74c-44 -260.667 -108.167 -449 -192.5 -565s-187.833 -174 -310.5 -174c-57.333 0 -103.166 18.333 -137.499 55s-51.5 84.334 -51.5 143.001zM216.998 -487.002
c0 -32.667 9.50098 -59.334 28.501 -80.001s42.833 -31 71.5 -31c57.333 0 114.166 40.333 170.499 121s103.5 212.334 141.5 395.001c-118.667 -54.667 -217 -120.167 -295 -196.5s-117 -145.833 -117 -208.5z" />
    <glyph glyph-name="afii10070" unicode="&#x435;" horiz-adv-x="821" 
d="M41 223c0 125.333 66.5 248.832 199.5 370.499s267.833 182.5 404.5 182.5c90 0 135 -35.333 135 -106c0 -74 -47.333 -148.5 -142 -223.5s-228 -143.167 -400 -204.5c12 -31.333 31 -56 57 -74s52.667 -27 80 -27c58 0.666992 137.667 34.334 239 101.001l48 -37
c-42 -58.667 -100 -107.5 -174 -146.5s-145.833 -58.5 -215.5 -58.5s-125.667 20.5 -168 61.5s-63.5 94.833 -63.5 161.5zM227 302.999c110.667 38 205.668 85.667 285.001 143s119 110 119 158c0 18 -6.83301 33.833 -20.5 47.5s-29.5 20.5 -47.5 20.5
c-64 0 -133.333 -40 -208 -120s-117.334 -163 -128.001 -249z" />
    <glyph glyph-name="afii10072" unicode="&#x436;" horiz-adv-x="1159" 
d="M49 16c74 138 209.995 283.663 407.995 436.996c-61.333 46.667 -122.5 103 -183.5 169s-94.833 123.667 -101.5 173l123 14c8 -42 85 -132 231 -270c5.33301 82 8.33301 177.333 9 286l133 -12l-21 -244c168 118.667 278.667 187.667 332 207l90 -80
c-48 -15.333 -125.167 -57.666 -231.5 -126.999s-168.5 -113 -186.5 -131c36.667 -49.333 91.334 -105.666 164.001 -168.999s136.334 -114.666 191.001 -153.999l81 -58l-59 -73c-39.333 23.333 -105.166 68 -197.499 134s-162.166 124.333 -209.499 175
c-19.333 -151.333 -38.666 -260.666 -57.999 -327.999l-125 -16c32.667 65.333 58.667 199 78 401c-30 -9.33301 -78.5 -46.5 -145.5 -111.5s-126.167 -128.167 -177.5 -189.5l-80 -90z" />
    <glyph glyph-name="afii10073" unicode="&#x437;" horiz-adv-x="823" 
d="M16 78l78.0049 72c16.667 -16.667 39 -31.167 67 -43.5s51.333 -18.5 70 -18.5c68 0 130.5 17.5 187.5 52.5s85.5 77.5 85.5 127.5c0 27.333 -10.333 50.333 -31 69s-42.834 31.667 -66.501 39s-45.834 16.833 -66.501 28.5s-31 25 -31 40s16.167 29 48.5 42
s68.166 23.833 107.499 32.5s75.166 23.667 107.499 45s48.5 45 48.5 71s-9 46.5 -27 61.5s-40.333 22.5 -67 22.5s-68 -14.333 -124 -43s-112.667 -65.667 -170 -111l-28 58c49.333 57.333 115.833 108.166 199.5 152.499s151.167 66.5 202.5 66.5
s95.166 -14.167 131.499 -42.5s54.5 -62.166 54.5 -101.499c0 -100 -91.667 -182.333 -275 -247c49.333 -30 86 -57 110 -81s36 -51 36 -81c0 -76.667 -43 -144 -129 -202s-178.333 -87 -277 -87c-48 0 -95.833 7.5 -143.5 22.5s-80.5 33.5 -98.5 55.5z" />
    <glyph glyph-name="afii10074" unicode="&#x438;" horiz-adv-x="1024" 
d="M75.5 139c0.333008 91.333 32.168 214.497 95.501 369.497s108.666 243.5 135.999 265.5l99 -43c-56 -90 -98.333 -178.667 -127 -266s-43 -145.666 -43 -174.999s9.16699 -52.833 27.5 -70.5s39.833 -26.5 64.5 -26.5c54.667 0 122.5 50.167 203.5 150.5
s163.833 250.166 248.5 449.499l105 -48c-2.66699 -10.667 -33.834 -89.667 -93.501 -237s-89.5 -235.666 -89.5 -264.999s6.5 -51.5 19.5 -66.5s26 -22.5 39 -22.5s23 0.666992 30 2s13.833 4 20.5 8s12.5 7.33301 17.5 10s10.833 7.33398 17.5 14.001l14 17
c4 2.66699 9.83301 8.5 17.5 17.5s12.834 14.833 15.501 17.5l43 -35c-23.333 -57.333 -59.833 -105.833 -109.5 -145.5s-94.667 -59.5 -135 -59.5s-72.166 14 -95.499 42s-35 64.5 -35 109.5s7.66699 103.167 23 174.5c-64 -101.333 -133 -180.666 -207 -237.999
s-136.333 -86 -187 -86c-76.667 0 -114.834 45.667 -114.501 137z" />
    <glyph glyph-name="afii10075" unicode="&#x439;" horiz-adv-x="1024" 
d="M57 139c0 91.333 31.833 214.497 95.5 369.497s109.167 243.5 136.5 265.5l98 -43c-56 -90 -98.333 -178.667 -127 -266s-43 -145.666 -43 -174.999s9.16699 -52.833 27.5 -70.5s39.833 -26.5 64.5 -26.5c54.667 0 122.667 50.167 204 150.5s164.333 250.166 249 449.499
l104 -48c-2.66699 -10.667 -33.667 -89.667 -93 -237s-89 -235.666 -89 -264.999s6.5 -51.5 19.5 -66.5s26 -22.5 39 -22.5s22.833 0.666992 29.5 2s13.5 4 20.5 8l17.5 10c4.66699 2.66699 10.334 7.33398 17.001 14.001l17 17c2.66699 2.66699 7.66699 8.5 15 17.5
s12.333 14.833 15 17.5l44 -35c-23.333 -57.333 -60 -105.833 -110 -145.5s-95.167 -59.5 -135.5 -59.5s-72 14 -95 42s-34.5 64.5 -34.5 109.5s7.33301 103.167 22 174.5c-64 -101.333 -132.833 -180.666 -206.5 -237.999s-135.834 -86 -186.501 -86
c-76.667 0 -115 45.667 -115 137zM338 970.997l65 55c70.667 -69.333 129 -104 175 -104c69.333 0 128.666 32.667 177.999 98l61 -33c-27.333 -42 -62.5 -79.5 -105.5 -112.5s-85.667 -49.5 -128 -49.5s-86.666 16.167 -132.999 48.5s-83.833 64.833 -112.5 97.5z" />
    <glyph glyph-name="afii10076" unicode="&#x43a;" horiz-adv-x="929" 
d="M53 43c28.667 168 63.8379 326.334 105.505 475.001s80.834 253 117.501 313l84 -26c-24.667 -62.667 -65.334 -230 -122.001 -502c75.333 154 151.166 267 227.499 339s160.166 119.333 251.499 142v-135c-98 -4 -193 -70 -285 -198
c5.33301 -88.667 31.666 -162.5 78.999 -221.5s92 -88.5 134 -88.5c20.667 0 65 28.667 133 86l51 -45c-79.333 -130 -163 -194.667 -251 -194c-50.667 0 -102.334 32.667 -155.001 98s-84.334 128.666 -95.001 189.999c-8 -15.333 -31.167 -55 -69.5 -119
s-65.833 -116.333 -82.5 -157z" />
    <glyph glyph-name="afii10077" unicode="&#x43b;" horiz-adv-x="1179" 
d="M133 180l102.995 51c0 -24.667 9.16699 -45.834 27.5 -63.501s39.833 -26.5 64.5 -26.5c116 0 248.333 153 397 459c8 18 17.5 38.167 28.5 60.5s19.167 39.333 24.5 51s11.833 25 19.5 40s13.834 26.333 18.501 34s9.66699 14.834 15 21.501c12 12 26 18 42 18
s30.167 -7.5 42.5 -22.5s18.5 -32.333 18.5 -52s-25.667 -104.334 -77 -254.001s-77 -240.167 -77 -271.5s6.5 -54.5 19.5 -69.5s26 -22.5 39 -22.5s23 0.666992 30 2s13.833 4.16602 20.5 8.49902s12.334 7.83301 17.001 10.5s10.667 7.33398 18 14.001l14 16
c4 2.66699 9.83301 8.5 17.5 17.5s12.834 14.833 15.501 17.5l43 -35c-23.333 -57.333 -60 -105.666 -110 -144.999s-95 -59 -135 -59s-71.667 13.833 -95 41.5s-35 64.167 -35 109.5s7.66699 103.333 23 174c-62.667 -98 -131.667 -172.667 -207 -224
s-136.166 -77 -182.499 -77s-81.166 17 -104.499 51s-35 75.667 -35 125z" />
    <glyph glyph-name="afii10078" unicode="&#x43c;" horiz-adv-x="1427" 
d="M23 168l76.9971 74.001c0 -24.667 9.33301 -45.834 28 -63.501s40.334 -26.5 65.001 -26.5c45.333 0 106.5 38.167 183.5 114.5s147.5 176.5 211.5 300.5l48 97.5l40 81c8 16.333 17.667 34.166 29 53.499c18 30 36.333 45 55 45s34.167 -7.5 46.5 -22.5
s18.5 -32.5 18.5 -52.5s-5.66699 -42.833 -17 -68.5s-30 -60.834 -56 -105.501s-46.667 -81.334 -62 -110.001c-35.333 -92.667 -53 -156 -53 -190s9.16699 -60 27.5 -78s39.833 -27 64.5 -27c46.667 0 102.334 36 167.001 108s132 178.667 202 320
c8 18 17.5 38.333 28.5 61l24.5 51.5c5.33301 11.667 11.833 25 19.5 40s13.834 26.167 18.501 33.5s9.66699 14.333 15 21c12 12 26 18.167 42 18.5s30.167 -7 42.5 -22s18.5 -32.5 18.5 -52.5s-33.833 -104.667 -101.5 -254s-101.5 -239.666 -101.5 -270.999
s6.5 -54.5 19.5 -69.5s26 -22.5 39 -22.5s22.833 0.666992 29.5 2s13.5 4 20.5 8l17.5 10c4.66699 2.66699 10.334 7.33398 17.001 14.001l15 15c4 4 9.66699 10.5 17 19.5s12.333 14.833 15 17.5l43 -35c-23.333 -57.333 -59.833 -105.833 -109.5 -145.5
s-94.667 -59.5 -135 -59.5s-72 14 -95 42s-34.5 64.5 -34.5 109.5s7.33301 103.167 22 174.5c-64 -101.333 -132.833 -180.666 -206.5 -237.999s-135.834 -86 -186.501 -86c-76.667 -0 -115 48.333 -115 145c0 9.33301 9.66699 68.333 29 177
c-64 -100 -128.5 -174.833 -193.5 -224.5s-123.5 -74.5 -175.5 -74.5c-76.667 0 -114.667 48.333 -114 145z" />
    <glyph glyph-name="afii10079" unicode="&#x43d;" horiz-adv-x="997" 
d="M-16 295c0 4 36.502 15.5 109.502 34.5s127.167 31.5 162.5 37.5c109.333 251.333 183.666 396.666 222.999 435.999l88 -35l-47 -92c-61.333 -118.667 -103 -211.667 -125 -279c118.667 12 190 18.167 214 18.5s44.333 -0.166992 61 -1.5
c95.333 220 160.666 347.667 195.999 383l80 -19c-1.33301 -9.33301 -20.833 -50.5 -58.5 -123.5s-77.5 -168.667 -119.5 -287s-69.333 -237.5 -82 -357.5l-131 10c0 75.333 24 172.333 72 291c-12 1.33301 -36.833 2 -74.5 2s-106.5 -8.66699 -206.5 -26
c-69.333 -155.333 -104 -288.666 -104 -399.999l-138 19c0 96.667 36.333 216 109 358c-69.333 -10.667 -139 -27 -209 -49z" />
    <glyph glyph-name="afii10080" unicode="&#x43e;" horiz-adv-x="718" 
d="M41 246c0 130 50.498 246.503 151.498 349.503s214.167 154.5 339.5 154.5c23.333 0 40 -0.666992 50 -2l6 -68c-109.333 0 -200.166 -31.333 -272.499 -94s-108.5 -143.334 -108.5 -242.001c0 -58.667 14.333 -106.167 43 -142.5s70.667 -54.5 126 -54.5
s99.333 24.667 132 74s49 107.166 49 173.499s-13 126.5 -39 180.5l107 33c35.333 -58.667 53 -123.334 53 -194.001c0 -110.667 -38.167 -209.334 -114.5 -296.001s-166.5 -130 -270.5 -130c-79.333 0 -141.166 22.833 -185.499 68.5s-66.5 108.834 -66.5 189.501z" />
    <glyph glyph-name="afii10081" unicode="&#x43f;" horiz-adv-x="991" 
d="M29 31c26 158.667 63.167 313.332 111.5 463.999s92.833 258.667 133.5 324l84 -26c-38 -96.667 -86.333 -264 -145 -502c188.667 322 362 483 520 483c34 0 62.333 -11.5 85 -34.5s34 -50.333 34 -82s-4.16699 -60 -12.5 -85s-34 -83.667 -77 -176
s-64.5 -150.166 -64.5 -173.499s6.83301 -41.333 20.5 -54s26.667 -19 39 -19s22.666 2 30.999 6s17.5 10 27.5 18l27.5 22.5c8.33301 7 18.333 16.333 30 28s20.167 19.5 25.5 23.5l43 -33c-30 -60 -71.333 -110.5 -124 -151.5s-100.167 -61.5 -142.5 -61.5
s-75.666 12.333 -99.999 37s-36.5 55.334 -36.5 92.001s23.5 101.167 70.5 193.5s70.5 160.166 70.5 203.499c0 19.333 -7.83301 36.833 -23.5 52.5s-34.5 23.5 -56.5 23.5c-69.333 0 -139.5 -52.833 -210.5 -158.5s-150.167 -258.167 -237.5 -457.5z" />
    <glyph glyph-name="afii10082" unicode="&#x440;" horiz-adv-x="1054" 
d="M-139 -657c2.66699 8 28.1709 78.502 76.5039 211.502l142.5 396.5c128.667 360.667 192.667 558 192 592c0 87.333 -17.667 166.333 -53 237l103 51c42 -58.667 63 -120.334 63 -185.001s-13 -154.334 -39 -269.001c104 155.333 194.167 261.333 270.5 318
s143.166 85 200.499 85s101.666 -17.333 132.999 -52s47 -78.667 47 -132c0 -147.333 -52.833 -283.5 -158.5 -408.5s-224.834 -187.5 -357.501 -187.5c-58.667 -0 -105 10.333 -139 31l49 88c72.667 -9.33301 117 -14.333 133 -15c74 0 143 43 207 129s96 174.333 96 265
c0 34 -9.83301 62.167 -29.5 84.5s-45.167 33.5 -76.5 33.5c-75.333 0 -160.333 -66.167 -255 -198.5s-183.334 -296.5 -266.001 -492.5s-154.667 -404.333 -216 -625z" />
    <glyph glyph-name="afii10083" unicode="&#x441;" horiz-adv-x="788" 
d="M43 239.5c0 73.667 32.167 153.501 96.5 239.501s147.333 157 249 213s201.5 84 299.5 84c13.333 0 34 -1.33301 62 -4l-7 -80c-150 -6.66699 -274.5 -52.334 -373.5 -137.001s-148.5 -174.667 -148.5 -270c0 -39.333 12.333 -71.333 37 -96s56.667 -37 96 -37
c63.333 0 144 46.333 242 139l49 -41c-32.667 -75.333 -85.167 -135.5 -157.5 -180.5s-142.333 -67.5 -210 -67.5s-123.667 21.167 -168 63.5s-66.5 100.333 -66.5 174z" />
    <glyph glyph-name="afii10084" unicode="&#x442;" horiz-adv-x="1519" 
d="M33 41c6.66699 72.667 38.666 202.831 95.999 390.498s105.666 315.5 144.999 383.5l93 -33c-42 -94 -71.333 -173.5 -88 -238.5s-31 -134.167 -43 -207.5c117.333 168 215.5 285.833 294.5 353.5s150.5 101.5 214.5 101.5c69.333 0 104.333 -35 105 -105
c0 -27.333 -12 -81.333 -36 -162l-56 -190c188.667 303.333 357.334 454.666 506.001 453.999c36.667 0 65.834 -11.167 87.501 -33.5s32.5 -55.666 32.5 -99.999s-25.5 -117.666 -76.5 -219.999s-76.5 -166.833 -76.5 -193.5s5.5 -46.167 16.5 -58.5s24.5 -18.5 40.5 -18.5
c35.333 0 81.666 34 138.999 102l43 -41c-78 -139.333 -167.333 -209 -268 -209c-40.667 0 -72.334 11.333 -95.001 34s-34 52.834 -34 90.501s22.5 102.167 67.5 193.5s68.833 161 71.5 209c1.33301 22 -5.16699 39.667 -19.5 53s-33.666 20 -57.999 20
s-49.166 -5.66699 -74.499 -17s-50 -30 -74 -56s-45.833 -51.333 -65.5 -76s-41.5 -59.5 -65.5 -104.5l-60 -112.5l-123 -252l-123 43c0 4 22.5 81.167 67.5 231.5s67.5 239.833 67.5 268.5s-6.83301 49.5 -20.5 62.5s-30.834 19.5 -51.501 19.5
c-61.333 0 -146.166 -76.5 -254.499 -229.5s-177.5 -283.5 -207.5 -391.5z" />
    <glyph glyph-name="afii10085" unicode="&#x443;" horiz-adv-x="964" 
d="M6 -539c0 236 198 425.999 594 569.999l111 389c-117.333 -176 -223.333 -284.667 -318 -326c-46.667 -22 -95.5 -33 -146.5 -33s-91.833 16.5 -122.5 49.5s-46 80.833 -46 143.5s21.5 150.334 64.5 263.001s91.167 207.334 144.5 284.001l100 -43
c-4 -4 -23 -40.333 -57 -109c-60 -124 -90 -216 -90 -276s11.5 -100.333 34.5 -121s57 -31 102 -31s95.833 27 152.5 81s144.667 161 264 321l73 -43c-10.667 -45.333 -34.834 -127 -72.501 -245s-63.167 -208.667 -76.5 -272l166 66l6 -53
c-5.33301 -4 -69 -28.667 -191 -74c-16.667 -90 -37.5 -179 -62.5 -267s-50.167 -155 -75.5 -201s-55 -91.333 -89 -136c-68 -90 -160 -135 -276 -135c-57.333 0 -103.166 17.667 -137.499 53s-51.5 83.666 -51.5 144.999zM176 -436.001c0 -32.667 9.5 -59.333 28.5 -80
s42.833 -31 71.5 -31c137.333 0 241.333 172 312 516c-86 -39.333 -162 -84.333 -228 -135c-122.667 -92.667 -184 -182.667 -184 -270z" />
    <glyph glyph-name="afii10086" unicode="&#x444;" horiz-adv-x="833" 
d="M12 332c0 116 39.334 222.832 118.001 320.499s180 158.834 304 183.501c26 182.667 41.667 281.667 47 297l113 -35c0 -16.667 -18.167 -137.334 -54.5 -362.001s-61.833 -388 -76.5 -490c69.333 18 122.5 55.5 159.5 112.5s55.5 117.333 55.5 181
s-13.667 112.5 -41 146.5l106 33c16.667 -20.667 29.834 -50 39.501 -88s14.5 -68.667 14.5 -92c0 -98 -35.833 -190.167 -107.5 -276.5s-154.834 -142.5 -249.501 -168.5c-16.667 -109.333 -29 -208.333 -37 -297l-96 70c13.333 122.667 21.666 193.667 24.999 213
c-84.667 2.66699 -159.167 26.834 -223.5 72.501s-96.5 105.5 -96.5 179.5zM178.001 429.999c0 -40.667 17.833 -76.8311 53.5 -108.498s75.834 -54.834 120.501 -69.501l72 508c-72.667 -20.667 -131.834 -61.334 -177.501 -122.001s-68.5 -130 -68.5 -208z" />
    <glyph glyph-name="afii10087" unicode="&#x445;" horiz-adv-x="950" 
d="M41 35c26 62.667 137.332 193.665 333.999 392.998c-52 125.333 -80.667 228.333 -86 309l135 25c6.66699 -9.33301 33.334 -92 80.001 -248c172 122.667 294 201.334 366 236.001l39 -56c-23.333 -19.333 -64.333 -48.666 -123 -87.999
c-157.333 -106.667 -239.666 -164 -246.999 -172c74 -157.333 162 -292.333 264 -405l-96 -62c-112 82 -206.333 207 -283 375c-80.667 -72.667 -189.334 -190.667 -326.001 -354z" />
    <glyph glyph-name="afii10088" unicode="&#x446;" horiz-adv-x="1126" 
d="M57 137c0 91.333 31.832 214.495 95.499 369.495s109.167 243.5 136.5 265.5l98 -43c-56 -90 -98.333 -178.667 -127 -266s-43 -145.666 -43 -174.999s9.16699 -53 27.5 -71s39.833 -27 64.5 -27c54.667 0 122.667 50.333 204 151s164.333 250.667 249 450l104 -48
c-2.66699 -10.667 -33.667 -89.667 -93 -237s-89 -235.666 -89 -264.999s6.5 -51.166 19.5 -65.499s29 -21.5 48 -21.5s43.833 16 74.5 48s63.834 64 99.501 96s67.5 48 95.5 48s49.833 -8.5 65.5 -25.5s23.5 -39.167 23.5 -66.5c0 -69.333 -56 -219 -168 -449l-96 7
c0 1.33301 20.167 48 60.5 140s60.5 155.833 60.5 191.5s-11.667 53.5 -35 53.5c-18 0 -48.667 -33 -92 -99c-16.667 -24.667 -41 -47.167 -73 -67.5s-66.167 -30.5 -102.5 -30.5s-66 14.333 -89 43s-34.5 64.834 -34.5 108.501s7.33301 98.834 22 165.501
c-64 -100 -132.5 -177.833 -205.5 -233.5s-134.833 -83.5 -185.5 -83.5c-76.667 0 -115 45.667 -115 137z" />
    <glyph glyph-name="afii10089" unicode="&#x447;" horiz-adv-x="763" 
d="M18 492c0 65.333 18.1709 137.503 54.5039 216.503s74.166 134.167 113.499 165.5l90 -32c-64 -118.667 -96 -206.667 -96 -264s26.667 -86 80 -86c61.333 0 131.666 34 210.999 102s135.333 153.333 168 256l106 -59c-147.333 -260.667 -221 -441.667 -221 -543
c0 -46.667 18.167 -69.834 54.5 -69.501s73.5 19.5 111.5 57.5l58 -43c-13.333 -28.667 -42.333 -61.5 -87 -98.5s-96.334 -55.5 -155.001 -55.5c-79.333 0 -119 40.333 -119 121c0 46.667 9.83301 98.167 29.5 154.5s39.167 108.166 58.5 155.499s31 77 35 89
c-32.667 -46.667 -85.5 -94.834 -158.5 -144.501s-139.5 -74.5 -199.5 -74.5c-88.667 0 -133.334 50.667 -134.001 152z" />
    <glyph glyph-name="afii10090" unicode="&#x448;" horiz-adv-x="1308" 
d="M6 141.5c0 91.667 31.4932 214.164 94.4932 367.497s108.833 242.333 137.5 267l98 -43c-46.667 -75.333 -86.667 -161.666 -120 -258.999s-50 -159.333 -50 -186s7.5 -50 22.5 -70s31.5 -30 49.5 -30c50.667 0 128.834 73.833 234.501 221.5
s176.834 273.167 213.501 376.5l123 -53c-27.333 -36.667 -64.166 -110.667 -110.499 -222s-69.5 -182.666 -69.5 -213.999s9.5 -55.833 28.5 -73.5s38.167 -26.5 57.5 -26.5c49.333 0 122 62.333 218 187s170 257.334 222 398.001l121 -53c-8 -18 -30.667 -63 -68 -135
c-88.667 -168 -133 -284.667 -133 -350c0 -27.333 6.5 -48.5 19.5 -63.5s26.333 -22.5 40 -22.5s24 0.666992 31 2s13.833 4.33301 20.5 9s12.334 8.33398 17.001 11.001s10.834 7.83398 18.501 15.501l15.5 15.5c5.33301 8 15 19 29 33l43 -35
c-24.667 -57.333 -62 -105.833 -112 -145.5s-94.667 -59.5 -134 -59.5s-70.666 14.333 -93.999 43s-35 65.167 -35 109.5s7.33301 102.166 22 173.499c-65.333 -104 -131.166 -184 -197.499 -240s-125.833 -84 -178.5 -84c-74 0 -111 47 -111 141
c0 30 9.66699 90.333 29 181c-65.333 -102.667 -131.833 -182.334 -199.5 -239.001s-128.167 -85 -181.5 -85c-74 0 -111 45.833 -111 137.5z" />
    <glyph glyph-name="afii10091" unicode="&#x449;" horiz-adv-x="1665" 
d="M53 137c0 91.333 31.4971 213.832 94.4971 367.499s108.833 242.834 137.5 267.501l98 -43c-46.667 -75.333 -86.667 -161.666 -120 -258.999s-50 -159.333 -50 -186s7.16699 -49.334 21.5 -68.001s30.5 -28 48.5 -28c50.667 0 129.167 73.5 235.5 220.5
s177.833 271.5 214.5 373.5l123 -53c-27.333 -36.667 -64.166 -110.667 -110.499 -222s-69.5 -182.666 -69.5 -213.999s9.5 -55.833 28.5 -73.5s38.167 -26.5 57.5 -26.5c49.333 0 122 62.333 218 187s170 257.334 222 398.001l121 -53c-8 -18 -31.333 -63 -70 -135
c-87.333 -168 -131 -284.667 -131 -350c0 -27.333 6.5 -48.5 19.5 -63.5s29.5 -22.5 49.5 -22.5s45.333 16 76 48s63.667 64 99 96s67 48 95 48s49.833 -8.5 65.5 -25.5s23.5 -39.167 23.5 -66.5c0 -69.333 -56 -219 -168 -449l-96 7c0 1.33301 20.167 48 60.5 140
s60.5 155.833 60.5 191.5s-11.667 53.5 -35 53.5c-18 0 -48.667 -33 -92 -99c-16.667 -24.667 -41 -47.167 -73 -67.5s-66 -30.5 -102 -30.5s-65.667 14.333 -89 43s-35 65.167 -35 109.5s7.66699 102.166 23 173.499c-65.333 -104 -131.166 -184 -197.499 -240
s-126.166 -84 -179.499 -84c-74 0 -111 47 -111 141c0 30 9.66699 90.333 29 181c-65.333 -102.667 -131.833 -182.334 -199.5 -239.001s-128.167 -85 -181.5 -85c-74 0 -111 45.667 -111 137z" />
    <glyph glyph-name="afii10092" unicode="&#x44a;" horiz-adv-x="700" 
d="M-31 668c50.667 46.667 105.001 83.834 163.001 111.501s107.667 41.5 149 41.5c90 0 135 -27.333 135 -82c-0.666992 -43.333 -34.334 -151 -101.001 -323c110.667 49.333 190 73.833 238 73.5s80.833 -8 98.5 -23s26.5 -38.833 26.5 -71.5
c0 -86 -50.5 -172.667 -151.5 -260s-198.833 -131 -293.5 -131c-38 0 -69 11 -93 33s-36 50 -36 84s26.667 117.167 80 249.5s80 219.166 80 260.499c0 52 -24.667 78 -74 78c-28.667 0 -55.5 -9.33301 -80.5 -28l-70.5 -51.5l-41 -29.5zM264.001 217
c0 -20.667 8.16699 -40.832 24.5 -60.499s37.833 -29.5 64.5 -29.5s58.5 14.333 95.5 43s62 58.667 75 90s19.5 54 19.5 68c-4 38 -37 57 -99 57c-30 0 -81 -12.333 -153 -37c-18 -66.667 -27 -110.334 -27 -131.001z" />
    <glyph glyph-name="afii10093" unicode="&#x44b;" horiz-adv-x="923" 
d="M47 184c0 91.333 22.832 205.001 68.499 341.001s83.5 232 113.5 288l93 -31c-35.333 -104 -71.666 -231 -108.999 -381l27 13c91.333 42 169 63 233 63c75.333 2.66699 113 -28 113 -92c0 -84.667 -45.5 -168.334 -136.5 -251.001s-182.167 -124 -273.5 -124
c-86 0 -129 58 -129 174zM180.499 228.501c-0.333008 -32.333 7.33105 -58.001 22.998 -77.001s36.834 -28.5 63.501 -28.5s58.334 14 95.001 42s62.667 61.667 78 101c8 19.333 12.333 37 13 53c-4 36.667 -36.333 55.334 -97 56.001c-28.667 0 -81.667 -12.333 -159 -37
c-10.667 -40.667 -16.167 -77.167 -16.5 -109.5zM603.996 39c27.333 165.333 61.833 318.999 103.5 460.999s81.5 243.667 119.5 305l101 -12c-49.333 -127.333 -98 -294.666 -146 -501.999l-61 -271z" />
    <glyph glyph-name="afii10094" unicode="&#x44c;" horiz-adv-x="557" 
d="M16 174c0 91.333 22.999 205.001 68.999 341.001s84 232 114 288l92 -31c-35.333 -104 -71.666 -231 -108.999 -381c109.333 50.667 196 76 260 76c75.333 2.66699 113 -28 113 -92c0 -84.667 -45.333 -168.334 -136 -251.001s-182 -124 -274 -124
c-86 0 -129 58 -129 174zM149.999 218.501c0 -32.333 7.83301 -58.001 23.5 -77.001s36.667 -28.5 63 -28.5s58 14 95 42s63.167 61.667 78.5 101c8 18 12 35.667 12 53c-4 36.667 -36 55.334 -96 56.001c-28.667 0 -82 -12.333 -160 -37
c-10.667 -40.667 -16 -77.167 -16 -109.5z" />
    <glyph glyph-name="afii10095" unicode="&#x44d;" horiz-adv-x="813" 
d="M115 -37l12.002 102.999c151.333 65.333 264 158 338 278c-106.667 5.33301 -183 13 -229 23l-5 94c20.667 4 49.167 6 85.5 6s100.833 -1.33301 193.5 -4l16 74c0 69.333 -41 104 -123 104c-98 0 -190 -41 -276 -123l12 111c86 66.667 158.667 111.667 218 135
s117.666 35 174.999 35s101.5 -19.167 132.5 -57.5s46.5 -83.166 46.5 -134.499s-9 -102 -27 -152c38 0 68 -0.666992 90 -2l-29 -115c-38 1.33301 -77.333 2 -118 2c-53.333 -83.333 -125.833 -158.5 -217.5 -225.5s-189.834 -117.5 -294.501 -151.5z" />
    <glyph glyph-name="afii10096" unicode="&#x44e;" horiz-adv-x="1124" 
d="M-4 324c0 5.33301 29.666 15.5 88.999 30.5s106.666 25.167 141.999 30.5c109.333 251.333 184 396.666 224 435.999l88 -35l-69.5 -150.5l-102.5 -219.5l137 14c36.667 96.667 98 177.834 184 243.501s178.333 98.5 277 98.5c23.333 0 39.666 -0.666992 48.999 -2l6 -68
c-109.333 0 -200.166 -31.333 -272.499 -94s-108.5 -143 -108.5 -241c0 -58.667 14.333 -106.167 43 -142.5s68.334 -54.5 119.001 -54.5s94.667 22.5 132 67.5s56 99.5 56 163.5c0 30 -5.5 65.833 -16.5 107.5s-18.5 71.5 -22.5 89.5l107 33
c16.667 -20.667 29.667 -49.834 39 -87.501s14 -68.5 14 -92.5c0 -120 -37.5 -223.5 -112.5 -310.5s-165.833 -130.5 -272.5 -130.5c-79.333 0 -141.166 22.833 -185.499 68.5s-66.5 108.834 -66.5 189.501c0 26 1.33301 46 4 60c-24.667 -2.66699 -78 -10.334 -160 -23.001
c-56 -100 -84 -200.333 -84 -301l-122 10c0 76.667 24.333 166.334 73 269.001c-38 -2.66699 -94 -15.667 -168 -39z" />
    <glyph glyph-name="afii10097" unicode="&#x44f;" horiz-adv-x="974" 
d="M51 80c0 27.333 1.3291 51.9961 3.99609 73.9961l76 41c4 -5.33301 9.33301 -17.666 16 -36.999c13.333 -44 31.333 -66 54 -66c48 2.66699 93.333 24.5 136 65.5s68.334 84.167 77.001 129.5c-44 -8 -79.667 -12.167 -107 -12.5s-52.166 1.33398 -74.499 5.00098
s-45.166 10.167 -68.499 19.5c-49.333 19.333 -74 67.5 -74 144.5s40.333 157.167 121 240.5s175 125 283 125c57.333 0 101 -20.5 131 -61.5s45 -112.833 45 -215.5c0 -35.333 -5 -89 -15 -161c61.333 146 93.666 285 96.999 417l127 -22
c0 -95.333 -29.833 -240 -89.5 -434s-106.5 -317.667 -140.5 -371l-129 25c40.667 106.667 61.334 225.334 62.001 356.001c0 131.333 -9.66699 217.333 -29 258c-20.667 45.333 -54.5 68 -101.5 68s-92 -15.833 -135 -47.5s-65.167 -68.667 -66.5 -111
s14 -74.666 46 -96.999s67 -36.833 105 -43.5c104 -20.667 156 -46.667 156 -78c0 -26 -25.167 -67 -75.5 -123s-108.666 -107.5 -174.999 -154.5s-117 -70.5 -152 -70.5s-61 16 -78 48s-25.5 61.667 -25.5 89z" />
    <glyph glyph-name="afii10071" unicode="&#x451;" horiz-adv-x="821" 
d="M41 223c0 125.333 66.5 248.832 199.5 370.499s267.833 182.5 404.5 182.5c90 0 135 -35.333 135 -106c0 -74 -47.333 -148.5 -142 -223.5s-228 -143.167 -400 -204.5c12 -31.333 31 -56 57 -74s52.667 -27 80 -27c58 0.666992 137.667 34.334 239 101.001l48 -37
c-42 -58.667 -100 -107.5 -174 -146.5s-145.833 -58.5 -215.5 -58.5s-125.667 20.5 -168 61.5s-63.5 94.833 -63.5 161.5zM227 302.999c110.667 38 205.668 85.667 285.001 143s119 110 119 158c0 18 -6.83301 33.833 -20.5 47.5s-29.5 20.5 -47.5 20.5
c-64 0 -133.333 -40 -208 -120s-117.334 -163 -128.001 -249zM385.001 919.499c0 23 7.83105 42.333 23.498 58s34.834 23.5 57.501 23.5s41.834 -7.83301 57.501 -23.5s23.5 -34.667 23.5 -57s-7.83301 -41.333 -23.5 -57s-35.167 -23.5 -58.5 -23.5s-42.5 7.5 -57.5 22.5
s-22.5 34 -22.5 57zM644.999 919.499c0 23 7.83496 42.333 23.502 58s34.5 23.5 56.5 23.5s41.167 -7.83301 57.5 -23.5s24.5 -34.667 24.5 -57s-7.83301 -41.333 -23.5 -57s-34.834 -23.5 -57.501 -23.5s-41.834 7.5 -57.501 22.5s-23.5 34 -23.5 57z" />
    <glyph glyph-name="afii10099" unicode="&#x452;" horiz-adv-x="1005" 
d="M70 -424l48.9961 90.002c40.667 -10.667 63 -16 67 -16c70.667 0 150.834 50.833 240.501 152.5s164.167 218 223.5 349s89 238.833 89 323.5c0 28.667 -9.16699 52.167 -27.5 70.5s-41.833 27.5 -70.5 27.5c-62.667 0 -136 -50.5 -220 -151.5
s-157.333 -232.5 -220 -394.5l-125 51c48 240 150.333 544.333 307 913l-248 -35l-24 111c94 16.667 203 31.667 327 45c70.667 158.667 134.334 281 191.001 367l104 -37l-149 -314c110 12.667 190.333 19.667 241 21v-96l-297 -41
c-143.333 -316.667 -230.666 -550.334 -261.999 -701.001c160 282.667 324 424 492 424c46.667 0 87.334 -18 122.001 -54s52 -82 52 -138s-22.5 -139.333 -67.5 -250s-101.667 -221.334 -170 -332.001s-151 -206.667 -248 -288s-189.833 -122 -278.5 -122
c-44 0 -76.667 8.33301 -98 25z" />
    <glyph glyph-name="afii10100" unicode="&#x453;" horiz-adv-x="663" 
d="M86 100c0 30 25.999 74.834 77.999 134.501l156.5 179.5c52.333 60 78.5 103.667 78.5 131s-7.16699 50.166 -21.5 68.499s-37.833 27.5 -70.5 27.5s-92 -28 -178 -84l-18 72c61.333 48 126.5 87 195.5 117s122.5 45 160.5 45s67.667 -9 89 -27s32 -46 32 -84
s-43 -118.667 -129 -242l-55.5 -78c-19 -27.333 -33 -47 -42 -59s-17.5 -25 -25.5 -39c-13.333 -20.667 -20.166 -36.667 -20.499 -48s5.33398 -22.5 17.001 -33.5s23.334 -16.5 35.001 -16.5s21.667 1 30 3s17.166 6 26.499 12l25 16l69 47l41 -33
c-40.667 -54.667 -96.834 -103.167 -168.501 -145.5s-129 -63.5 -172 -63.5s-75.833 9.16699 -98.5 27.5s-34 42.5 -34 72.5zM194.999 885.001l270 159l139 -81l-350 -115z" />
    <glyph glyph-name="afii10101" unicode="&#x454;" horiz-adv-x="788" 
d="M43 239.5c0 73.667 32.166 153.5 96.499 239.5s147.333 157 249 213s201.5 84 299.5 84c13.333 0 34 -1.33301 62 -4l-7 -80c-105.333 -5.33301 -198.833 -30.5 -280.5 -75.5s-144.5 -100.833 -188.5 -167.5c58.667 8 142.667 14 252 18l-2 -76l-297 -53
c-4 -19.333 -6 -37 -6 -53c0 -39.333 12.333 -71.333 37 -96s56.667 -37 96 -37c62.667 0 143.334 46.333 242.001 139l49 -41c-32.667 -75.333 -85.167 -135.5 -157.5 -180.5s-142.333 -67.5 -210 -67.5s-123.667 21.167 -168 63.5s-66.5 100.333 -66.5 174z" />
    <glyph glyph-name="afii10102" unicode="&#x455;" horiz-adv-x="718" 
d="M12 190l78 56c19.333 -15.333 39.833 -33.5 61.5 -54.5s38.167 -35.833 49.5 -44.5c26 -23.333 54.667 -34.833 86 -34.5s58.5 11.666 81.5 33.999s34.5 50.333 34.5 84s-29.667 96.167 -89 187.5s-89 155.333 -89 192c0 66.667 28.333 117.834 85 153.501
s131.167 53.5 223.5 53.5s151.5 -5.33301 177.5 -16l-19 -80c-23.333 2.66699 -53.333 4 -90 4c-136.667 0 -205 -45 -205 -135c0 -19.333 27.667 -75.333 83 -168s83 -154.667 83 -186c0 -74 -24.833 -131.833 -74.5 -173.5s-116.167 -62.5 -199.5 -62.5
c-114.667 -0 -207 63.333 -277 190z" />
    <glyph glyph-name="afii10103" unicode="&#x456;" horiz-adv-x="589" 
d="M82 162c0 132.667 54.668 305.333 164.001 518l43 82l88 -53c-28.667 -52 -63.834 -134.667 -105.501 -248s-62.5 -186 -62.5 -218s6.83301 -54.833 20.5 -68.5s30.167 -20.5 49.5 -20.5c36.667 -0.666992 87.667 36 153 110l41 -35
c-32.667 -62.667 -76 -116.167 -130 -160.5s-102.667 -66.5 -146 -66.5c-76.667 0 -115 53.333 -115 160zM344.001 960.999c0 34 9.49902 62.502 28.499 85.502s43.667 34.5 74 34.5s55 -8.83301 74 -26.5s28.5 -40.834 28.5 -69.501s-8.16699 -55.334 -24.5 -80.001
s-38.166 -37 -65.499 -37c-76.667 0 -115 31 -115 93z" />
    <glyph glyph-name="afii10104" unicode="&#x457;" horiz-adv-x="589" 
d="M82 162c0 132.667 54.668 305.333 164.001 518l43 82l88 -53c-28.667 -52 -63.834 -134.667 -105.501 -248s-62.5 -186 -62.5 -218s6.83301 -54.833 20.5 -68.5s30.167 -20.5 49.5 -20.5c36.667 -0.666992 87.667 36 153 110l41 -35
c-32.667 -62.667 -76 -116.167 -130 -160.5s-102.667 -66.5 -146 -66.5c-76.667 0 -115 53.333 -115 160zM147.001 922.499c0 22.333 8 41.502 24 57.502s35.167 24 57.5 24s41.333 -8.33301 57 -25s23.5 -35.834 23.5 -57.501s-7.83301 -40.334 -23.5 -56.001
s-35 -23.5 -58 -23.5s-42.167 7.83301 -57.5 23.5s-23 34.667 -23 57zM408.001 922.501c0 22.333 7.83203 41.502 23.499 57.502s34.334 24 56.001 24s40.667 -8.33301 57 -25s24.5 -35.834 24.5 -57.501s-7.83301 -40.334 -23.5 -56.001s-34.667 -23.5 -57 -23.5
s-41.333 7.83301 -57 23.5s-23.5 34.667 -23.5 57z" />
    <glyph glyph-name="afii10105" unicode="&#x458;" horiz-adv-x="866" 
d="M-225 -362c0 116 50.501 221.332 151.501 315.999s247.833 176.334 440.5 245.001c61.333 233.333 135 462.666 221 687.999c26 68 40.333 109 43 123l102 -33c-38 -84.667 -84.667 -209.667 -140 -375s-88.333 -285.333 -99 -360l174 47
c2.66699 -24.667 4 -44.667 4 -60c-72.667 -18 -138.334 -38.333 -197.001 -61c-50.667 -243.333 -116.167 -427 -196.5 -551s-182.833 -186 -307.5 -186c-61.333 0 -109.333 18.333 -144 55s-52 87.334 -52 152.001zM-52.999 -283.001c0 -30 8.83398 -53.833 26.501 -71.5
s41.5 -26.5 71.5 -26.5c61.333 0 120.333 46.833 177 140.5s102 213.5 136 359.5c-170.667 -84.667 -278.334 -151.667 -323.001 -201c-58.667 -64 -88 -131 -88 -201zM680.002 1240c0 32 10.833 60.667 32.5 86s46.5 38 74.5 38s51.667 -9.83301 71 -29.5
s29 -44.167 29 -73.5s-7.16699 -57 -21.5 -83s-37.5 -39 -69.5 -39s-59.333 8.83301 -82 26.5s-34 42.5 -34 74.5z" />
    <glyph glyph-name="afii10106" unicode="&#x459;" horiz-adv-x="1114" 
d="M20 186l102.999 51.999c0 -24.667 9.16699 -46 27.5 -64s39.833 -27 64.5 -27c49.333 0 118 41.333 206 124s165.333 193 232 331c8 18 17.5 38.167 28.5 60.5l25 51l19.5 40c7.33301 15 13.5 26.333 18.5 34s10.833 14.834 17.5 21.501c10.667 12 23.834 18 39.501 18
s29.667 -7.5 42 -22.5s18.5 -29.667 18.5 -44s-8.66699 -41.166 -26 -80.499c-57.333 -130 -90.333 -238 -99 -324c82 50.667 168.667 76 260 76c75.333 2.66699 113 -28 113 -92c0 -84.667 -45.333 -168.334 -136 -251.001s-182 -124 -274 -124
c-45.333 0 -78.833 16.833 -100.5 50.5s-32.5 74 -32.5 121s7 103.167 21 168.5c-61.333 -95.333 -135.333 -168.333 -222 -219s-159.667 -76 -219 -76c-38 0 -68.667 17.167 -92 51.5s-35 75.833 -35 124.5zM704.999 183.499c0 -32.333 7.83301 -58.001 23.5 -77.001
s36.667 -28.5 63 -28.5s58 14 95 42s63.167 61.667 78.5 101c8 19.333 12 37 12 53c-4 36.667 -36 55.334 -96 56.001c-28.667 0 -82 -12.333 -160 -37c-10.667 -40.667 -16 -77.167 -16 -109.5z" />
    <glyph glyph-name="afii10107" unicode="&#x45a;" horiz-adv-x="1026" 
d="M-31 379c0 8 65.6719 22.332 197.005 42.999c131.333 302 216.666 472.667 255.999 512l88 -35c-13.333 -34 -88.333 -188.333 -225 -463c31.333 1.33301 82.166 6.83301 152.499 16.5s116.166 15.167 137.499 16.5c45.333 117.333 89.833 217.333 133.5 300
s77.167 135.667 100.5 159l80 -19c-1.33301 -12 -11 -33.667 -29 -65c-78 -136.667 -136.667 -259 -176 -367c6.66699 0 35 5.16699 85 15.5s90 15.5 120 15.5c95.333 0 143 -45 143 -135c0 -83.333 -36.833 -164.333 -110.5 -243s-171.834 -118 -294.501 -118
c-87.333 0 -131 48 -131 144c0 49.333 14.333 121 43 215c-87.333 0 -183 -9 -287 -27c-23.333 -50.667 -38 -96.167 -44 -136.5l-17.5 -115.5c-5.66699 -36.667 -9.83398 -62 -12.501 -76l-115 9c0 87.333 22.667 191 68 311c-30 -5.33301 -77 -17.666 -141 -36.999z
M643.505 266.499c-0.333008 -41 6.99902 -74.835 21.999 -101.502s37.5 -40 67.5 -40s60.667 12.333 92 37s53.5 53.334 66.5 86.001s19.5 59.334 19.5 80.001c0 46.667 -32 69.667 -96 69c-19.333 0 -49 -3.33301 -89 -10s-60.667 -10 -62 -10
c-13.333 -32.667 -20.166 -69.5 -20.499 -110.5z" />
    <glyph glyph-name="afii10108" unicode="&#x45b;" horiz-adv-x="1009" 
d="M66 109c54.667 281.333 156.334 591.671 305.001 931.004l-246 -34l-25 110c75.333 13.333 184 29 326 47l88 180c46.667 95.333 83 161 109 197l100 -33c-1.33301 -8 -52 -117 -152 -327c113.333 12 194.666 18.667 243.999 20v-96l-299 -43
c-113.333 -254 -204 -499.667 -272 -737c118.667 169.333 215.167 287.333 289.5 354s141.5 100 201.5 100c39.333 0 71.333 -10.5 96 -31.5s37 -48.333 37 -82s-7.16699 -68.834 -21.5 -105.501s-52.166 -119.334 -113.499 -248.001c-19.333 -38 -28.833 -68 -28.5 -90
s6.5 -40.167 18.5 -54.5s26.667 -21.5 44 -21.5s43.666 13.667 78.999 41l18 15l47 -39c-64 -106.667 -143 -160 -237 -160c-38 0 -69.333 10.167 -94 30.5s-37 45.666 -37 75.999s26.5 96.333 79.5 198s79.5 176.167 79.5 223.5c0 20.667 -8.5 38.5 -25.5 53.5
s-36.5 22.5 -58.5 22.5c-54.667 0 -126.667 -55.333 -216 -166s-161.333 -235.334 -216 -374.001z" />
    <glyph glyph-name="afii10109" unicode="&#x45c;" horiz-adv-x="929" 
d="M53 43c28.667 168 63.8379 326.334 105.505 475.001s80.834 253 117.501 313l84 -26c-24.667 -62.667 -65.334 -230 -122.001 -502c75.333 154 151.166 267 227.499 339s160.166 119.333 251.499 142v-135c-98 -4 -193 -70 -285 -198
c5.33301 -88.667 31.666 -162.5 78.999 -221.5s92 -88.5 134 -88.5c20.667 0 65 28.667 133 86l51 -45c-79.333 -130 -163 -194.667 -251 -194c-50.667 0 -102.334 32.667 -155.001 98s-84.334 128.666 -95.001 189.999c-8 -15.333 -31.167 -55 -69.5 -119
s-65.833 -116.333 -82.5 -157zM395.004 905.001l271 160l139 -82l-350 -115z" />
    <glyph glyph-name="afii10110" unicode="&#x45e;" horiz-adv-x="964" 
d="M6 -539c0 236 198 425.999 594 569.999l111 389c-117.333 -176 -223.333 -284.667 -318 -326c-46.667 -22 -95.5 -33 -146.5 -33s-91.833 16.5 -122.5 49.5s-46 80.833 -46 143.5s21.5 150.334 64.5 263.001s91.167 207.334 144.5 284.001l100 -43
c-4 -4 -23 -40.333 -57 -109c-60 -124 -90 -216 -90 -276s11.5 -100.333 34.5 -121s57 -31 102 -31s95.833 27 152.5 81s144.667 161 264 321l73 -43c-10.667 -45.333 -34.834 -127 -72.501 -245s-63.167 -208.667 -76.5 -272l166 66l6 -53
c-5.33301 -4 -69 -28.667 -191 -74c-16.667 -90 -37.5 -179 -62.5 -267s-50.167 -155 -75.5 -201s-55 -91.333 -89 -136c-68 -90 -160 -135 -276 -135c-57.333 0 -103.166 17.667 -137.499 53s-51.5 83.666 -51.5 144.999zM176 -436.001c0 -32.667 9.5 -59.333 28.5 -80
s42.833 -31 71.5 -31c137.333 0 241.333 172 312 516c-86 -39.333 -162 -84.333 -228 -135c-122.667 -92.667 -184 -182.667 -184 -270zM424 930l65 55c70.667 -69.333 129 -104 175 -104c69.333 0 128.666 32.667 177.999 98l61 -33c-27.333 -42 -62.5 -79.5 -105.5 -112.5
s-85.667 -49.5 -128 -49.5s-86.666 16.167 -132.999 48.5s-83.833 64.833 -112.5 97.5z" />
    <glyph glyph-name="afii10193" unicode="&#x45f;" horiz-adv-x="813" 
d="M10 242c0 60 21.498 146.332 64.498 258.999s91.167 207 144.5 283l100 -43l-33.5 -64.5l-54.5 -107.5c-44 -88.667 -65.667 -165 -65 -229c0 -117.333 46.333 -176 139 -176c101.333 0 251 186.333 449 559l73 -35c-60 -146 -141 -289.333 -243 -430
c-50.667 -68 -105 -124.167 -163 -168.5s-113 -67.5 -165 -69.5c-35.333 -91.333 -58.666 -167.666 -69.999 -228.999h-102c20.667 79.333 44 153.666 70 222.999c-39.333 6.66699 -73.166 31.334 -101.499 74.001s-42.5 94 -42.5 154z" />
    <glyph glyph-name="afii10050" unicode="&#x490;" horiz-adv-x="1464" 
d="M45 877c0 108 58.3311 202.165 174.998 282.498s274.667 120.5 474 120.5c16.667 0 91.834 -3.83301 225.501 -11.5s246.167 -11.5 337.5 -11.5c24.667 0 47.334 10.333 68.001 31s36.834 41.834 48.501 63.501s24.834 52.5 39.501 92.5l105 2
c-23.333 -95.333 -50.666 -163.666 -81.999 -204.999c-61.333 -79.333 -154.333 -119 -279 -119h-129c-90 -87.333 -168.833 -239.833 -236.5 -457.5s-148.167 -383.5 -241.5 -497.5s-204.333 -171 -333 -171c-50.667 0 -98.334 16.333 -143.001 49l47 78
c16.667 -8 35 -15.667 55 -23l29 -4c6.66699 -1.33301 17 -2 31 -2c68 0 129 32.833 183 98.5s110.667 189.667 170 372s105.666 303 138.999 362s91.666 124.833 174.999 197.5l-293 6c-299.333 0 -448.666 -65.333 -447.999 -196c0 -34 12.667 -61.667 38 -83
s63.166 -32 113.499 -32s116.5 23.333 198.5 70l31 -53c-42 -45.333 -89.833 -81 -143.5 -107s-107 -39 -160 -39s-98.667 17.833 -137 53.5s-57.5 80.167 -57.5 133.5z" />
    <glyph glyph-name="afii10098" unicode="&#x491;" horiz-adv-x="956" 
d="M63 61c4 9.33301 14.665 38.333 31.998 87l39 110c8.66699 24.667 20.667 61.834 36 111.501s27 93.167 35 130.5c22 98 33 187.333 33 268l108 12c0 -96.667 -24.667 -238 -74 -424c72.667 139.333 129.834 236.666 171.501 291.999s81.667 83 120 83
s67.333 -8.83301 87 -26.5s32.167 -36.834 37.5 -57.501c12 -56 26.333 -84 43 -84c30 0 56.667 24.167 80 72.5s37 95.833 41 142.5h113c-74 -243.333 -159.333 -364.666 -256 -363.999c-40.667 0 -65.334 28.667 -74.001 86c-4 22 -14.167 42.167 -30.5 60.5
s-40.333 27.5 -72 27.5s-64.167 -20.5 -97.5 -61.5s-61.666 -86.833 -84.999 -137.5l-88 -194.5c-35.333 -79 -64.666 -140.5 -87.999 -184.5z" />
    <glyph glyph-name="uni2000" unicode="&#x2000;" horiz-adv-x="791" 
 />
    <glyph glyph-name="uni2001" unicode="&#x2001;" horiz-adv-x="1583" 
 />
    <glyph glyph-name="uni2002" unicode="&#x2002;" horiz-adv-x="791" 
 />
    <glyph glyph-name="uni2003" unicode="&#x2003;" horiz-adv-x="1583" 
 />
    <glyph glyph-name="uni2004" unicode="&#x2004;" horiz-adv-x="527" 
 />
    <glyph glyph-name="uni2005" unicode="&#x2005;" horiz-adv-x="395" 
 />
    <glyph glyph-name="uni2006" unicode="&#x2006;" horiz-adv-x="263" 
 />
    <glyph glyph-name="uni2007" unicode="&#x2007;" horiz-adv-x="263" 
 />
    <glyph glyph-name="uni2008" unicode="&#x2008;" horiz-adv-x="197" 
 />
    <glyph glyph-name="uni2009" unicode="&#x2009;" horiz-adv-x="316" 
 />
    <glyph glyph-name="uni200A" unicode="&#x200a;" horiz-adv-x="87" 
 />
    <glyph glyph-name="uni2010" unicode="&#x2010;" 
d="M-27 555c118 23.333 267.667 38.333 449 45v-96l-424 -60z" />
    <glyph glyph-name="uni2011" unicode="&#x2011;" 
d="M-27 555c118 23.333 267.667 38.333 449 45v-96l-424 -60z" />
    <glyph glyph-name="figuredash" unicode="&#x2012;" 
d="M-27 555c118 23.333 267.667 38.333 449 45v-96l-424 -60z" />
    <glyph glyph-name="endash" unicode="&#x2013;" horiz-adv-x="792" 
d="M51 555c68 13.333 173.333 24.833 316 34.5s266.667 15.167 372 16.5v-96l-663 -66z" />
    <glyph glyph-name="emdash" unicode="&#x2014;" horiz-adv-x="1021" 
d="M-4 541c69.333 13.333 233 29.168 491 47.501s438.333 28.166 541 29.499v-96l-1008 -92z" />
    <glyph glyph-name="quoteleft" unicode="&#x2018;" horiz-adv-x="141" 
d="M43 1163c0 61.333 52 129 156 203l45 -66c-54.667 -44 -82.667 -67 -84 -69c42 -13.333 63 -35.333 63 -66c0 -24.667 -9.16699 -45.5 -27.5 -62.5s-40.833 -25.5 -67.5 -25.5s-47.5 7.83301 -62.5 23.5s-22.5 36.5 -22.5 62.5z" />
    <glyph glyph-name="quoteright" unicode="&#x2019;" horiz-adv-x="88" 
d="M-74 1139l30.999 23.5l36 27.5c8.66699 6.66699 14.334 12.667 17.001 18c-42 13.333 -63 35.333 -63 66c0 24.667 9.16699 45.5 27.5 62.5s40.833 25.5 67.5 25.5s47.5 -7.83301 62.5 -23.5s22.5 -36.5 22.5 -62.5c0 -60 -52 -127.667 -156 -203z" />
    <glyph glyph-name="quotesinglbase" unicode="&#x201a;" horiz-adv-x="315" 
d="M-4 -68c54.667 44 82.666 67.333 83.999 70c-42 13.333 -63.333 35.333 -64 66c0 24 9.33301 44.667 28 62s41.334 26 68.001 26s47.5 -7.83301 62.5 -23.5s22.5 -36.5 22.5 -62.5c0 -60 -52 -127.667 -156 -203z" />
    <glyph glyph-name="quotedblleft" unicode="&#x201c;" horiz-adv-x="391" 
d="M43 1163c0 61.333 52 129 156 203l45 -66c-54.667 -44 -82.667 -67 -84 -69c42 -13.333 63 -35.333 63 -66c0 -24.667 -9.16699 -45.5 -27.5 -62.5s-40.833 -25.5 -67.5 -25.5s-47.5 7.83301 -62.5 23.5s-22.5 36.5 -22.5 62.5zM291 1159
c0 61.333 51.668 129 155.001 203l46 -66l-31 -23.5l-36 -27.5c-8.66699 -6.66699 -14.334 -12.667 -17.001 -18c42 -13.333 63 -35.333 63 -66c0 -24.667 -9.16699 -45.5 -27.5 -62.5s-40.833 -25.5 -67.5 -25.5s-47.5 7.83301 -62.5 23.5s-22.5 36.5 -22.5 62.5z" />
    <glyph glyph-name="quotedblright" unicode="&#x201d;" horiz-adv-x="335" 
d="M-74 1143l30.999 23.5l36 27.5c8.66699 6.66699 14.334 12.667 17.001 18c-42 13.333 -63 35.333 -63 66c0 24.667 9.16699 45.5 27.5 62.5s40.833 25.5 67.5 25.5s47.5 -7.83301 62.5 -23.5s22.5 -36.5 22.5 -62.5c0 -60 -52 -127.667 -156 -203zM173.999 1139
c54.667 44 82.667 67 84 69c-42 13.333 -63 35.333 -63 66c0 24.667 9.5 45.834 28.5 63.501s41.5 26.167 67.5 25.5s46.5 -8.83398 61.5 -24.501s22.5 -36.5 22.5 -62.5c0 -60 -52 -127.667 -156 -203z" />
    <glyph glyph-name="quotedblbase" unicode="&#x201e;" horiz-adv-x="589" 
d="M-4 -68c54.667 44 82.666 67.333 83.999 70c-42 13.333 -63.333 35.333 -64 66c0 24 9.33301 44.667 28 62s41.334 26 68.001 26s47.5 -7.83301 62.5 -23.5s22.5 -36.5 22.5 -62.5c0 -60 -52 -127.667 -156 -203zM265.999 -68c54.667 44 82.667 67.333 84 70
c-42 13.333 -63 35.333 -63 66c0 24 9.16699 44.667 27.5 62s40.833 26 67.5 26s47.5 -7.83301 62.5 -23.5s22.5 -36.5 22.5 -62.5c0 -60 -52 -127.667 -156 -203z" />
    <glyph glyph-name="bullet" unicode="&#x2022;" horiz-adv-x="309" 
d="M55 516c0 31.333 11.333 58.333 34 81s49.667 34 81 34s58.333 -11.333 81 -34s34 -49.667 34 -81s-11.333 -58.333 -34 -81s-49.667 -34 -81 -34s-58.333 11.333 -81 34s-34 49.667 -34 81z" />
    <glyph glyph-name="ellipsis" unicode="&#x2026;" horiz-adv-x="942" 
d="M57 71.5c0 23 8.16699 42.833 24.5 59.5s36.166 25 59.499 25s43.166 -8.33301 59.499 -25s24.5 -36.5 24.5 -59.5s-8.16699 -42.667 -24.5 -59s-36.166 -24.5 -59.499 -24.5s-43.166 8.16699 -59.499 24.5s-24.5 36 -24.5 59zM389 71.5c0 23 8.16699 42.833 24.5 59.5
s36.166 25 59.499 25s43.166 -8.33301 59.499 -25s24.5 -36.5 24.5 -59.5s-8.16699 -42.667 -24.5 -59s-36.166 -24.5 -59.499 -24.5s-43.166 8.16699 -59.499 24.5s-24.5 36 -24.5 59zM719 71.5c0 23 8.16699 42.833 24.5 59.5s36.166 25 59.499 25
s43.166 -8.33301 59.499 -25s24.5 -36.5 24.5 -59.5s-8.16699 -42.667 -24.5 -59s-36.166 -24.5 -59.499 -24.5s-43.166 8.16699 -59.499 24.5s-24.5 36 -24.5 59z" />
    <glyph glyph-name="uni202F" unicode="&#x202f;" horiz-adv-x="316" 
 />
    <glyph glyph-name="guilsinglleft" unicode="&#x2039;" horiz-adv-x="464" 
d="M16 592c200.667 176 313.333 270 338 282l49 -61c-135.333 -128.667 -210.333 -203.667 -225 -225c31.333 -52 88 -118.333 170 -199l41 -39l-29 -102c-22 8 -110.667 94.667 -266 260z" />
    <glyph glyph-name="guilsinglright" unicode="&#x203a;" horiz-adv-x="456" 
d="M78 322c8 30 55.002 98.666 141.002 205.999l43 54c-20.667 32.667 -46.334 67.334 -77.001 104.001s-52 66 -64 88l67 109c75.333 -96 145.666 -193 210.999 -291l-268 -342z" />
    <glyph glyph-name="uni205F" unicode="&#x205f;" horiz-adv-x="395" 
 />
    <glyph glyph-name="Euro" unicode="&#x20ac;" horiz-adv-x="1228" 
d="M-2 449l7.99902 68.999c45.333 2.66699 109 4 191 4c13.333 40.667 34.333 89.334 63 146.001l-235 -11l8 64c75.333 12 164.666 18 267.999 18c57.333 105.333 133.5 199.333 228.5 282s187.5 143.834 277.5 183.501s163.667 59.5 221 59.5s99.666 -13.333 126.999 -40
s41 -67.334 41 -122.001s-24 -104 -72 -148c-82 -76.667 -185.667 -114.667 -311 -114l-10 67c4 1.33301 18.667 3 44 5s45.166 5.16699 59.499 9.5s31.5 11.166 51.5 20.499c40.667 16.667 61.334 51.667 62.001 105c0 24.667 -9.16699 44.667 -27.5 60
s-41.166 23 -68.499 23c-69.333 0 -140 -23.833 -212 -71.5s-130.167 -98.5 -174.5 -152.5s-82.833 -109.667 -115.5 -167c191.333 0 321.666 -4.66699 390.999 -14l-10 -74c-88.667 10.667 -228.667 16.334 -420 17.001c-22 -46.667 -37.667 -94.667 -47 -144
c234.667 -2.66699 370.334 -6 407.001 -10l-10 -72l-403 4c0 -190 104.333 -284.667 313 -284c82 0 146.5 11.833 193.5 35.5s70.5 68.5 70.5 134.5c0 15.333 -0.666992 27.666 -2 36.999l92 12c10.667 -39.333 16.334 -73.333 17.001 -102
c0 -87.333 -38 -155.666 -114 -204.999s-179.167 -74 -309.5 -74s-233.666 29.333 -309.999 88s-114.5 142 -114.5 250c0 34 4 71.667 12 113c-74 0 -134 -0.666992 -180 -2z" />
    <glyph glyph-name="uniE000" unicode="&#xe000;" horiz-adv-x="757" 
d="M0 0v758h758v-758h-758z" />
    <glyph glyph-name="glyph1" horiz-adv-x="0" 
 />
    <glyph glyph-name="glyph2" horiz-adv-x="682" 
 />
    </font>
</defs>
</svg>
